<svg id="a" data-name="Ebene 1" version="1.1" viewBox="0 0 91.72 36.32" xmlns="http://www.w3.org/2000/svg">
 <path d="m67.93 3.32c-1.19-0.61-2.02-0.98-3.56-1.3-0.21-0.04-0.52-0.1-0.91-0.18-0.19-0.04-0.41-0.08-0.63-0.12-0.55-0.1-1.11-0.19-1.68-0.3-0.65-0.1-1.31-0.21-1.97-0.31-1.34-0.2-2.71-0.38-4.13-0.53-5.64-0.61-11.86-0.8-18.22-0.27-3.18 0.26-6.39 0.71-9.57 1.28-3.18 0.58-6.36 1.2-9.46 2.07-6.18 1.7-12.05 4.95-15.5 9.86-1.7 2.43-2.64 5.39-2.19 8.15 0.21 1.36 0.73 2.64 1.47 3.69 0.74 1.06 1.62 1.91 2.52 2.64 1.81 1.45 3.67 2.43 5.35 3.18s3.18 1.27 4.42 1.66c2.49 0.77 3.92 1.07 3.92 1.07s1.42 0.35 3.98 0.79c2.56 0.43 6.24 0.93 10.74 1.26s9.81 0.47 15.6 0.27c5.78-0.2 12.04-0.83 18.31-2.2 3.14-0.69 6.26-1.53 9.35-2.55 3.08-1.04 6.1-2.31 8.83-4.04 2.72-1.73 5.15-4.09 6.34-7.08 0.61-1.47 0.85-3.07 0.78-4.6-0.02-0.77-0.15-1.55-0.37-2.28-0.11-0.36-0.24-0.72-0.4-1.07-0.07-0.18-0.17-0.34-0.25-0.51s-0.21-0.38-0.18-0.33c-0.54-0.95-1.14-1.61-1.44-1.94-1.16-1.16-2.09-1.53-3.38-1.84 1 0.89 1.61 1.48 2.65 2.54 0.27 0.29 0.81 0.89 1.29 1.74-0.03-0.04 0.09 0.14 0.16 0.29s0.15 0.3 0.22 0.45c0.14 0.31 0.25 0.63 0.35 0.95 0.19 0.65 0.31 1.33 0.33 2.03 0.07 1.4-0.15 2.84-0.71 4.18-1.08 2.71-3.34 4.95-5.94 6.6-5.3 3.32-11.69 5.03-17.85 6.46-6.2 1.35-12.4 1.99-18.13 2.18-5.74 0.19-11.03 0.06-15.49-0.27-4.47-0.32-8.12-0.82-10.64-1.25s-3.92-0.78-3.92-0.78-1.41-0.29-3.84-1.04c-1.21-0.39-2.68-0.9-4.31-1.62-1.62-0.73-3.42-1.67-5.12-3.04-0.84-0.69-1.67-1.49-2.32-2.43-0.66-0.94-1.12-2.06-1.31-3.27-0.4-2.44 0.43-5.12 2.02-7.41 1.58-2.3 3.86-4.26 6.42-5.85 2.57-1.6 5.48-2.75 8.51-3.61 3.04-0.86 6.2-1.47 9.36-2.05 3.16-0.56 6.33-1.01 9.47-1.27 6.29-0.53 12.44-0.33 18.03 0.27 1.4 0.15 2.76 0.33 4.08 0.52 0.66 0.11 1.31 0.21 1.96 0.31 0.56 0.1 1.12 0.2 1.66 0.29 0.23 0.04 0.44 0.08 0.63 0.12 0.38 0.07 0.69 0.13 0.9 0.17 1.52 0.3 2.41 0.33 3.76 0.3" fill="#00adea"/>
 <rect width="91.72" height="36.31" fill="none"/>
</svg>
