<?xml version="1.0" encoding="utf-8"?>
<!-- Generator: Adobe Illustrator 26.3.1, SVG Export Plug-In . SVG Version: 6.00 Build 0)  -->
<svg version="1.1" id="Ebene_1" xmlns="http://www.w3.org/2000/svg" xmlns:xlink="http://www.w3.org/1999/xlink" x="0px" y="0px"
	 viewBox="0 0 58 58.3" style="enable-background:new 0 0 58 58.3;" xml:space="preserve">
<style type="text/css">
	.st0{clip-path:url(#SVGID_00000151511829501720347480000007087235875278391985_);fill:#242A54;}
</style>
<g>
	<defs>
		<rect id="SVGID_1_" width="58" height="58.3"/>
	</defs>
	<clipPath id="SVGID_00000137120340234601921210000003283229021688781982_">
		<use xlink:href="#SVGID_1_"  style="overflow:visible;"/>
	</clipPath>
	<path style="clip-path:url(#SVGID_00000137120340234601921210000003283229021688781982_);fill:#242A54;" d="M43.7,35.8
		c-0.2-0.3-0.7-0.5-1.4-0.8c-0.7-0.4-4.3-2.1-4.9-2.3c-0.7-0.2-1.1-0.4-1.6,0.4c-0.5,0.7-1.9,2.3-2.3,2.8c-0.4,0.5-0.8,0.5-1.6,0.2
		c-0.7-0.4-3-1.1-5.8-3.6c-2.1-1.9-3.6-4.3-4-5s0-1.1,0.3-1.5c0.3-0.3,0.7-0.8,1.1-1.3c0.4-0.4,0.5-0.7,0.7-1.2
		c0.2-0.5,0.1-0.9-0.1-1.3c-0.2-0.4-1.6-3.9-2.2-5.4c-0.6-1.4-1.2-1.2-1.6-1.2l-1.4,0c-0.5,0-1.3,0.2-1.9,0.9
		c-0.7,0.7-2.5,2.5-2.5,6c0,3.6,2.6,7,2.9,7.5c0.4,0.5,5.1,7.8,12.3,10.9c1.7,0.7,3.1,1.2,4.1,1.5c1.7,0.5,3.3,0.5,4.5,0.3
		c1.4-0.2,4.3-1.7,4.9-3.4C43.9,37.5,43.9,36.1,43.7,35.8 M16,49.1c4.1,2.4,8,3.9,13.1,3.9c13.2,0,24-10.8,24-24
		c0-13.3-10.7-24-24-24c-13.3,0-24,10.8-24,24c0,5.4,1.6,9.5,4.2,13.7l-2.4,8.9L16,49.1z M0,58.3l4.1-15C1.6,39,0.2,34,0.2,28.9
		C0.2,13,13.2,0,29.1,0c7.7,0,15,3,20.4,8.5C55,13.9,58,21.2,58,28.9c0,15.9-13,28.9-28.9,28.9c-4.8,0-9.6-1.2-13.8-3.5L0,58.3"/>
</g>
</svg>
