<?xml version="1.0" encoding="utf-8"?>
<!-- Generator: Adobe Illustrator 26.3.1, SVG Export Plug-In . SVG Version: 6.00 Build 0)  -->
<svg version="1.1" xmlns="http://www.w3.org/2000/svg" xmlns:xlink="http://www.w3.org/1999/xlink" x="0px" y="0px"
	 viewBox="0 0 187.5 232.9" style="enable-background:new 0 0 187.5 232.9;" xml:space="preserve">
<style type="text/css">
	.st0{fill:#FFFFFF;}
	.st1{fill:#DFEAF8;}
	.st2{fill:#2A7FC2;}
	.st3{fill:#162259;}
	.st4{fill:#0F4988;}
	.st5{fill:#45B5CF;}
	.st6{fill:#00ADEA;}
	.st7{fill:none;stroke:#FFFFFF;stroke-width:0.7355;stroke-linecap:round;stroke-linejoin:round;stroke-miterlimit:10;}
	.st8{fill:none;stroke:#FFFFFF;stroke-width:0.7355;stroke-linecap:round;stroke-linejoin:round;}
	.st9{fill:none;stroke:#FFFFFF;stroke-width:0.7355;stroke-linecap:round;stroke-linejoin:round;stroke-dasharray:0,1.7852;}
	.st10{fill:none;stroke:#FFFFFF;stroke-width:0.737;stroke-linecap:round;stroke-linejoin:round;stroke-miterlimit:10;}
	.st11{fill:none;stroke:#FFFFFF;stroke-width:0.7325;stroke-linecap:round;stroke-miterlimit:10;}
	.st12{fill:none;stroke:#FFFFFF;stroke-width:0.7325;stroke-linecap:round;stroke-linejoin:round;stroke-miterlimit:10;}
	.st13{fill:none;stroke:#45B5CF;stroke-width:1.5178;stroke-miterlimit:10;}
	.st14{fill:none;stroke:#00ADEA;stroke-width:1.5178;stroke-miterlimit:10;}
	.st15{fill:none;stroke:#0F4988;stroke-width:1.5178;stroke-miterlimit:10;}
	.st16{fill:none;stroke:#2A7FC2;stroke-width:1.5178;stroke-miterlimit:10;}
	.st17{fill:none;stroke:#162259;stroke-width:1.518;stroke-miterlimit:10;}
	.st18{opacity:0.15;}
	.st19{fill:none;stroke:#45B5CF;stroke-width:1.518;stroke-miterlimit:10;}
	.st20{fill:none;stroke:#2A7FC2;stroke-width:1.518;stroke-miterlimit:10;}
	.st21{opacity:0.4;fill:#00ADEA;}
	.st22{opacity:0.6;fill:#00ADEA;}
	.st23{display:none;}
	.st24{display:inline;fill:#00ADEA;}
</style>
<g id="Funnel">
</g>
<g id="Rahmen">
</g>
<g id="Nurture">
	<polygon class="st0" points="1170.6,177.5 1467,179.2 1465.5,186.1 1418.8,281 1219.7,281 1195.7,233.4 	"/>
	<g id="Funnel_00000120543894310779894470000001156710968071906999_">
		<g>
			<path class="st1" d="M1467,177.5c0,9.9-66.4,17.8-148.2,17.8c-81.9,0-148.2-8-148.2-17.8c0-9.9,66.4-17.9,148.2-17.9
				C1400.6,159.6,1467,167.6,1467,177.5z"/>
		</g>
		<g>
			<path class="st2" d="M1219.7,281l20.1,41.3c7.8,7.3,38.2,14.1,79.4,14.1c41.1,0,71.6-6.9,79.4-14.1l20.1-41.3
				c-18,8.3-59.7,12.7-99.5,12.7S1237.7,289.3,1219.7,281z"/>
		</g>
		<g>
			<path class="st3" d="M1267,378l20.7,42.4c5.9,5.8,18,9.8,31.5,9.8c13.5,0,25.6-4,31.5-9.8l20.7-42.4c-11.2,5.8-30.2,9.5-52.2,9.5
				C1297.3,387.5,1278.3,383.8,1267,378z"/>
		</g>
		<g>
			<path class="st4" d="M1243.4,329.5l1,2.1l16.6,34.1h0c0,0,0,0,0,0l2.4,4.8c7.7,7.8,32.9,12.8,55.9,12.8c23,0,48.2-5.1,55.9-12.8
				c0,0,2.4-4.9,2.4-4.9h0l16.6-34.1l1-2.1c-15.5,7.3-46.3,11.1-75.9,11.1C1289.7,340.6,1258.9,336.7,1243.4,329.5z"/>
		</g>
		<g>
			<path class="st5" d="M1319.2,199.9c-51.3,0-123.4-4-146.2-14.6l20.1,41.3c6.4,7.2,53.2,16.1,126.1,16.1
				c72.9,0,119.7-8.9,126.1-16.1l20.1-41.3C1442.6,195.9,1370.5,199.9,1319.2,199.9z"/>
		</g>
		<g>
			<path class="st6" d="M1319.2,246.8c-34.6,0-67.2-2.1-91.8-5.8c-14-2.1-24.3-4.7-31-7.6l19.6,40.2c5.7,7.2,43.8,15.9,103.1,15.9
				c28.2,0,54.7-2,74.6-5.8c18-3.4,26.3-7.3,28.6-10.3l0.8-1.7l18.7-38.4c-6.6,2.9-16.9,5.4-31,7.6
				C1386.5,244.7,1353.9,246.8,1319.2,246.8z"/>
		</g>
	</g>
	<g>
		<path id="XMLID_00000040577058033820862460000005441917347729825179_" class="st7" d="M1324.4,215.5l1.1,2.2
			c0.1,0.2,0.3,0.3,0.5,0.4l2.4,0.3c0.1,0,0.1,0.1,0,0.2l-1.7,1.7c-0.2,0.2-0.2,0.4-0.2,0.6l0.4,2.4c0,0.1-0.1,0.1-0.1,0.1l-2.2-1.1
			c-0.2-0.1-0.4-0.1-0.6,0l-2.2,1.1c-0.1,0-0.1,0-0.1-0.1l0.4-2.4c0-0.2,0-0.4-0.2-0.6l-1.7-1.7c-0.1-0.1,0-0.1,0-0.2l2.4-0.3
			c0.2,0,0.4-0.2,0.5-0.4l1.1-2.2C1324.3,215.4,1324.4,215.4,1324.4,215.5z"/>
		<path id="XMLID_00000044892742803206387420000000912940556602633899_" class="st7" d="M1313.8,219.8l0.7,1.5
			c0.1,0.1,0.2,0.2,0.3,0.2l1.6,0.2c0.1,0,0.1,0.1,0,0.1l-1.2,1.2c-0.1,0.1-0.2,0.2-0.1,0.4l0.3,1.6c0,0,0,0.1-0.1,0.1l-1.5-0.8
			c-0.1-0.1-0.3-0.1-0.4,0l-1.5,0.8c0,0-0.1,0-0.1-0.1l0.3-1.6c0-0.1,0-0.3-0.1-0.4l-1.2-1.2c0,0,0-0.1,0-0.1l1.6-0.2
			c0.1,0,0.3-0.1,0.3-0.2l0.7-1.5C1313.7,219.8,1313.8,219.8,1313.8,219.8z"/>
		
			<line id="XMLID_00000093175626592542220060000001660548516404711304_" class="st7" x1="1318.1" y1="209.5" x2="1325.1" y2="209.5"/>
		<path id="XMLID_00000111167204415940331150000007500767357968363683_" class="st7" d="M1325.1,209.5h4.6c1.1,0,1.9,0.9,1.9,1.9
			v15.2c0,1.1-0.9,1.9-1.9,1.9h-21.8c-1.1,0-1.9-0.9-1.9-1.9v-15.8"/>
		<polyline id="XMLID_00000126286066168460058190000007440940899822062481_" class="st7" points="1312.3,228.5 1311.1,231.5 
			1318.8,231.5 1326.5,231.5 1325.3,228.5 		"/>
		<path id="XMLID_00000174572146590945369220000017019288267892337317_" class="st7" d="M1329.6,233.7l2.2,4
			c0.3,0.6-0.1,1.3-0.8,1.3h-12.2h-12.2c-0.7,0-1.1-0.7-0.8-1.3l2.2-4H1329.6z"/>
		<polygon class="st1" points="1307.5,237.6 1308.9,235.2 1328.7,235.2 1330,237.6 		"/>
		<g id="XMLID_00000144315068934969369950000008479923779697098415_">
			<path id="XMLID_00000099642011099425731120000000153517389162144921_" class="st7" d="M1310.6,206.8c-1.9,1.9-3.9,3.1-4.5,2.5
				c-0.5-0.5,0.6-2.5,2.5-4.5c1.9-1.9,3.9-3.1,4.5-2.5C1313.7,202.8,1312.5,204.8,1310.6,206.8z"/>
			<path id="XMLID_00000013888079546658538300000002451272035397091256_" class="st7" d="M1307.4,209.2c1.8,0.2,4.3,2,5.6,3
				c0.4,0.3,0.4,0.9,0.1,1.3l-2.9,2.9c-0.1,0.1-0.1,0.3,0,0.5l1,1c0.1,0.1,0.3,0.1,0.5,0l3.6-3.6l1.4,1.4c0.2,0.2,0.5,0.2,0.6,0
				l2.2-2.2c0.2-0.2,0.2-0.5,0-0.6l-2.9-2.9c0,0-3.3-3.8-3.6-6.3"/>
			<path id="XMLID_00000125585736438784709910000013044924878561269936_" class="st7" d="M1319.1,213.7l0.2,0.2
				c0.4,0.4,0.4,1.1,0,1.6l0,0c-0.4,0.4-1.1,0.4-1.6,0l-0.2-0.2"/>
			
				<line id="XMLID_00000015334219990421039130000011526780681374056887_" class="st7" x1="1315.2" y1="214.2" x2="1314.5" y2="213.5"/>
		</g>
	</g>
	<g>
		<path class="st7" d="M1326.2,254.5c-1.9,0-3.4,1.5-3.4,3.4v4v19.7h-20v-23.7c0-1.9,1.5-3.4,3.4-3.4h6.6"/>
		<path class="st7" d="M1328.2,281.7h5.1c0.8,0,1.5-0.7,1.5-1.5v-9c0-0.8-0.7-1.5-1.5-1.5h-5.1c-0.8,0-1.5,0.7-1.5,1.5v9
			C1326.7,281,1327.3,281.7,1328.2,281.7z"/>
		<path class="st7" d="M1330.7,269.6v-10.8c0-2.4-1.7-4.3-4.1-4.3h-0.4"/>
		<g>
			<line class="st7" x1="1330.7" y1="272" x2="1330.7" y2="269.6"/>
			<circle class="st7" cx="1330.7" cy="273" r="1"/>
		</g>
		<g>
			<g>
				<g>
					<line class="st7" x1="1312.8" y1="254.5" x2="1312.8" y2="254.5"/>
					<g>
						<g>
							<g>
								<line class="st8" x1="1314.9" y1="254.5" x2="1314.9" y2="254.5"/>
								<line class="st9" x1="1316.6" y1="254.5" x2="1321.1" y2="254.5"/>
								<line class="st8" x1="1322" y1="254.5" x2="1322" y2="254.5"/>
							</g>
						</g>
					</g>
				</g>
			</g>
		</g>
		<circle id="XMLID_00000146501912986413775840000000377119262527918468_" class="st7" cx="1312.8" cy="274.4" r="4.2"/>
		
			<line id="XMLID_00000115515103719841568910000002965242816612751508_" class="st7" x1="1311.1" y1="272.8" x2="1314.5" y2="276.1"/>
		
			<line id="XMLID_00000109707999668405718990000014742174091053296008_" class="st7" x1="1311.1" y1="276.1" x2="1314.5" y2="272.8"/>
		<circle id="XMLID_00000039108033993862230130000004675214993486731185_" class="st7" cx="1312.8" cy="262" r="3.9"/>
		<g id="XMLID_00000147898716405322433180000014372603051545523886_">
			<polyline id="XMLID_00000031917498221768380570000005462620312491718333_" class="st7" points="1311.1,262.2 1312.5,263.4 
				1314.6,260.8 			"/>
		</g>
		<path class="st1" d="M1328.1,274.9v3.2c0,1.2,1,2.1,2.1,2.1h1c1.1,0,2-0.8,2.1-1.9c-0.9-0.1-1.7-0.2-2.5-0.6
			C1329.7,277.1,1328.7,276.1,1328.1,274.9z"/>
	</g>
	<g>
		<path class="st7" d="M1325.4,310.2c2.1,2.4,3,5.1,3,8.3c0,7.2-5.8,13-13,13c-7.2,0-13-5.8-13-13c0-7.2,5.8-13,13-13
			c3.1,0,6,1,8.2,2.9"/>
		<path class="st7" d="M1321.4,314.3c0.8,0.7,1.3,2.7,1.3,4.2c0,4.1-3.3,7.4-7.4,7.4s-7.4-3.3-7.4-7.4c0-4.1,3.3-7.4,7.4-7.4
			c1.5,0,3.1,0.4,4.2,1.3"/>
		<path class="st1" d="M1303.8,318.5c0,6.4,5.2,11.5,11.5,11.5c5.5,0,10.2-3.9,11.3-9.1h-2.8c-1.1,3.7-4.5,6.4-8.5,6.4
			c-4.9,0-8.8-4-8.8-8.8s4-8.8,8.8-8.8v-2.7C1309,306.9,1303.8,312.1,1303.8,318.5z"/>
		<g>
			<line class="st7" x1="1317.4" y1="316.1" x2="1325.4" y2="308.3"/>
			<polyline class="st7" points="1329.8,308.2 1325.4,308.3 1325.3,303.9 			"/>
			<polyline class="st7" points="1332.5,305.5 1328.1,305.5 1328.1,301.1 			"/>
			<polyline class="st7" points="1335.3,302.8 1330.9,302.8 1330.8,298.4 			"/>
			<polyline class="st7" points="1316,314.7 1316.1,317.4 1319,317.5 			"/>
		</g>
		<path class="st7" d="M1318.6,319.2c-0.3,1.6-1.7,2.7-3.4,2.7c-1.9,0-3.5-1.6-3.5-3.5c0-1.7,1.2-3.1,2.8-3.4"/>
	</g>
	<g>
		<g>
			<path class="st10" d="M1321.1,361c0,0.5,0.4,1,1,1s1-0.4,1-1s-0.4-0.8-1-1c-0.5-0.2-1-0.4-1-1s0.4-1,1-1s1,0.4,1,1"/>
			<line class="st10" x1="1322.1" y1="357.6" x2="1322.1" y2="358.1"/>
			<line class="st10" x1="1322.1" y1="362" x2="1322.1" y2="362.6"/>
		</g>
		<path class="st10" d="M1312.1,358.9h-4c-0.3,0-0.6,0.2-0.7,0.6l-1.5,8.6c-0.1,0.4,0.2,0.8,0.7,0.8h24.5c0.4,0,0.8-0.4,0.7-0.8
			l-1.5-8.6c-0.1-0.3-0.3-0.6-0.7-0.6h-4.1"/>
		<polyline class="st10" points="1327.9,361.8 1328.4,365.5 1326.2,365.5 1319.2,365.5 1311.5,365.5 1309.3,365.5 1309.8,361.8 		
			"/>
		<line class="st10" x1="1306" y1="368.4" x2="1306" y2="376"/>
		<line class="st10" x1="1331.8" y1="368.4" x2="1331.8" y2="376"/>
		<rect x="1318.1" y="371.5" class="st1" width="10.3" height="3.4"/>
		<line class="st10" x1="1315.8" y1="353.2" x2="1323.4" y2="353.2"/>
		<line class="st10" x1="1314" y1="358.9" x2="1318.5" y2="358.9"/>
		<line class="st10" x1="1314" y1="361.7" x2="1318.5" y2="361.7"/>
		<g>
			<path class="st10" d="M1312.1,363.5v-13.1c0-1.6,1.3-2.9,2.9-2.9h10.4"/>
			<line class="st10" x1="1325.5" y1="353.2" x2="1325.5" y2="363.5"/>
			<path class="st10" d="M1325.5,347.4c1.3,0,2.4,1.1,2.4,2.4c0,0.7-0.3,1.2-0.7,1.7l-12.5,0c0.4-0.4,0.7-1,0.7-1.7
				c0-0.2,0-0.4-0.1-0.6"/>
		</g>
		<g>
			<line class="st10" x1="1309.8" y1="371.8" x2="1310.5" y2="371.8"/>
			<line class="st10" x1="1311.6" y1="371.8" x2="1312.2" y2="371.8"/>
			<line class="st10" x1="1313.3" y1="371.8" x2="1314" y2="371.8"/>
			<line class="st10" x1="1309.8" y1="373.4" x2="1310.5" y2="373.4"/>
			<line class="st10" x1="1311.6" y1="373.4" x2="1312.2" y2="373.4"/>
			<line class="st10" x1="1313.3" y1="373.4" x2="1314" y2="373.4"/>
			<line class="st10" x1="1309.8" y1="374.9" x2="1310.5" y2="374.9"/>
			<line class="st10" x1="1311.6" y1="374.9" x2="1312.2" y2="374.9"/>
			<line class="st10" x1="1313.3" y1="374.9" x2="1314" y2="374.9"/>
		</g>
	</g>
	<g>
		<g>
			<g>
				<g>
					<g>
						<g>
							<path class="st11" d="M1331.8,402l1.8,1.5c0.5,0.4,0.9,1.1,0.9,1.8v3.8c0,1.2-0.9,2.1-2.1,2.1l0,0"/>
							<path class="st11" d="M1332.2,405.8l0,1.2v12.4c0,1-0.8,1.8-1.8,1.8h-0.6"/>
							<path class="st11" d="M1325,414.9v4.5c0,1,0.8,1.8,1.8,1.8l0,0c1,0,1.8-0.8,1.8-1.8v-7.2"/>
							<circle class="st11" cx="1328.6" cy="397.7" r="3.7"/>
							<path class="st1" d="M1309.3,395.5c-0.4,0-0.8,0.1-1.1,0.3c0.7,0.4,1.1,1.1,1.1,1.9c0,0.8-0.4,1.5-1.1,1.9
								c0.3,0.2,0.7,0.3,1.1,0.3c1.2,0,2.2-1,2.2-2.2C1311.5,396.5,1310.6,395.5,1309.3,395.5z"/>
							<path class="st1" d="M1328.9,395.5c-0.4,0-0.8,0.1-1.1,0.3c0.7,0.4,1.1,1.1,1.1,1.9c0,0.8-0.4,1.5-1.1,1.9
								c0.3,0.2,0.7,0.3,1.1,0.3c1.2,0,2.2-1,2.2-2.2C1331.1,396.5,1330.1,395.5,1328.9,395.5z"/>
						</g>
					</g>
				</g>
			</g>
			<g>
				<g>
					<g>
						<g>
							<path class="st11" d="M1305.9,402l-1.8,1.5c-0.5,0.4-0.9,1.1-0.9,1.8v3.8c0,1.2,0.9,2.1,2.1,2.1l0,0"/>
							<path class="st11" d="M1312.7,414.9v4.5c0,1-0.8,1.8-1.8,1.8h-0.6"/>
							<path class="st11" d="M1305.5,405.8l0,1.2v12.4c0,1,0.8,1.8,1.8,1.8l0,0c1,0,1.8-0.8,1.8-1.8v-7.2"/>
							<circle class="st11" cx="1309.1" cy="397.7" r="3.7"/>
						</g>
					</g>
				</g>
			</g>
		</g>
		<g>
			<g>
				<polyline class="st12" points="1322.8,407.6 1323.7,408.7 1324.8,407.8 				"/>
			</g>
			<g>
				<polyline class="st12" points="1314.9,408.7 1313.8,407.8 1312.9,408.9 				"/>
			</g>
			<path class="st11" d="M1313.9,406.5c0.5-2.2,2.5-3.9,4.9-3.9c2.5,0,4.5,1.8,4.9,4.1"/>
			<path class="st11" d="M1323.3,409.8c-0.8,1.7-2.5,2.8-4.5,2.8c-2,0-3.8-1.2-4.6-2.9"/>
			
				<ellipse transform="matrix(0.1679 -0.9858 0.9858 0.1679 695.55 1639.2898)" class="st12" cx="1318.9" cy="407.6" rx="8" ry="8"/>
		</g>
	</g>
	<g>
		<g>
			<line class="st5" x1="1414.3" y1="209.5" x2="1485" y2="209.5"/>
			<g>
				<line class="st13" x1="1414.3" y1="209.5" x2="1481.2" y2="209.5"/>
				<g>
					<path class="st5" d="M1481,213.5c2.2,0,4-1.8,4-4s-1.8-4-4-4s-4,1.8-4,4S1478.8,213.5,1481,213.5z"/>
				</g>
			</g>
		</g>
		<g>
			<line class="st5" x1="1414.3" y1="257.8" x2="1485" y2="257.8"/>
			<g>
				<line class="st14" x1="1414.3" y1="257.8" x2="1481.2" y2="257.8"/>
				<g>
					<path class="st6" d="M1481,261.8c2.2,0,4-1.8,4-4s-1.8-4-4-4s-4,1.8-4,4S1478.8,261.8,1481,261.8z"/>
				</g>
			</g>
		</g>
		<g>
			<line class="st5" x1="1366.4" y1="354.4" x2="1485" y2="354.4"/>
			<g>
				<line class="st15" x1="1366.4" y1="354.4" x2="1481.2" y2="354.4"/>
				<g>
					<path class="st4" d="M1481,358.4c2.2,0,4-1.8,4-4s-1.8-4-4-4s-4,1.8-4,4S1478.8,358.4,1481,358.4z"/>
				</g>
			</g>
		</g>
		<g>
			<line class="st5" x1="1385" y1="306.1" x2="1485" y2="306.1"/>
			<g>
				<line class="st16" x1="1385" y1="306.1" x2="1481.2" y2="306.1"/>
				<g>
					<path class="st2" d="M1481,310.1c2.2,0,4-1.8,4-4c0-2.2-1.8-4-4-4s-4,1.8-4,4C1477,308.3,1478.8,310.1,1481,310.1z"/>
				</g>
			</g>
		</g>
		<g>
			<line class="st5" x1="1354.5" y1="402.7" x2="1485" y2="402.7"/>
			<g>
				<line class="st17" x1="1354.5" y1="402.7" x2="1481.2" y2="402.7"/>
				<g>
					<path class="st3" d="M1481,406.7c2.2,0,4-1.8,4-4s-1.8-4-4-4c-2.2,0-4,1.8-4,4S1478.8,406.7,1481,406.7z"/>
				</g>
			</g>
		</g>
	</g>
	<g>
		<g class="st18">
			<path class="st0" d="M1254.2,360.9h-162.9c-0.8,0-1.4-0.6-1.4-1.4v-171c0-0.8,0.6-1.4,1.4-1.4h77.8"/>
		</g>
		<g>
			<path class="st0" d="M1254.2,360.9h-162.9c-0.8,0-1.4-0.6-1.4-1.4v-171c0-0.8,0.6-1.4,1.4-1.4h77.8"/>
			<path class="st19" d="M1254.2,360.9h-162.9c-0.8,0-1.4-0.6-1.4-1.4v-171c0-0.8,0.6-1.4,1.4-1.4h77.8"/>
		</g>
	</g>
	<g>
		<g class="st18">
			<path class="st0" d="M1283.1,419.8h-156.9c-0.8,0-1.4-0.6-1.4-1.4V298.6c0-0.8,0.6-1.4,1.4-1.4h96.8"/>
		</g>
		<g>
			<path class="st0" d="M1283.1,419.8h-156.9c-0.8,0-1.4-0.6-1.4-1.4V298.6c0-0.8,0.6-1.4,1.4-1.4h96.8"/>
			<path class="st17" d="M1283.1,419.8h-156.9c-0.8,0-1.4-0.6-1.4-1.4V298.6c0-0.8,0.6-1.4,1.4-1.4h96.8"/>
		</g>
	</g>
	<g>
		<g class="st18">
			<path class="st0" d="M1235.2,322.1h-74.4c-0.8,0-1.4-0.6-1.4-1.4v-85.9c0-0.8,0.6-1.4,1.4-1.4h30.9"/>
		</g>
		<g>
			<path class="st0" d="M1235.2,322.1h-74.5c-0.8,0-1.4-0.6-1.4-1.4v-85.9c0-0.8,0.6-1.4,1.4-1.4h31"/>
			<path class="st20" d="M1235.2,322.1h-74.5c-0.8,0-1.4-0.6-1.4-1.4v-85.9c0-0.8,0.6-1.4,1.4-1.4h31"/>
		</g>
	</g>
	<text transform="matrix(1 0 0 1 1169.674 291.3151)" class="st2" style="font-family:'SourceSansPro-Bold'; font-size:12.2197px;">Nurture</text>
	<text transform="matrix(1 0 0 1 1189.8798 368.66)" class="st3" style="font-family:'SourceSansPro-Bold'; font-size:12.2197px;">Sales</text>
	<text transform="matrix(1 0 0 1 1097.905 247.2735)" class="st5" style="font-family:'SourceSansPro-Bold'; font-size:12.2197px;">Marketing</text>
	<g>
		
			<image style="overflow:visible;opacity:0.5;" width="2282" height="1330" xlink:href="E044B287.png"  transform="matrix(0.24 0 0 0.24 1044.9775 -292.3026)">
		</image>
		<g>
			<path class="st0" d="M1170.9-182.9c0.2,0,5.1-16.6,5.6-18.2c3.8-10.5,12.1-19.5,21.9-24.8c14.9-7.9,33.2-6.6,48.7-1.2
				c0.1,0,0.1,0,0.2,0.1c0,0,29.9-20.1,60-17.9c33.3,2.4,54.2,22.5,54.2,22.5s31-6.5,48.4-1.4c26.6,7.9,38,24.3,38,24.3
				c0.2,0.3,8.8-1.9,9.5-2c27.4-4.4,58,0.6,75.8,23.9c9.5,12.5,13.8,28.8,11.7,44.4c-2.1,15.2-13.2,26.8-26.1,34.2
				c-7.1,4.1-14.9,7.1-22.9,9c-0.5,0.1-0.9,0.2-1.4,0.3c0.3-0.1-0.1,9.9-0.1,10.4c-1.6,18.7-16.6,34.8-32.8,42.9
				c-15.3,7.7-32.9,8.6-49.4,4.6c-1.5-0.4-2.9-0.7-4.3-1.2c-7.4-2.2-14.4-5.6-20.9-9.9c-2.8-1.9-5.5-3.9-8.1-6.1
				c-2.7-2.3-5.3-4.6-7.3-7.5c-12,22.7-39.9,35.2-64.5,36.3c-24.9,1.2-52.8-9.1-68.1-29.6c0.7,0.9-13.8,10-14.7,10.5
				c-8.8,4.7-18.4,7.1-28.3,4.9c-14.5-3.2-28.1-16.8-31.6-31.3c0-0.2-11.2-0.5-12-0.6c-8.5-0.8-16.5-2.9-24.6-5.4
				c-14.1-4.2-26.1-14.3-32-27.9c-0.5-1.2-1-2.4-1.4-3.7c-3.5-10.5-3.2-22.1,0-32.8c9.4-30.7,40-44.4,69.8-46.7
				C1166.5-182.8,1168.7-183,1170.9-182.9z"/>
		</g>
	</g>
	
		<text transform="matrix(1 0 0 1 1355.9364 -180.9243)" class="st4" style="font-family:'SourceSansPro-Bold'; font-size:12.2197px;">Incentives</text>
	
		<text transform="matrix(1 0 0 1 1359.1249 -142.5131)" class="st4" style="font-family:'SourceSansPro-Bold'; font-size:12.2197px;">Demos</text>
	
		<text transform="matrix(1 0 0 1 1204.6537 -188.103)" class="st6" style="font-family:'SourceSansPro-Bold'; font-size:12.2197px;">PR</text>
	<text transform="matrix(1 0 0 1 1263.83 -205.6401)"><tspan x="0" y="0" class="st6" style="font-family:'SourceSansPro-Bold'; font-size:12.2197px;">References/ </tspan><tspan x="-2.7" y="13.4" class="st6" style="font-family:'SourceSansPro-Bold'; font-size:12.2197px;">Testimonials</tspan></text>
	
		<text transform="matrix(1 0 0 1 1265.1283 -128.9692)" class="st4" style="font-family:'SourceSansPro-Bold'; font-size:12.2197px;">Webinars</text>
	
		<text transform="matrix(1 0 0 1 1234.4335 -158.7856)" class="st4" style="font-family:'SourceSansPro-Bold'; font-size:12.2197px;">Email-Marketing</text>
	
		<text transform="matrix(1 0 0 1 1436.8427 -152.8335)" class="st4" style="font-family:'SourceSansPro-Bold'; font-size:12.2197px;">Telemarketing</text>
	
		<text transform="matrix(1 0 0 1 1118.4462 -111.1255)" class="st4" style="font-family:'SourceSansPro-Bold'; font-size:12.2197px;">Content Syndication</text>
	
		<text transform="matrix(1 0 0 1 1334.3524 -106.2378)" class="st4" style="font-family:'SourceSansPro-Bold'; font-size:12.2197px;">Events</text>
	<text transform="matrix(1 0 0 1 1411.0018 -90.0297)"><tspan x="0" y="0" class="st6" style="font-family:'SourceSansPro-Bold'; font-size:12.2197px;">Trial/ </tspan><tspan x="-32.2" y="13.4" class="st6" style="font-family:'SourceSansPro-Bold'; font-size:12.2197px;">Demo Campaigns</tspan></text>
	
		<text transform="matrix(1 0 0 1 1428.9637 -116.6137)" class="st6" style="font-family:'SourceSansPro-Bold'; font-size:12.2197px;">Google Ads</text>
	
		<text transform="matrix(1 0 0 1 1203.5419 -82.1088)" class="st6" style="font-family:'SourceSansPro-Bold'; font-size:12.2197px;">Paid Digital/Media</text>
	
		<text transform="matrix(1 0 0 1 1274.6249 -54.1792)" class="st6" style="font-family:'SourceSansPro-Bold'; font-size:12.2197px;">Paid Social</text>
	
		<text transform="matrix(1 0 0 1 1131.9867 -142.5141)" class="st6" style="font-family:'SourceSansPro-Bold'; font-size:12.2197px;">Keyword Search</text>
	<path class="st21" d="M1398.1,111.3c0,43.8-35.5,79.4-79.4,79.4c-43.8,0-79.4-35.5-79.4-79.4c0-43.8,79.4-153.5,79.4-153.5
		S1398.1,67.5,1398.1,111.3z"/>
	<path class="st21" d="M1386.8,106c0,37.6-30.5,68-68,68s-68-30.5-68-68c0-37.6,68-131.6,68-131.6S1386.8,68.5,1386.8,106z"/>
	<path class="st22" d="M1375.5,100.7c0,31.3-25.4,56.7-56.7,56.7c-31.3,0-56.7-25.4-56.7-56.7s56.7-109.7,56.7-109.7
		S1375.5,69.4,1375.5,100.7z"/>
	<path class="st6" d="M1364.1,95.4c0,25-20.3,45.4-45.4,45.4c-25,0-45.4-20.3-45.4-45.4c0-25,45.4-87.7,45.4-87.7
		S1364.1,70.4,1364.1,95.4z"/>
	<text transform="matrix(1 0 0 1 1495.3818 214.636)" class="st5" style="font-family:'SourceSansPro-SemiBold'; font-size:20px;">Awareness</text>
	<text transform="matrix(1 0 0 1 1495.3816 408.7298)" class="st3" style="font-family:'SourceSansPro-SemiBold'; font-size:20px;">Retention</text>
	<text transform="matrix(1 0 0 1 1495.3816 360.2073)" class="st4" style="font-family:'SourceSansPro-SemiBold'; font-size:20px;">Purchase</text>
	<text transform="matrix(1 0 0 1 1495.3806 311.6829)" class="st2" style="font-family:'SourceSansPro-SemiBold'; font-size:20px;">Consideration</text>
	<text transform="matrix(1 0 0 1 1495.3816 263.1604)" class="st6" style="font-family:'SourceSansPro-SemiBold'; font-size:20px;">Interest</text>
	<text transform="matrix(1 0 0 1 927.3268 139.4917)" class="st4" style="font-family:'SourceSansPro-SemiBold'; font-size:20px;">Field marketing plan &amp; mix</text>
	<text transform="matrix(1 0 0 1 937.5466 90.9692)" class="st4" style="font-family:'SourceSansPro-SemiBold'; font-size:20px;">Field Marketing Strategy</text>
	<text transform="matrix(1 0 0 1 772.3474 42.4448)" class="st4" style="font-family:'SourceSansPro-SemiBold'; font-size:20px;">overall Marketing Strategy &amp; Objectives</text>
	<text transform="matrix(1 0 0 1 875.3674 -6.0777)" class="st4" style="font-family:'SourceSansPro-SemiBold'; font-size:20px;">Business Strategy &amp; Objectives</text>
	<g>
		<line class="st5" x1="1303.3" y1="-11.5" x2="1210.6" y2="-11.5"/>
		<g>
			<line class="st15" x1="1303.3" y1="-11.5" x2="1214.4" y2="-11.5"/>
			<g>
				<path class="st4" d="M1214.6-15.5c-2.2,0-4,1.8-4,4s1.8,4,4,4c2.2,0,4-1.8,4-4S1216.8-15.5,1214.6-15.5z"/>
			</g>
		</g>
	</g>
	<g>
		<line class="st6" x1="1270.8" y1="85.2" x2="1210.6" y2="85.2"/>
		<g>
			<line class="st15" x1="1270.8" y1="85.2" x2="1214.4" y2="85.2"/>
			<g>
				<path class="st4" d="M1214.6,81.2c-2.2,0-4,1.8-4,4c0,2.2,1.8,4,4,4c2.2,0,4-1.8,4-4C1218.6,82.9,1216.8,81.2,1214.6,81.2z"/>
			</g>
		</g>
	</g>
	<g>
		<line class="st6" x1="1283.6" y1="36.8" x2="1210.6" y2="36.8"/>
		<g>
			<line class="st15" x1="1283.6" y1="36.8" x2="1214.4" y2="36.8"/>
			<g>
				<path class="st4" d="M1214.6,32.8c-2.2,0-4,1.8-4,4c0,2.2,1.8,4,4,4c2.2,0,4-1.8,4-4C1218.6,34.6,1216.8,32.8,1214.6,32.8z"/>
			</g>
		</g>
	</g>
	<g>
		<line class="st6" x1="1302.1" y1="133.5" x2="1210.6" y2="133.5"/>
		<g>
			<line class="st15" x1="1302.1" y1="133.5" x2="1214.4" y2="133.5"/>
			<g>
				<path class="st4" d="M1214.6,129.5c-2.2,0-4,1.8-4,4c0,2.2,1.8,4,4,4c2.2,0,4-1.8,4-4C1218.6,131.3,1216.8,129.5,1214.6,129.5z"
					/>
			</g>
		</g>
	</g>
</g>
<g id="Wolke_Kopie">
</g>
<g id="Tropfen">
	<path class="st21" d="M158.7,153.5c0,43.8-35.5,79.4-79.4,79.4S0,197.4,0,153.5S79.4,0,79.4,0S158.7,109.7,158.7,153.5z"/>
</g>
<g id="Tropfen_Kopie">
	<path class="st21" d="M147.4,148.2c0,37.6-30.5,68-68,68s-68-30.5-68-68c0-37.6,68-131.6,68-131.6S147.4,110.7,147.4,148.2z"/>
</g>
<g id="Tropfen_Kopie_Kopie">
	<path class="st22" d="M136.1,142.9c0,31.3-25.4,56.7-56.7,56.7s-56.7-25.4-56.7-56.7c0-31.3,56.7-109.7,56.7-109.7
		S136.1,111.6,136.1,142.9z"/>
</g>
<g id="Tropfen_Kopie_Kopie_Kopie" class="st23">
	<path class="st24" d="M124.7,137.6c0,25-20.3,45.4-45.4,45.4S34,162.7,34,137.6s45.4-87.7,45.4-87.7S124.7,112.6,124.7,137.6z"/>
</g>
<g id="Tropfen_Text">
	<g>
		<line class="st5" x1="94.7" y1="30.7" x2="187.5" y2="30.7"/>
		<path class="st4" d="M179.6,30c0.4-1.8,2-3.2,3.9-3.2c2.2,0,4,1.8,4,4c0,2.2-1.8,4-4,4c-1.9,0-3.6-1.4-3.9-3.2H94.7V30H179.6z"/>
	</g>
	<path class="st4" d="M127.2,126.6h52.3c0.4-1.8,2-3.2,3.9-3.2c2.2,0,4,1.8,4,4c0,2.2-1.8,4-4,4c-1.9,0-3.6-1.4-3.9-3.2h-52.3V126.6
		z"/>
	<path class="st4" d="M179.6,78.3c0.4-1.8,2-3.2,3.9-3.2c2.2,0,4,1.8,4,4c0,2.2-1.8,4-4,4c-1.9,0-3.6-1.4-3.9-3.2h-65.1v-1.5H179.6z
		"/>
	<path class="st4" d="M95.9,174.9h83.6c0.4-1.8,2-3.2,3.9-3.2c2.2,0,4,1.8,4,4c0,2.2-1.8,4-4,4c-1.9,0-3.6-1.4-3.9-3.2H95.9V174.9z"
		/>
</g>
</svg>
