<?xml version="1.0" encoding="UTF-8"?>
<svg id="a" data-name="Blöcke" xmlns="http://www.w3.org/2000/svg" viewBox="0 0 943.8 728.44">
  <polygon points="238.07 235.42 222.81 235.42 .97 235.42 .97 314.79 281.31 314.79 285.52 314.79 430.42 314.79 430.42 235.42 238.07 235.42" style="fill: #00adea;"/>
  <polygon points="285.52 320.46 191.85 320.46 .97 320.46 .97 399.83 230.32 399.83 316.03 399.83 321.04 399.83 356.14 399.83 430.42 399.83 430.42 341.14 430.42 325.33 430.42 320.46 285.52 320.46" style="fill: #2a7fc2;"/>
  <polygon points="356.13 405.5 321.04 405.5 316.03 405.5 245.89 405.5 .97 405.5 .97 484.87 216.65 484.87 232.16 484.87 337.81 484.87 391.63 484.87 430.42 484.87 430.42 405.5 356.13 405.5" style="fill: #0f4988;"/>
  <polygon points="391.63 490.54 313.6 490.54 232.16 490.54 216.65 490.54 .97 490.54 .97 569.91 189.8 569.91 212.52 569.91 228.53 569.91 351.89 569.91 430.42 569.91 430.42 490.54 391.63 490.54" style="fill: #162259;"/>
  <polygon points="410.75 150.38 405.65 150.38 263.24 150.38 256.24 150.38 .97 150.38 .97 229.75 222.81 229.75 238.07 229.75 430.42 229.75 430.42 150.38 410.75 150.38" style="fill: #45b5cf;"/>
  <path d="M476.56,339.78s-.09,.03-.15,.07c.05-.02,.1-.05,.15-.07Z" style="fill: #0f4988;"/>
</svg>