<?xml version="1.0" encoding="utf-8"?>
<!-- Generator: Adobe Illustrator 26.3.1, SVG Export Plug-In . SVG Version: 6.00 Build 0)  -->
<svg version="1.1" id="Ebene_1" xmlns="http://www.w3.org/2000/svg" xmlns:xlink="http://www.w3.org/1999/xlink" x="0px" y="0px"
	 viewBox="0 0 109.3 51" style="enable-background:new 0 0 109.3 51;" xml:space="preserve">
<style type="text/css">
	.st0{clip-path:url(#SVGID_00000089549529941741065120000013095305374642841279_);fill:#162259;}
</style>
<g>
	<defs>
		<rect id="SVGID_1_" width="109.3" height="51"/>
	</defs>
	<clipPath id="SVGID_00000085966458579869781030000003476269431402758286_">
		<use xlink:href="#SVGID_1_"  style="overflow:visible;"/>
	</clipPath>
	<path style="clip-path:url(#SVGID_00000085966458579869781030000003476269431402758286_);fill:#162259;" d="M105.1,15.5
		c-0.4-2.7,0.7-11.6,1.8-13.3c0.2,0.1,0.1,0.3,0.2,0.4c0.1,1.5-0.1,2.9-0.2,4.4c-0.4,2.6-0.9,5.2-1.5,7.8
		C105.3,15,105.2,15.2,105.1,15.5 M108.6,50.3c0.3,0,0.5-0.1,0.6-0.4c0.2-0.3,0.1-0.6,0-0.9c-0.2-1-0.4-1.9-0.6-2.9
		c-0.7-3.3-1.4-6.5-2.1-9.8c-0.5-2.2-0.8-4.4-1-6.6c-0.3-2.9-0.5-5.7-0.6-8.6c0-0.5,0-0.9,0.2-1.4c0.8-2.2,1.4-4.5,1.9-6.8
		c0.7-3,1.2-6,1.3-9.1c0-0.7,0-1.3-0.1-2c0-0.4-0.1-0.8-0.3-1.2c-0.4-0.7-1.1-0.9-1.7-0.3c-0.3,0.3-0.5,0.6-0.6,0.9
		c-0.3,0.8-0.6,1.7-0.8,2.5c-0.5,2-0.8,4.1-1,6.2c-0.2,1.9-0.4,3.8-0.4,5.7c0,1.3,0,2.6,0,3.8c0,0.4,0,0.9-0.2,1.3
		c-1.2,3.2-2.8,6.3-4.8,9c-0.5,0.8-1.1,1.5-1.9,2.1c-0.3,0.3-0.6,0.5-1,0.7c-0.3,0.2-0.6,0-0.8-0.2c-0.2-0.4-0.3-0.8-0.3-1.2
		c-0.1-1.9,0.6-3.6,1.9-5.1c0.3-0.3,0.6-0.5,1-0.7c0.6-0.4,1-0.3,1.6,0.2c0.2,0.2,0.4,0.4,0.7,0.6c0.2,0.2,0.5,0.2,0.7,0
		c0.2-0.2,0.2-0.5,0.1-0.7c-0.3-0.5-0.6-0.9-1.1-1.2c-0.5-0.3-1.1-0.4-1.7-0.3c-0.8,0.2-1.5,0.6-2,1.2c-1.6,1.7-2.4,3.7-2.3,6.1
		c0,0.7,0.2,1.4,0.6,2c0.4,0.6,1,0.9,1.8,0.8c0.4,0,0.8-0.2,1.1-0.5c0.5-0.4,1-0.8,1.4-1.2c0.9-1,1.7-2.1,2.5-3.3
		c0.9-1.4,1.7-2.9,2.5-4.5c0.1-0.2,0.2-0.5,0.5-0.6c0.1,0.2,0.1,0.4,0.1,0.6c0,0.7,0.1,1.4,0.2,2.2c0.2,2.6,0.4,5.2,0.9,7.7
		c0.5,3,1.2,6,1.9,9c0.4,2,0.8,4,1.2,6c0.1,0.1,0.1,0.3,0.1,0.4C108.2,50.1,108.3,50.3,108.6,50.3 M91.8,33.8
		c0.3-0.2,0.6-0.4,0.8-0.7c2.1-2.3,3-5.9,3.3-7c0.1-0.9-0.8-1.1-1.2-0.4c-0.2,0.2-1.4,4.3-2.8,6.2c-0.2,0.3-0.5,0.5-0.8,0.7
		c-0.3,0.2-0.7,0.2-1-0.1c-0.2-0.3-0.4-0.7-0.6-1.1c-0.4-0.8-0.6-1.6-0.7-2.5C88.7,28,88.6,27,88.3,26c-0.1-0.4-0.3-0.8-0.5-1.2
		c-0.7-1.1-1.8-1.2-2.6-0.2c-0.1,0.1-0.3,0.3-0.4,0.4c-0.2,0.3-0.4,0.6-0.5,1c-0.6,1.2-1.2,2.5-1.7,3.7c-0.1,0.2-0.2,0.4-0.2,0.6
		c-0.3-0.2-0.3-0.4-0.3-0.6c-0.2-1.2-0.4-2.4-0.6-3.6c-0.1-0.4-0.2-0.9-0.4-1.3c-0.4-0.9-0.8-0.7-1-0.6c-0.3,0.3-0.3,0.5,0,1.8
		c0.1,0.6,0.2,1.2,0.3,1.8c0.3,1.4,0.5,2.9,0.8,4.3c0.1,0.3,0.2,0.6,0.3,0.8c0.3,0.6,0.9,0.6,1.3,0.1c0.2-0.3,0.3-0.6,0.4-1
		c0.7-1.9,1.4-3.7,2.3-5.4c0.2-0.3,0.4-0.7,0.6-1c0.1-0.1,0.3-0.2,0.4-0.4c0.2,0.3,0.3,0.5,0.4,0.7c0.1,0.4,0.2,0.8,0.3,1.2
		c0.1,0.7,0.2,1.3,0.3,2c0.2,1.1,0.4,2.1,0.9,3.1c0.2,0.4,0.5,0.9,0.8,1.2C89.9,34.2,90.9,34.4,91.8,33.8 M74.6,22.5
		c0.4-0.1,0.7-0.4,0.6-0.8c0-0.4-0.3-0.6-0.7-0.6c-0.4,0-0.7,0.4-0.6,0.8C74,22.2,74.3,22.5,74.6,22.5 M76,34.7
		c0.7,0.1,1.3-0.2,1.8-0.5c2-1,2.8-5.3,3.6-7.4c0.3-0.8-0.6-1.2-1-0.5c-1.1,2.2-1.8,6.2-3.5,6.9c-0.7,0.3-1.3,0.2-1.7-0.4
		c-0.2-0.3-0.4-0.7-0.6-1.1c-0.4-1-0.3-2.1-0.3-3.1c0-0.8,0.1-1.5,0.2-2.3c0-0.3,0-0.5,0-0.8c0-0.3-0.2-0.6-0.4-0.7
		c-1.3-0.5-1,5.2-1,5.7c0,0.9,0.3,1.9,0.9,2.7C74.5,34.1,75.2,34.5,76,34.7 M66.2,38.3c-0.4,0.3-0.8,0.2-1.2-0.2
		c-0.3-0.4-0.5-1-0.4-1.5c0-0.5,0.1-0.9,0.2-1.3c0.3-1,1.2-2.2,2.2-3c0.6,1,0.9,2.1,0.7,3.3c-0.1,0.6-0.3,1.3-0.7,1.8
		C66.8,37.8,66.6,38.1,66.2,38.3 M67,39.5c0.5-0.3,1-0.8,1.2-1.3c0.9-1.5,1.2-3.1,0.7-4.8c-0.2-0.7-0.5-1.3-0.7-2
		c2.3-2.1,3.8-3.3,5.7-4.2c0.8-0.6,0.1-1.5-0.8-1c-1.8,0.8-3.6,2.1-5.6,4c-0.4-0.6-2.5-3.7-2.8-4.3c-0.3-0.6,0.2-1.5,0.8-1.4
		c0.3,0,0.5-0.1,0.6-0.4c0.1-0.3,0-0.7-0.3-0.9c-0.3-0.2-0.6-0.2-1-0.1c-1.4,0.6-2,2.2-1.3,3.6c0.1,0.1,0.1,0.3,0.2,0.4
		c0.6,1.1,1.3,2.2,2,3.3c0.1,0.2,0.2,0.4,0.4,0.7c-0.2,0.2-0.4,0.4-0.6,0.7c-0.6,0.7-1.2,1.4-1.6,2.2c-0.5,0.8-0.7,1.6-0.8,2.5
		c0,0.9,0.2,1.7,0.7,2.5C64.6,40,65.9,40.2,67,39.5 M46.7,37.5c0.4,0,0.6-0.3,0.6-0.6c0,0,0-0.1,0-0.2c-0.1-1.1,0.3-2.2,0.5-3.3
		c0.4-1.6,1.2-2.9,2.2-4.3c0.3-0.3,0.6-0.7,1.2-1c-0.1,0.5-0.1,0.7-0.1,1.1c0.1,0.4,0.5,0.7,0.9,0.6c0.4-0.1,0.6-0.3,0.7-0.9
		c0.1-0.7,0.1-0.8,0-1.7c-0.1-0.5-0.6-0.9-1.2-0.8c-0.2,0.1-0.4,0.1-0.6,0.2c-0.6,0.3-1.2,0.7-1.6,1.2c-0.8,1-1.5,2.1-2.1,3.2
		c-0.1,0.2-0.1,0.4-0.4,0.4c0-0.8-0.1-1.6-0.1-2.3s-0.1-1.6-0.2-2.3c0-0.3-0.3-0.5-0.6-0.5c-0.3,0-0.6,0.2-0.6,0.5
		c0,0.3,0,0.6,0,0.9c0.2,3,0.4,5.9,0.6,8.9c0,0.1,0,0.2,0,0.3C46.1,37.3,46.4,37.6,46.7,37.5 M39.7,24.3c0.4-0.1,0.7-0.4,0.6-0.8
		c0-0.4-0.3-0.6-0.7-0.6c-0.4,0-0.7,0.4-0.6,0.8C39.1,24.1,39.3,24.4,39.7,24.3 M41.1,36.5c0.7,0.1,1.3-0.2,1.8-0.5
		c2-1,2.8-5.3,3.6-7.4c0.3-0.8-0.6-1.2-1-0.5c-1.1,2.2-1.8,6.2-3.5,6.9c-0.7,0.3-1.3,0.2-1.7-0.4c-0.2-0.3-0.4-0.7-0.6-1.1
		c-0.4-1-0.3-2.1-0.3-3.1c0-0.8,0.1-1.5,0.2-2.3c0-0.3,0-0.5,0-0.8c0-0.3-0.2-0.6-0.4-0.7c-1.3-0.5-1,5.2-1,5.7
		c0,0.9,0.3,1.9,0.9,2.7C39.5,35.9,40.2,36.4,41.1,36.5 M26.1,50.6c1.4,0.7,2.7,0.6,4-0.4c0.4-0.3,0.8-0.7,1.1-1.1
		c0.5-0.7,0.8-1.3,1.2-1.9c0.6-1,0.9-2,1.3-3.1c1.1-3.7,1.7-7.5,1.8-11.3c0-0.7,0-1.5,0-2.3c-0.1-1.8-0.2-3.7-0.4-5.6
		c-0.2-2.7-0.6-5.3-1.1-8c-0.7-3.3-1.5-6.5-2.2-9.8C31.6,6.1,31.3,5,31,4c-0.1-0.3-0.2-0.6-0.4-0.8c-0.2-0.3-0.6-0.3-1-0.1
		c-0.3,0.2-0.5,0.7-0.2,0.9c0.5,0.5,0.5,1.1,0.7,1.7c0.6,2.8,1.2,5.7,1.9,8.5c0.5,2.4,1,4.7,1.3,7.1c0.3,2.1,0.5,4.3,0.7,6.5
		c0.3,4.1,0.2,8.2-0.7,12.2c-0.3,1.9-0.8,3.8-1.6,5.5c-0.3,0.7-0.6,1.4-1.1,2.1c-0.3,0.6-0.7,1-1.1,1.4c-1,0.8-1.9,0.9-2.9,0.3
		c-0.5-0.3-0.9-0.6-1.3-1c-0.6-0.5-1.1-1.1-1.6-1.6c-0.9-1-1.6-2.2-2.3-3.4c-1.2-2.1-2.3-4.3-3.2-6.6c-1-2.2-1.9-4.5-2.9-6.7
		c-0.4-0.9-0.7-1.7-1.2-2.5c-0.2-0.4-0.5-0.7-0.8-0.9c-0.5-0.5-1.1-0.4-1.6,0.1c-0.2,0.3-0.4,0.7-0.4,1c-0.2,0.5-0.3,1.1-0.5,1.7
		c-0.6,2.4-1.1,4.7-1.9,7.1c-0.5,1.5-0.9,3-1.6,4.4c-0.3,0.6-0.7,1.1-1,1.6c-0.1,0.2-0.3,0.4-0.6,0.4c-0.6-0.4-0.6-0.4-0.9-1
		c-0.4-0.9-0.6-1.9-0.8-2.8c-0.5-2.3-0.9-4.5-1.1-6.8c-0.2-2.4-0.5-4.8-0.6-7.2c-0.1-1.3-0.1-2.7-0.2-4c0-1.7-0.2-3.3-0.2-4.9
		c-0.1-2.3-0.1-4.6-0.2-6.9c0-0.6-0.1-1.3-0.1-1.9c0-0.4-0.1-0.8-0.2-1.2c0-0.1-0.1-0.3-0.2-0.4C1,5.4,0.8,5.3,0.5,5.4
		c-0.2,0-0.4,0.2-0.5,0.4C0,5.9,0,6.1,0,6.2C0,6.6,0.1,7,0.1,7.4c0.1,1.4,0.2,2.9,0.2,4.3c0.1,2.4,0.1,4.9,0.2,7.3
		c0.1,2.3,0.2,4.7,0.4,7.1C1,28.7,1.2,31.3,1.6,34c0.3,2,0.7,4.1,1.2,6c0.2,0.7,0.4,1.5,0.7,2.2c0.2,0.4,0.4,0.9,0.7,1.3
		c0.7,1,1.8,1.1,2.7,0.2c0.3-0.2,0.6-0.6,0.9-0.9c0.3-0.6,0.6-1.1,0.9-1.8c0.5-1.2,1-2.5,1.4-3.8c0.9-2.6,1.5-5.2,2.1-7.9
		c0.1-0.5,0.3-0.9,0.5-1.5c0.4,0.4,0.5,0.7,0.7,1.1c0.4,0.9,0.8,1.9,1.2,2.8c1.3,3,2.5,6,3.9,8.9c0.8,1.6,1.7,3.3,2.6,4.8
		c0.9,1.4,1.9,2.7,3.2,3.9C24.8,49.8,25.5,50.3,26.1,50.6"/>
</g>
</svg>
