<?xml version="1.0" encoding="UTF-8"?>
<svg id="a" data-name="Ebene 1" xmlns="http://www.w3.org/2000/svg" xmlns:xlink="http://www.w3.org/1999/xlink" viewBox="0 0 886.8 371.41">
  <defs>
    <clipPath id="b">
      <rect width="886.8" height="371.41" style="fill: none;"/>
    </clipPath>
    <clipPath id="c">
      <rect width="886.8" height="371.41" style="fill: none;"/>
    </clipPath>
    <clipPath id="d">
      <rect width="886.8" height="371.41" style="fill: none;"/>
    </clipPath>
    <clipPath id="e">
      <rect width="886.8" height="371.41" style="fill: none;"/>
    </clipPath>
    <clipPath id="f">
      <rect width="886.8" height="371.41" style="fill: none;"/>
    </clipPath>
    <clipPath id="g">
      <rect width="886.8" height="371.41" style="fill: none;"/>
    </clipPath>
    <clipPath id="h">
      <rect width="886.8" height="371.41" style="fill: none;"/>
    </clipPath>
    <clipPath id="i">
      <rect width="886.8" height="371.41" style="fill: none;"/>
    </clipPath>
    <clipPath id="j">
      <rect width="886.8" height="371.41" style="fill: none;"/>
    </clipPath>
    <clipPath id="k">
      <rect width="886.8" height="371.41" style="fill: none;"/>
    </clipPath>
  </defs>
  <g style="clip-path: url(#b);">
    <path d="M342.44,297.54c-.35-5.43,1.63-11.32,5.58-16.58,3.79-5.38,8.77-9.09,14.05-10.43,3.65-.93,7.42-.25,10.34,1.87,1.52,1.11,2.73,2.54,3.58,4.17,1.41,2.72,3.47,2.46,6.03-1.07l8.85-12.18c2.57-3.53,1.77-8.47-1.5-11.36-18.34-16.23-29.9-39.93-29.9-66.34,0-4.62,.36-9.16,1.04-13.59,.67-4.31-1.81-8.84-5.96-10.19l-22.34-7.26c-4.15-1.35-8.17-2.93-8.59-3.79-.25-.51-.36-1.09-.19-1.69,.66-2.32,1.38-4.4,3.88-5.15,1.4-.42,2.89-.55,4.32-.9,4.33-1.07,6.22-5.54,3.82-9.33-2.36-3.74-6.67-6.28-10.99-7.59-4.27-1.48-9.25-1.96-13.36-.32-4.17,1.66-5.27,6.38-2.39,9.79,.95,1.12,2.08,2.1,2.96,3.27,1.58,2.08,.94,4.19,.11,6.45-.21,.59-.64,.99-1.14,1.26-.85,.45-5.03-.63-9.18-1.98l-24.48-7.96c-4.15-1.35-8.51,.95-9.54,5.2-3.39,14.04-5.2,28.71-5.2,43.8,0,58.75,27.28,111.13,69.85,145.17,3.41,2.73,8.35,1.94,10.92-1.59l10.33-14.22c2.57-3.53,2.17-5.57-.85-6.07-1.82-.3-3.55-1.01-5.07-2.11-2.92-2.12-4.73-5.49-4.97-9.25" style="fill: #162259;"/>
    <path d="M308.97,119.76c5.06-2.01,11.27-1.94,17.5,.19,6.29,1.94,11.35,5.53,14.26,10.13,2.02,3.18,2.53,6.98,1.41,10.41-.58,1.79-1.57,3.38-2.86,4.69-2.15,2.18-1.27,4.06,2.88,5.41l14.3,4.65c4.15,1.35,8.6-.93,10.34-4.93,11.84-27.2,36.93-47.29,67.11-52.13,4.31-.69,7.85-4.44,7.85-8.8v-23.5c0-4.36,.26-8.68,.95-9.35,.41-.4,.93-.68,1.55-.7,2.41-.09,4.61-.05,6.1,2.1,.83,1.2,1.41,2.58,2.19,3.83,2.35,3.79,7.19,4.2,10.05,.75,2.83-3.4,3.91-8.28,3.82-12.8,.09-4.52-1-9.4-3.82-12.8-2.86-3.45-7.7-3.04-10.05,.75-.78,1.25-1.36,2.62-2.19,3.83-1.49,2.15-3.69,2.19-6.1,2.1-.63-.02-1.14-.3-1.55-.7-.69-.67-.95-4.98-.95-9.35V7.83c0-4.37-3.54-7.8-7.89-7.47-73.39,5.54-134.88,53.7-159.76,119.81-1.54,4.09,.74,8.55,4.89,9.9l16.75,5.44c4.15,1.35,5.97,.35,5.51-2.68-.28-1.82-.14-3.69,.44-5.48,1.11-3.43,3.76-6.2,7.27-7.59" style="fill: #45b5cf;"/>
    <path d="M597.81,142.03c1.29,1.31,2.28,2.9,2.86,4.69,1.11,3.43,.6,7.23-1.41,10.41-2.91,4.6-7.98,8.2-14.27,10.13-6.23,2.13-12.44,2.2-17.5,.19-3.5-1.39-6.15-4.16-7.26-7.59-.58-1.79-.72-3.66-.44-5.48,.46-3.03-1.36-4.03-5.51-2.68l-14.29,4.65c-4.15,1.35-6.41,5.81-5.47,10.07,1.37,6.18,2.09,12.6,2.09,19.19,0,24.36-9.84,46.41-25.75,62.43-3.08,3.1-3.73,8.21-1.17,11.74l13.82,19.02c2.57,3.53,4.89,7.17,4.72,8.12-.1,.57-.35,1.09-.84,1.48-1.9,1.49-3.7,2.75-6.17,1.89-1.38-.48-2.66-1.26-4.02-1.81-4.14-1.68-8.29,.82-8.58,5.3-.28,4.42,1.71,9,4.43,12.61,2.59,3.71,6.33,7.02,10.62,8.11,4.35,1.11,8.01-2.07,7.69-6.52-.1-1.46-.45-2.92-.48-4.38-.06-2.62,1.7-3.94,3.7-5.29,.52-.35,1.1-.43,1.67-.34,.95,.13,3.7,3.47,6.26,7l15.11,20.79c2.57,3.53,7.45,4.23,10.77,1.4,40.04-34.08,65.45-84.85,65.45-141.55,0-17.07-2.31-33.6-6.62-49.3-1.16-4.21-5.62-6.48-9.77-5.13l-16.75,5.44c-4.15,1.35-5.03,3.23-2.88,5.41" style="fill: #2a7fc2;"/>
    <path d="M467.68,33c3.48,4.19,5.33,10.12,5.23,16.7,.1,6.58-1.75,12.51-5.23,16.7-2.41,2.9-5.86,4.56-9.46,4.56-1.88,0-3.7-.45-5.35-1.27-2.74-1.38-4.25,.05-4.25,4.41v15.06c0,4.37,3.55,7.89,7.89,8.3,30.72,2.91,56.86,21.51,70.33,47.7,2,3.88,6.66,6.09,10.81,4.74l22.34-7.26c4.15-1.35,8.33-2.43,9.18-1.98,.51,.27,.93,.67,1.14,1.26,.83,2.26,1.48,4.37-.11,6.45-.89,1.16-2.02,2.14-2.97,3.27-2.88,3.41-1.78,8.14,2.39,9.79,4.11,1.63,9.09,1.16,13.36-.32,4.32-1.32,8.63-3.85,11-7.59,2.4-3.79,.51-8.26-3.82-9.33-1.43-.35-2.92-.48-4.32-.9-2.51-.75-3.22-2.84-3.88-5.16-.17-.6-.07-1.17,.19-1.69,.42-.86,4.44-2.45,8.59-3.79l24.49-7.96c4.15-1.35,6.33-5.77,4.66-9.81C593.09,49.82,530.43,3.33,456.52,0c-4.36-.2-7.9,3.35-7.9,7.71V25.29c0,4.36,1.52,5.78,4.25,4.41,1.65-.82,3.46-1.27,5.35-1.27,3.61,0,7.06,1.66,9.46,4.56" style="fill: #00adea;"/>
    <path d="M521.85,320.63c-5.28-1.35-10.26-5.05-14.05-10.44-3.95-5.26-5.93-11.15-5.58-16.58,.24-3.76,2.05-7.13,4.97-9.25,1.52-1.11,3.26-1.82,5.07-2.11,3.02-.5,3.41-2.54,.85-6.07l-8.85-12.17c-2.57-3.53-7.5-4.3-11.26-2.08-13.18,7.78-28.55,12.26-44.97,12.26-14.38,0-27.96-3.43-39.97-9.52-3.89-1.97-8.96-1.02-11.53,2.51l-13.81,19.01c-2.56,3.53-5.31,6.87-6.26,7-.57,.08-1.15,0-1.66-.35-2-1.35-3.76-2.67-3.7-5.28,.03-1.46,.37-2.92,.48-4.38,.32-4.45-3.35-7.63-7.69-6.52-4.29,1.1-8.03,4.4-10.62,8.11-2.73,3.6-4.72,8.19-4.43,12.61,.29,4.48,4.44,6.98,8.58,5.3,1.36-.55,2.64-1.33,4.02-1.81,2.47-.86,4.27,.4,6.17,1.89,.49,.39,.74,.91,.84,1.48,.17,.95-2.16,4.59-4.72,8.12l-15.12,20.81c-2.57,3.53-1.72,8.39,1.99,10.68,28.33,17.48,61.7,27.57,97.44,27.57,37.78,0,72.91-11.28,102.24-30.65,3.64-2.4,4.42-7.35,1.85-10.89l-10.33-14.22c-2.57-3.53-4.63-3.79-6.03-1.07-.85,1.64-2.06,3.06-3.58,4.17-2.92,2.12-6.69,2.8-10.34,1.87" style="fill: #0f4988;"/>
  </g>
  <line x1="380.65" y1="34.16" x2="274.84" y2="34.16" style="fill: none; stroke: #45b5cf; stroke-miterlimit: 10; stroke-width: 2.4px;"/>
  <g style="clip-path: url(#c);">
    <path d="M275.15,27.85c-3.49,0-6.31,2.83-6.31,6.31s2.83,6.31,6.31,6.31,6.31-2.83,6.31-6.31-2.83-6.31-6.31-6.31" style="fill: #45b5cf;"/>
  </g>
  <line x1="530.46" y1="34.16" x2="621.24" y2="34.16" style="fill: none; stroke: #00adea; stroke-miterlimit: 10; stroke-width: 2.4px;"/>
  <g style="clip-path: url(#d);">
    <path d="M620.93,40.48c3.49,0,6.31-2.83,6.31-6.31s-2.83-6.31-6.31-6.31-6.31,2.83-6.31,6.31,2.83,6.31,6.31,6.31" style="fill: #00adea;"/>
  </g>
  <line x1="508.06" y1="345.56" x2="598.84" y2="345.56" style="fill: none; stroke: #0f4988; stroke-miterlimit: 10; stroke-width: 2.4px;"/>
  <g style="clip-path: url(#e);">
    <path d="M598.53,351.87c3.49,0,6.31-2.83,6.31-6.31s-2.83-6.31-6.31-6.31-6.31,2.83-6.31,6.31,2.83,6.31,6.31,6.31" style="fill: #0f4988;"/>
  </g>
  <line x1="598.3" y1="188.28" x2="689.09" y2="188.28" style="fill: none; stroke: #2a7fc2; stroke-miterlimit: 10; stroke-width: 2.4px;"/>
  <g style="clip-path: url(#f);">
    <path d="M688.77,194.59c3.49,0,6.31-2.83,6.31-6.31s-2.83-6.31-6.31-6.31-6.31,2.83-6.31,6.31,2.83,6.31,6.31,6.31" style="fill: #2a7fc2;"/>
  </g>
  <line x1="288.5" y1="188.28" x2="197.71" y2="188.28" style="fill: none; stroke: #162259; stroke-miterlimit: 10; stroke-width: 2.4px;"/>
  <g style="clip-path: url(#g);">
    <path d="M198.03,181.96c-3.49,0-6.31,2.83-6.31,6.31s2.83,6.31,6.31,6.31,6.31-2.83,6.31-6.31-2.83-6.31-6.31-6.31" style="fill: #162259;"/>
    <path d="M378.12,62.8l1.55,3.15c.14,.28,.4,.47,.71,.52l3.47,.51c.11,.02,.15,.15,.07,.22l-2.51,2.45c-.22,.22-.32,.53-.27,.84l.59,3.46c.02,.11-.09,.19-.19,.14l-3.11-1.63c-.28-.15-.6-.15-.88,0l-3.11,1.63c-.1,.05-.21-.03-.19-.14l.59-3.46c.05-.31-.05-.62-.27-.84l-2.51-2.45c-.08-.07-.03-.21,.07-.22l3.47-.51c.31-.04,.58-.24,.71-.52l1.55-3.15c.05-.1,.18-.1,.23,0Zm-15.28,6.2l1.05,2.13c.09,.19,.27,.32,.48,.35l2.36,.34c.07,.01,.1,.1,.05,.15l-1.7,1.66c-.15,.15-.22,.36-.18,.57l.4,2.34c.01,.07-.06,.13-.13,.09l-2.11-1.11c-.19-.1-.41-.1-.6,0l-2.11,1.11c-.07,.03-.14-.02-.13-.09l.4-2.34c.03-.21-.03-.42-.19-.57l-1.7-1.66c-.05-.05-.02-.14,.05-.15l2.36-.34c.21-.03,.39-.16,.48-.35l1.05-2.13c.03-.07,.13-.07,.16,0Zm6.2-14.89h10.03m0,0h6.7c1.52,0,2.75,1.23,2.75,2.76v21.94c0,1.52-1.23,2.76-2.75,2.76h-31.46c-1.52,0-2.76-1.23-2.76-2.76v-22.83m9.06,25.59l-1.68,4.25h22.22l-1.68-4.25m6.12,7.47l3.22,5.81c.48,.87-.15,1.94-1.14,1.94h-35.24c-1,0-1.63-1.07-1.15-1.94l3.22-5.81h31.09Z" style="fill: none; stroke: #fff; stroke-linecap: round; stroke-linejoin: round; stroke-width: 1.06px;"/>
  </g>
  <polygon points="353.79 94.65 355.73 91.15 384.32 91.15 386.27 94.65 353.79 94.65" style="fill: #dfeaf8;"/>
  <g style="clip-path: url(#h);">
    <path d="M541.82,54.75c-2.74,0-4.96,2.22-4.96,4.96v34.23h-28.91V59.72c0-2.74,2.22-4.96,4.96-4.96h9.51m22.16,39.19h7.41c1.21,0,2.18-.98,2.18-2.18v-12.99c0-1.21-.98-2.18-2.18-2.18h-7.41c-1.21,0-2.18,.98-2.18,2.18v12.99c0,1.21,.98,2.18,2.18,2.18Zm3.71-17.36v-15.57c0-3.46-2.39-6.26-5.85-6.26h-.63m6.48,25.19v-3.35m1.44,4.8c0,.8-.65,1.45-1.44,1.45s-1.45-.65-1.45-1.45,.65-1.44,1.45-1.44,1.44,.65,1.44,1.44Zm-191.55-31.17c-2.79,2.79-5.68,4.44-6.45,3.67-.77-.77,.87-3.66,3.67-6.45,2.79-2.79,5.68-4.44,6.45-3.67,.77,.77-.87,3.66-3.67,6.46Zm-4.54,3.46c2.6,.29,6.23,2.92,8.02,4.33,.59,.47,.65,1.35,.11,1.89l-4.16,4.17c-.18,.18-.18,.48,0,.67l1.39,1.39c.18,.18,.48,.18,.67,0l5.15-5.15,2.04,2.04c.26,.26,.67,.26,.92,0l3.21-3.21c.25-.25,.25-.66,0-.92l-4.16-4.16s-4.76-5.46-5.17-9.05m8.9,14.55l.27,.27c.63,.63,.63,1.66,0,2.29-.63,.63-1.65,.63-2.29,0l-.27-.27m-3.44-1.55l-1.03-1.03" style="fill: none; stroke: #fff; stroke-linecap: round; stroke-linejoin: round; stroke-width: 1.06px;"/>
  </g>
  <line x1="529.54" y1="54.75" x2="533.61" y2="54.75" style="fill: none; stroke: #fff; stroke-dasharray: 0 0 .05 .96; stroke-linecap: round; stroke-linejoin: round; stroke-width: 1.06px;"/>
  <path d="M527.97,54.75h.05m6.36,0h.04" style="fill: none; stroke: #fff; stroke-linecap: round; stroke-linejoin: round; stroke-width: 1.06px;"/>
  <g style="clip-path: url(#i);">
    <path d="M516.31,83.49c0,3.38,2.74,6.12,6.11,6.12s6.11-2.74,6.11-6.12-2.74-6.11-6.11-6.11-6.11,2.74-6.11,6.11Zm3.72-2.4l4.79,4.8m-4.79,0l4.79-4.8m-8.04-15.53c0,3.12,2.53,5.64,5.65,5.64s5.65-2.53,5.65-5.64-2.53-5.65-5.65-5.65-5.65,2.53-5.65,5.65Zm3.23,.29l1.93,1.72,3.12-3.82" style="fill: none; stroke: #fff; stroke-linecap: round; stroke-linejoin: round; stroke-width: 1.06px;"/>
    <path d="M544.52,84.14v4.62c0,1.69,1.38,3.07,3.07,3.07h1.39c1.59,0,2.9-1.21,3.06-2.76-1.23-.1-2.45-.35-3.56-.88-1.73-.84-3.06-2.33-3.96-4.04" style="fill: #dfeaf8;"/>
    <path d="M587.51,223.95c3.04,3.42,4.28,7.4,4.28,11.93,0,10.37-8.4,18.77-18.77,18.77s-18.77-8.4-18.77-18.77,8.4-18.77,18.77-18.77c4.41,0,8.61,1.38,11.78,4.16m-3.06,8.51c1.11,1.07,1.92,3.87,1.92,6.1,0,5.88-4.77,10.64-10.64,10.64s-10.64-4.76-10.64-10.64,4.76-10.64,10.64-10.64c2.14,0,4.46,.61,6.01,1.86" style="fill: none; stroke: #fff; stroke-linecap: round; stroke-linejoin: round; stroke-width: 1.06px;"/>
    <path d="M556.37,235.88c0,9.18,7.47,16.65,16.65,16.65,7.97,0,14.64-5.63,16.27-13.12h-4.01c-1.54,5.33-6.45,9.23-12.26,9.23-7.04,0-12.76-5.73-12.76-12.76s5.73-12.76,12.76-12.76v-3.88c-9.18,0-16.65,7.47-16.65,16.65" style="fill: #dfeaf8;"/>
    <path d="M576.07,232.44l11.45-11.32m6.34-.04l-6.34,.04-.04-6.34m10.35,2.35l-6.34,.04-.04-6.34m10.35,2.35l-6.34,.04-.04-6.34m-21.41,23.53l.18,3.93,4.12,.07m-.57,2.55c-.5,2.25-2.5,3.93-4.9,3.93-2.77,0-5.02-2.25-5.02-5.02,0-2.46,1.77-4.51,4.11-4.94" style="fill: none; stroke: #fff; stroke-linecap: round; stroke-linejoin: round; stroke-width: 1.06px;"/>
    <path d="M453.66,322.15c0,.78,.63,1.4,1.4,1.4s1.4-.63,1.4-1.4-.57-1.13-1.4-1.4c-.74-.24-1.4-.63-1.4-1.4s.63-1.41,1.4-1.41,1.4,.63,1.4,1.41m-1.4-2.19v.79m0,5.61v.79m-14.34-5.31h-5.78c-.48,0-.89,.35-.98,.82l-2.21,12.4c-.11,.61,.36,1.16,.97,1.16h35.32c.62,0,1.08-.56,.98-1.16l-2.21-12.4c-.08-.47-.5-.82-.98-.82h-5.89m3.5,4.18l.68,5.28h-27.47l.67-5.28m-5.55,9.5v10.94m37.26-10.94v10.94" style="fill: none; stroke: #fff; stroke-linecap: round; stroke-linejoin: round; stroke-width: 1.06px;"/>
  </g>
  <rect x="449.24" y="337.19" width="14.89" height="4.95" style="fill: #dfeaf8;"/>
  <g style="clip-path: url(#j);">
    <path d="M446.03,310.82h10.99m-13.69,8.22h6.6m-6.6,4.04h6.6m-9.21,2.55v-18.96c0-2.3,1.86-4.16,4.16-4.16h15.07m0,8.3v14.81m0-23.12c1.89,0,3.42,1.53,3.42,3.42,0,.94-.38,1.79-.99,2.41h-17.99c.61-.62,.99-1.47,.99-2.41,0-.28-.03-.55-.1-.81m-7.9,32.6h.94m1.56,0h.94m1.56,0h.94m-5.95,2.21h.94m1.56,0h.94m1.56,0h.94m-5.95,2.22h.94m1.56,0h.94m1.56,0h.94" style="fill: none; stroke: #fff; stroke-linecap: round; stroke-linejoin: round; stroke-width: 1.06px;"/>
    <path d="M337.3,215.83l2.55,2.1c.78,.64,1.23,1.59,1.23,2.6v5.48c0,1.67-1.35,3.02-3.02,3.02m-.14-7.68v19.67c.01,1.45-1.17,2.63-2.62,2.63h-.83m-7.07-9.18v6.55c0,1.45,1.18,2.63,2.63,2.63s2.63-1.18,2.63-2.63v-10.43m5.29-20.93c0,2.92-2.37,5.29-5.29,5.29s-5.29-2.37-5.29-5.29,2.37-5.29,5.29-5.29,5.29,2.37,5.29,5.29Z" style="fill: none; stroke: #fff; stroke-linecap: round; stroke-miterlimit: 10; stroke-width: 1.06px;"/>
    <path d="M304.87,206.48c-.58,0-1.12,.16-1.59,.43,.95,.55,1.59,1.58,1.59,2.75s-.64,2.2-1.59,2.75c.47,.27,1.01,.43,1.59,.43,1.75,0,3.18-1.43,3.18-3.18s-1.42-3.18-3.18-3.18" style="fill: #dfeaf8;"/>
    <path d="M333.01,206.48c-.58,0-1.12,.16-1.59,.43,.95,.55,1.59,1.58,1.59,2.75s-.64,2.2-1.59,2.75c.47,.27,1.01,.43,1.59,.43,1.75,0,3.18-1.43,3.18-3.18s-1.42-3.18-3.18-3.18" style="fill: #dfeaf8;"/>
    <path d="M299.87,215.83l-2.55,2.1c-.78,.64-1.23,1.59-1.23,2.6v5.48c0,1.67,1.35,3.02,3.02,3.02m10.66,5.44v6.55c0,1.45-1.18,2.63-2.63,2.63h-.83m-7.06-22.31v19.67c-.01,1.45,1.17,2.63,2.62,2.63s2.63-1.18,2.63-2.63v-10.43m5.29-20.93c0,2.92-2.37,5.29-5.29,5.29s-5.29-2.37-5.29-5.29,2.37-5.29,5.29-5.29,5.29,2.37,5.29,5.29Z" style="fill: none; stroke: #fff; stroke-linecap: round; stroke-miterlimit: 10; stroke-width: 1.06px;"/>
  </g>
  <path d="M324.27,224.01l1.31,1.53,1.54-1.31m-14.21,1.34l-1.56-1.28-1.28,1.56" style="fill: none; stroke: #fff; stroke-linecap: round; stroke-linejoin: round; stroke-width: 1.06px;"/>
  <g style="clip-path: url(#k);">
    <path d="M311.39,222.39c.73-3.22,3.62-5.62,7.06-5.62s6.51,2.56,7.12,5.94m-.61,4.46c-1.17,2.41-3.65,4.08-6.51,4.08s-5.42-1.71-6.57-4.19" style="fill: none; stroke: #fff; stroke-linecap: round; stroke-miterlimit: 10; stroke-width: 1.06px;"/>
    <path d="M330.14,224.01c0,6.38-5.17,11.55-11.55,11.55s-11.55-5.17-11.55-11.55,5.17-11.55,11.55-11.55,11.55,5.17,11.55,11.55Z" style="fill: none; stroke: #fff; stroke-linecap: round; stroke-linejoin: round; stroke-width: 1.06px;"/>
  </g>
</svg>