<?xml version="1.0" encoding="UTF-8"?>
<svg id="a" data-name="Ebene 1" xmlns="http://www.w3.org/2000/svg" xmlns:xlink="http://www.w3.org/1999/xlink" viewBox="0 0 218.57 102.1">
  <defs>
    <clipPath id="b">
      <rect width="218.57" height="102.1" style="fill: none;"/>
    </clipPath>
  </defs>
  <g style="clip-path: url(#b);">
    <path d="M210.24,30.93c-.74-5.46,1.49-23.15,3.56-26.68,.37,.16,.3,.53,.31,.79,.25,2.96-.14,5.87-.44,8.86-.71,5.26-1.7,10.45-3.06,15.57-.07,.45-.22,1-.37,1.46m6.89,69.67c.54,.06,.98-.23,1.22-.79,.33-.65,.2-1.27,.08-1.9-.37-1.96-.74-3.84-1.11-5.8-1.42-6.5-2.85-13.01-4.18-19.52-.95-4.37-1.63-8.75-2.05-13.23-.57-5.74-1.05-11.39-1.17-17.15,.04-.99,.08-1.9,.4-2.72,1.66-4.41,2.86-8.98,3.88-13.63,1.31-5.93,2.34-12.02,2.56-18.16,.02-1.35,.04-2.62-.12-3.96-.04-.81-.27-1.7-.58-2.4-.71-1.49-2.26-1.77-3.37-.63-.51,.57-.93,1.22-1.16,1.86-.63,1.66-1.18,3.31-1.63,5.04-1.05,4.02-1.64,8.2-2.06,12.36-.43,3.81-.77,7.61-.75,11.49,.05,2.61,0,5.14,.04,7.66,.05,.9-.09,1.72-.41,2.54-2.46,6.44-5.56,12.55-9.69,18.08-1.09,1.59-2.28,3-3.74,4.25-.6,.57-1.21,.96-1.91,1.36-.62,.3-1.17,.06-1.56-.46-.4-.79-.62-1.59-.67-2.49-.2-3.86,1.15-7.27,3.7-10.2,.51-.57,1.21-1.05,1.91-1.36,1.22-.78,2.04-.56,3.17,.38,.47,.34,.86,.86,1.32,1.19,.47,.34,1.1,.3,1.44-.08,.43-.38,.49-.93,.11-1.45-.59-.96-1.27-1.83-2.2-2.41-1.03-.67-2.21-.88-3.46-.63-1.51,.44-2.91,1.23-4.02,2.37-3.16,3.41-4.75,7.46-4.59,12.14-.01,1.44,.42,2.86,1.21,4.08,.78,1.22,1.99,1.79,3.51,1.62,.9-.05,1.69-.36,2.3-.93,1.04-.77,1.99-1.55,2.85-2.4,1.88-1.99,3.47-4.24,4.97-6.57,1.83-2.89,3.48-5.86,4.94-8.91,.25-.46,.31-1.01,.93-1.22,.11,.36,.22,.8,.24,1.16,.07,1.44,.24,2.87,.32,4.31,.36,5.12,.9,10.32,1.8,15.41,1.03,5.98,2.43,12.04,3.83,18,.84,3.92,1.68,7.93,2.43,11.95,.1,.26,.12,.62,.23,.89,.21,.53,.49,.79,1.03,.85m-33.54-32.94c.61-.39,1.22-.88,1.64-1.35,4.26-4.64,6.05-11.85,6.56-14.04,.26-1.82-1.56-2.26-2.39-.87-.34,.47-2.7,8.61-5.57,12.46-.42,.56-1.03,1.04-1.55,1.43-.7,.49-1.42,.35-1.91-.26-.49-.7-.88-1.31-1.19-2.1-.71-1.59-1.16-3.27-1.44-5.06-.37-1.87-.65-3.84-1.12-5.8-.13-.8-.54-1.68-.94-2.47-1.38-2.18-3.55-2.34-5.25-.45-.25,.28-.51,.57-.77,.85-.33,.65-.74,1.3-.98,1.94-1.22,2.5-2.35,4.99-3.48,7.48-.16,.37-.32,.74-.48,1.2-.65-.33-.59-.87-.61-1.23-.4-2.41-.79-4.82-1.19-7.24-.23-.89-.45-1.78-.77-2.57-.81-1.76-1.6-1.36-1.95-1.16-.51,.57-.67,1.03-.09,3.52,.15,1.16,.4,2.41,.64,3.66,.51,2.86,1.02,5.72,1.53,8.66,.12,.53,.33,1.15,.62,1.59,.6,1.14,1.86,1.16,2.53,.14,.42-.65,.65-1.3,.89-1.94,1.33-3.76,2.86-7.36,4.66-10.88,.33-.65,.74-1.3,1.16-1.95,.17-.28,.52-.48,.86-.77,.3,.62,.6,1.05,.8,1.49,.22,.71,.44,1.51,.57,2.31,.25,1.34,.41,2.68,.66,4.02,.38,2.14,.86,4.28,1.86,6.21,.41,.88,.9,1.75,1.57,2.44,1.34,1.55,3.34,1.81,5.09,.73m-34.35-22.62c.71-.13,1.31-.79,1.27-1.51-.04-.72-.6-1.23-1.32-1.19-.72,.04-1.32,.7-1.27,1.51,.12,.62,.69,1.23,1.32,1.19m2.8,24.28c1.36,.11,2.51-.31,3.56-.91,3.94-2.1,5.57-10.66,7.25-14.71,.63-1.66-1.3-2.37-1.95-1.07-2.11,4.44-3.67,12.45-7.03,13.8-1.32,.61-2.51,.31-3.37-.73-.48-.6-.79-1.4-1.1-2.1-.74-2.03-.67-4.11-.5-6.19,0-1.53,.2-2.99,.3-4.52-.03-.54,.04-.99-.08-1.53-.03-.63-.33-1.15-.88-1.4-2.57-.95-2.07,10.38-1.92,11.46,.1,1.89,.65,3.75,1.72,5.32,.98,1.48,2.28,2.31,4.01,2.58m-19.62,7.34c-.87,.59-1.69,.36-2.37-.42-.68-.87-1-1.93-.87-2.93,.04-.9,.18-1.72,.41-2.54,.62-2.01,2.47-4.37,4.38-5.91,1.19,2.01,1.75,4.15,1.42,6.51-.11,1.27-.59,2.55-1.34,3.67-.42,.65-.93,1.22-1.63,1.62m1.57,2.44c1.05-.69,1.9-1.54,2.48-2.56,1.74-2.98,2.38-6.16,1.39-9.63-.43-1.33-.95-2.65-1.48-4.07,4.64-4.3,7.58-6.62,11.46-8.35,1.56-1.16,.29-2.99-1.55-2.08-3.61,1.54-7.17,4.25-11.21,7.98-.87-1.13-5.08-7.48-5.59-8.63-.69-1.23,.38-3,1.66-2.79,.54,.06,.98-.23,1.13-.78,.24-.64,.02-1.35-.54-1.77-.65-.42-1.19-.39-1.9-.17-2.82,1.14-4,4.45-2.51,7.16,.1,.27,.3,.53,.49,.79,1.29,2.19,2.66,4.37,3.95,6.55,.29,.44,.5,.88,.7,1.41-.43,.47-.86,.86-1.28,1.33-1.19,1.32-2.38,2.74-3.29,4.32-.91,1.58-1.45,3.23-1.54,5.04-.09,1.81,.36,3.5,1.43,4.97,1.47,2.18,4.01,2.58,6.2,1.3m-40.58-4c.72-.04,1.14-.51,1.29-1.24,.09-.09,.08-.27,.07-.36-.12-2.25,.58-4.36,1.1-6.55,.82-3.2,2.4-5.89,4.33-8.52,.6-.66,1.19-1.41,2.33-2.01-.22,1-.29,1.37-.25,2.17,.14,.89,1.07,1.48,1.87,1.25,.89-.14,1.23-.69,1.44-1.79,.2-1.36,.19-1.63,0-3.43-.24-1.07-1.26-1.74-2.33-1.5-.45,.11-.8,.22-1.15,.42-1.23,.6-2.36,1.38-3.21,2.42-1.7,1.98-3.03,4.12-4.17,6.35-.16,.37-.23,.82-.77,.76-.08-1.53-.17-3.14-.25-4.67s-.25-3.14-.42-4.66c-.03-.63-.6-1.05-1.23-1.02-.63,.03-1.15,.42-1.21,1.05,.03,.54,.06,1.17,.09,1.71,.31,5.93,.71,11.86,1.11,17.79,.01,.27-.07,.45,.03,.63,.13,.71,.69,1.22,1.32,1.19m-14.09-26.39c.71-.13,1.31-.79,1.27-1.51-.04-.72-.6-1.23-1.32-1.19-.72,.04-1.31,.7-1.27,1.51,.12,.62,.7,1.23,1.32,1.19m2.8,24.28c1.36,.11,2.51-.31,3.56-.91,3.95-2.1,5.57-10.66,7.25-14.71,.63-1.66-1.3-2.37-1.95-1.07-2.11,4.44-3.67,12.45-7.03,13.8-1.32,.61-2.51,.31-3.37-.72-.48-.61-.8-1.4-1.1-2.11-.74-2.03-.67-4.11-.51-6.19,.01-1.53,.2-2.98,.3-4.52-.03-.54,.04-.99-.08-1.53-.03-.63-.33-1.15-.88-1.4-2.57-.95-2.07,10.38-1.92,11.46,.1,1.89,.65,3.75,1.72,5.32,.98,1.48,2.28,2.31,4.01,2.58m-29.88,28.24c2.87,1.38,5.47,1.16,7.98-.78,.87-.59,1.64-1.35,2.23-2.1,.92-1.31,1.67-2.52,2.41-3.82,1.16-2.04,1.77-4.06,2.56-6.17,2.22-7.42,3.36-14.96,3.68-22.63,.01-1.44,.02-2.98,.03-4.51-.28-3.68-.48-7.37-.77-11.23-.46-5.38-1.19-10.66-2.28-16.01-1.42-6.5-2.93-13-4.36-19.51-.57-2.22-1.13-4.36-1.69-6.49-.12-.54-.42-1.15-.71-1.59-.39-.61-1.3-.65-1.99-.17-.62,.3-.92,1.31-.45,1.74,.96,1.03,1.02,2.29,1.35,3.44,1.29,5.7,2.49,11.41,3.87,17.01,.97,4.73,1.93,9.36,2.54,14.11,.67,4.29,.99,8.51,1.31,12.91,.7,8.17,.32,16.39-1.33,24.4-.7,3.82-1.68,7.57-3.2,11.07-.56,1.38-1.3,2.77-2.13,4.17-.57,1.11-1.42,2.06-2.28,2.82-1.9,1.54-3.78,1.82-5.73,.66-.93-.58-1.86-1.16-2.63-1.93-1.22-1.02-2.27-2.13-3.23-3.26-1.73-2.07-3.2-4.34-4.68-6.78-2.38-4.2-4.51-8.69-6.46-13.18-2.04-4.49-3.81-8.99-5.84-13.48-.72-1.76-1.44-3.35-2.34-5.01-.31-.7-.97-1.39-1.63-1.9-1.05-1.03-2.3-.87-3.14,.25-.42,.65-.74,1.3-.88,2.03-.4,1.01-.7,2.2-.99,3.39-1.1,4.74-2.21,9.49-3.76,14.26-.93,2.93-1.85,5.95-3.24,8.73-.57,1.11-1.33,2.14-2,3.17-.25,.37-.59,.84-1.22,.79q-1.12-.75-1.73-2.07c-.72-1.76-1.28-3.72-1.64-5.59-1.05-4.54-1.83-9.1-2.25-13.67-.43-4.84-.95-9.59-1.29-14.35-.14-2.61-.28-5.3-.42-8-.08-3.33-.34-6.56-.34-9.9-.24-4.58-.22-9.27-.37-13.86-.07-1.26-.13-2.52-.2-3.78-.04-.72-.17-1.52-.39-2.32-.01-.27-.12-.62-.31-.79-.3-.53-.67-.69-1.2-.57-.45,.02-.89,.32-.95,.77-.16,.37-.15,.64-.13,1,.04,.72,.26,1.52,.21,2.33,.15,2.88,.3,5.75,.36,8.54,.16,4.86,.24,9.72,.4,14.58,.24,4.67,.4,9.35,.74,14.11,.28,5.3,.73,10.6,1.46,15.88,.66,4.02,1.33,8.13,2.34,12.04,.34,1.42,.87,2.93,1.4,4.34,.31,.8,.81,1.76,1.49,2.54,1.45,1.91,3.54,2.16,5.34,.44,.7-.49,1.2-1.23,1.7-1.89,.66-1.12,1.23-2.23,1.71-3.51,1.04-2.49,1.99-4.97,2.85-7.54,1.71-5.14,2.97-10.43,4.22-15.72,.22-.91,.53-1.83,.92-3.02,.76,.77,1.07,1.48,1.38,2.27,.81,1.76,1.64,3.7,2.36,5.55,2.57,5.99,4.95,12,7.87,17.79,1.61,3.25,3.32,6.59,5.28,9.55,1.86,2.88,3.89,5.47,6.36,7.78,1.14,1.02,2.54,2.03,3.84,2.68" style="fill: #162259;"/>
  </g>
</svg>