<?xml version="1.0" encoding="UTF-8"?>
<svg id="a" data-name="Ebene 1" xmlns="http://www.w3.org/2000/svg" xmlns:xlink="http://www.w3.org/1999/xlink" viewBox="0 0 263.93 126.37">
  <defs>
    <clipPath id="b">
      <rect width="263.93" height="126.37" style="fill: none;"/>
    </clipPath>
  </defs>
  <g style="clip-path: url(#b);">
    <path d="M261.16,60.34c1.02,.49,2.26,.06,2.56-1.04,.17-.28,.15-.55,.22-1-.11-.45-.23-.98-.43-1.42-.19-.26-.48-.52-.75-.5-.91-.22-1.72-.09-2.31,.66-.94,.95-.5,2.55,.71,3.3m-26.92,50.44c-.85-.77-1.26-1.74-1.4-2.72-.27-1.7-.27-3.41,0-5.14,.52-3.9,1.67-7.75,3-11.51,1.73-4.87,3.73-9.57,6.1-14.2,1.39-2.69,2.79-5.28,4.27-7.97,.25-.46,.5-.84,.74-1.3,.17-.28,.25-.46,.33-.65,0,1.53-.07,3.79-.18,5.24-.83,10.05-2.28,20.04-5.11,29.74-.53,2.01-1.24,3.94-2.04,5.87-.32,.83-.81,1.66-1.32,2.41-1.26,1.69-3.16,1.52-4.4,.23m-1.51,2.15c2.17,1.96,5.78,1.95,7.8-.68,.68-.85,1.26-1.78,1.75-2.8,.64-1.57,1.28-3.13,1.82-4.78,1.85-6.04,3.14-12.24,4.08-18.51,.89-5.36,1.52-10.62,1.68-16.04,.06-2.26,.12-4.6,.18-6.86-.04-.72,.2-1.36,.53-2.01,2.23-3.9,7.3-10.39,10.95-14.63,1.26-1.69-1.04-2.65-1.89-1.61-2.82,2.94-7.48,8.68-9.63,12.22-.05-.99-.11-2.16-.22-4.22-.05-.9-.9-1.66-1.54-1.9-.64-.15-1.25,.16-1.75,.99-.17,.28-.25,.46-.41,.83-.32,.74-.64,1.57-1.05,2.31-.48,1.11-.97,2.12-1.64,3.15-.5,.75-1.1,1.41-1.98,1.82-.97,.41-1.71,.09-2.03-.88-.5-2.68-.58-7.63,2.23-10.84,1.2-1.14,3.43-1.62,3.18,.55-.15,.55-.21,1.18-.27,1.73-.07,.45,.22,.71,.59,.87,.46,.16,.81,.05,1.16-.15,.08-.09,.26-.28,.34-.47,.58-.93,.89-1.94,.83-3.02-.12-2.25-3.44-3.78-5.91-2.66-.79,.4-1.39,.97-1.99,1.64-3.33,3.6-4.16,10.04-2.34,13.73,.72,1.76,2.11,2.5,3.99,2.22,.62-.12,1.24-.43,1.85-.73,1.05-.51,1.91-1.45,2.66-2.57,.25-.37,.99-1.67,1.33-2.23,0,0,.02,2.07,.14,4.41-.06,.54-.31,1.01-.55,1.47-2.14,3.81-4.2,7.61-6.25,11.41-2.87,5.47-5.46,11.1-7.4,17.06-1.09,3.21-2,6.5-2.55,9.87-.35,2-.6,4-.31,6.05,.29,2.06,.93,3.92,2.62,5.27m-4.95-73.73c.72-.13,1.31-.79,1.27-1.51-.04-.72-.61-1.23-1.32-1.19-.72,.04-1.32,.7-1.27,1.51,.12,.62,.7,1.23,1.32,1.19m2.81,24.28c1.36,.11,2.51-.31,3.56-.91,3.95-2.1,5.57-10.66,7.25-14.71,.63-1.66-1.29-2.37-1.95-1.07-2.11,4.44-3.67,12.45-7.03,13.8-1.32,.61-2.51,.31-3.37-.73-.48-.6-.79-1.4-1.1-2.1-.74-2.03-.67-4.11-.5-6.19,0-1.53,.2-2.99,.3-4.52-.03-.54,.04-.99-.08-1.53-.03-.63-.33-1.15-.89-1.4-2.57-.95-2.07,10.38-1.92,11.46,.1,1.89,.65,3.75,1.72,5.32,.98,1.48,2.28,2.31,4.01,2.58m-11.27-31.04c-.17-3.24,2.6-14.1,4.33-17.17,.1,.18,.2,.35,.21,.53,.11,5.49-.69,10.85-1.75,16.4-1.07,.24-1.96,.37-2.78,.24m-1.36,13.68c.08-3.7,.25-7.22,.7-10.67,.27-.1,.44-.2,.62-.21,.62-.12,1.43-.17,2.15-.29,.02,.36-.15,.64-.14,.82-.81,3.38-1.72,6.67-3,9.89,0,.09-.17,.19-.34,.47m5.61,53.78c.44-.2,.87-.68,.93-1.22,0-.18-.02-.36-.03-.54-.61-2.94-1.12-5.98-1.73-8.92-1.23-6.33-2.47-12.67-3.25-19.11-.71-4.92-1.06-9.86-1.41-14.8-.06-1.17,.06-2.26,.55-3.27,2.08-5.07,3.79-10.29,5.04-15.68,.15-.55,.31-1.01,.46-1.56,1.99,.08,3.7,.08,5.16,.36,1.55,.28,2.57-2.57,.03-2.8-2.63-.22-3.16-.19-4.62-.48,.07-.36,.14-.73,.21-1.09,.37-3.26,.92-6.54,1.29-9.71,.22-2.62,.44-5.25,.13-7.85-.13-.81-.26-1.61-.57-2.31-.51-1.06-1.78-1.26-2.63-.4-.43,.38-.77,.85-1.01,1.4-.65,1.3-1.22,2.59-1.68,3.96-1.81,4.96-2.99,9.98-3.8,15.25-.15,.55-.3,1.19-.36,1.73-.26,.1-2.41,.49-3.47,.81-.62,.12-1.33,.34-2.04,.65-.53,.21-.86,.86-.64,1.48,.12,.53,.68,.87,1.39,.74,.53-.12,1.15-.33,1.69-.45,.89-.14,1.78-.45,2.68-.41-.06,.63-.02,1.44-.08,1.9-.14,2.53-.37,4.98-.42,7.5-.15,2.26-.03,4.51,0,6.85-.05,.81-.1,4.87,.21,7.47,.35,3.32,.8,6.63,1.06,9.95,.36,3.41,.99,6.8,1.53,10.19,.63,3.48,1.36,6.96,1.99,10.44,.51,2.77,1.01,5.54,1.61,8.3,.11,.44,.32,.88,.51,1.23,.29,.35,.75,.5,1.28,.38m-30.82-56.69c-.03-.63-.05-.99-.07-1.26,0-8.56,.46-16.97,2.19-25.35,.65-3.1,1.39-6.11,2.68-9.06,.48-1.11,1.23-2.32,1.89-3.43,.16-.37,.6-.66,.85-.95,.26-.19,.44-.29,.7-.49,.74,.41,.96,1.12,1.09,1.84,.67,2.49,.98,5,.94,7.61,.03,5.68-1.4,11.07-3.29,16.39-1.65,4.59-3.67,9.11-6.06,13.39-.16,.37-.5,.75-.92,1.31m1.6,49.39c.45-.02,1.06-.42,1.13-.87,.16-.46,.13-.91,.11-1.36-.23-4.31-.09-8.56,.05-12.8,.21-6.41,.95-12.76,2.25-19.04,.15-.55,.31-1.01,.45-1.74,.61,1.32,1.03,2.38,1.53,3.43,1,1.93,2.27,3.67,4.05,5.02,5.28,4.41,12.73-8.15,14.22-15.89,.62-1.93-1.48-2.45-1.76-.99-2,6.59-7.33,18.41-11.49,14.66-1.32-1.19-2.32-3.03-3.04-4.62-.52-1.32-.95-2.74-1.47-4.07-.22-.71-.44-1.42-.74-2.03-.6-1.14-2.13-1.15-2.7,.05-.32,.74-.64,1.56-.78,2.38-.57,2.91-1.14,5.83-1.62,8.65-.2,1.27-.41,2.45-.69,4-.12-.53-.21-.62-.22-.8-.21-5.76-.51-11.51-.82-17.26-.04-.81,.28-1.55,.7-2.2,2.91-4.75,5.35-9.74,7.51-14.9,1.19-3.04,2.29-6.16,3.02-9.35,1.2-4.57,1.86-9.2,1.43-13.96-.1-1.89-.38-3.76-1.01-5.53-.31-.79-.71-1.58-1.2-2.28-.87-1.13-2.24-1.41-3.55-.71-.61,.39-1.13,.87-1.64,1.35-.94,.95-1.6,2.07-2.17,3.27-1.47,2.87-2.4,5.89-3.13,9-1.25,5.29-1.88,10.55-2.32,15.98-.25,3.89-.36,6.96-.3,8.13-.03,4.51-.05,11,.21,16.12,.31,5.84,.53,11.78,1.01,17.61,.59,6.19,1.01,12.39,1.51,18.58,.02,.45,.05,.99,.25,1.34,.12,.53,.77,.86,1.22,.84m-19.13-26.22c8.05-1.14,13.33-8.72,16.21-15.72,1.22-2.41-.96-2.74-1.86-1.16-3.28,6.21-6.02,12.48-14.56,14.46-2.15,.29-3.16-1.91-3.41-3.25-.76-4.2-.08-6.66,1.42-9.09,.25-.37,.51-.66,.86-.86,.18-.1,.44-.2,.62-.21,1.16-.24,.08,3.24,.6,4.65,.22,.71,1.13,.84,1.64,.28,.77-.85,.98-3.66,.53-5.35-.65-2.13-2.68-2.92-4.59-1.65-.96,.59-1.73,1.44-2.31,2.28-1.24,2.05-1.91,4.88-1.52,8.91-.01,1.44,.42,2.77,1.12,4.09,1.19,2.01,2.94,2.82,5.27,2.61m-16.46-23.56c.71-.13,1.31-.79,1.27-1.51-.04-.72-.61-1.23-1.32-1.19-.72,.04-1.32,.7-1.27,1.51,.12,.62,.69,1.22,1.32,1.19m2.8,24.28c1.36,.11,2.51-.31,3.56-.91,3.94-2.1,5.57-10.66,7.25-14.71,.63-1.66-1.3-2.37-1.95-1.07-2.11,4.44-3.67,12.45-7.03,13.8-1.32,.61-2.51,.31-3.37-.72-.48-.61-.79-1.4-1.1-2.11-.74-2.03-.67-4.11-.5-6.19,.01-1.53,.2-2.98,.3-4.52-.03-.54,.04-.99-.08-1.53-.03-.63-.33-1.15-.88-1.39-2.57-.95-2.07,10.38-1.92,11.46,.1,1.89,.65,3.75,1.72,5.32,.98,1.48,2.29,2.31,4.01,2.58m-22.78,3.9c.72-.04,1.15-.51,1.29-1.24,.08-.09,.08-.27,.07-.36-.12-2.25,.58-4.36,1.1-6.55,.82-3.2,2.39-5.89,4.33-8.52,.6-.66,1.19-1.41,2.33-2.01-.22,1-.29,1.37-.25,2.18,.14,.89,1.07,1.48,1.87,1.25,.89-.14,1.22-.7,1.44-1.79,.2-1.36,.18-1.63,0-3.43-.24-1.07-1.26-1.74-2.33-1.5-.44,.11-.8,.22-1.15,.42-1.23,.6-2.36,1.38-3.21,2.42-1.7,1.98-3.03,4.12-4.17,6.35-.16,.37-.23,.82-.77,.76-.08-1.53-.16-3.15-.24-4.67-.08-1.53-.26-3.14-.42-4.66-.03-.63-.6-1.05-1.23-1.02-.63,.03-1.15,.42-1.21,1.05,.03,.54,.06,1.17,.09,1.71,.31,5.93,.71,11.86,1.11,17.79,.01,.27-.07,.45,.03,.63,.13,.71,.7,1.22,1.32,1.19m-23.92-2.53c3.97-3.45,3.64-9.74,5.9-14.64,.64-1.66-1.64-2.17-2.11-.7-2.32,5.62-3.18,13.33-6.39,13.94-.91-.22-1.31-.92-1.7-1.53-.98-1.57-1.53-3.35-1.72-5.23-.15-1.16-.22-2.42-.28-3.68-.03-.54-.06-1.08-.08-1.53-.12-.62-.5-.97-1.05-1.12-.54-.06-1.07,.24-1.31,.7-.16,.37-.23,.73-.39,1.1-.38,1.37-.85,2.75-1.32,4.12-.48,1.11-1.71,3.51-2.31,4.09-.09,.09-.36,.11-.54-.06-.58-.69-.69-1.04-.91-1.84-.35-1.42-.52-2.95-.42-4.48,.03-1.08,.17-3.61-.15-4.5-.22-.71-1.41-1.1-2.01-.52-.51,.57-.66,2.92-.49,6.06,.04,.72,.18,1.7,.22,2.42,.26,1.61,.7,3.12,1.58,4.42,1.17,1.65,2.89,1.92,4.35,.49,.68-.76,1.18-1.59,1.67-2.43,.34-.47,.58-.93,1-1.58,.33,1.06,.65,2.04,1.05,2.92,.42,1.06,.92,2.12,1.69,3.07,1.73,1.98,3.72,2.15,5.7,.51m-25.65,2.34c1.17,.03,2.31-.66,3.07-1.6,.76-.94,2.71-5.01,4.01-7.69,1.06-2.13,2.12-4.26,3.27-6.3,.9-1.67-.96-2.92-2.13-1.15l-.17,.19c0,.09-.09,.09-.08,.18-1.25,1.96-2.13,4.08-3.2,6.12-1.56,2.88-3.37,7.93-4.38,7.62-.55-.24-.76-.77-.96-1.12-.41-.97-.64-1.95-.79-2.93-.05-.99,0-1.89-.06-2.88-.03-.54,.04-.99,.1-1.54-.05-.9-.44-1.51-1.08-1.75-.64-.15-1.25,.16-1.75,.99-.17,.28-.24,.55-.4,.92-.32,.74-.55,1.56-.96,2.3-.48,1.11-.97,2.12-1.55,3.15-.5,.84-1.09,1.5-1.97,1.91-.97,.41-1.7,.18-2.02-.8-.59-2.67-.76-7.62,1.95-10.92,1.11-1.23,3.34-1.71,3.18,.46-.15,.55-.21,1.18-.27,1.73,.02,.45,.31,.7,.68,.87,.46,.16,.81,.05,1.16-.24,.08-.09,.26-.28,.34-.47,.49-.93,.8-1.93,.74-3.01-.21-2.24-3.53-3.69-5.99-2.48-.79,.4-1.39,.97-1.99,1.64-3.23,3.77-3.88,10.21-1.98,13.8,.81,1.76,2.2,2.5,4.08,2.13,.63-.12,1.24-.43,1.86-.73,1.05-.6,1.9-1.54,2.56-2.66,.25-.37,.5-.75,.83-1.31-.08,.1,.32,.98,.33,1.15,.63,1.77,1.3,4.26,3.56,4.41m-18.51,1.06c.61-.39,1.22-.87,1.64-1.35,4.26-4.64,6.05-11.85,6.57-14.04,.26-1.82-1.56-2.26-2.39-.87-.34,.47-2.7,8.61-5.57,12.46-.42,.56-1.03,1.05-1.55,1.43-.7,.49-1.42,.35-1.91-.26-.49-.7-.88-1.31-1.19-2.1-.71-1.58-1.16-3.27-1.44-5.06-.37-1.87-.65-3.84-1.11-5.8-.13-.8-.54-1.68-.94-2.47-1.38-2.18-3.55-2.34-5.25-.45-.25,.28-.51,.57-.77,.85-.33,.65-.74,1.3-.98,1.94-1.22,2.5-2.35,4.99-3.48,7.48-.16,.37-.32,.74-.48,1.2-.65-.33-.59-.87-.61-1.23-.4-2.41-.79-4.82-1.19-7.24-.23-.89-.45-1.78-.77-2.57-.81-1.76-1.6-1.36-1.95-1.16-.51,.57-.67,1.03-.09,3.52,.15,1.16,.4,2.41,.64,3.66,.51,2.86,1.02,5.71,1.53,8.66,.12,.54,.33,1.15,.62,1.59,.6,1.14,1.86,1.16,2.53,.14,.42-.65,.65-1.3,.89-1.94,1.33-3.76,2.86-7.36,4.66-10.88,.33-.65,.74-1.3,1.16-1.95,.17-.28,.52-.48,.86-.77,.3,.62,.6,1.05,.8,1.49,.22,.71,.44,1.51,.57,2.31,.25,1.34,.41,2.68,.66,4.02,.38,2.14,.86,4.28,1.86,6.21,.41,.88,.9,1.76,1.57,2.44,1.34,1.55,3.34,1.81,5.09,.72m-40.01-10.25c-.09,0,0,0,0,0-.07-1.44,1.53-3.5,2.39-4.36,.08,1.53-.65,3.1-2.39,4.36m5.9,11.14c6.41-1.42,11.74-9.9,13.07-13.75,.62-1.93-1.36-3.62-1.98-1.61-1.73,4.87-7.52,13.01-13.02,12.85-1.26-.02-2.37-.51-3.32-1.45-.95-.85-1.45-1.91-1.44-3.35l1.05-.59c2.62-1.58,4.21-3.92,4.95-6.93,.23-.73,.19-1.45,.07-2.17-.42-1.24-1.45-1.82-2.78-1.57-.36,.11-.71,.31-1.06,.51-.61,.48-1.21,1.05-1.63,1.62-1.27,1.6-2.08,3.35-2.7,5.19-.16,.46-.32,.83-.47,1.38-.21,1.09-.2,3.07,.25,4.76,1.19,3.72,5,5.96,9.01,5.11M4.25,122.83c-.85-.77-1.26-1.74-1.4-2.72-.27-1.7-.27-3.41,0-5.14,.52-3.9,1.67-7.75,3-11.51,1.73-4.87,3.73-9.57,6.11-14.2,1.39-2.69,2.79-5.28,4.27-7.97,.25-.46,.5-.84,.74-1.3,.17-.28,.25-.46,.33-.65-.01,1.53-.07,3.79-.18,5.24-.82,10.05-2.28,20.04-5.11,29.74-.53,2.01-1.24,3.94-2.04,5.88-.32,.83-.81,1.66-1.31,2.41-1.26,1.69-3.17,1.52-4.4,.23m-1.51,2.15c2.18,1.96,5.78,1.95,7.81-.68,.68-.85,1.26-1.78,1.75-2.79,.64-1.57,1.28-3.13,1.82-4.78,1.85-6.05,3.14-12.24,4.08-18.51,.89-5.36,1.52-10.62,1.68-16.04,.06-2.26,.12-4.6,.18-6.86-.04-.72,.2-1.36,.53-2.01,2.23-3.9,7.3-10.39,10.95-14.63,1.26-1.69-1.04-2.65-1.89-1.61-2.82,2.94-7.48,8.68-9.63,12.22-.05-.99-.11-2.16-.22-4.22-.05-.9-.9-1.67-1.54-1.9-.64-.15-1.25,.16-1.75,.99-.17,.28-.25,.46-.41,.83-.32,.74-.64,1.56-1.05,2.31-.48,1.11-.97,2.12-1.64,3.15-.5,.75-1.1,1.41-1.98,1.82-.97,.41-1.71,.09-2.03-.89-.5-2.68-.58-7.63,2.22-10.84,1.2-1.14,3.43-1.62,3.18,.56-.15,.55-.21,1.18-.27,1.73-.07,.45,.22,.71,.59,.87,.46,.16,.81,.05,1.16-.15,.09-.1,.26-.28,.34-.47,.58-.93,.89-1.94,.83-3.02-.12-2.25-3.44-3.79-5.91-2.67-.79,.4-1.39,.97-1.99,1.64-3.33,3.6-4.16,10.04-2.34,13.73,.72,1.76,2.11,2.5,3.99,2.22,.62-.12,1.24-.42,1.85-.73,1.06-.51,1.91-1.45,2.66-2.57,.25-.37,.99-1.67,1.32-2.23,0,0,.02,2.07,.14,4.41-.06,.54-.31,1.01-.55,1.47-2.14,3.81-4.2,7.61-6.25,11.41-2.87,5.47-5.46,11.1-7.4,17.06-1.09,3.21-2,6.5-2.55,9.87-.35,2-.6,4-.31,6.05,.29,2.06,.93,3.92,2.62,5.27" style="fill: #162259;"/>
  </g>
</svg>