<?xml version="1.0" encoding="UTF-8"?>
<svg id="a" data-name="Ebene 1" xmlns="http://www.w3.org/2000/svg" xmlns:xlink="http://www.w3.org/1999/xlink" viewBox="0 0 131.97 63.18">
  <defs>
    <clipPath id="b">
      <rect x="0" width="131.97" height="63.18" style="fill: none;"/>
    </clipPath>
  </defs>
  <g style="clip-path: url(#b);">
    <path d="M130.58,30.17c.51,.24,1.13,.03,1.28-.52,.08-.14,.08-.27,.11-.5-.06-.22-.12-.49-.22-.71-.1-.13-.24-.26-.37-.25-.46-.11-.86-.05-1.15,.33-.47,.48-.25,1.28,.36,1.65m-13.46,25.22c-.43-.38-.63-.87-.7-1.36-.13-.85-.13-1.7,0-2.57,.26-1.95,.83-3.87,1.5-5.76,.86-2.43,1.87-4.78,3.05-7.1,.7-1.34,1.39-2.64,2.13-3.99,.12-.23,.25-.42,.37-.65,.08-.14,.12-.23,.16-.32,0,.77-.04,1.9-.09,2.62-.41,5.02-1.14,10.02-2.56,14.87-.26,1.01-.62,1.97-1.02,2.94-.16,.41-.41,.83-.66,1.21-.63,.84-1.58,.76-2.2,.12m-.75,1.08c1.09,.98,2.89,.98,3.9-.34,.34-.42,.63-.89,.87-1.4,.32-.78,.64-1.57,.91-2.39,.92-3.02,1.57-6.12,2.04-9.25,.44-2.68,.76-5.31,.84-8.02,.03-1.13,.06-2.3,.09-3.43-.02-.36,.1-.68,.26-1.01,1.11-1.95,3.65-5.19,5.47-7.32,.63-.85-.52-1.33-.94-.81-1.41,1.47-3.74,4.34-4.82,6.11-.03-.49-.06-1.08-.11-2.11-.02-.45-.45-.83-.77-.95-.32-.07-.63,.08-.88,.5-.08,.14-.12,.23-.2,.42-.16,.37-.32,.78-.53,1.15-.24,.55-.49,1.06-.82,1.58-.25,.37-.55,.71-.99,.91-.49,.21-.85,.04-1.01-.44-.25-1.34-.29-3.81,1.11-5.42,.6-.57,1.72-.81,1.59,.28-.08,.27-.1,.59-.14,.86-.03,.23,.11,.35,.29,.44,.23,.08,.41,.02,.58-.08,.04-.05,.13-.14,.17-.23,.29-.47,.44-.97,.42-1.51-.06-1.12-1.72-1.89-2.95-1.33-.39,.2-.7,.49-.99,.82-1.66,1.8-2.08,5.02-1.17,6.87,.36,.88,1.06,1.25,2,1.11,.31-.06,.62-.21,.93-.36,.53-.25,.95-.73,1.33-1.29,.13-.19,.5-.84,.66-1.12,0,0,0,1.04,.07,2.2-.03,.27-.15,.5-.28,.74-1.07,1.9-2.1,3.8-3.13,5.71-1.43,2.73-2.73,5.55-3.7,8.53-.55,1.6-1,3.25-1.27,4.93-.17,1-.3,2-.16,3.03,.14,1.03,.46,1.96,1.31,2.63m-2.47-36.87c.36-.06,.66-.39,.64-.75-.02-.36-.3-.62-.66-.6-.36,.02-.66,.35-.64,.75,.06,.31,.35,.61,.66,.6m1.4,12.14c.68,.05,1.25-.16,1.78-.45,1.97-1.05,2.79-5.33,3.62-7.35,.32-.83-.65-1.18-.97-.53-1.06,2.22-1.84,6.22-3.51,6.9-.66,.31-1.25,.16-1.69-.36-.24-.3-.4-.7-.55-1.05-.37-1.02-.33-2.06-.25-3.1,0-.77,.1-1.49,.15-2.26-.01-.27,.02-.5-.04-.76-.02-.31-.17-.58-.44-.7-1.29-.47-1.03,5.19-.96,5.73,.05,.94,.32,1.88,.86,2.66,.49,.74,1.14,1.16,2.01,1.29m-5.63-15.52c-.08-1.62,1.3-7.05,2.16-8.58,.05,.09,.1,.17,.1,.26,.05,2.75-.35,5.43-.88,8.2-.54,.12-.98,.19-1.39,.12m-.68,6.84c.04-1.85,.13-3.61,.35-5.34,.13-.05,.22-.1,.31-.11,.31-.06,.72-.08,1.07-.15,0,.18-.07,.32-.07,.41-.41,1.69-.86,3.33-1.5,4.95,0,.04-.08,.09-.17,.23m2.81,26.89c.22-.1,.43-.34,.46-.61,0-.09,0-.18-.01-.27-.3-1.47-.56-2.99-.86-4.46-.62-3.17-1.23-6.33-1.63-9.56-.36-2.46-.53-4.93-.7-7.4-.03-.58,.03-1.13,.27-1.64,1.04-2.53,1.89-5.15,2.52-7.84,.08-.27,.15-.5,.23-.78,.99,.04,1.85,.04,2.58,.18,.77,.14,1.28-1.28,.02-1.4-1.31-.11-1.58-.1-2.31-.24,.04-.18,.07-.36,.11-.55,.18-1.63,.46-3.27,.65-4.86,.11-1.31,.22-2.62,.06-3.92-.07-.4-.13-.81-.29-1.16-.25-.53-.89-.63-1.32-.2-.22,.19-.38,.42-.5,.7-.33,.65-.61,1.29-.84,1.98-.91,2.48-1.5,4.99-1.9,7.62-.08,.27-.15,.59-.18,.86-.13,.05-1.2,.24-1.74,.41-.31,.06-.67,.17-1.02,.32-.26,.1-.43,.43-.32,.74,.06,.27,.34,.43,.69,.37,.27-.06,.58-.17,.84-.22,.45-.07,.89-.23,1.34-.21-.03,.32,0,.72-.04,.95-.07,1.27-.18,2.49-.21,3.75-.08,1.13-.02,2.25,0,3.42-.02,.41-.05,2.44,.11,3.73,.18,1.66,.4,3.31,.53,4.97,.18,1.7,.49,3.4,.76,5.1,.32,1.74,.68,3.48,.99,5.22,.25,1.38,.51,2.77,.8,4.15,.06,.22,.16,.44,.26,.62,.14,.17,.37,.25,.64,.19m-15.41-28.35c-.02-.31-.03-.49-.03-.63,0-4.28,.23-8.48,1.09-12.67,.32-1.55,.7-3.06,1.34-4.53,.24-.55,.62-1.16,.95-1.72,.08-.19,.3-.33,.43-.47,.13-.1,.22-.15,.35-.24,.37,.21,.48,.56,.54,.92,.33,1.24,.49,2.5,.47,3.81,.01,2.84-.7,5.53-1.64,8.2-.83,2.3-1.83,4.56-3.03,6.69-.08,.18-.25,.37-.46,.65m.8,24.7c.22-.01,.53-.21,.56-.44,.08-.23,.07-.45,.05-.68-.11-2.16-.04-4.28,.03-6.4,.1-3.21,.48-6.38,1.12-9.52,.08-.27,.15-.5,.22-.87,.31,.66,.51,1.19,.77,1.72,.5,.97,1.13,1.83,2.02,2.51,2.64,2.2,6.37-4.07,7.11-7.94,.31-.96-.74-1.22-.88-.49-1,3.3-3.66,9.2-5.74,7.33-.66-.6-1.16-1.52-1.52-2.31-.26-.66-.48-1.37-.74-2.03-.11-.35-.22-.71-.37-1.02-.3-.57-1.07-.58-1.35,.03-.16,.37-.32,.78-.39,1.19-.28,1.46-.57,2.91-.81,4.32-.1,.64-.21,1.23-.35,2-.06-.27-.11-.31-.11-.4-.11-2.88-.26-5.75-.41-8.63-.02-.4,.14-.77,.35-1.1,1.45-2.37,2.67-4.87,3.76-7.45,.6-1.52,1.14-3.08,1.51-4.67,.6-2.28,.93-4.6,.72-6.98-.05-.94-.19-1.88-.51-2.77-.16-.4-.36-.79-.6-1.14-.44-.56-1.12-.71-1.78-.36-.31,.2-.56,.44-.82,.67-.47,.48-.8,1.03-1.09,1.63-.74,1.44-1.2,2.95-1.57,4.5-.63,2.65-.94,5.28-1.16,7.99-.12,1.94-.18,3.48-.15,4.06-.02,2.25-.03,5.5,.11,8.06,.15,2.92,.26,5.89,.51,8.8,.3,3.09,.5,6.19,.76,9.29,.01,.22,.03,.49,.12,.67,.06,.27,.38,.43,.61,.42m-9.56-13.11c4.03-.57,6.67-4.36,8.11-7.86,.61-1.2-.48-1.37-.93-.58-1.64,3.1-3.01,6.24-7.28,7.23-1.07,.15-1.58-.95-1.71-1.62-.38-2.1-.04-3.33,.71-4.54,.13-.19,.25-.33,.43-.43,.09-.05,.22-.1,.31-.11,.58-.12,.04,1.62,.3,2.33,.11,.35,.56,.42,.82,.14,.38-.43,.49-1.83,.27-2.67-.33-1.06-1.34-1.46-2.3-.83-.48,.3-.86,.72-1.16,1.14-.62,1.02-.95,2.44-.76,4.46,0,.72,.21,1.39,.56,2.04,.59,1.01,1.47,1.41,2.64,1.3m-8.23-11.78c.36-.06,.65-.4,.64-.75-.02-.36-.3-.61-.66-.6-.36,.02-.66,.35-.64,.76,.06,.31,.35,.61,.66,.6m1.4,12.14c.68,.05,1.25-.16,1.78-.45,1.97-1.05,2.78-5.33,3.62-7.35,.32-.83-.65-1.18-.97-.53-1.06,2.22-1.84,6.23-3.51,6.9-.66,.31-1.25,.16-1.69-.36-.24-.3-.4-.7-.55-1.05-.37-1.02-.33-2.06-.25-3.1,0-.77,.1-1.49,.15-2.26-.01-.27,.02-.5-.04-.76-.02-.31-.17-.58-.44-.7-1.29-.47-1.04,5.19-.96,5.73,.05,.94,.32,1.87,.86,2.66,.49,.74,1.14,1.16,2.01,1.29m-11.39,1.95c.36-.02,.57-.26,.64-.62,.04-.05,.04-.14,.04-.18-.06-1.12,.29-2.18,.55-3.27,.41-1.6,1.2-2.95,2.17-4.26,.3-.33,.59-.71,1.16-1.01-.11,.5-.15,.68-.12,1.09,.07,.45,.53,.74,.93,.63,.45-.07,.61-.35,.72-.89,.1-.68,.09-.82,0-1.71-.12-.53-.63-.87-1.17-.75-.22,.06-.4,.11-.57,.21-.62,.3-1.18,.69-1.6,1.21-.85,.99-1.51,2.06-2.09,3.17-.08,.18-.11,.41-.39,.38-.04-.76-.08-1.57-.12-2.34-.04-.76-.13-1.57-.21-2.33-.02-.31-.3-.53-.61-.51-.32,.02-.57,.21-.6,.53,.01,.27,.03,.58,.04,.85,.15,2.97,.35,5.93,.56,8.89,0,.14-.03,.23,.02,.32,.06,.36,.35,.61,.66,.6m-11.96-1.27c1.98-1.73,1.82-4.87,2.95-7.32,.32-.83-.82-1.08-1.05-.35-1.16,2.81-1.59,6.66-3.19,6.97-.46-.11-.65-.46-.85-.77-.49-.79-.76-1.67-.86-2.61-.08-.58-.11-1.21-.14-1.84-.01-.27-.03-.54-.04-.76-.06-.31-.25-.48-.53-.56-.27-.03-.53,.12-.66,.35-.08,.18-.12,.37-.2,.55-.19,.69-.42,1.37-.66,2.06-.24,.55-.85,1.76-1.15,2.04-.04,.05-.18,.05-.27-.03-.29-.34-.34-.52-.45-.92-.17-.71-.26-1.47-.21-2.24,.02-.54,.09-1.81-.07-2.25-.11-.35-.7-.55-1.01-.26-.25,.28-.33,1.46-.25,3.03,.02,.36,.09,.85,.11,1.21,.13,.8,.35,1.56,.79,2.21,.58,.83,1.45,.96,2.18,.25,.34-.38,.59-.8,.84-1.22,.17-.23,.29-.47,.5-.79,.16,.53,.32,1.02,.53,1.46,.21,.53,.46,1.06,.85,1.53,.86,.99,1.86,1.07,2.85,.26m-12.83,1.17c.59,.01,1.15-.33,1.54-.8,.38-.47,1.35-2.5,2.01-3.85,.53-1.06,1.06-2.13,1.64-3.15,.45-.83-.48-1.46-1.07-.58l-.08,.09s-.04,.05-.04,.09c-.62,.98-1.06,2.04-1.6,3.06-.78,1.44-1.68,3.96-2.19,3.81-.28-.12-.38-.39-.48-.56-.21-.49-.32-.97-.39-1.47-.02-.5,0-.95-.03-1.44-.01-.27,.02-.5,.05-.77-.02-.45-.22-.76-.54-.87-.32-.07-.63,.08-.88,.5-.08,.14-.12,.28-.2,.46-.16,.37-.27,.78-.48,1.15-.24,.55-.49,1.06-.77,1.57-.25,.42-.55,.75-.99,.95-.48,.2-.85,.09-1.01-.4-.3-1.34-.38-3.81,.98-5.46,.55-.61,1.67-.85,1.59,.23-.08,.27-.1,.59-.13,.86,.01,.22,.15,.35,.34,.43,.23,.08,.41,.02,.58-.12,.04-.05,.13-.14,.17-.23,.25-.46,.4-.97,.37-1.51-.1-1.12-1.76-1.84-2.99-1.24-.39,.2-.7,.49-.99,.82-1.61,1.89-1.94,5.1-.99,6.9,.41,.88,1.1,1.25,2.04,1.07,.31-.06,.62-.21,.93-.36,.52-.3,.95-.77,1.28-1.33,.12-.19,.25-.37,.42-.65-.04,.05,.16,.49,.17,.58,.32,.88,.65,2.13,1.78,2.2m-9.25,.53c.31-.2,.61-.44,.82-.67,2.13-2.32,3.02-5.93,3.28-7.02,.13-.91-.78-1.13-1.19-.43-.17,.23-1.35,4.31-2.78,6.23-.21,.28-.51,.52-.77,.72-.35,.24-.71,.17-.95-.13-.24-.35-.44-.65-.6-1.05-.36-.79-.58-1.64-.72-2.53-.18-.94-.33-1.92-.56-2.9-.07-.4-.27-.84-.47-1.24-.69-1.09-1.77-1.17-2.63-.22-.13,.14-.26,.28-.38,.43-.16,.32-.37,.65-.49,.97-.61,1.25-1.18,2.49-1.74,3.74-.08,.18-.16,.37-.24,.6-.32-.16-.29-.43-.3-.61-.2-1.21-.4-2.41-.6-3.62-.11-.44-.23-.89-.38-1.29-.41-.88-.8-.68-.98-.58-.26,.28-.33,.51-.04,1.76,.08,.58,.2,1.21,.32,1.83,.25,1.43,.51,2.86,.77,4.33,.06,.27,.17,.58,.31,.8,.3,.57,.93,.58,1.27,.07,.21-.33,.33-.65,.45-.97,.67-1.88,1.43-3.68,2.33-5.44,.16-.32,.37-.65,.58-.98,.08-.14,.26-.24,.43-.38,.15,.31,.3,.53,.4,.74,.11,.35,.22,.76,.29,1.16,.12,.67,.21,1.34,.33,2.01,.19,1.07,.43,2.14,.93,3.1,.2,.44,.45,.88,.78,1.22,.67,.78,1.67,.9,2.54,.36m-20.01-5.12s0,0,0,0c-.04-.72,.76-1.75,1.19-2.18,.04,.76-.33,1.55-1.19,2.18m2.95,5.57c3.21-.71,5.87-4.95,6.53-6.88,.31-.96-.68-1.81-.99-.8-.86,2.43-3.76,6.5-6.51,6.42-.63-.01-1.18-.25-1.66-.72-.47-.43-.73-.95-.72-1.68l.52-.3c1.31-.79,2.1-1.96,2.48-3.47,.12-.37,.1-.73,.03-1.08-.21-.62-.72-.91-1.39-.78-.18,.05-.35,.15-.53,.25-.3,.24-.6,.53-.81,.81-.63,.8-1.04,1.68-1.35,2.6-.08,.23-.16,.41-.23,.69-.11,.55-.1,1.54,.12,2.38,.59,1.86,2.5,2.98,4.51,2.56M2.13,61.41c-.43-.38-.63-.87-.7-1.36-.13-.85-.13-1.7,0-2.57,.26-1.95,.83-3.87,1.5-5.76,.86-2.43,1.87-4.78,3.05-7.1,.7-1.34,1.39-2.64,2.13-3.99,.12-.23,.25-.42,.37-.65,.08-.14,.12-.23,.16-.32,0,.77-.04,1.89-.09,2.62-.41,5.02-1.14,10.02-2.55,14.87-.26,1.01-.62,1.97-1.02,2.94-.16,.41-.41,.83-.66,1.21-.63,.84-1.58,.76-2.2,.12m-.75,1.08c1.09,.98,2.89,.98,3.9-.34,.34-.42,.63-.89,.87-1.4,.32-.78,.64-1.57,.91-2.39,.92-3.02,1.57-6.12,2.04-9.26,.45-2.68,.76-5.31,.84-8.02,.03-1.13,.06-2.3,.09-3.43-.02-.36,.1-.68,.26-1,1.11-1.95,3.65-5.19,5.48-7.32,.63-.84-.52-1.32-.94-.81-1.41,1.47-3.74,4.34-4.82,6.11-.03-.49-.06-1.08-.11-2.11-.02-.45-.45-.83-.77-.95-.32-.07-.63,.08-.88,.5-.08,.14-.12,.23-.2,.42-.16,.37-.32,.78-.52,1.15-.24,.55-.49,1.06-.82,1.58-.25,.37-.55,.7-.99,.91-.49,.2-.85,.04-1.01-.44-.25-1.34-.29-3.82,1.11-5.42,.6-.57,1.71-.81,1.59,.28-.08,.27-.1,.59-.14,.86-.03,.23,.11,.35,.29,.44,.23,.08,.41,.02,.58-.08,.04-.05,.13-.14,.17-.24,.29-.47,.44-.97,.42-1.51-.06-1.12-1.72-1.89-2.95-1.33-.39,.2-.7,.49-.99,.82-1.66,1.8-2.08,5.02-1.17,6.87,.36,.88,1.06,1.25,2,1.11,.31-.06,.62-.21,.93-.36,.53-.25,.95-.73,1.33-1.29,.12-.19,.5-.84,.66-1.12,0,0,0,1.04,.07,2.2-.03,.27-.15,.5-.28,.74-1.07,1.9-2.1,3.81-3.13,5.71-1.43,2.73-2.73,5.55-3.7,8.53-.55,1.61-1,3.25-1.27,4.93-.17,1-.3,2-.16,3.03,.14,1.03,.46,1.96,1.31,2.63" style="fill: #162259;"/>
  </g>
</svg>