<?xml version="1.0" encoding="utf-8"?>
<!-- Generator: Adobe Illustrator 26.3.1, SVG Export Plug-In . SVG Version: 6.00 Build 0)  -->
<svg version="1.1" xmlns="http://www.w3.org/2000/svg" xmlns:xlink="http://www.w3.org/1999/xlink" x="0px" y="0px"
	 viewBox="0 0 490.9 288.3" style="enable-background:new 0 0 490.9 288.3;" xml:space="preserve">
<style type="text/css">
	.st0{fill:#00ADEA;}
	.st1{fill:#0F4988;}
	.st2{fill:#162259;}
	.st3{clip-path:url(#SVGID_00000018225817565198824760000009751892954020519581_);fill:#0F4988;}
	
		.st4{clip-path:url(#SVGID_00000141427787442235011810000012966795077330510510_);fill:url(#SVGID_00000095330187766903467890000000517160696156054401_);}
</style>
<g id="Stern">
	<path class="st0" d="M404.3,229.4l-30.9,0c-7.4,22-18.2,32.1-28.1,42.9l16.7-12.1l26.1,19l-10-30.7L404.3,229.4z"/>
	<path class="st1" d="M362.2,198.7l-10,30.7l-32.3,0l26.1,19c0,0-7.1,9.9-12,15.7c-5.8,6.9-19,19.9-19,19.9
		c25.6-11.8,48.7-39.2,56.9-55.4L362.2,198.7z"/>
</g>
<g id="S">
</g>
<g id="Punkte_00000036237158245505811620000005321943355885514942_">
	<path class="st2" d="M9.9,130c-5.5,0-9.9-4.4-9.9-9.9s4.4-9.9,9.9-9.9s9.9,4.4,9.9,9.9S15.4,130,9.9,130"/>
	<path class="st2" d="M114.1,240.6c-5.5,0-9.9-4.4-9.9-9.9c0-5.5,4.4-9.9,9.9-9.9c5.5,0,9.9,4.4,9.9,9.9
		C124,236.2,119.6,240.6,114.1,240.6"/>
	<path class="st2" d="M458.9,255.7c-5.5,0-9.9-4.4-9.9-9.9c0-5.5,4.4-9.9,9.9-9.9c5.5,0,9.9,4.4,9.9,9.9
		C468.8,251.2,464.3,255.7,458.9,255.7"/>
	<path class="st2" d="M480.9,130c-5.5,0-9.9-4.4-9.9-9.9s4.4-9.9,9.9-9.9c5.5,0,9.9,4.4,9.9,9.9S486.4,130,480.9,130"/>
	<path class="st2" d="M391.8,45.2c-5.5,0-9.9-4.4-9.9-9.9s4.4-9.9,9.9-9.9c5.5,0,9.9,4.4,9.9,9.9S397.3,45.2,391.8,45.2"/>
</g>
<g id="weiß">
	<path class="st2" d="M457.4,64.6c-14.9-19.2-35-30.4-56.5-31.7c-22.5-1.3-47,7.3-67.2,23.7c-24.7,20.1-46.4,44.4-67.3,67.9
		c-8.9,10-18.1,20.3-27.3,30.1c-5.6,5.9-11.4,12.1-17.6,18.3c-4.8-11.2-9.9-22.5-15.6-33.4c-13.5-26.1-29.8-51.4-48.4-75.3
		c-5.5-7-11.2-13.5-16.8-19.2c-13.3-13.3-26.5-22.6-40.2-28.2c-4.6-1.9-9.2-3.2-13.7-4.2c0,0.1,0,0.3,0,0.4c0,1.6-0.2,3.1-0.7,4.5
		c4.2,0.9,8.4,2.1,12.5,3.8c13.2,5.4,25.8,14.3,38.6,27.1c5.5,5.6,11.1,11.9,16.4,18.8c18.4,23.7,34.6,48.8,47.9,74.6
		c5.9,11.3,11.1,23.2,16.2,34.9c-22.7,22.2-49.7,43.5-82.7,49.3c-27.6,4.9-55.7-1.5-77.1-17.6C32.2,189.1,20.4,157,15,133.5
		c-4.6-19.9-9.7-58,7.6-89.1C30,31,42.2,22,56.4,18.2c-0.6-1.6-0.9-3.2-0.9-5c-15.6,4.1-29.1,14-37.3,28.7
		C8.6,59.3,5.6,78.6,5.6,95.9c0,15.3,2.3,29.1,4.6,38.7c5.6,24.3,17.9,57.5,44.7,77.7c22.5,16.9,52,23.7,80.9,18.6
		c33.7-6,61-27.1,84-49.3c1.2,2.8,2.4,5.6,3.5,8.4c7.3,17.2,15,34,23.5,50.7c2.1,4.1,4.4,8.3,6.9,12.2h0
		c32.9,52.2,61.5,31.2,61.5,31.2c-31.5,8.8-56.1-31.2-56.1-31.2h0c-5.8-10.7-11.8-21.3-16.9-32.4c-5-10.7-9.6-21.6-14.2-32.5
		c-1.4-3.4-2.9-6.8-4.3-10.2c6.7-6.7,13.1-13.4,19.1-19.8c9.3-9.8,18.5-20.2,27.4-30.2c20.8-23.4,42.3-47.5,66.7-67.3
		c19.3-15.6,42.5-23.9,63.8-22.6c20.1,1.2,38.9,11.8,52.9,29.8c21.7,28,33.2,69.8,31.3,114.7c-1,24.8-6.3,42.4-16.2,53.7
		c-3.7,4.2-7.9,7.1-12.3,9l3,2.1l0.6,1.7c4.7-2.3,8.9-5.5,12.5-9.5c10.6-12.2,16.3-30.8,17.4-56.8
		C491.7,136.5,479.9,93.5,457.4,64.6z"/>
</g>
<g id="Punkt_groß">
	<g>
		<defs>
			<rect id="SVGID_1_" width="490.9" height="288.3"/>
		</defs>
		<clipPath id="SVGID_00000075143722282151604230000003953507408765001394_">
			<use xlink:href="#SVGID_1_"  style="overflow:visible;"/>
		</clipPath>
		<path style="clip-path:url(#SVGID_00000075143722282151604230000003953507408765001394_);fill:#0F4988;" d="M268.1,270.3
			c0,0,0,0.1,0.1,0.1C268.1,270.4,268.1,270.4,268.1,270.3"/>
	</g>
	<g>
		<defs>
			<path id="SVGID_00000142160230225704837790000003065481839175940277_" d="M59.2,12.9c0,6.6,5.3,11.9,11.9,11.9
				c6.6,0,11.9-5.3,11.9-11.9C83,6.3,77.7,1,71.1,1C64.5,1,59.2,6.3,59.2,12.9"/>
		</defs>
		<clipPath id="SVGID_00000025443124377380138630000015845642411661015969_">
			<use xlink:href="#SVGID_00000142160230225704837790000003065481839175940277_"  style="overflow:visible;"/>
		</clipPath>
	</g>
	<g>
		<defs>
			<path id="SVGID_00000147179143915547567940000002164689464073585317_" d="M59.2,12.9c0,6.6,5.3,11.9,11.9,11.9
				c6.6,0,11.9-5.3,11.9-11.9C83,6.3,77.7,1,71.1,1C64.5,1,59.2,6.3,59.2,12.9"/>
		</defs>
		<clipPath id="SVGID_00000054235333059217884330000003752254583636517794_">
			<use xlink:href="#SVGID_00000147179143915547567940000002164689464073585317_"  style="overflow:visible;"/>
		</clipPath>
		
			<linearGradient id="SVGID_00000154414848747708904240000006212310761538192039_" gradientUnits="userSpaceOnUse" x1="-165.1728" y1="467.4134" x2="-164.1728" y2="467.4134" gradientTransform="matrix(25.811 0 0 -25.811 4321.4404 12077.2939)">
			<stop  offset="0" style="stop-color:#2A7FC2"/>
			<stop  offset="1" style="stop-color:#104988"/>
		</linearGradient>
		
			<rect x="59.2" y="1" style="clip-path:url(#SVGID_00000054235333059217884330000003752254583636517794_);fill:url(#SVGID_00000154414848747708904240000006212310761538192039_);" width="23.8" height="23.8"/>
	</g>
</g>
</svg>
