<?xml version="1.0" encoding="UTF-8"?>
<svg xmlns="http://www.w3.org/2000/svg" xmlns:xlink="http://www.w3.org/1999/xlink" viewBox="0 0 492.84 288.26">
  <defs>
    <clipPath id="f">
      <rect x="1.98" width="490.85" height="288.26" style="fill: none;"/>
    </clipPath>
    <clipPath id="g">
      <path d="M0,120.1c0,6.57,5.33,11.9,11.9,11.9s11.91-5.33,11.91-11.9-5.33-11.91-11.91-11.91S0,113.52,0,120.1" style="fill: none;"/>
    </clipPath>
  </defs>
  <g id="a" data-name="Stern">
    <path d="M406.31,229.42h-30.94c-7.36,22.01-18.18,32.05-28.09,42.89l16.73-12.14,26.14,18.98-9.97-30.73,26.13-19Z" style="fill: #00adea;"/>
    <path d="M364.19,198.73l-10,30.72h-32.31l26.13,19.01s-7.11,9.87-11.98,15.69c-5.75,6.87-18.96,19.94-18.96,19.94,25.6-11.81,48.73-39.21,56.86-55.42l-9.74-29.94Z" style="fill: #0f4988;"/>
  </g>
  <g id="c" data-name="Punkte">
    <path d="M116.09,240.63c-5.48,0-9.92-4.44-9.92-9.92s4.44-9.92,9.92-9.92,9.92,4.44,9.92,9.92-4.44,9.92-9.92,9.92" style="fill: #162259;"/>
    <path d="M460.85,255.69c-5.48,0-9.92-4.44-9.92-9.92s4.44-9.92,9.92-9.92,9.92,4.44,9.92,9.92-4.44,9.92-9.92,9.92" style="fill: #162259;"/>
    <path d="M482.91,130.02c-5.48,0-9.92-4.44-9.92-9.92s4.44-9.92,9.92-9.92,9.92,4.44,9.92,9.92-4.44,9.92-9.92,9.92" style="fill: #162259;"/>
    <path d="M393.76,45.18c-5.48,0-9.92-4.44-9.92-9.92s4.44-9.92,9.92-9.92,9.92,4.44,9.92,9.92-4.44,9.92-9.92,9.92" style="fill: #162259;"/>
    <path d="M73.06,23.88c-5.48,0-9.92-4.44-9.92-9.92s4.44-9.92,9.92-9.92,9.92,4.44,9.92,9.92-4.44,9.92-9.92,9.92" style="fill: #162259;"/>
  </g>
  <g id="d" data-name="weiß">
    <path d="M459.41,64.58c-14.91-19.17-34.98-30.43-56.51-31.72-22.53-1.34-47.04,7.29-67.25,23.69-24.73,20.07-46.35,44.38-67.26,67.89-8.89,9.99-18.08,20.33-27.32,30.12-5.57,5.9-11.43,12.11-17.61,18.3-4.84-11.25-9.92-22.54-15.56-33.43-13.51-26.09-29.8-51.43-48.44-75.34-5.49-7.04-11.15-13.5-16.84-19.21-13.29-13.33-26.46-22.56-40.25-28.23C70.25,3.46,35.69,14.1,20.21,41.95c-9.64,17.33-12.65,36.61-12.65,53.97,0,3.12,.1,6.17,.28,9.14,1.3-.35,2.66-.56,4.07-.56,.3,0,.6,.03,.9,.05-1.07-18.72,1-40.8,11.78-60.18,14.23-25.6,46.15-35.31,75.89-23.09,13.17,5.41,25.8,14.28,38.61,27.13,5.55,5.56,11.08,11.87,16.44,18.75,18.45,23.66,34.57,48.75,47.94,74.56,5.87,11.33,11.15,23.16,16.18,34.92-22.71,22.22-49.69,43.48-82.73,49.32-27.61,4.88-55.69-1.55-77.05-17.62-25.2-18.97-37.05-50.26-42.58-73.63-1.54,.57-3.19,.9-4.91,.95,5.7,24.2,18.03,56.76,44.49,76.67,22.47,16.91,51.96,23.67,80.93,18.55,33.71-5.96,61.02-27.06,83.96-49.31,1.19,2.81,2.37,5.62,3.55,8.41,7.25,17.22,14.96,34.04,23.47,50.68,2.12,4.14,4.36,8.28,6.86,12.22h0c32.89,52.18,61.46,31.2,61.46,31.2-31.52,8.82-56.09-31.2-56.09-31.2h0c-5.82-10.69-11.8-21.3-16.94-32.37-4.97-10.71-9.57-21.59-14.15-32.47-1.43-3.39-2.86-6.81-4.32-10.23,6.74-6.7,13.09-13.43,19.12-19.82,9.3-9.85,18.51-20.21,27.42-30.23,20.78-23.36,42.26-47.52,66.68-67.33,19.25-15.62,42.51-23.85,63.8-22.58,20.08,1.2,38.85,11.78,52.86,29.79,21.74,27.96,33.17,69.76,31.34,114.68-1.01,24.84-6.3,42.41-16.17,53.73-3.68,4.22-7.89,7.14-12.34,9.04l3.01,2.11,.64,1.67c4.67-2.27,8.89-5.46,12.45-9.54,10.65-12.21,16.34-30.8,17.4-56.82,1.87-46.07-9.93-89.08-32.39-117.95Z" style="fill: #162259;"/>
  </g>
  <g id="e" data-name="Punkt groß">
    <g style="clip-path: url(#f);">
      <path d="M270.07,270.31s.05,.1,.07,.15c0-.04-.03-.09-.07-.15" style="fill: #0f4988;"/>
    </g>
    <g style="clip-path: url(#g);">
      <rect y="108.19" width="23.81" height="23.81" style="fill: #0f4988;"/>
    </g>
  </g>
</svg>