<?xml version="1.0" encoding="UTF-8"?>
<svg id="a" data-name="Ebene 1" xmlns="http://www.w3.org/2000/svg" xmlns:xlink="http://www.w3.org/1999/xlink" viewBox="0 0 91.72 36.32">
  <defs>
    <clipPath id="b">
      <rect x="0" y="0" width="91.72" height="36.31" style="fill: none;"/>
    </clipPath>
  </defs>
  <g style="clip-path: url(#b);">
    <path d="M67.93,3.32c-1.19-.61-2.02-.98-3.56-1.3-.21-.04-.52-.1-.91-.18-.19-.04-.41-.08-.63-.12-.55-.1-1.11-.19-1.68-.3-.65-.1-1.31-.21-1.97-.31-1.34-.2-2.71-.38-4.13-.53C49.41-.03,43.19-.22,36.83,.31c-3.18,.26-6.39,.71-9.57,1.28-3.18,.58-6.36,1.2-9.46,2.07-6.18,1.7-12.05,4.95-15.5,9.86C.6,15.95-.34,18.91,.11,21.67c.21,1.36,.73,2.64,1.47,3.69,.74,1.06,1.62,1.91,2.52,2.64,1.81,1.45,3.67,2.43,5.35,3.18,1.68,.75,3.18,1.27,4.42,1.66,2.49,.77,3.92,1.07,3.92,1.07,0,0,1.42,.35,3.98,.79,2.56,.43,6.24,.93,10.74,1.26,4.5,.33,9.81,.47,15.6,.27,5.78-.2,12.04-.83,18.31-2.2,3.14-.69,6.26-1.53,9.35-2.55,3.08-1.04,6.1-2.31,8.83-4.04,2.72-1.73,5.15-4.09,6.34-7.08,.61-1.47,.85-3.07,.78-4.6-.02-.77-.15-1.55-.37-2.28-.11-.36-.24-.72-.4-1.07-.07-.18-.17-.34-.25-.51-.08-.17-.21-.38-.18-.33-.54-.95-1.14-1.61-1.44-1.94-1.16-1.16-2.09-1.53-3.38-1.84,1,.89,1.61,1.48,2.65,2.54,.27,.29,.81,.89,1.29,1.74-.03-.04,.09,.14,.16,.29,.07,.15,.15,.3,.22,.45,.14,.31,.25,.63,.35,.95,.19,.65,.31,1.33,.33,2.03,.07,1.4-.15,2.84-.71,4.18-1.08,2.71-3.34,4.95-5.94,6.6-5.3,3.32-11.69,5.03-17.85,6.46-6.2,1.35-12.4,1.99-18.13,2.18-5.74,.19-11.03,.06-15.49-.27-4.47-.32-8.12-.82-10.64-1.25-2.52-.43-3.92-.78-3.92-.78,0,0-1.41-.29-3.84-1.04-1.21-.39-2.68-.9-4.31-1.62-1.62-.73-3.42-1.67-5.12-3.04-.84-.69-1.67-1.49-2.32-2.43-.66-.94-1.12-2.06-1.31-3.27-.4-2.44,.43-5.12,2.02-7.41,1.58-2.3,3.86-4.26,6.42-5.85,2.57-1.6,5.48-2.75,8.51-3.61,3.04-.86,6.2-1.47,9.36-2.05,3.16-.56,6.33-1.01,9.47-1.27,6.29-.53,12.44-.33,18.03,.27,1.4,.15,2.76,.33,4.08,.52,.66,.11,1.31,.21,1.96,.31,.56,.1,1.12,.2,1.66,.29,.23,.04,.44,.08,.63,.12,.38,.07,.69,.13,.9,.17,1.52,.3,2.41,.33,3.76,.3" style="fill: #00adea;"/>
  </g>
</svg>