<?xml version="1.0" encoding="utf-8"?>
<!-- Generator: Adobe Illustrator 26.3.1, SVG Export Plug-In . SVG Version: 6.00 Build 0)  -->
<svg version="1.1" id="Ebene_1" xmlns="http://www.w3.org/2000/svg" xmlns:xlink="http://www.w3.org/1999/xlink" x="0px" y="0px"
	 viewBox="0 0 180 53.8" style="enable-background:new 0 0 180 53.8;" xml:space="preserve">
<style type="text/css">
	.st0{fill:#00ADEA;}
	.st1{fill:#0F4988;}
</style>
<g>
	<path class="st0" d="M18.2,45.6c0.7-1.5,1.6-2.9,3.1-4.6c1.7-1.9,3.9-3.7,6.8-5.6c2.4-1.6,5-2.9,7.6-4.2c0.1,0,1-0.4,1.1-0.5
		c-0.7-0.9-1.9-2-3.2-3.2c-0.9-0.8-1.8-1.7-2.7-2.5c-1.4-1.3-2.9-2.6-4.3-4c-1.4-1.2-2.5-2.4-3.6-3.7c-1-1.2-1.6-2.2-2.2-3.3
		c-0.7-1.5-1.1-2.9-1.1-4.3c-0.1-2.2,0.7-4.3,2.3-6.1c0.9-1,2-1.9,3.5-2.8c0.6-0.3,1.2-0.6,1.8-0.9c-0.2,0-0.3,0-0.5,0
		C12,0,0,12,0,26.9c0,11.8,7.6,21.8,18.2,25.5c-0.5-1.1-0.8-2.3-0.8-3.7C17.5,47.7,17.7,46.7,18.2,45.6z"/>
	<path class="st1" d="M23.4,4.3c-1.1,1.2-1.8,2.5-2,3.9c-0.3,1.3-0.2,2.8,0.4,4.3c0.4,1.1,0.9,2.1,1.8,3.2c1,1.3,2,2.5,3.1,3.5
		c1.1,1,2.1,2,3.1,2.9c0.7,0.6,1.3,1.2,2,1.8c1.3,1.2,2.6,2.4,3.9,3.6c0.8,0.7,2.6,2.4,2.6,2.5c0,0.1,0.2-0.1,0.3-0.1
		c0.3-0.2,0.4-0.2,0.6-0.3c0.9-0.4,1.9-0.9,2.9-1.3c1.2-0.5,8.8-4.3,11.4-5.6C51.6,11,42.3,1.8,30.5,0.2c-1.4,0.4-2.7,1-3.9,1.6
		C25.3,2.6,24.2,3.3,23.4,4.3z"/>
	<path class="st1" d="M42.4,48.9c0-0.1,0.1-0.1,0.1-0.2c1.1-1.8,1.5-3.8,1.3-5.8c-0.2-1.5-0.6-2.9-1.2-4.4c-1.1-2.4-2.7-4.5-3.8-5.7
		c-0.2-0.3-0.3-0.4-0.6-0.7c-0.1-0.1-0.3-0.3-0.4-0.4c-0.2,0.1-1.7,0.9-2.2,1.2c-0.8,0.4-1.6,0.8-2.4,1.2c-2.6,1.3-5.1,2.9-7.5,4.9
		c-2.1,1.7-3.8,3.5-5.1,5.5c-0.7,1-1.2,2-1.4,3c-0.4,1.4-0.3,2.9,0.3,4.2c0.2,0.5,0.6,1,0.9,1.4c2.1,0.5,4.3,0.8,6.6,0.8
		C32.7,53.8,38,52,42.4,48.9z"/>
	<path class="st0" d="M40.2,30.6c-0.2,0.1-0.7,0.3-0.9,0.4V31c0.2,0.2,2.9,3.8,3.7,5.1c1.2,2.1,1.9,4.1,2.2,6.1
		c0.2,1.6,0.1,3.1-0.3,4.6c5.4-4.9,8.9-12,8.9-20c0-1-0.1-2-0.2-2.9c-0.7,0.3-1.4,0.7-1.8,0.9C50.6,25.4,41.3,30,40.2,30.6z"/>
</g>
<path class="st0" d="M68.4,13.5l-5.2,0c-1.2,3.7-3,5.4-4.7,7.2l2.8-2l4.4,3.2L64,16.7L68.4,13.5z"/>
<path class="st1" d="M61.3,8.4l-1.7,5.1l-5.4,0l4.4,3.2c0,0-1.2,1.7-2,2.6c-1,1.2-3.2,3.3-3.2,3.3c4.3-2,8.2-6.6,9.5-9.3L61.3,8.4z"
	/>
<g>
	<path class="st0" d="M81.7,31.6c0,0.8-0.3,1.6-0.7,2.2c0-0.2,0-0.4-0.1-0.6c-0.3-1.7-1.8-3.6-4.3-3.6h-4.9v3.6h5.1
		c0.7,0,1.3-0.4,1.6-1.1c0.8,1.1,0.8,3.3-2.1,3.3h-7.1V21.9h7.9c2,0,3.7,1.7,3.7,3.7c0,1.4-1.1,2.4-1.6,2.7
		C80.1,28.7,81.7,29.7,81.7,31.6z M78.4,25.8c0-0.9-0.7-1.6-1.6-1.6h-4.9v3.2h4.9C77.6,27.4,78.4,26.7,78.4,25.8z"/>
	<path class="st0" d="M94,33.1v2.4h-9.6V21.9h2.5v11.2H94z"/>
	<path class="st0" d="M102.2,36.1c-3.5,0-6.2-2.8-6.2-6.2v-8h2.6v8.7C98.6,33,100.1,35.1,102.2,36.1z M108.8,21.9v7.6
		c0,2.9-1.8,5.2-4.2,5.2c-1.4,0-2.7-0.8-3.4-1.8c0.4,0.1,0.8,0.2,1.2,0.2c2.1,0,3.8-1.4,3.8-3.5v-7.6H108.8z"/>
	<path class="st0" d="M115.1,24.2v3.3h7v2.4h-7v3.3h8.4v2.4h-11V21.9h11v2.3H115.1z"/>
	<path class="st1" d="M135,34.1c0,0.9-1,1.7-3.5,1.7c-2,0-3.8-0.5-5.6-1.6l1.3-2c1.4,0.8,2.9,1.2,4.4,1.2c1.2,0,2.2-0.2,2.7-0.7
		C134.7,33.1,135,33.5,135,34.1z M137.5,31.7c0,0.8-0.2,1.4-0.6,2c-0.2-2.1-3-3.3-5.7-4.1c-2.4-0.7-5-1.6-5-4.3c0-1.1,0.5-2,1.4-2.7
		c1-0.7,2.4-1.1,4.2-1.1c1.8,0,3.5,0.5,5.3,1.5l-1.2,1.9c-1.4-0.8-2.7-1.2-4.1-1.2c-1.9,0-2.8,0.6-2.8,1.4c0,1.3,1.7,1.7,3.6,2.3
		C134.7,28.2,137.5,29.1,137.5,31.7z"/>
	<path class="st1" d="M151.2,21.9v2.4h-4.8v11.2H144V24.2h-4.8v-2.4H151.2z"/>
	<path class="st1" d="M165.1,35.5h-2.5l-1.2-3.1h-6.6l-1.2,3.1H151l5.4-13.6h3.3L165.1,35.5z M160.5,30.1l-2.4-6l-2.4,6H160.5z"/>
	<path class="st1" d="M180,35.5h-3l-3.1-4.2h-4.1v4.2h-2.5V21.9h2.5c2,0,4.5,0,4.9,0c1.5,0,2.8,0.8,2.8,2.2c0,1-0.4,1.8-1.1,2.4
		c0-1.2-1-2.2-2.2-2.2h-4.4v4.6h5.3c2.2,0,3.6-1.7,4.1-3.7c0.1,0.4,0.2,0.9,0.2,1.4c0,1.9-1.2,3.6-2.9,4.3L180,35.5z"/>
</g>
<g>
	<path class="st1" d="M115.6,47.7h-1.1v-4l-1.9,2.7h-0.7l-1.9-2.7v4h-1.1v-6.2h0.9l2.5,3.5l2.5-3.5h0.9V47.7z"/>
	<path class="st1" d="M124.7,47.7h-1.1l-0.6-1.4h-3l-0.6,1.4h-1.2l2.5-6.2h1.5L124.7,47.7z M122.6,45.2l-1.1-2.7l-1.1,2.7H122.6z"/>
	<path class="st1" d="M133.1,47.7h-1.3l-1.4-1.9h-1.9v1.9h-1.1v-6.2h3.2c1.2,0,2.2,1,2.2,2.1c0,0.8-0.5,1.6-1.2,1.9L133.1,47.7z
		 M131.7,43.6c0-0.6-0.5-1-1.1-1h-2.1v2.1h2.1C131.2,44.7,131.7,44.2,131.7,43.6z"/>
	<path class="st1" d="M138.6,44.3l3,3.3h-1.4l-2.3-2.6l-0.8,0.9v1.7h-1.1v-6.2h1.1v3l2.8-3h1.4L138.6,44.3z"/>
	<path class="st1" d="M145.5,42.6V44h3.2v1.1h-3.2v1.5h3.8v1.1h-5v-6.2h5v1.1H145.5z"/>
	<path class="st1" d="M157.5,41.5v1.1h-2.2v5.1h-1.1v-5.1h-2.2v-1.1H157.5z"/>
	<path class="st1" d="M160.6,41.5h1.1v6.2h-1.1V41.5z"/>
	<path class="st1" d="M169.9,47.7l-3.6-4.2v4.2h-1.1v-6.2h0.8l3.6,4.2v-4.2h1.1v6.2H169.9z"/>
	<path class="st1" d="M180,44.2c0,0.1,0,0.2,0,0.4c0,0.9-0.3,1.7-0.8,2.3c-0.6,0.6-1.4,1-2.3,1c-1.8,0-3.2-1.5-3.2-3.2
		c0-1.8,1.5-3.2,3.2-3.2c1,0,2,0.5,2.6,1.3l-0.9,0.6c-0.4-0.5-1-0.8-1.7-0.8c-1.2,0-2.1,0.9-2.1,2.1c0,1.2,0.9,2.1,2.1,2.1
		c1,0,1.6-0.6,1.8-1.4h-1.6v-1.1H180z"/>
</g>
</svg>
