<?xml version="1.0" encoding="utf-8"?>
<!-- Generator: Adobe Illustrator 26.3.1, SVG Export Plug-In . SVG Version: 6.00 Build 0)  -->
<svg version="1.1" id="Ebene_1" xmlns="http://www.w3.org/2000/svg" xmlns:xlink="http://www.w3.org/1999/xlink" x="0px" y="0px"
	 viewBox="0 0 83.4 26" style="enable-background:new 0 0 83.4 26;" xml:space="preserve">
<style type="text/css">
	.st0{clip-path:url(#SVGID_00000020360417321147401090000009568848684646860163_);fill:#00ADEA;}
	.st1{clip-path:url(#SVGID_00000020360417321147401090000009568848684646860163_);fill:#0F4988;}
</style>
<g>
	<defs>
		<rect id="SVGID_1_" width="83.4" height="26"/>
	</defs>
	<clipPath id="SVGID_00000096754459881631803170000011001189676188777860_">
		<use xlink:href="#SVGID_1_"  style="overflow:visible;"/>
	</clipPath>
	<path style="clip-path:url(#SVGID_00000096754459881631803170000011001189676188777860_);fill:#00ADEA;" d="M83.4,5.2l-5.2,0
		c-1.2,3.7-3.1,5.4-4.7,7.2l2.8-2l4.4,3.2L79,8.4L83.4,5.2z"/>
	<path style="clip-path:url(#SVGID_00000096754459881631803170000011001189676188777860_);fill:#0F4988;" d="M76.3,0l-1.7,5.2
		l-5.4,0l4.4,3.2c0,0-1.2,1.7-2,2.6c-1,1.2-3.2,3.4-3.2,3.4c4.3-2,8.2-6.6,9.6-9.3L76.3,0z"/>
	<path style="clip-path:url(#SVGID_00000096754459881631803170000011001189676188777860_);fill:#0F4988;" d="M15.5,23.4
		c10.4,1.6,19.7,1.7,30.1-0.1c2.6-0.5,5.1-1.1,7.7-1.8c2.5-0.8,5-1.7,7.3-2.8c2.4-1.1,4.7-2.4,6.8-3.9c2.1-1.5,4.1-3.2,5.8-5.2
		c0.5-0.6,1-0.8,1.2-0.7c0.2,0.1,0.2,0.7-0.4,1.3c-1.8,2-3.8,3.8-6,5.3c-2.2,1.5-4.5,2.8-7,3.9c-2.4,1.1-4.9,2-7.5,2.8
		c-2.6,0.7-5.1,1.3-7.8,1.8c-10.5,1.7-19.9,1.4-30.3-0.2c-1.3-0.2-1.8-0.4-1.8-0.4S14.3,23.2,15.5,23.4"/>
	<path style="clip-path:url(#SVGID_00000096754459881631803170000011001189676188777860_);fill:#00ADEA;" d="M1.2,20.8
		c6.5,1.8,12.5,3.1,19.1,3.9c6.6,0.8,13.4,1.1,20,0.6c3.3-0.3,6.6-0.8,9.9-1.5c3.3-0.7,6.5-1.7,9.5-3c3.1-1.3,6.1-2.8,8.8-4.7
		c2.8-1.9,5.3-4,7.5-6.5c0.7-0.8,1.1-1.2,1.3-1.1c0.1,0.1,0,0.7-0.8,1.5c-2.2,2.6-4.9,4.7-7.7,6.6c-2.8,1.9-5.8,3.4-8.9,4.7
		c-3.1,1.3-6.4,2.2-9.6,3c-3.3,0.7-6.6,1.2-10,1.4C33.7,26.2,27,25.9,20.3,25c-6.7-0.9-12.7-2.2-19.2-4C0.4,20.8,0,20.6,0,20.6
		S0.5,20.6,1.2,20.8"/>
</g>
</svg>
