<?xml version="1.0" encoding="UTF-8"?>
<svg id="a" data-name="Ebene 1" xmlns="http://www.w3.org/2000/svg" xmlns:xlink="http://www.w3.org/1999/xlink" viewBox="0 0 42.52 38.7">
  <defs>
    <clipPath id="b">
      <rect width="42.52" height="38.7" style="fill: none;"/>
    </clipPath>
  </defs>
  <g style="clip-path: url(#b);">
    <path d="M38.62,27.59c2.6-4.4,3.9-9.72,3.9-15.97,0-3.7-.72-6.56-2.17-8.59C38.9,1.01,37.02,0,34.71,0,32.74,0,31.12,.61,29.85,1.82c-1.27,1.22-1.91,2.92-1.91,5.12s.72,3.82,2.17,4.86c1.45,1.04,2.98,1.56,4.6,1.56,.69,0,1.15-.06,1.39-.17,0,4.86-.98,8.88-2.95,12.06-1.97,3.18-4.86,6.33-8.68,9.46l3.12,3.99c4.74-3.01,8.42-6.71,11.02-11.11m-24.47,0c2.6-4.4,3.9-9.72,3.9-15.97,0-3.7-.72-6.56-2.17-8.59C14.43,1.01,12.55,0,10.24,0,8.27,0,6.65,.61,5.38,1.82c-1.27,1.22-1.91,2.92-1.91,5.12s.72,3.82,2.17,4.86c1.44,1.04,2.98,1.56,4.6,1.56,.69,0,1.16-.06,1.39-.17,0,4.86-.98,8.88-2.95,12.06C6.71,28.43,3.82,31.59,0,34.71l3.12,3.99c4.74-3.01,8.42-6.71,11.02-11.11" style="fill: #162259;"/>
  </g>
</svg>