<?xml version="1.0" encoding="UTF-8"?>
<svg id="a" data-name="Ebene 1" xmlns="http://www.w3.org/2000/svg" xmlns:xlink="http://www.w3.org/1999/xlink" viewBox="0 0 85.04 77.4">
  <defs>
    <clipPath id="b">
      <rect width="85.04" height="77.4" style="fill: none;"/>
    </clipPath>
  </defs>
  <g style="clip-path: url(#b);">
    <path d="M77.23,55.19c5.21-8.8,7.81-19.44,7.81-31.93,0-7.4-1.45-13.13-4.34-17.18C77.8,2.03,74.05,0,69.42,0,65.48,0,62.24,1.22,59.7,3.65c-2.55,2.43-3.82,5.85-3.82,10.24s1.44,7.64,4.34,9.72c2.89,2.08,5.95,3.12,9.2,3.12,1.39,0,2.31-.11,2.78-.35,0,9.72-1.97,17.76-5.9,24.12-3.94,6.36-9.72,12.67-17.36,18.92l6.25,7.98c9.49-6.02,16.83-13.42,22.04-22.21m-48.94,0c5.21-8.8,7.81-19.44,7.81-31.93,0-7.4-1.45-13.13-4.34-17.18C28.86,2.03,25.1,0,20.48,0,16.54,0,13.3,1.22,10.76,3.65c-2.55,2.43-3.82,5.85-3.82,10.24s1.44,7.64,4.34,9.72c2.89,2.08,5.95,3.12,9.2,3.12,1.39,0,2.31-.11,2.78-.35,0,9.72-1.97,17.76-5.9,24.12C13.42,56.86,7.64,63.17,0,69.42l6.25,7.98c9.48-6.02,16.83-13.42,22.04-22.21" style="fill: #162259;"/>
  </g>
</svg>