<?xml version="1.0" encoding="utf-8"?>
<!-- Generator: Adobe Illustrator 27.2.0, SVG Export Plug-In . SVG Version: 6.00 Build 0)  -->
<svg version="1.1" id="Ebene_1" xmlns="http://www.w3.org/2000/svg" xmlns:xlink="http://www.w3.org/1999/xlink" x="0px" y="0px"
	 viewBox="0 0 595.3 841.9" style="enable-background:new 0 0 595.3 841.9;" xml:space="preserve">
<style type="text/css">
	.st0{fill:#DFEAF8;}
</style>
<polygon class="st0" points="266.9,305 267.7,311 263.5,306.6 258,309.1 261,303.8 256.8,299.4 262.8,300.5 265.7,295.2 
	266.5,301.3 272.4,302.4 "/>
<polygon class="st0" points="213.1,299.3 216.7,303.3 211.4,302.2 208.7,306.9 208.1,301.5 202.8,300.4 207.8,298.2 207.2,292.8 
	210.8,296.8 215.8,294.6 "/>
<polygon class="st0" points="195.6,240.8 197.9,246.4 192.7,243.2 188.1,247.1 189.5,241.2 184.4,238 190.4,237.6 191.9,231.7 
	194.2,237.3 200.3,236.9 "/>
<polygon class="st0" points="185.2,298.1 188.1,303.5 182.6,300.8 178.4,305.2 179.2,299.1 173.8,296.5 179.8,295.4 180.6,289.4 
	183.5,294.8 189.5,293.7 "/>
<polygon class="st0" points="276.2,358.9 277.1,363.7 273.6,360.3 269.3,362.7 271.3,358.3 267.7,354.9 272.6,355.5 274.7,351.1 
	275.6,355.9 280.5,356.5 "/>
<polygon class="st0" points="241.9,369.7 241.8,372.8 240.1,370.2 237.1,371.1 239,368.6 237.3,366 240.2,367.1 242.1,364.6 
	242,367.7 244.9,368.8 "/>
<polygon class="st0" points="273.5,324.2 275,326.9 272.2,325.6 270,327.8 270.4,324.7 267.7,323.4 270.7,322.8 271.2,319.7 
	272.6,322.5 275.7,321.9 "/>
<polygon class="st0" points="231.6,243.8 232.1,246.9 229.9,244.7 227.1,246.2 228.5,243.4 226.3,241.2 229.3,241.6 230.7,238.8 
	231.2,241.9 234.3,242.3 "/>
<polygon class="st0" points="288.6,320.4 290,323.1 287.2,321.8 285.1,324 285.5,320.9 282.7,319.6 285.8,319 286.2,316 
	287.7,318.7 290.7,318.2 "/>
<polygon class="st0" points="190.6,274.2 192,276.9 189.3,275.6 187.1,277.8 187.5,274.7 184.7,273.4 187.8,272.8 188.2,269.8 
	189.7,272.5 192.7,272 "/>
<polygon class="st0" points="175.9,271.4 176.2,274.5 174.1,272.2 171.3,273.5 172.8,270.8 170.7,268.5 173.8,269.1 175.3,266.4 
	175.7,269.5 178.7,270.2 "/>
<polygon class="st0" points="222,317.6 224.3,319.6 221.2,319.4 220.1,322.3 219.3,319.3 216.2,319 218.9,317.4 218.1,314.4 
	220.5,316.4 223.1,314.7 "/>
<polygon class="st0" points="185.7,207.6 187.2,210.3 184.4,209 182.2,211.2 182.6,208.1 179.8,206.8 182.9,206.2 183.3,203.2 
	184.8,205.9 187.8,205.4 "/>
<polygon class="st0" points="122.2,158 122.9,160.7 120.7,158.9 118.3,160.4 119.4,157.8 117.2,156 120,156.2 121.1,153.6 
	121.8,156.3 124.6,156.5 "/>
<polygon class="st0" points="177,226.9 177.4,230 175.3,227.8 172.5,229.1 173.9,226.4 171.8,224.2 174.8,224.7 176.3,222 
	176.7,225 179.8,225.6 "/>
<polygon class="st0" points="160.4,161.7 161.1,164.7 158.7,162.7 156.1,164.4 157.3,161.5 154.9,159.5 158,159.7 159.1,156.8 
	159.9,159.8 163,160 "/>
<polygon class="st0" points="118.8,182.5 120.1,186.1 116.9,183.9 113.8,186.3 114.9,182.6 111.7,180.4 115.5,180.3 116.6,176.6 
	117.9,180.2 121.8,180.1 "/>
<polygon class="st0" points="178.4,168.5 180.6,171.8 177,170.4 174.5,173.5 174.7,169.6 171,168.3 174.8,167.2 174.9,163.3 
	177.1,166.5 180.8,165.5 "/>
<polygon class="st0" points="181.2,192.3 181.8,196.2 179.1,193.4 175.5,195.1 177.4,191.6 174.7,188.8 178.5,189.5 180.4,186 
	180.9,189.9 184.7,190.6 "/>
<polygon class="st0" points="162.2,197.2 164.3,200.5 160.7,199.1 158.3,202.2 158.4,198.3 154.7,197 158.5,195.9 158.6,192 
	160.8,195.2 164.6,194.1 "/>
<polygon class="st0" points="198.6,264.3 201.7,266.6 197.8,266.6 196.6,270.3 195.4,266.6 191.5,266.6 194.7,264.3 193.4,260.6 
	196.6,262.9 199.8,260.6 "/>
<polygon class="st0" points="233.3,276.6 236.1,279.3 232.2,278.7 230.4,282.2 229.8,278.3 226,277.7 229.5,276 228.8,272.1 
	231.6,274.9 235.1,273.1 "/>
<polygon class="st0" points="199.8,314.1 201.7,317.5 198.1,315.8 195.4,318.6 196,314.8 192.5,313 196.3,312.4 196.9,308.5 
	198.7,311.9 202.5,311.3 "/>
<polygon class="st0" points="244.9,264.2 245.4,268.1 242.7,265.2 239.2,266.8 241.1,263.4 238.5,260.5 242.3,261.3 244.3,257.9 
	244.7,261.8 248.5,262.6 "/>
<polygon class="st0" points="213.2,231.4 215.1,234.9 211.5,233.2 208.8,236 209.4,232.1 205.9,230.4 209.7,229.7 210.2,225.9 
	212.1,229.3 215.9,228.6 "/>
<polygon class="st0" points="221.8,258.8 221.2,260.8 220.5,258.8 218.3,258.9 220,257.6 219.3,255.6 221.1,256.8 222.7,255.4 
	222.2,257.5 223.9,258.7 "/>
<polygon class="st0" points="227.8,390.8 226.6,392.6 226.5,390.5 224.4,390 226.4,389.2 226.2,387 227.6,388.7 229.6,387.9 
	228.5,389.7 229.8,391.3 "/>
<polygon class="st0" points="200.1,345.7 201.7,348.7 198.6,347.2 196.2,349.6 196.7,346.3 193.6,344.8 197,344.2 197.5,340.8 
	199.1,343.8 202.4,343.2 "/>
<polygon class="st0" points="250.3,319.5 251.7,321.1 249.6,320.6 248.5,322.4 248.3,320.3 246.3,319.7 248.3,318.9 248.1,316.8 
	249.5,318.4 251.5,317.6 "/>
<polygon class="st0" points="296.6,396.4 295.5,398.2 295.3,396.1 293.2,395.6 295.2,394.8 294.9,392.6 296.4,394.2 298.3,393.4 
	297.3,395.2 298.7,396.8 "/>
<polygon class="st0" points="301.6,350.5 302.6,352.4 300.7,351.5 299.2,353 299.5,350.9 297.5,349.9 299.7,349.6 300,347.4 
	301,349.3 303.1,349 "/>
<polygon class="st0" points="211.3,276.8 212.3,278.7 210.4,277.8 208.9,279.3 209.2,277.2 207.3,276.2 209.4,275.9 209.7,273.7 
	210.7,275.6 212.8,275.3 "/>
<polygon class="st0" points="170.4,244.4 171.4,246.3 169.5,245.3 168,246.9 168.3,244.8 166.4,243.8 168.5,243.4 168.8,241.3 
	169.8,243.2 171.9,242.8 "/>
<polygon class="st0" points="161.2,214.4 162.7,215.9 160.6,215.6 159.7,217.5 159.3,215.4 157.2,215.1 159,214.1 158.7,212 
	160.2,213.5 162.1,212.4 "/>
<polygon class="st0" points="169.6,255.8 170.6,257.7 168.6,256.8 167.2,258.3 167.4,256.2 165.5,255.2 167.6,254.9 167.9,252.7 
	168.9,254.6 171.1,254.3 "/>
<polygon class="st0" points="177.1,145.2 178.1,147.1 176.2,146.1 174.7,147.7 175,145.6 173.1,144.6 175.2,144.2 175.5,142.1 
	176.5,144 178.6,143.6 "/>
<polygon class="st0" points="97.6,202.4 94.9,202.8 97.3,204 97,206.6 98.8,204.7 101.2,205.9 99.9,203.5 101.8,201.6 99.2,202.1 
	97.9,199.7 "/>
<polygon class="st0" points="163.7,181 163.9,182.4 162.9,181.4 161.7,182 162.3,180.8 161.4,179.8 162.7,180 163.4,178.8 
	163.5,180.2 164.9,180.4 "/>
<polygon class="st0" points="171.3,203.9 172.2,204.9 170.9,204.6 170.2,205.8 170.1,204.5 168.7,204.2 170,203.6 169.8,202.2 
	170.7,203.3 172,202.7 "/>
<polygon class="st0" points="198.1,216.6 198.2,218 197.4,217 196.1,217.5 196.8,216.3 195.9,215.3 197.3,215.6 198,214.4 
	198.1,215.8 199.4,216.1 "/>
<polygon class="st0" points="168.7,286 167.8,287.1 167.9,285.7 166.6,285.2 168,284.8 168,283.5 168.8,284.6 170.1,284.3 
	169.2,285.4 169.9,286.5 "/>
<polygon class="st0" points="211.6,251.4 212.2,252.6 211,252 210,253 210.2,251.6 209,251 210.3,250.8 210.5,249.4 211.2,250.6 
	212.5,250.4 "/>
<polygon class="st0" points="193.4,255.3 194,256.6 192.8,256 191.8,256.9 192,255.6 190.8,255 192.2,254.7 192.3,253.4 193,254.6 
	194.3,254.4 "/>
<polygon class="st0" points="265.6,276 266.5,277 265.1,276.7 264.4,277.8 264.3,276.5 263,276.1 264.3,275.6 264.2,274.3 
	265.1,275.3 266.3,274.8 "/>
<polygon class="st0" points="197.6,282.2 198.3,283.4 197,282.8 196.1,283.8 196.3,282.5 195,281.9 196.4,281.6 196.6,280.3 
	197.2,281.5 198.6,281.2 "/>
<polygon class="st0" points="230.7,318.8 231.4,320.1 230.2,319.5 229.2,320.4 229.4,319.1 228.2,318.5 229.5,318.2 229.7,316.9 
	230.3,318.1 231.7,317.9 "/>
<polygon class="st0" points="192.8,326.5 192.9,327.9 192,326.8 190.7,327.4 191.5,326.2 190.6,325.2 191.9,325.5 192.6,324.3 
	192.7,325.7 194.1,326 "/>
<polygon class="st0" points="177.8,249.1 179,249.8 177.7,250 177.4,251.3 176.8,250 175.5,250.2 176.5,249.3 175.9,248 
	177.1,248.7 178.1,247.8 "/>
<polygon class="st0" points="243.7,301.2 245.1,302.9 242.9,302.3 241.8,304.2 241.6,302 239.5,301.5 241.5,300.7 241.4,298.5 
	242.8,300.2 244.8,299.3 "/>
<polygon class="st0" points="264.6,337.3 265.2,338.5 264,337.9 263,338.9 263.2,337.5 262,336.9 263.3,336.7 263.5,335.3 
	264.2,336.5 265.5,336.3 "/>
<polygon class="st0" points="252.6,339.6 251.7,343.1 250.4,339.8 246.8,340 249.5,337.7 248.2,334.3 251.2,336.3 254,333.9 
	253.1,337.4 256.2,339.3 "/>
<polygon class="st0" points="238.9,436.8 238,438.8 237.6,436.7 235.5,436.4 237.3,435.4 237,433.2 238.5,434.7 240.4,433.7 
	239.5,435.7 241,437.1 "/>
<polygon class="st0" points="227,343.2 228.3,343.6 227,344.1 227,345.4 226.2,344.3 224.9,344.7 225.7,343.6 224.9,342.5 
	226.2,342.9 227,341.8 "/>
<polygon class="st0" points="201.9,365.9 201.5,367.2 201,366 199.7,366 200.8,365.2 200.3,363.9 201.4,364.6 202.5,363.8 
	202.1,365.1 203.3,365.9 "/>
<polygon class="st0" points="215.7,362.5 216.9,364.7 214.6,363.6 212.8,365.4 213.2,362.9 210.9,361.8 213.4,361.4 213.8,358.8 
	215,361.1 217.5,360.6 "/>
<polygon class="st0" points="248.6,279.9 250.3,280.7 248.5,281.1 248.3,282.9 247.4,281.3 245.6,281.7 246.8,280.3 245.9,278.7 
	247.6,279.5 248.8,278.1 "/>
<polygon class="st0" points="220,292.6 219.9,294 219.2,292.8 217.8,293.1 218.7,292.1 218,290.9 219.3,291.4 220.1,290.4 
	220,291.8 221.3,292.3 "/>
<polygon class="st0" points="255.1,297.2 255.2,298.6 254.3,297.5 253,298 253.7,296.9 252.9,295.8 254.2,296.1 254.9,295 
	255,296.4 256.3,296.7 "/>
<polygon class="st0" points="280.4,307.2 281.1,308.4 279.8,307.8 278.9,308.8 279.1,307.4 277.8,306.8 279.2,306.6 279.4,305.2 
	280,306.4 281.4,306.2 "/>
<polygon class="st0" points="282.1,295.8 282.7,297 281.5,296.4 280.5,297.3 280.7,296 279.5,295.4 280.8,295.1 281,293.8 
	281.7,295 283,294.8 "/>
<polygon class="st0" points="207.8,328.8 208.5,330 207.3,329.4 206.3,330.4 206.5,329.1 205.3,328.5 206.6,328.2 206.8,326.9 
	207.5,328.1 208.8,327.8 "/>
<polygon class="st0" points="262.2,380.7 261.8,382.1 261.4,380.7 260,380.7 261.1,379.9 260.7,378.6 261.8,379.4 262.9,378.6 
	262.5,379.9 263.6,380.7 "/>
<polygon class="st0" points="206.8,241.1 206.5,242 206.2,241.1 205.3,241.1 206,240.5 205.7,239.6 206.5,240.2 207.3,239.6 
	207,240.5 207.8,241.1 "/>
<polygon class="st0" points="180.2,257.6 179.9,258.5 179.6,257.6 178.7,257.6 179.4,257.1 179.2,256.2 179.9,256.7 180.7,256.2 
	180.4,257.1 181.2,257.6 "/>
<polygon class="st0" points="246.8,351.8 246.2,353.4 245.8,351.7 244.2,351.6 245.6,350.7 245.3,349.1 246.5,350.2 247.9,349.4 
	247.3,350.9 248.5,352 "/>
<polygon class="st0" points="214.7,344.2 214.2,346 213.6,344.2 211.7,344.2 213.2,343.1 212.6,341.3 214.2,342.4 215.7,341.3 
	215.1,343.1 216.6,344.2 "/>
<polygon class="st0" points="154,213.1 154.1,214.1 153.4,213.4 152.6,213.8 153,213 152.4,212.3 153.3,212.4 153.8,211.6 
	153.9,212.5 154.8,212.7 "/>
<polygon class="st0" points="149.6,186.8 149.3,187.7 149,186.8 148.1,186.8 148.8,186.2 148.5,185.3 149.3,185.9 150.1,185.3 
	149.8,186.2 150.6,186.8 "/>
<polygon class="st0" points="150.7,176.8 148.6,177 150.1,175.6 149.2,173.7 151.1,174.7 152.6,173.2 152.2,175.3 154.1,176.3 
	152,176.6 151.6,178.7 "/>
<polygon class="st0" points="145.1,154.3 145.4,158.2 142.9,155.2 139.3,156.7 141.3,153.4 138.8,150.4 142.6,151.3 144.7,148 
	144.9,151.9 148.7,152.9 "/>
<polygon class="st0" points="100.6,235.2 99.4,235.6 100.1,234.6 99.4,233.5 100.6,233.9 101.4,232.9 101.4,234.2 102.6,234.6 
	101.4,234.9 101.4,236.2 "/>
<polygon class="st0" points="210.3,386.7 209.8,388.3 209.3,386.7 207.7,386.7 209,385.8 208.5,384.2 209.8,385.2 211.1,384.2 
	210.6,385.8 212,386.7 "/>
<polygon class="st0" points="144.5,196.7 146.9,198.7 143.8,198.5 142.6,201.4 141.9,198.4 138.8,198.1 141.4,196.5 140.7,193.5 
	143.1,195.5 145.7,193.8 "/>
<polygon class="st0" points="157.4,233.9 156.8,235.9 156.1,233.9 154,234 155.6,232.7 154.9,230.6 156.7,231.8 158.4,230.5 
	157.8,232.6 159.6,233.8 "/>
<polygon class="st0" points="143.1,215.1 142.6,216.5 142.1,215.1 140.6,215.1 141.9,214.2 141.4,212.8 142.6,213.7 143.8,212.8 
	143.4,214.2 144.6,215.1 "/>
<polygon class="st0" points="145.4,228 145.5,229.4 144.6,228.3 143.4,228.8 144.1,227.7 143.2,226.6 144.6,226.9 145.3,225.8 
	145.4,227.1 146.7,227.5 "/>
<polygon class="st0" points="150.8,244.9 151.2,248 149,245.8 146.3,247.1 147.7,244.4 145.6,242.2 148.6,242.7 150.1,240 
	150.5,243 153.6,243.6 "/>
<polygon class="st0" points="129.2,220 129.7,223.6 127.2,221 124,222.5 125.7,219.4 123.2,216.8 126.7,217.4 128.4,214.2 
	128.9,217.8 132.5,218.4 "/>
<polygon class="st0" points="268.2,405.3 267.6,407.4 266.8,405.4 264.7,405.5 266.4,404.1 265.6,402.1 267.4,403.3 269.2,402 
	268.6,404.1 270.4,405.3 "/>
<polygon class="st0" points="287.2,339.1 287.8,340.3 286.6,339.7 285.6,340.7 285.8,339.3 284.6,338.7 285.9,338.5 286.1,337.1 
	286.8,338.3 288.1,338.1 "/>
<polygon class="st0" points="300.9,331.6 300.4,333.2 299.9,331.6 298.2,331.6 299.6,330.6 299.1,329 300.4,330 301.8,329 
	301.2,330.6 302.6,331.6 "/>
<polygon class="st0" points="126.6,267.7 127.2,269.7 125.5,268.4 123.8,269.7 124.4,267.7 122.7,266.4 124.8,266.4 125.5,264.3 
	126.2,266.4 128.3,266.4 "/>
<polygon class="st0" points="155.9,256.8 157.1,257.5 155.7,257.7 155.4,259 154.8,257.7 153.5,257.9 154.5,257 153.9,255.7 
	155.1,256.4 156.2,255.5 "/>
<polygon class="st0" points="139.3,181.2 138.4,185 136.9,181.5 133,181.9 135.9,179.2 134.3,175.7 137.7,177.6 140.6,175 
	139.8,178.8 143.1,180.8 "/>
<polygon class="st0" points="189.1,147.2 191.5,149.2 188.4,149 187.2,151.9 186.4,148.9 183.3,148.6 186,147 185.2,144 187.6,146 
	190.2,144.3 "/>
<polygon class="st0" points="192.6,430.4 191.9,431.9 191.5,430.3 189.9,430.1 191.3,429.3 191,427.6 192.2,428.7 193.7,427.9 
	193,429.4 194.2,430.5 "/>
<polygon class="st0" points="289.1,377 289.6,380.9 286.9,378 283.4,379.6 285.3,376.2 282.7,373.3 286.5,374.1 288.5,370.7 
	288.9,374.6 292.7,375.4 "/>
<polygon class="st0" points="180.4,349.9 182.6,351.6 179.9,351.5 178.9,354.1 178.2,351.4 175.4,351.3 177.7,349.8 176.9,347.2 
	179.1,348.8 181.4,347.3 "/>
<polygon class="st0" points="111.7,258 111.4,259.5 110.7,258.2 109.2,258.4 110.3,257.3 109.5,255.9 110.9,256.6 112,255.5 
	111.8,257 113.2,257.7 "/>
<polygon class="st0" points="148.3,272.6 149.7,275.2 147.1,273.9 145,276 145.4,273.1 142.8,271.8 145.7,271.3 146.1,268.3 
	147.5,270.9 150.4,270.4 "/>
<polygon class="st0" points="465.3,574.6 461.5,577.1 463.1,572.8 459.5,570 464,570.2 465.6,565.9 466.9,570.3 471.4,570.5 
	467.6,573 468.9,577.4 "/>
<polygon class="st0" points="299.4,24.1 299,26.7 296.4,27.2 298.8,28.3 298.4,31 300.3,29.1 302.6,30.2 301.4,27.9 303.2,26 
	300.6,26.4 "/>
<polygon class="st0" points="234,79.2 232.8,79.6 233.6,78.5 232.8,77.5 234,77.9 234.8,76.8 234.8,78.1 236,78.5 234.8,78.9 
	234.8,80.2 "/>
<polygon class="st0" points="284.9,39.7 285.6,42.5 283.4,40.7 281,42.2 282.1,39.5 279.9,37.7 282.7,37.9 283.8,35.3 284.5,38 
	287.3,38.2 "/>
<polygon class="st0" points="206,110.4 206.5,112.3 205,111 203.3,112 204,110.2 202.5,109 204.5,109.1 205.2,107.3 205.7,109.2 
	207.7,109.3 "/>
<polygon class="st0" points="254.9,68.8 256.4,71 253.9,70.1 252.2,72.2 252.3,69.5 249.8,68.6 252.4,67.8 252.5,65.2 254,67.4 
	256.6,66.6 "/>
<polygon class="st0" points="273.2,49.7 273.7,53.6 271,50.8 267.5,52.5 269.3,49 266.6,46.2 270.5,46.9 272.3,43.5 272.8,47.3 
	276.7,48 "/>
<polygon class="st0" points="130,150.2 131,152.1 129.1,151.2 127.6,152.7 127.9,150.6 126,149.6 128.1,149.3 128.4,147.1 
	129.4,149 131.5,148.7 "/>
<polygon class="st0" points="292.9,36.7 293.1,38.1 292.2,37.1 290.9,37.7 291.6,36.5 290.6,35.5 292,35.8 292.6,34.5 292.8,35.9 
	294.2,36.1 "/>
<polygon class="st0" points="223,83.1 222.1,85.8 221.2,83.1 218.3,83.1 220.6,81.4 219.8,78.7 222.1,80.4 224.4,78.7 223.5,81.4 
	225.8,83.1 "/>
<polygon class="st0" points="160.7,123.3 158.6,123.6 160.1,122.1 159.2,120.2 161.1,121.2 162.6,119.7 162.3,121.8 164.1,122.8 
	162,123.1 161.7,125.2 "/>
<polygon class="st0" points="245,67.3 245.1,69.3 243.9,67.8 242.1,68.5 243.1,66.9 241.9,65.4 243.8,65.9 244.8,64.2 244.9,66.1 
	246.8,66.6 "/>
<polygon class="st0" points="183.6,124.5 182.8,128.3 181.2,124.8 177.3,125.2 180.2,122.6 178.6,119 182,120.9 184.9,118.3 
	184.1,122.2 187.5,124.1 "/>
<polygon class="st0" points="145.7,132.5 148.1,134.5 145,134.3 143.8,137.2 143.1,134.2 140,134 142.6,132.3 141.8,129.3 
	144.2,131.3 146.9,129.6 "/>
<polygon class="st0" points="182.3,110.8 182.4,112.7 181.2,111.3 179.4,112 180.4,110.3 179.1,108.9 181,109.3 182,107.7 
	182.2,109.6 184,110.1 "/>
<polygon class="st0" points="160.2,143 162.5,145 159.4,144.8 158.3,147.7 157.5,144.7 154.4,144.5 157.1,142.8 156.3,139.8 
	158.7,141.8 161.3,140.1 "/>
<polygon class="st0" points="172.7,133.2 175.1,135.2 172,135 170.9,137.9 170.1,134.9 167,134.7 169.6,133 168.9,130 171.3,132 
	173.9,130.3 "/>
<polygon class="st0" points="243.8,77 245.4,78.4 243.2,78.2 242.3,80.1 241.9,78 239.8,77.7 241.7,76.7 241.3,74.5 242.9,76 
	244.7,75 "/>
<polygon class="st0" points="210.6,83.7 209.4,84.1 210.1,83.1 209.4,82 210.6,82.4 211.3,81.4 211.3,82.7 212.6,83.1 211.3,83.5 
	211.3,84.7 "/>
<polygon class="st0" points="132.5,245.2 134.8,250.8 129.6,247.6 125,251.5 126.4,245.6 121.3,242.4 127.4,242 128.8,236.1 
	131.1,241.7 137.2,241.3 "/>
<polygon class="st0" points="178.5,332.2 179.9,335 177.1,333.6 175,335.8 175.4,332.8 172.6,331.4 175.7,330.9 176.1,327.8 
	177.6,330.5 180.6,330 "/>
<polygon class="st0" points="131.2,282.4 131.6,285.5 129.5,283.2 126.7,284.6 128.1,281.8 126,279.6 129,280.2 130.5,277.4 
	130.9,280.5 134,281 "/>
<polygon class="st0" points="119.2,207.9 119.8,211.7 117.1,208.9 113.5,210.6 115.4,207.2 112.7,204.4 116.5,205.1 118.4,201.6 
	118.9,205.5 122.7,206.2 "/>
<polygon class="st0" points="170.7,317.7 172.9,320.9 169.2,319.6 166.8,322.7 167,318.8 163.3,317.4 167,316.3 167.2,312.4 
	169.4,315.7 173.1,314.6 "/>
<polygon class="st0" points="156.7,300.3 158.5,303.7 155,302 152.3,304.8 152.8,300.9 149.3,299.2 153.1,298.5 153.7,294.7 
	155.5,298.1 159.4,297.4 "/>
<polygon class="st0" points="148.6,287.8 150.2,289.2 148.1,288.9 147.1,290.9 146.7,288.8 144.6,288.5 146.5,287.5 146.1,285.3 
	147.7,286.8 149.6,285.8 "/>
<polygon class="st0" points="146.3,304.2 147.2,305.3 145.9,305 145.2,306.2 145,304.8 143.7,304.5 144.9,304 144.8,302.6 
	145.7,303.6 147,303.1 "/>
<polygon class="st0" points="128.2,193.6 128.3,194.9 127.4,193.9 126.1,194.4 126.8,193.2 126,192.2 127.3,192.5 128,191.3 
	128.1,192.7 129.4,193 "/>
<polygon class="st0" points="170,304.1 170.1,305.1 169.5,304.4 168.6,304.8 169.1,304 168.4,303.3 169.3,303.4 169.8,302.6 
	169.9,303.5 170.9,303.7 "/>
<polygon class="st0" points="128.5,170.9 127.9,173 127.2,170.9 125,171 126.7,169.7 126,167.7 127.8,168.9 129.4,167.5 
	128.9,169.6 130.6,170.8 "/>
<polygon class="st0" points="107.3,223.8 108.8,226.5 106,225.1 103.8,227.4 104.3,224.3 101.5,222.9 104.5,222.4 105,219.3 
	106.4,222.1 109.5,221.5 "/>
<polygon class="st0" points="113.2,243.2 114.6,246 111.8,244.6 109.7,246.9 110.1,243.8 107.3,242.4 110.4,241.9 110.8,238.8 
	112.2,241.5 115.3,241 "/>
<polygon class="st0" points="285.9,423.1 287,420.6 287.6,423.3 290.3,423.6 287.9,425 288.4,427.6 286.4,425.8 284,427.1 
	285.2,424.6 283.2,422.8 "/>
<polygon class="st0" points="111,155.9 110.7,156.8 110.4,155.9 109.5,155.9 110.3,155.4 110,154.5 110.7,155 111.5,154.5 
	111.2,155.4 112,155.9 "/>
<polygon class="st0" points="98.9,184.3 96.8,184.6 98.3,183.1 97.4,181.2 99.3,182.2 100.8,180.7 100.4,182.8 102.3,183.8 
	100.2,184.1 99.8,186.2 "/>
<polygon class="st0" points="108.2,198 108.3,198.9 107.7,198.2 106.8,198.7 107.3,197.8 106.6,197.1 107.5,197.3 108,196.5 
	108.1,197.4 109,197.6 "/>
<polygon class="st0" points="110.2,170.9 111.7,173.7 108.9,172.3 106.7,174.5 107.2,171.5 104.4,170.1 107.4,169.6 107.9,166.5 
	109.3,169.2 112.4,168.7 "/>
<polygon class="st0" points="130.4,137.5 131.3,138.5 130,138.2 129.3,139.4 129.2,138 127.8,137.7 129.1,137.2 128.9,135.8 
	129.9,136.8 131.1,136.3 "/>
<polygon class="st0" points="195.3,395.1 196.5,397.6 194.1,396.3 192.1,398.3 192.5,395.6 190.1,394.3 192.8,393.9 193.2,391.2 
	194.5,393.6 197.2,393.2 "/>
<polygon class="st0" points="169.6,113.2 169.7,114.6 168.8,113.5 167.5,114 168.2,112.9 167.4,111.8 168.7,112.1 169.4,111 
	169.5,112.4 170.8,112.7 "/>
<polygon class="st0" points="191.2,130.6 192.8,132.1 190.6,131.8 189.7,133.7 189.3,131.6 187.2,131.3 189.1,130.3 188.7,128.2 
	190.3,129.7 192.1,128.7 "/>
<polygon class="st0" points="261.8,56.5 261.8,57.9 261,56.7 259.7,57.1 260.5,56 259.8,54.9 261.1,55.3 261.9,54.3 261.8,55.6 
	263.1,56.1 "/>
<polygon class="st0" points="324.8,573.3 328.5,577.3 323.2,576.2 320.5,580.8 319.9,575.5 314.6,574.3 319.5,572.1 319,566.8 
	322.6,570.8 327.5,568.6 "/>
<polygon class="st0" points="271.2,678 273.5,683.7 268.3,680.5 263.7,684.4 265.1,678.5 260,675.2 266.1,674.8 267.5,668.9 
	269.8,674.6 275.9,674.1 "/>
<polygon class="st0" points="200.6,812.3 197.7,811.2 199.4,813.8 197.5,816.3 200.5,815.4 202.2,818 202.3,814.9 205.3,814 
	202.4,813 202.5,809.9 "/>
<polygon class="st0" points="314.9,458.7 315.4,461.8 313.2,459.6 310.4,461.1 311.8,458.3 309.5,456.1 312.6,456.6 314,453.8 
	314.5,456.8 317.6,457.3 "/>
<polygon class="st0" points="254.3,491.2 255.8,494 253,492.6 250.8,494.8 251.3,491.8 248.5,490.4 251.6,489.9 252,486.8 
	253.4,489.5 256.5,489 "/>
<polygon class="st0" points="196.2,498.1 198.6,500.1 195.5,499.9 194.3,502.7 193.6,499.7 190.5,499.5 193.1,497.9 192.3,494.8 
	194.7,496.8 197.4,495.2 "/>
<polygon class="st0" points="328.6,538.1 331.8,540.4 327.9,540.4 326.6,544.1 325.4,540.4 321.5,540.4 324.7,538.1 323.5,534.4 
	326.6,536.7 329.8,534.4 "/>
<polygon class="st0" points="311.8,671 314.6,673.8 310.7,673.2 309,676.6 308.3,672.8 304.5,672.2 308,670.4 307.4,666.5 
	310.1,669.3 313.6,667.5 "/>
<polygon class="st0" points="210.6,579.4 212.5,582.8 208.9,581.1 206.2,583.9 206.8,580.1 203.3,578.4 207.1,577.7 207.6,573.8 
	209.5,577.3 213.3,576.6 "/>
<polygon class="st0" points="344.9,464.1 345.3,467.9 342.7,465 339.1,466.6 341.1,463.2 338.5,460.3 342.3,461.2 344.3,457.8 
	344.7,461.7 348.5,462.5 "/>
<polygon class="st0" points="287.9,783.5 289.7,786.9 286.2,785.2 283.5,788 284,784.1 280.5,782.4 284.3,781.8 284.9,777.9 
	286.7,781.3 290.6,780.7 "/>
<polygon class="st0" points="290.9,596.7 290.3,598.7 289.6,596.7 287.5,596.8 289.2,595.5 288.4,593.4 290.2,594.6 291.9,593.3 
	291.3,595.4 293.1,596.6 "/>
<polygon class="st0" points="244.9,600.9 246.5,603.9 243.4,602.4 241.1,604.9 241.5,601.5 238.5,600 241.8,599.4 242.3,596 
	243.9,599 247.3,598.4 "/>
<polygon class="st0" points="243.6,681.9 244.6,683.8 242.6,682.8 241.2,684.4 241.5,682.2 239.5,681.3 241.6,680.9 241.9,678.8 
	242.9,680.7 245.1,680.3 "/>
<polygon class="st0" points="364.3,675.3 364.4,676.6 363.5,675.6 362.2,676.1 362.9,674.9 362,673.9 363.4,674.2 364.1,673.1 
	364.2,674.4 365.5,674.8 "/>
<polygon class="st0" points="497.8,682.2 496.5,682.4 497.7,683 497.5,684.4 498.5,683.4 499.7,684 499.1,682.8 500,681.8 
	498.7,682 498,680.8 "/>
<polygon class="st0" points="158.4,666.7 159.1,667.9 157.8,667.3 156.9,668.3 157.1,666.9 155.8,666.3 157.2,666.1 157.4,664.8 
	158,666 159.4,665.7 "/>
<polygon class="st0" points="209.1,700.2 209.7,701.4 208.5,700.8 207.5,701.8 207.7,700.4 206.5,699.8 207.9,699.6 208,698.3 
	208.7,699.5 210,699.2 "/>
<polygon class="st0" points="396.9,777.5 397.5,778.7 396.3,778.1 395.3,779.1 395.5,777.7 394.3,777.1 395.6,776.9 395.8,775.5 
	396.5,776.7 397.8,776.5 "/>
<polygon class="st0" points="283.2,576 283.3,577.4 282.4,576.3 281.1,576.8 281.8,575.7 281,574.6 282.3,575 283,573.8 
	283.1,575.2 284.4,575.5 "/>
<polygon class="st0" points="496.5,808.5 494.5,809.3 496.6,809.8 496.8,812 497.9,810.1 500,810.7 498.6,809 499.8,807.2 
	497.8,808 496.4,806.3 "/>
<polygon class="st0" points="457.4,455.8 456.4,457.8 456.1,455.7 453.9,455.4 455.8,454.3 455.5,452.2 457,453.7 458.9,452.7 
	458,454.6 459.5,456.1 "/>
<polygon class="st0" points="385.6,463.1 386.9,463.6 385.6,464 385.6,465.4 384.8,464.2 383.5,464.7 384.3,463.6 383.5,462.5 
	384.8,462.9 385.6,461.8 "/>
<polygon class="st0" points="268.1,450.9 267.7,452.2 267.2,451 265.9,451 266.9,450.2 266.5,448.9 267.6,449.6 268.7,448.8 
	268.3,450.1 269.5,450.9 "/>
<polygon class="st0" points="319.8,775.9 321,778.1 318.7,777 316.9,778.8 317.3,776.3 315,775.2 317.5,774.7 317.8,772.2 
	319,774.5 321.5,774 "/>
<polygon class="st0" points="426.6,590.3 428.3,591.1 426.5,591.5 426.3,593.3 425.3,591.7 423.5,592.1 424.7,590.7 423.8,589.1 
	425.5,589.8 426.8,588.5 "/>
<polygon class="st0" points="439.6,670.5 439.5,671.9 438.8,670.7 437.5,671.1 438.4,670 437.6,668.8 438.9,669.4 439.8,668.3 
	439.7,669.7 441,670.2 "/>
<polygon class="st0" points="232.1,467.7 232.7,468.9 231.5,468.3 230.5,469.3 230.7,468 229.5,467.4 230.8,467.1 231,465.8 
	231.7,467 233,466.7 "/>
<polygon class="st0" points="372.9,699.7 372.6,700.6 372.3,699.7 371.4,699.7 372.1,699.2 371.9,698.3 372.6,698.8 373.4,698.3 
	373.1,699.2 373.9,699.7 "/>
<polygon class="st0" points="412.9,810.5 412.3,812 411.9,810.4 410.3,810.2 411.7,809.4 411.4,807.7 412.6,808.8 414,808 
	413.4,809.5 414.6,810.6 "/>
<polygon class="st0" points="294.1,470.8 293.5,472.6 292.9,470.8 291,470.8 292.6,469.7 292,467.9 293.5,469 295,467.9 
	294.4,469.7 296,470.8 "/>
</svg>
