<?xml version="1.0" encoding="utf-8"?>
<!-- Generator: Adobe Illustrator 26.3.1, SVG Export Plug-In . SVG Version: 6.00 Build 0)  -->
<svg version="1.1" xmlns="http://www.w3.org/2000/svg" xmlns:xlink="http://www.w3.org/1999/xlink" x="0px" y="0px"
	 viewBox="0 0 902.2 321.5" style="enable-background:new 0 0 902.2 321.5;" xml:space="preserve">
<style type="text/css">
	.st0{fill:#00ADEA;}
	.st1{fill:#0F4988;}
	.st2{fill:#162259;}
	.st3{clip-path:url(#SVGID_00000040538439637258553230000003637767415832051122_);fill:#0F4988;}
	.st4{fill:none;}
	.st5{fill:#82368C;}
	.st6{fill:#2A7FC2;}
	.st7{clip-path:url(#SVGID_00000179646915723687408560000005723609932231706262_);fill:#162259;}
	.st8{clip-path:url(#SVGID_00000109015081931811768920000002819569003635583935_);fill:#162259;}
	.st9{clip-path:url(#SVGID_00000033360623955898455090000010489879096126601913_);fill:#162259;}
	.st10{clip-path:url(#SVGID_00000049900431460780818580000011511688682606607783_);fill:#162259;}
	.st11{clip-path:url(#SVGID_00000106865972212887299070000017939907410734090922_);fill:#162259;}
	.st12{clip-path:url(#SVGID_00000147199804346327558850000003137448209152806808_);fill:#162259;}
	.st13{clip-path:url(#SVGID_00000147199804346327558850000003137448209152806808_);fill:#2A7FC2;}
	.st14{clip-path:url(#SVGID_00000121257724344200008760000000211399596410950565_);fill:#2A7FC2;}
	.st15{clip-path:url(#SVGID_00000115515329571313984870000003758506602689112963_);fill:#162259;}
	.st16{clip-path:url(#SVGID_00000065042338358286652570000011677942335528168340_);fill:#162259;}
	.st17{clip-path:url(#SVGID_00000183933168692056317180000006865880424851019961_);fill:#162259;}
	.st18{clip-path:url(#SVGID_00000129891824404178766080000004012514357751447941_);fill:#162259;}
	.st19{clip-path:url(#SVGID_00000180361177153279288710000009298611375313985961_);fill:#162259;}
	.st20{clip-path:url(#SVGID_00000052788609587727920720000011812986180912602766_);fill:#162259;}
	.st21{clip-path:url(#SVGID_00000011722214527264924920000016559440404158255763_);fill:#162259;}
	.st22{clip-path:url(#SVGID_00000099620205578481807700000011823298665786012563_);fill:#162259;}
	.st23{clip-path:url(#SVGID_00000175295812639048563150000017176895935449194680_);fill:#162259;}
	.st24{clip-path:url(#SVGID_00000115503727294252664740000007056735032215813041_);fill:#162259;}
	.st25{clip-path:url(#SVGID_00000120518895870449016430000008837285495929807019_);fill:#162259;}
	.st26{clip-path:url(#SVGID_00000078020290700269899310000009043357312580293798_);fill:#162259;}
	.st27{clip-path:url(#SVGID_00000128471268745169762550000001168059350457655943_);fill:#162259;}
	.st28{clip-path:url(#SVGID_00000183929437973441388330000003818891310601045928_);fill:#162259;}
	.st29{clip-path:url(#SVGID_00000174597525096159339900000007346067437202748296_);fill:#162259;}
	.st30{clip-path:url(#SVGID_00000041274128746829017920000000658044864731943597_);fill:#162259;}
	.st31{clip-path:url(#SVGID_00000024723914302340642980000009294977566972470702_);fill:#162259;}
	.st32{clip-path:url(#SVGID_00000062870961391703934230000009948481248016396930_);fill:#162259;}
	.st33{clip-path:url(#SVGID_00000081617143031395455400000015488388402162221215_);fill:#162259;}
	.st34{clip-path:url(#SVGID_00000063627859377000421820000012255321832070816921_);fill:#162259;}
	.st35{clip-path:url(#SVGID_00000172410732463946717610000008469456199723010439_);fill:#162259;}
</style>
<g id="Stern">
	<path class="st0" d="M623.6,237.6l-30.9,0c-7.4,22-18.2,32.1-28.1,42.9l16.7-12.1l26.1,19l-10-30.7L623.6,237.6z"/>
	<path class="st1" d="M581.4,206.9l-10,30.7l-32.3,0l26.1,19c0,0-7.1,9.9-12,15.7c-5.8,6.9-19,19.9-19,19.9
		c25.6-11.8,48.7-39.2,56.9-55.4L581.4,206.9z"/>
</g>
<g id="S">
</g>
<g id="Punkte_00000036237158245505811620000005321943355885514942_">
	<path class="st2" d="M229.2,138.2c-5.5,0-9.9-4.4-9.9-9.9s4.4-9.9,9.9-9.9c5.5,0,9.9,4.4,9.9,9.9S234.6,138.2,229.2,138.2"/>
	<path class="st2" d="M333.4,248.8c-5.5,0-9.9-4.4-9.9-9.9c0-5.5,4.4-9.9,9.9-9.9s9.9,4.4,9.9,9.9
		C343.3,244.4,338.8,248.8,333.4,248.8"/>
	<path class="st2" d="M678.1,263.9c-5.5,0-9.9-4.4-9.9-9.9c0-5.5,4.4-9.9,9.9-9.9c5.5,0,9.9,4.4,9.9,9.9
		C688,259.4,683.6,263.9,678.1,263.9"/>
	<path class="st2" d="M700.2,138.2c-5.5,0-9.9-4.4-9.9-9.9s4.4-9.9,9.9-9.9s9.9,4.4,9.9,9.9S705.7,138.2,700.2,138.2"/>
	<path class="st2" d="M611,53.4c-5.5,0-9.9-4.4-9.9-9.9s4.4-9.9,9.9-9.9c5.5,0,9.9,4.4,9.9,9.9S616.5,53.4,611,53.4"/>
	<path class="st2" d="M290.3,32.3c-5.5,0-9.9-4.4-9.9-9.9s4.4-9.9,9.9-9.9c5.5,0,9.9,4.4,9.9,9.9S295.8,32.3,290.3,32.3"/>
</g>
<g id="weiß">
</g>
<g id="Punkt_groß">
	<g>
		<defs>
			<rect id="SVGID_1_" x="219.2" y="8.2" width="490.9" height="288.3"/>
		</defs>
		<clipPath id="SVGID_00000111174060650952394680000014485663121245588624_">
			<use xlink:href="#SVGID_1_"  style="overflow:visible;"/>
		</clipPath>
		<path style="clip-path:url(#SVGID_00000111174060650952394680000014485663121245588624_);fill:#0F4988;" d="M487.3,278.5
			c0,0,0,0.1,0.1,0.1C487.4,278.6,487.4,278.6,487.3,278.5"/>
	</g>
	<g>
		<defs>
			<path id="SVGID_00000158720551547838475410000010766038352268338574_" d="M278.4,21.1c0,6.6,5.3,11.9,11.9,11.9
				c6.6,0,11.9-5.3,11.9-11.9c0-6.6-5.3-11.9-11.9-11.9C283.7,9.2,278.4,14.5,278.4,21.1"/>
		</defs>
		<clipPath id="SVGID_00000089565356301480510270000016529821983452637604_">
			<use xlink:href="#SVGID_00000158720551547838475410000010766038352268338574_"  style="overflow:visible;"/>
		</clipPath>
	</g>
	<path class="st4" d="M372.8,75.4c-5.4-6.9-10.9-13.2-16.4-18.8c-12.8-12.8-25.4-21.7-38.6-27.1C288,17.3,256.1,27,241.8,52.6
		c-17.3,31.1-12.2,69.2-7.6,89.1c5.4,23.5,17.2,55.5,42.9,74.8c21.4,16.1,49.4,22.5,77.1,17.6c33-5.8,60-27.1,82.7-49.3
		c-5-11.8-10.3-23.6-16.2-34.9C407.3,124.1,391.2,99,372.8,75.4z"/>
	<path class="st2" d="M595.4,43.4c-14.8,3.5-29.6,10.9-42.5,21.4c-24.7,20.1-46.4,44.4-67.3,67.9c-8.9,10-18.1,20.3-27.3,30.1
		c-5.6,5.9-11.4,12.1-17.6,18.3c-4.8-11.2-9.9-22.5-15.6-33.4c-13.5-26.1-29.8-51.4-48.4-75.3c-5.5-7-11.2-13.5-16.8-19.2
		c-13.3-13.3-26.5-22.6-40.2-28.2c-32.1-13.2-66.7-2.6-82.2,25.3c-9.6,17.3-12.7,36.6-12.7,54c0,15.3,2.3,29.1,4.6,38.7
		c5.6,24.3,17.9,57.5,44.7,77.7c22.5,16.9,52,23.7,80.9,18.6c33.7-6,61-27.1,84-49.3c1.2,2.8,2.4,5.6,3.5,8.4
		c7.3,17.2,15,34,23.5,50.7c2.1,4.1,4.4,8.3,6.9,12.2h0c32.9,52.2,61.5,31.2,61.5,31.2c-31.5,8.8-56.1-31.2-56.1-31.2h0
		c-5.8-10.7-11.8-21.3-16.9-32.4c-5-10.7-9.6-21.6-14.2-32.5c-1.4-3.4-2.9-6.8-4.3-10.2c6.7-6.7,13.1-13.4,19.1-19.8
		c9.3-9.8,18.5-20.2,27.4-30.2c20.8-23.4,42.3-47.5,66.7-67.3c12.3-10,26.2-16.9,40.2-20.3C595.7,46.8,595.4,45.2,595.4,43.4
		C595.4,43.4,595.4,43.4,595.4,43.4z M354.2,234.2c-27.6,4.9-55.7-1.5-77.1-17.6c-25.6-19.3-37.5-51.3-42.9-74.8
		c-4.6-19.9-9.7-58,7.6-89.1C256.1,27,288,17.3,317.7,29.5c13.2,5.4,25.8,14.3,38.6,27.1c5.5,5.6,11.1,11.9,16.4,18.8
		c18.4,23.7,34.6,48.8,47.9,74.6c5.9,11.3,11.1,23.2,16.2,34.9C414.2,207.1,387.2,228.3,354.2,234.2z"/>
	<path class="st2" d="M676.7,72.8c-13.4-17.3-31.1-28.1-50.2-31c0.1,0.6,0.1,1.1,0.1,1.7c0,1.1-0.1,2.2-0.4,3.3
		c17.6,2.8,34,13,46.5,29.1c21.7,28,33.2,69.8,31.3,114.7c-1,24.8-6.3,42.4-16.2,53.7c-3.7,4.2-7.9,7.1-12.3,9l3,2.1l0.6,1.7
		c4.7-2.3,8.9-5.5,12.5-9.5c10.6-12.2,16.3-30.8,17.4-56.8C710.9,144.7,699.1,101.7,676.7,72.8z"/>
	<path class="st5" d="M611,31.6c-6.3,0-11.4,4.9-11.9,11c7.1-1.4,14.1-1.9,21-1.5c0.9,0.1,1.7,0.1,2.6,0.2
		C621.7,35.7,616.8,31.6,611,31.6z"/>
	<path class="st5" d="M599.8,47.5c1.7,4.6,6,7.8,11.2,7.8c5.6,0,10.3-3.9,11.6-9.1c-0.9-0.1-1.8-0.2-2.7-0.2
		C613.3,45.7,606.6,46.2,599.8,47.5z"/>
	<path class="st5" d="M599.2,42.6c0,0.3,0,0.6,0,0.9c0,1.4,0.3,2.8,0.7,4.1c6.7-1.3,13.5-1.9,20-1.5c0.9,0.1,1.8,0.1,2.7,0.2
		c0.2-0.9,0.4-1.9,0.4-2.8c0-0.7-0.1-1.5-0.2-2.2c-0.9-0.1-1.7-0.2-2.6-0.2C613.3,40.7,606.2,41.2,599.2,42.6z"/>
	<path class="st6" d="M622.7,41.3c-1-5.5-5.9-9.7-11.7-9.7c-6.3,0-11.4,4.9-11.9,11c0,0.3,0,0.6,0,0.9c0,1.4,0.3,2.8,0.7,4.1
		c1.7,4.6,6,7.8,11.2,7.8c5.6,0,10.3-3.9,11.6-9.1c0.2-0.9,0.4-1.9,0.4-2.8C622.9,42.7,622.8,42,622.7,41.3z"/>
</g>
<g id="Text">
	<polygon class="st2" points="720.3,259.5 720.3,245.1 728.6,245.1 728.6,246.6 722.1,246.6 722.1,251.2 727.6,251.2 727.6,252.7 
		722.1,252.7 722.1,258 728.8,258 728.8,259.5 	"/>
	<g>
		<defs>
			<rect id="SVGID_00000094610972318064121460000000611920437497981580_" width="902.2" height="321.5"/>
		</defs>
		<clipPath id="SVGID_00000007424014984113082930000007188610494477783685_">
			<use xlink:href="#SVGID_00000094610972318064121460000000611920437497981580_"  style="overflow:visible;"/>
		</clipPath>
		<path style="clip-path:url(#SVGID_00000007424014984113082930000007188610494477783685_);fill:#162259;" d="M731.7,259.5v-10.7
			h1.5l0.2,1.9h0.1c0.4-0.7,0.8-1.2,1.3-1.6c0.5-0.4,1.1-0.6,1.7-0.6c0.4,0,0.8,0.1,1.1,0.2l-0.4,1.6c-0.2-0.1-0.3-0.1-0.5-0.1
			c-0.1,0-0.3,0-0.6,0c-0.5,0-0.9,0.2-1.4,0.5c-0.5,0.4-0.9,1-1.3,1.9v6.9H731.7z"/>
		<path style="clip-path:url(#SVGID_00000007424014984113082930000007188610494477783685_);fill:#162259;" d="M742.1,259.8
			c-0.8,0-1.5-0.1-2.2-0.4c-0.7-0.3-1.3-0.6-1.8-1.1l0.9-1.2c0.5,0.4,0.9,0.7,1.4,0.9c0.5,0.2,1.1,0.4,1.7,0.4
			c0.7,0,1.2-0.2,1.6-0.5c0.4-0.3,0.5-0.7,0.5-1.2c0-0.3-0.1-0.5-0.2-0.7s-0.3-0.4-0.6-0.5c-0.2-0.2-0.5-0.3-0.8-0.4
			c-0.3-0.1-0.6-0.2-0.9-0.4c-0.4-0.1-0.8-0.3-1.1-0.5c-0.4-0.2-0.7-0.4-1-0.6c-0.3-0.2-0.5-0.5-0.7-0.8c-0.2-0.3-0.3-0.7-0.3-1.2
			c0-0.4,0.1-0.8,0.3-1.2c0.2-0.4,0.4-0.7,0.7-1c0.3-0.3,0.7-0.5,1.2-0.6c0.5-0.2,1-0.2,1.5-0.2c0.7,0,1.3,0.1,1.9,0.4
			c0.6,0.2,1.1,0.5,1.5,0.9l-0.9,1.1c-0.4-0.3-0.7-0.5-1.1-0.7c-0.4-0.2-0.8-0.3-1.3-0.3c-0.7,0-1.2,0.2-1.5,0.5
			c-0.3,0.3-0.5,0.7-0.5,1.1c0,0.2,0.1,0.5,0.2,0.6c0.1,0.2,0.3,0.3,0.5,0.5c0.2,0.1,0.5,0.3,0.8,0.4c0.3,0.1,0.6,0.2,0.9,0.3
			c0.4,0.1,0.8,0.3,1.2,0.5c0.4,0.2,0.7,0.4,1,0.6c0.3,0.2,0.6,0.5,0.8,0.9c0.2,0.4,0.3,0.8,0.3,1.3c0,0.4-0.1,0.9-0.3,1.2
			c-0.2,0.4-0.4,0.7-0.7,1c-0.3,0.3-0.7,0.5-1.2,0.7C743.3,259.7,742.8,259.8,742.1,259.8"/>
		<path style="clip-path:url(#SVGID_00000007424014984113082930000007188610494477783685_);fill:#162259;" d="M751.9,259.8
			c-0.6,0-1.1-0.1-1.4-0.3c-0.4-0.2-0.7-0.4-0.9-0.7c-0.2-0.3-0.4-0.7-0.5-1.1c-0.1-0.4-0.2-0.9-0.2-1.5v-5.9h-1.6v-1.4l1.7-0.1
			l0.2-3h1.5v3h2.9v1.5h-2.9v5.9c0,0.7,0.1,1.2,0.4,1.5c0.2,0.4,0.7,0.5,1.3,0.5c0.2,0,0.4,0,0.6-0.1c0.2-0.1,0.4-0.1,0.6-0.2
			l0.4,1.4c-0.3,0.1-0.6,0.2-1,0.3C752.6,259.8,752.3,259.8,751.9,259.8"/>
		<path style="clip-path:url(#SVGID_00000007424014984113082930000007188610494477783685_);fill:#162259;" d="M759.6,254.9
			c0.3,0,0.6-0.1,0.9-0.2c0.3-0.1,0.5-0.3,0.7-0.5c0.2-0.2,0.4-0.5,0.5-0.8c0.1-0.3,0.2-0.7,0.2-1.1c0-0.8-0.2-1.4-0.7-1.8
			c-0.4-0.4-1-0.6-1.6-0.6c-0.6,0-1.2,0.2-1.6,0.6c-0.4,0.4-0.7,1-0.7,1.8c0,0.4,0.1,0.8,0.2,1.1c0.1,0.3,0.3,0.6,0.5,0.8
			c0.2,0.2,0.5,0.4,0.7,0.5C759,254.9,759.3,254.9,759.6,254.9 M759.9,263.2c0.5,0,1-0.1,1.4-0.2c0.4-0.1,0.8-0.3,1.1-0.5
			c0.3-0.2,0.5-0.4,0.7-0.7c0.2-0.3,0.2-0.5,0.2-0.8c0-0.5-0.2-0.8-0.5-1c-0.4-0.2-0.9-0.3-1.6-0.3h-1.8c-0.2,0-0.4,0-0.7,0
			c-0.2,0-0.5-0.1-0.7-0.1c-0.4,0.3-0.7,0.6-0.8,0.9c-0.2,0.3-0.3,0.6-0.3,0.9c0,0.6,0.3,1,0.8,1.4
			C758.1,263,758.9,263.2,759.9,263.2 M759.6,264.5c-0.7,0-1.3-0.1-1.8-0.2c-0.5-0.1-1-0.3-1.4-0.6c-0.4-0.2-0.7-0.6-0.9-0.9
			c-0.2-0.4-0.3-0.8-0.3-1.2c0-0.5,0.1-0.9,0.4-1.3c0.3-0.4,0.7-0.8,1.1-1.1v-0.1c-0.3-0.2-0.5-0.4-0.7-0.7
			c-0.2-0.3-0.3-0.6-0.3-1.1c0-0.5,0.1-0.9,0.4-1.2c0.2-0.3,0.5-0.6,0.8-0.8v-0.1c-0.4-0.3-0.7-0.7-1-1.2c-0.3-0.5-0.4-1.1-0.4-1.7
			c0-0.6,0.1-1.1,0.3-1.6c0.2-0.5,0.5-0.9,0.9-1.2c0.4-0.3,0.8-0.6,1.3-0.8c0.5-0.2,1-0.3,1.6-0.3c0.3,0,0.6,0,0.8,0.1
			c0.3,0.1,0.5,0.1,0.7,0.2h3.7v1.4h-2.2c0.2,0.2,0.5,0.6,0.6,0.9c0.2,0.4,0.3,0.8,0.3,1.3c0,0.6-0.1,1.1-0.3,1.6
			c-0.2,0.5-0.5,0.8-0.8,1.2c-0.4,0.3-0.8,0.6-1.2,0.7c-0.5,0.2-1,0.3-1.5,0.3c-0.3,0-0.5,0-0.8-0.1c-0.3-0.1-0.5-0.2-0.8-0.3
			c-0.2,0.2-0.4,0.3-0.5,0.5c-0.1,0.2-0.2,0.4-0.2,0.7c0,0.3,0.1,0.6,0.4,0.8s0.8,0.3,1.5,0.3h2.1c1.2,0,2.2,0.2,2.8,0.6
			c0.6,0.4,0.9,1.1,0.9,1.9c0,0.5-0.1,1-0.4,1.4c-0.2,0.4-0.6,0.8-1.1,1.2c-0.5,0.3-1,0.6-1.7,0.8
			C761.2,264.4,760.4,264.5,759.6,264.5"/>
		<path style="clip-path:url(#SVGID_00000007424014984113082930000007188610494477783685_);fill:#162259;" d="M768.1,253.3h5.7
			c0-1.1-0.2-1.9-0.7-2.5c-0.5-0.6-1.1-0.8-1.9-0.8c-0.4,0-0.7,0.1-1.1,0.2c-0.3,0.1-0.7,0.4-0.9,0.6c-0.3,0.3-0.5,0.6-0.7,1
			C768.2,252.3,768.1,252.8,768.1,253.3 M771.4,259.8c-0.7,0-1.4-0.1-2-0.4c-0.6-0.3-1.2-0.6-1.6-1.1c-0.5-0.5-0.8-1.1-1.1-1.8
			c-0.3-0.7-0.4-1.5-0.4-2.4c0-0.9,0.1-1.7,0.4-2.4c0.3-0.7,0.6-1.3,1.1-1.8c0.4-0.5,1-0.9,1.5-1.1c0.6-0.3,1.2-0.4,1.8-0.4
			c0.7,0,1.3,0.1,1.8,0.4c0.5,0.2,1,0.6,1.3,1c0.4,0.4,0.6,1,0.8,1.6c0.2,0.6,0.3,1.3,0.3,2.1c0,0.2,0,0.4,0,0.6
			c0,0.2,0,0.3-0.1,0.5h-7.2c0.1,1.1,0.4,2,1.1,2.7c0.6,0.7,1.5,1,2.5,1c0.5,0,1-0.1,1.4-0.2c0.4-0.2,0.8-0.4,1.2-0.6l0.6,1.2
			c-0.5,0.3-1,0.5-1.6,0.8C772.8,259.7,772.2,259.8,771.4,259.8"/>
		<path style="clip-path:url(#SVGID_00000007424014984113082930000007188610494477783685_);fill:#162259;" d="M780.8,259.8
			c-0.8,0-1.5-0.1-2.2-0.4c-0.7-0.3-1.3-0.6-1.8-1.1l0.9-1.2c0.5,0.4,0.9,0.7,1.4,0.9c0.5,0.2,1.1,0.4,1.7,0.4
			c0.7,0,1.2-0.2,1.6-0.5c0.4-0.3,0.5-0.7,0.5-1.2c0-0.3-0.1-0.5-0.2-0.7s-0.3-0.4-0.6-0.5c-0.2-0.2-0.5-0.3-0.8-0.4
			c-0.3-0.1-0.6-0.2-0.9-0.4c-0.4-0.1-0.8-0.3-1.1-0.5c-0.4-0.2-0.7-0.4-1-0.6s-0.5-0.5-0.7-0.8c-0.2-0.3-0.3-0.7-0.3-1.2
			c0-0.4,0.1-0.8,0.3-1.2c0.2-0.4,0.4-0.7,0.7-1c0.3-0.3,0.7-0.5,1.2-0.6c0.5-0.2,1-0.2,1.5-0.2c0.7,0,1.3,0.1,1.9,0.4
			c0.6,0.2,1.1,0.5,1.5,0.9l-0.9,1.1c-0.4-0.3-0.7-0.5-1.1-0.7c-0.4-0.2-0.8-0.3-1.3-0.3c-0.7,0-1.2,0.2-1.5,0.5
			c-0.3,0.3-0.5,0.7-0.5,1.1c0,0.2,0.1,0.5,0.2,0.6c0.1,0.2,0.3,0.3,0.5,0.5c0.2,0.1,0.5,0.3,0.8,0.4c0.3,0.1,0.6,0.2,0.9,0.3
			c0.4,0.1,0.8,0.3,1.2,0.5c0.4,0.2,0.7,0.4,1,0.6c0.3,0.2,0.6,0.5,0.8,0.9c0.2,0.4,0.3,0.8,0.3,1.3c0,0.4-0.1,0.9-0.3,1.2
			c-0.2,0.4-0.4,0.7-0.7,1c-0.3,0.3-0.7,0.5-1.2,0.7C782,259.7,781.4,259.8,780.8,259.8"/>
		<path style="clip-path:url(#SVGID_00000007424014984113082930000007188610494477783685_);fill:#162259;" d="M791.6,258.3
			c0.4,0,0.8-0.1,1.2-0.3c0.4-0.2,0.7-0.5,1-0.8c0.3-0.4,0.5-0.8,0.6-1.3c0.2-0.5,0.2-1.1,0.2-1.8c0-0.6-0.1-1.1-0.2-1.6
			c-0.1-0.5-0.3-0.9-0.5-1.2c-0.2-0.3-0.5-0.6-0.9-0.8c-0.4-0.2-0.8-0.3-1.3-0.3c-0.5,0-0.9,0.1-1.4,0.4c-0.5,0.2-1,0.6-1.5,1.1v5.6
			c0.5,0.4,1,0.7,1.4,0.9C790.9,258.2,791.3,258.3,791.6,258.3 M787.2,264v-15.2h1.5l0.2,1.2h0.1c0.5-0.4,1-0.8,1.6-1.1
			c0.6-0.3,1.2-0.4,1.8-0.4c0.7,0,1.3,0.1,1.8,0.4c0.5,0.3,1,0.6,1.3,1.1c0.4,0.5,0.6,1,0.8,1.7c0.2,0.7,0.3,1.4,0.3,2.3
			c0,0.9-0.1,1.7-0.4,2.4c-0.2,0.7-0.6,1.3-1,1.8c-0.4,0.5-0.9,0.9-1.5,1.1c-0.6,0.3-1.1,0.4-1.8,0.4c-0.5,0-1-0.1-1.5-0.3
			c-0.5-0.2-1-0.5-1.5-0.9l0,1.9v3.6H787.2z"/>
		<path style="clip-path:url(#SVGID_00000007424014984113082930000007188610494477783685_);fill:#162259;" d="M799.4,259.5v-10.7
			h1.5l0.2,1.9h0.1c0.4-0.7,0.8-1.2,1.3-1.6c0.5-0.4,1.1-0.6,1.7-0.6c0.4,0,0.8,0.1,1.1,0.2l-0.4,1.6c-0.2-0.1-0.3-0.1-0.5-0.1
			c-0.1,0-0.3,0-0.6,0c-0.5,0-0.9,0.2-1.4,0.5c-0.5,0.4-0.9,1-1.3,1.9v6.9H799.4z"/>
		<path style="clip-path:url(#SVGID_00000007424014984113082930000007188610494477783685_);fill:#162259;" d="M813.1,246.6
			c-0.3,0-0.6-0.1-0.8-0.3c-0.2-0.2-0.3-0.5-0.3-0.8c0-0.3,0.1-0.6,0.3-0.8c0.2-0.2,0.5-0.3,0.8-0.3c0.3,0,0.6,0.1,0.8,0.3
			c0.2,0.2,0.3,0.5,0.3,0.8c0,0.3-0.1,0.6-0.3,0.8C813.7,246.5,813.5,246.6,813.1,246.6 M810.1,258.3c0.5,0,1-0.1,1.5-0.4
			c0.5-0.2,0.9-0.6,1.5-1.1v-3c-0.9,0.1-1.6,0.3-2.3,0.4c-0.6,0.2-1.1,0.4-1.5,0.6c-0.4,0.2-0.6,0.5-0.8,0.8
			c-0.2,0.3-0.3,0.6-0.3,0.9c0,0.6,0.2,1.1,0.6,1.3C809.1,258.2,809.5,258.3,810.1,258.3 M808.9,246.6c-0.3,0-0.6-0.1-0.8-0.3
			c-0.2-0.2-0.3-0.5-0.3-0.8c0-0.3,0.1-0.6,0.3-0.8c0.2-0.2,0.5-0.3,0.8-0.3c0.3,0,0.6,0.1,0.8,0.3c0.2,0.2,0.3,0.5,0.3,0.8
			c0,0.3-0.1,0.6-0.3,0.8C809.5,246.5,809.2,246.6,808.9,246.6 M809.5,259.8c-0.9,0-1.6-0.3-2.2-0.8c-0.6-0.5-0.9-1.3-0.9-2.2
			c0-1.2,0.5-2.1,1.6-2.7c1-0.6,2.7-1.1,5-1.3c0-0.3,0-0.7-0.1-1c-0.1-0.3-0.2-0.6-0.3-0.9c-0.2-0.2-0.4-0.5-0.7-0.6
			c-0.3-0.2-0.6-0.2-1.1-0.2c-0.6,0-1.2,0.1-1.7,0.4c-0.5,0.2-1,0.5-1.5,0.8l-0.7-1.3c0.5-0.3,1.1-0.6,1.8-0.9
			c0.7-0.3,1.5-0.5,2.4-0.5c1.3,0,2.3,0.4,2.8,1.2c0.6,0.8,0.9,1.9,0.9,3.2v6.6h-1.5l-0.2-1.3h-0.1c-0.5,0.4-1.1,0.8-1.6,1.1
			C810.8,259.6,810.2,259.8,809.5,259.8"/>
		<path style="clip-path:url(#SVGID_00000007424014984113082930000007188610494477783685_);fill:#162259;" d="M822.4,259.8
			c-0.7,0-1.4-0.1-2-0.4c-0.6-0.2-1.1-0.6-1.6-1.1c-0.4-0.5-0.8-1.1-1.1-1.8c-0.3-0.7-0.4-1.5-0.4-2.4c0-0.9,0.1-1.7,0.4-2.4
			c0.3-0.7,0.7-1.3,1.1-1.8c0.5-0.5,1-0.8,1.6-1.1c0.6-0.2,1.3-0.4,2-0.4c0.7,0,1.3,0.1,1.8,0.4c0.5,0.2,0.9,0.5,1.3,0.9l-0.9,1.2
			c-0.3-0.3-0.6-0.5-1-0.7c-0.3-0.2-0.7-0.3-1.2-0.3c-0.5,0-0.9,0.1-1.3,0.3c-0.4,0.2-0.8,0.5-1.1,0.8c-0.3,0.4-0.5,0.8-0.7,1.3
			c-0.2,0.5-0.3,1.1-0.3,1.7c0,0.6,0.1,1.2,0.2,1.7c0.2,0.5,0.4,0.9,0.7,1.3c0.3,0.4,0.6,0.6,1,0.8c0.4,0.2,0.9,0.3,1.3,0.3
			c0.5,0,1-0.1,1.4-0.3c0.4-0.2,0.8-0.5,1.1-0.8l0.8,1.2c-0.5,0.4-1,0.8-1.6,1C823.6,259.7,823,259.8,822.4,259.8"/>
		<path style="clip-path:url(#SVGID_00000007424014984113082930000007188610494477783685_);fill:#162259;" d="M828.2,259.5v-15.7
			h1.8v4.3l-0.1,2.2c0.5-0.5,1-0.9,1.6-1.2c0.6-0.3,1.2-0.5,2-0.5c1.1,0,2,0.4,2.5,1.1c0.5,0.7,0.8,1.7,0.8,3.1v6.8h-1.8V253
			c0-1-0.2-1.7-0.5-2.2c-0.3-0.4-0.8-0.7-1.5-0.7c-0.6,0-1,0.1-1.5,0.4c-0.4,0.3-0.9,0.7-1.5,1.2v7.7H828.2z"/>
		<path style="clip-path:url(#SVGID_00000007424014984113082930000007188610494477783685_);fill:#162259;" d="M734,134.3
			c-1,0-2-0.2-2.8-0.6c-0.9-0.4-1.6-0.9-2.2-1.6l1.1-1.3c0.5,0.5,1.1,1,1.8,1.3c0.7,0.3,1.4,0.5,2.2,0.5c1,0,1.7-0.2,2.2-0.6
			c0.5-0.4,0.8-1,0.8-1.7c0-0.4-0.1-0.7-0.2-0.9c-0.1-0.3-0.3-0.5-0.5-0.7c-0.2-0.2-0.5-0.3-0.8-0.5c-0.3-0.1-0.6-0.3-0.9-0.5
			l-2.1-0.9c-0.3-0.1-0.7-0.3-1-0.5c-0.4-0.2-0.7-0.5-0.9-0.7c-0.3-0.3-0.5-0.6-0.7-1c-0.2-0.4-0.3-0.9-0.3-1.4c0-0.5,0.1-1,0.3-1.5
			c0.2-0.5,0.5-0.9,0.9-1.2c0.4-0.3,0.9-0.6,1.4-0.8c0.5-0.2,1.2-0.3,1.8-0.3c0.9,0,1.7,0.2,2.4,0.5c0.7,0.3,1.4,0.8,1.9,1.3l-1,1.2
			c-0.4-0.4-0.9-0.8-1.5-1c-0.5-0.2-1.1-0.4-1.8-0.4c-0.8,0-1.5,0.2-1.9,0.6c-0.5,0.4-0.7,0.9-0.7,1.6c0,0.4,0.1,0.6,0.2,0.9
			c0.1,0.2,0.3,0.5,0.6,0.6c0.2,0.2,0.5,0.3,0.8,0.5c0.3,0.1,0.6,0.3,0.9,0.4l2,0.9c0.4,0.2,0.8,0.4,1.2,0.6
			c0.4,0.2,0.7,0.5,0.9,0.8c0.3,0.3,0.5,0.7,0.6,1.1c0.2,0.4,0.2,0.9,0.2,1.4c0,0.6-0.1,1.1-0.3,1.6c-0.2,0.5-0.6,0.9-1,1.3
			c-0.4,0.4-0.9,0.7-1.5,0.9C735.4,134.2,734.7,134.3,734,134.3"/>
		<path style="clip-path:url(#SVGID_00000007424014984113082930000007188610494477783685_);fill:#162259;" d="M744.9,134.3
			c-0.6,0-1.1-0.1-1.4-0.3c-0.4-0.2-0.7-0.4-0.9-0.7c-0.2-0.3-0.4-0.7-0.5-1.1c-0.1-0.4-0.2-0.9-0.2-1.5v-5.9h-1.6v-1.4l1.7-0.1
			l0.2-3h1.5v3h2.9v1.5h-2.9v5.9c0,0.7,0.1,1.2,0.4,1.5c0.2,0.4,0.7,0.5,1.3,0.5c0.2,0,0.4,0,0.6-0.1c0.2-0.1,0.4-0.1,0.6-0.2
			l0.4,1.4c-0.3,0.1-0.6,0.2-1,0.3C745.6,134.3,745.3,134.3,744.9,134.3"/>
		<path style="clip-path:url(#SVGID_00000007424014984113082930000007188610494477783685_);fill:#162259;" d="M749,134v-10.7h1.5
			l0.2,1.9h0.1c0.4-0.7,0.8-1.2,1.3-1.6c0.5-0.4,1.1-0.6,1.7-0.6c0.4,0,0.8,0.1,1.1,0.2l-0.4,1.6c-0.2-0.1-0.3-0.1-0.5-0.1
			c-0.1,0-0.3,0-0.6,0c-0.5,0-0.9,0.2-1.4,0.5c-0.5,0.4-0.9,1-1.3,1.9v6.9H749z"/>
		<path style="clip-path:url(#SVGID_00000007424014984113082930000007188610494477783685_);fill:#162259;" d="M759.6,132.9
			c0.5,0,1-0.1,1.5-0.4c0.5-0.2,0.9-0.6,1.5-1.1v-3c-0.9,0.1-1.6,0.3-2.3,0.4c-0.6,0.2-1.1,0.4-1.5,0.6c-0.4,0.2-0.6,0.5-0.8,0.8
			c-0.2,0.3-0.3,0.6-0.3,0.9c0,0.6,0.2,1.1,0.5,1.3C758.6,132.7,759.1,132.9,759.6,132.9 M759.1,134.3c-0.9,0-1.6-0.3-2.2-0.8
			c-0.6-0.5-0.9-1.3-0.9-2.2c0-1.2,0.5-2.1,1.6-2.7c1-0.6,2.7-1.1,5-1.3c0-0.3,0-0.7-0.1-1c-0.1-0.3-0.2-0.6-0.3-0.9
			c-0.2-0.2-0.4-0.5-0.7-0.6c-0.3-0.2-0.6-0.2-1.1-0.2c-0.6,0-1.2,0.1-1.7,0.4c-0.5,0.2-1,0.5-1.5,0.8l-0.7-1.3
			c0.5-0.3,1.1-0.6,1.8-0.9c0.7-0.3,1.5-0.5,2.4-0.5c1.3,0,2.3,0.4,2.8,1.2c0.6,0.8,0.9,1.9,0.9,3.2v6.6h-1.5l-0.2-1.3h-0.1
			c-0.5,0.4-1.1,0.8-1.7,1.1C760.4,134.2,759.8,134.3,759.1,134.3"/>
		<path style="clip-path:url(#SVGID_00000007424014984113082930000007188610494477783685_);fill:#162259;" d="M771.1,134.3
			c-0.6,0-1.1-0.1-1.4-0.3c-0.4-0.2-0.7-0.4-0.9-0.7c-0.2-0.3-0.4-0.7-0.5-1.1c-0.1-0.4-0.2-0.9-0.2-1.5v-5.9h-1.6v-1.4l1.7-0.1
			l0.2-3h1.5v3h2.9v1.5h-2.9v5.9c0,0.7,0.1,1.2,0.4,1.5c0.2,0.4,0.7,0.5,1.3,0.5c0.2,0,0.4,0,0.6-0.1c0.2-0.1,0.4-0.1,0.6-0.2
			l0.4,1.4c-0.3,0.1-0.6,0.2-1,0.3C771.8,134.3,771.4,134.3,771.1,134.3"/>
		<path style="clip-path:url(#SVGID_00000007424014984113082930000007188610494477783685_);fill:#162259;" d="M776.1,127.8h5.7
			c0-1.1-0.2-1.9-0.7-2.5c-0.5-0.6-1.1-0.8-1.9-0.8c-0.4,0-0.7,0.1-1.1,0.2c-0.3,0.1-0.7,0.4-0.9,0.6c-0.3,0.3-0.5,0.6-0.7,1
			C776.3,126.8,776.2,127.3,776.1,127.8 M779.5,134.3c-0.7,0-1.4-0.1-2-0.4c-0.6-0.3-1.2-0.6-1.6-1.1c-0.5-0.5-0.8-1.1-1.1-1.7
			c-0.3-0.7-0.4-1.5-0.4-2.4c0-0.9,0.1-1.7,0.4-2.4c0.3-0.7,0.6-1.3,1.1-1.8c0.4-0.5,1-0.9,1.5-1.1c0.6-0.3,1.2-0.4,1.8-0.4
			c0.7,0,1.3,0.1,1.8,0.4c0.5,0.2,1,0.6,1.3,1c0.4,0.4,0.6,1,0.8,1.6c0.2,0.6,0.3,1.3,0.3,2.1c0,0.2,0,0.4,0,0.6
			c0,0.2,0,0.3-0.1,0.5h-7.2c0.1,1.1,0.4,2.1,1.1,2.7c0.6,0.7,1.5,1,2.5,1c0.5,0,1-0.1,1.4-0.2c0.4-0.2,0.8-0.4,1.2-0.6l0.6,1.2
			c-0.5,0.3-1,0.6-1.6,0.8C780.9,134.2,780.2,134.3,779.5,134.3"/>
		<path style="clip-path:url(#SVGID_00000007424014984113082930000007188610494477783685_);fill:#162259;" d="M789.7,129.4
			c0.3,0,0.6-0.1,0.9-0.2c0.3-0.1,0.5-0.3,0.7-0.5c0.2-0.2,0.4-0.5,0.5-0.8c0.1-0.3,0.2-0.7,0.2-1.1c0-0.8-0.2-1.4-0.7-1.8
			s-1-0.6-1.6-0.6c-0.6,0-1.2,0.2-1.6,0.6s-0.7,1-0.7,1.8c0,0.4,0.1,0.8,0.2,1.1c0.1,0.3,0.3,0.6,0.5,0.8c0.2,0.2,0.5,0.4,0.7,0.5
			C789.1,129.4,789.4,129.4,789.7,129.4 M789.9,137.7c0.5,0,1-0.1,1.4-0.2c0.4-0.1,0.8-0.3,1.1-0.5c0.3-0.2,0.5-0.4,0.7-0.7
			c0.2-0.3,0.2-0.5,0.2-0.8c0-0.5-0.2-0.8-0.5-1c-0.4-0.2-0.9-0.3-1.6-0.3h-1.8c-0.2,0-0.4,0-0.7,0c-0.2,0-0.5-0.1-0.7-0.1
			c-0.4,0.3-0.7,0.6-0.8,0.9c-0.2,0.3-0.3,0.6-0.3,0.9c0,0.6,0.3,1,0.8,1.4C788.2,137.5,789,137.7,789.9,137.7 M789.7,139
			c-0.7,0-1.3-0.1-1.8-0.2c-0.5-0.1-1-0.3-1.4-0.6c-0.4-0.2-0.7-0.6-0.9-0.9c-0.2-0.4-0.3-0.8-0.3-1.2c0-0.5,0.1-0.9,0.4-1.3
			c0.3-0.4,0.7-0.8,1.1-1.1v-0.1c-0.3-0.2-0.5-0.4-0.7-0.7c-0.2-0.3-0.3-0.6-0.3-1.1c0-0.5,0.1-0.9,0.4-1.2c0.2-0.3,0.5-0.6,0.8-0.8
			v-0.1c-0.4-0.3-0.7-0.7-1-1.2c-0.3-0.5-0.4-1.1-0.4-1.7c0-0.6,0.1-1.1,0.3-1.6c0.2-0.5,0.5-0.9,0.9-1.2c0.4-0.3,0.8-0.6,1.3-0.8
			c0.5-0.2,1-0.3,1.6-0.3c0.3,0,0.6,0,0.8,0.1c0.3,0.1,0.5,0.1,0.7,0.2h3.7v1.4h-2.2c0.2,0.2,0.5,0.6,0.6,0.9
			c0.2,0.4,0.3,0.8,0.3,1.3c0,0.6-0.1,1.1-0.3,1.6c-0.2,0.5-0.5,0.9-0.8,1.2c-0.4,0.3-0.8,0.6-1.2,0.7c-0.5,0.2-1,0.3-1.5,0.3
			c-0.3,0-0.5,0-0.8-0.1c-0.3-0.1-0.5-0.2-0.8-0.3c-0.2,0.2-0.4,0.3-0.5,0.5c-0.1,0.2-0.2,0.4-0.2,0.7c0,0.3,0.1,0.6,0.4,0.8
			c0.3,0.2,0.8,0.3,1.5,0.3h2.1c1.2,0,2.2,0.2,2.8,0.6c0.6,0.4,0.9,1.1,0.9,1.9c0,0.5-0.1,1-0.4,1.4c-0.2,0.4-0.6,0.8-1.1,1.2
			c-0.5,0.3-1,0.6-1.7,0.8C791.3,138.9,790.5,139,789.7,139"/>
		<path style="clip-path:url(#SVGID_00000007424014984113082930000007188610494477783685_);fill:#162259;" d="M797.1,123.4h1.8V134
			h-1.8V123.4z M798.1,121.2c-0.4,0-0.6-0.1-0.9-0.3c-0.2-0.2-0.4-0.5-0.4-0.8c0-0.4,0.1-0.6,0.4-0.8c0.2-0.2,0.5-0.3,0.9-0.3
			c0.4,0,0.6,0.1,0.9,0.3c0.2,0.2,0.4,0.5,0.4,0.8c0,0.3-0.1,0.6-0.4,0.8C798.7,121,798.4,121.2,798.1,121.2"/>
		<path style="clip-path:url(#SVGID_00000007424014984113082930000007188610494477783685_);fill:#162259;" d="M803.5,127.8h5.7
			c0-1.1-0.2-1.9-0.7-2.5c-0.5-0.6-1.1-0.8-1.9-0.8c-0.4,0-0.7,0.1-1.1,0.2c-0.3,0.1-0.7,0.4-0.9,0.6c-0.3,0.3-0.5,0.6-0.7,1
			C803.7,126.8,803.6,127.3,803.5,127.8 M806.9,134.3c-0.7,0-1.4-0.1-2-0.4c-0.6-0.3-1.2-0.6-1.6-1.1c-0.5-0.5-0.8-1.1-1.1-1.7
			c-0.3-0.7-0.4-1.5-0.4-2.4c0-0.9,0.1-1.7,0.4-2.4c0.3-0.7,0.6-1.3,1.1-1.8c0.4-0.5,1-0.9,1.5-1.1c0.6-0.3,1.2-0.4,1.8-0.4
			c0.7,0,1.3,0.1,1.8,0.4c0.5,0.2,1,0.6,1.3,1c0.4,0.4,0.6,1,0.8,1.6c0.2,0.6,0.3,1.3,0.3,2.1c0,0.2,0,0.4,0,0.6
			c0,0.2,0,0.3-0.1,0.5h-7.2c0.1,1.1,0.4,2.1,1.1,2.7c0.6,0.7,1.5,1,2.5,1c0.5,0,1-0.1,1.4-0.2c0.4-0.2,0.8-0.4,1.2-0.6l0.6,1.2
			c-0.5,0.3-1,0.6-1.6,0.8C808.3,134.2,807.6,134.3,806.9,134.3"/>
		<path style="clip-path:url(#SVGID_00000007424014984113082930000007188610494477783685_);fill:#162259;" d="M815.2,134l-3-10.7
			h1.8l1.6,6.2c0.1,0.5,0.2,1,0.3,1.5c0.1,0.5,0.2,1,0.3,1.5h0.1c0.1-0.5,0.2-1,0.4-1.5s0.2-1,0.4-1.5l1.7-6.2h1.8l1.7,6.2
			c0.1,0.5,0.3,1,0.4,1.5c0.1,0.5,0.2,1,0.4,1.5h0.1c0.1-0.5,0.2-1,0.3-1.5c0.1-0.5,0.2-1,0.3-1.5l1.6-6.2h1.7l-2.9,10.7h-2.2
			l-1.5-5.7c-0.1-0.5-0.3-1-0.4-1.5c-0.1-0.5-0.2-1-0.4-1.6h-0.1c-0.1,0.5-0.2,1.1-0.4,1.6s-0.2,1-0.4,1.5l-1.5,5.7H815.2z"/>
		<path style="clip-path:url(#SVGID_00000007424014984113082930000007188610494477783685_);fill:#162259;" d="M833.4,132.8
			c0.5,0,0.9-0.1,1.3-0.3c0.4-0.2,0.7-0.5,1-0.8c0.3-0.4,0.5-0.8,0.6-1.3c0.1-0.5,0.2-1.1,0.2-1.7s-0.1-1.2-0.2-1.7
			c-0.1-0.5-0.4-0.9-0.6-1.3c-0.3-0.4-0.6-0.6-1-0.8c-0.4-0.2-0.8-0.3-1.3-0.3c-0.5,0-0.9,0.1-1.3,0.3c-0.4,0.2-0.7,0.5-1,0.8
			c-0.3,0.4-0.5,0.8-0.6,1.3c-0.1,0.5-0.2,1.1-0.2,1.7s0.1,1.2,0.2,1.7c0.1,0.5,0.4,0.9,0.6,1.3c0.3,0.4,0.6,0.6,1,0.8
			C832.6,132.7,833,132.8,833.4,132.8 M833.4,134.3c-0.7,0-1.3-0.1-1.9-0.4c-0.6-0.2-1.1-0.6-1.6-1.1c-0.5-0.5-0.8-1.1-1.1-1.8
			c-0.3-0.7-0.4-1.5-0.4-2.4c0-0.9,0.1-1.7,0.4-2.4c0.3-0.7,0.6-1.3,1.1-1.8c0.5-0.5,1-0.9,1.6-1.1c0.6-0.2,1.2-0.4,1.9-0.4
			c0.7,0,1.3,0.1,1.9,0.4c0.6,0.2,1.1,0.6,1.6,1.1c0.5,0.5,0.8,1.1,1.1,1.8c0.3,0.7,0.4,1.5,0.4,2.4c0,0.9-0.1,1.7-0.4,2.4
			c-0.3,0.7-0.6,1.3-1.1,1.8c-0.5,0.5-1,0.8-1.6,1.1C834.7,134.2,834.1,134.3,833.4,134.3"/>
		<path style="clip-path:url(#SVGID_00000007424014984113082930000007188610494477783685_);fill:#162259;" d="M841.2,134v-10.7h1.5
			l0.2,1.9h0.1c0.4-0.7,0.8-1.2,1.3-1.6c0.5-0.4,1.1-0.6,1.7-0.6c0.4,0,0.8,0.1,1.1,0.2l-0.4,1.6c-0.2-0.1-0.3-0.1-0.5-0.1
			c-0.1,0-0.3,0-0.6,0c-0.5,0-0.9,0.2-1.4,0.5c-0.5,0.4-0.9,1-1.3,1.9v6.9H841.2z"/>
	</g>
	<polygon class="st2" points="848.8,134 848.8,118.4 850.6,118.4 850.6,129 850.7,129 855.2,123.4 857.2,123.4 853.6,127.6 
		857.7,134 855.7,134 852.6,128.9 850.6,131.2 850.6,134 	"/>
	<g>
		<defs>
			<rect id="SVGID_00000146467376844500011240000018143994493839848885_" width="902.2" height="321.5"/>
		</defs>
		<clipPath id="SVGID_00000035525419072277062090000015021285715042741929_">
			<use xlink:href="#SVGID_00000146467376844500011240000018143994493839848885_"  style="overflow:visible;"/>
		</clipPath>
		<path style="clip-path:url(#SVGID_00000035525419072277062090000015021285715042741929_);fill:#162259;" d="M862.5,134.3
			c-0.8,0-1.5-0.1-2.2-0.4c-0.7-0.3-1.3-0.6-1.8-1.1l0.9-1.2c0.5,0.4,0.9,0.7,1.4,0.9c0.5,0.2,1.1,0.4,1.7,0.4
			c0.7,0,1.2-0.2,1.6-0.5c0.4-0.3,0.5-0.7,0.5-1.2c0-0.3-0.1-0.5-0.2-0.7c-0.1-0.2-0.3-0.4-0.6-0.5c-0.2-0.2-0.5-0.3-0.8-0.4
			c-0.3-0.1-0.6-0.2-0.9-0.4c-0.4-0.1-0.8-0.3-1.1-0.5c-0.4-0.2-0.7-0.4-1-0.6c-0.3-0.2-0.5-0.5-0.7-0.8c-0.2-0.3-0.3-0.7-0.3-1.2
			c0-0.4,0.1-0.8,0.3-1.2c0.2-0.4,0.4-0.7,0.7-1c0.3-0.3,0.7-0.5,1.2-0.6c0.5-0.2,1-0.2,1.5-0.2c0.7,0,1.3,0.1,1.9,0.4
			c0.6,0.2,1.1,0.5,1.5,0.9l-0.9,1.1c-0.4-0.3-0.7-0.5-1.1-0.7c-0.4-0.2-0.8-0.3-1.3-0.3c-0.7,0-1.2,0.2-1.5,0.5
			c-0.3,0.3-0.5,0.7-0.5,1.1c0,0.2,0.1,0.5,0.2,0.6c0.1,0.2,0.3,0.3,0.5,0.5c0.2,0.1,0.5,0.3,0.8,0.4c0.3,0.1,0.6,0.2,0.9,0.3
			c0.4,0.1,0.8,0.3,1.2,0.5c0.4,0.2,0.7,0.4,1,0.6c0.3,0.2,0.6,0.5,0.8,0.9c0.2,0.4,0.3,0.8,0.3,1.3c0,0.4-0.1,0.9-0.3,1.2
			c-0.2,0.4-0.4,0.7-0.7,1c-0.3,0.3-0.7,0.5-1.2,0.7C863.7,134.2,863.1,134.3,862.5,134.3"/>
		<path style="clip-path:url(#SVGID_00000035525419072277062090000015021285715042741929_);fill:#162259;" d="M868.9,134v-15.7h1.8
			v4.3l-0.1,2.2c0.5-0.5,1-0.9,1.6-1.2c0.6-0.3,1.2-0.5,2-0.5c1.1,0,2,0.4,2.5,1.1c0.5,0.7,0.8,1.7,0.8,3.1v6.8h-1.8v-6.5
			c0-1-0.2-1.7-0.5-2.2c-0.3-0.4-0.8-0.7-1.5-0.7c-0.6,0-1,0.1-1.5,0.4c-0.4,0.3-0.9,0.7-1.5,1.2v7.7H868.9z"/>
		<path style="clip-path:url(#SVGID_00000035525419072277062090000015021285715042741929_);fill:#162259;" d="M885.1,132.8
			c0.5,0,0.9-0.1,1.3-0.3c0.4-0.2,0.7-0.5,1-0.8c0.3-0.4,0.5-0.8,0.6-1.3c0.1-0.5,0.2-1.1,0.2-1.7s-0.1-1.2-0.2-1.7
			c-0.1-0.5-0.4-0.9-0.6-1.3c-0.3-0.4-0.6-0.6-1-0.8c-0.4-0.2-0.8-0.3-1.3-0.3c-0.5,0-0.9,0.1-1.3,0.3c-0.4,0.2-0.7,0.5-1,0.8
			c-0.3,0.4-0.5,0.8-0.6,1.3c-0.1,0.5-0.2,1.1-0.2,1.7s0.1,1.2,0.2,1.7c0.1,0.5,0.4,0.9,0.6,1.3c0.3,0.4,0.6,0.6,1,0.8
			C884.2,132.7,884.6,132.8,885.1,132.8 M885.1,134.3c-0.7,0-1.3-0.1-1.9-0.4c-0.6-0.2-1.1-0.6-1.6-1.1c-0.5-0.5-0.8-1.1-1.1-1.8
			c-0.3-0.7-0.4-1.5-0.4-2.4c0-0.9,0.1-1.7,0.4-2.4c0.3-0.7,0.6-1.3,1.1-1.8c0.5-0.5,1-0.9,1.6-1.1c0.6-0.2,1.2-0.4,1.9-0.4
			c0.7,0,1.3,0.1,1.9,0.4c0.6,0.2,1.1,0.6,1.6,1.1c0.5,0.5,0.8,1.1,1.1,1.8c0.3,0.7,0.4,1.5,0.4,2.4c0,0.9-0.1,1.7-0.4,2.4
			c-0.3,0.7-0.6,1.3-1.1,1.8c-0.5,0.5-1,0.8-1.6,1.1C886.3,134.2,885.7,134.3,885.1,134.3"/>
		<path style="clip-path:url(#SVGID_00000035525419072277062090000015021285715042741929_);fill:#162259;" d="M897.2,132.8
			c0.4,0,0.8-0.1,1.2-0.3c0.4-0.2,0.7-0.5,1-0.8c0.3-0.4,0.5-0.8,0.6-1.3c0.2-0.5,0.2-1.1,0.2-1.8c0-0.6-0.1-1.1-0.2-1.6
			c-0.1-0.5-0.3-0.9-0.5-1.2c-0.2-0.3-0.5-0.6-0.9-0.8c-0.4-0.2-0.8-0.3-1.3-0.3c-0.5,0-0.9,0.1-1.4,0.4c-0.5,0.2-1,0.6-1.5,1.1v5.6
			c0.5,0.4,1,0.7,1.4,0.9C896.5,132.7,896.9,132.8,897.2,132.8 M892.8,138.6v-15.2h1.5l0.2,1.2h0.1c0.5-0.4,1-0.8,1.6-1.1
			c0.6-0.3,1.2-0.4,1.8-0.4c0.7,0,1.3,0.1,1.8,0.4c0.5,0.3,1,0.6,1.3,1.1c0.4,0.5,0.6,1,0.8,1.7c0.2,0.7,0.3,1.4,0.3,2.3
			c0,0.9-0.1,1.7-0.4,2.4c-0.2,0.7-0.6,1.3-1,1.8c-0.4,0.5-0.9,0.9-1.5,1.1c-0.6,0.3-1.1,0.4-1.8,0.4c-0.5,0-1-0.1-1.5-0.3
			c-0.5-0.2-1-0.5-1.5-0.9l0,1.9v3.6H892.8z"/>
		<path style="clip-path:url(#SVGID_00000035525419072277062090000015021285715042741929_);fill:#162259;" d="M241,270.7h2.2
			c1.3,0,2.2-0.2,2.8-0.7c0.6-0.5,0.9-1.2,0.9-2.3c0-1-0.3-1.8-1-2.2c-0.6-0.4-1.6-0.6-2.8-0.6H241V270.7z M239.2,277.9v-14.4h4.1
			c0.8,0,1.5,0.1,2.2,0.2c0.7,0.1,1.2,0.4,1.7,0.7c0.5,0.3,0.8,0.8,1.1,1.3c0.3,0.5,0.4,1.2,0.4,2c0,0.8-0.1,1.4-0.4,2
			c-0.3,0.6-0.6,1-1.1,1.4c-0.5,0.4-1,0.6-1.7,0.8c-0.7,0.2-1.4,0.3-2.2,0.3H241v5.7H239.2z"/>
		<path style="clip-path:url(#SVGID_00000035525419072277062090000015021285715042741929_);fill:#162259;" d="M251.5,277.9v-10.7
			h1.5l0.2,1.9h0.1c0.4-0.7,0.8-1.2,1.3-1.6c0.5-0.4,1.1-0.6,1.7-0.6c0.4,0,0.8,0.1,1.1,0.2l-0.4,1.6c-0.2-0.1-0.3-0.1-0.5-0.1
			c-0.1,0-0.3,0-0.5,0c-0.5,0-0.9,0.2-1.4,0.6c-0.5,0.4-0.9,1-1.3,1.9v6.9H251.5z"/>
		<path style="clip-path:url(#SVGID_00000035525419072277062090000015021285715042741929_);fill:#162259;" d="M263.3,276.7
			c0.5,0,0.9-0.1,1.3-0.3c0.4-0.2,0.7-0.5,1-0.8c0.3-0.4,0.5-0.8,0.6-1.3c0.1-0.5,0.2-1.1,0.2-1.7c0-0.6-0.1-1.2-0.2-1.7
			c-0.1-0.5-0.4-0.9-0.6-1.3c-0.3-0.4-0.6-0.6-1-0.8c-0.4-0.2-0.8-0.3-1.3-0.3c-0.5,0-0.9,0.1-1.3,0.3c-0.4,0.2-0.7,0.5-1,0.8
			c-0.3,0.4-0.5,0.8-0.6,1.3c-0.1,0.5-0.2,1.1-0.2,1.7c0,0.6,0.1,1.2,0.2,1.7c0.1,0.5,0.4,0.9,0.6,1.3c0.3,0.4,0.6,0.6,1,0.8
			C262.4,276.6,262.8,276.7,263.3,276.7 M263.3,278.2c-0.7,0-1.3-0.1-1.9-0.4s-1.1-0.6-1.6-1.1c-0.5-0.5-0.8-1.1-1.1-1.8
			c-0.3-0.7-0.4-1.5-0.4-2.4c0-0.9,0.1-1.7,0.4-2.4c0.3-0.7,0.6-1.3,1.1-1.8c0.5-0.5,1-0.9,1.6-1.1c0.6-0.2,1.2-0.4,1.9-0.4
			c0.7,0,1.3,0.1,1.9,0.4c0.6,0.2,1.1,0.6,1.6,1.1c0.5,0.5,0.8,1.1,1.1,1.8c0.3,0.7,0.4,1.5,0.4,2.4c0,0.9-0.1,1.7-0.4,2.4
			c-0.3,0.7-0.6,1.3-1.1,1.8c-0.5,0.5-1,0.8-1.6,1.1S263.9,278.2,263.3,278.2"/>
		<path style="clip-path:url(#SVGID_00000035525419072277062090000015021285715042741929_);fill:#162259;" d="M272,265.1
			c-0.4,0-0.6-0.1-0.9-0.3c-0.2-0.2-0.4-0.5-0.4-0.8c0-0.4,0.1-0.6,0.4-0.8c0.2-0.2,0.5-0.3,0.9-0.3c0.3,0,0.6,0.1,0.9,0.3
			c0.2,0.2,0.4,0.5,0.4,0.8c0,0.3-0.1,0.6-0.4,0.8C272.6,264.9,272.3,265.1,272,265.1 M269.9,282.7c-0.3,0-0.6,0-0.9-0.1
			c-0.3-0.1-0.5-0.1-0.7-0.2l0.4-1.4c0.1,0,0.3,0.1,0.5,0.1c0.2,0,0.4,0.1,0.5,0.1c0.5,0,0.9-0.2,1.1-0.5c0.2-0.4,0.3-0.9,0.3-1.5
			v-11.9h1.8v11.9c0,1.1-0.2,1.9-0.7,2.6C271.8,282.4,271,282.7,269.9,282.7"/>
		<path style="clip-path:url(#SVGID_00000035525419072277062090000015021285715042741929_);fill:#162259;" d="M277.4,271.7h5.7
			c0-1.1-0.2-1.9-0.7-2.5c-0.5-0.6-1.1-0.8-1.9-0.8c-0.4,0-0.7,0.1-1.1,0.2c-0.3,0.1-0.7,0.4-0.9,0.6c-0.3,0.3-0.5,0.6-0.7,1
			C277.6,270.7,277.5,271.2,277.4,271.7 M280.8,278.2c-0.7,0-1.4-0.1-2-0.4c-0.6-0.3-1.2-0.6-1.6-1.1c-0.5-0.5-0.8-1.1-1.1-1.7
			c-0.3-0.7-0.4-1.5-0.4-2.4c0-0.9,0.1-1.7,0.4-2.4c0.3-0.7,0.6-1.3,1.1-1.8c0.4-0.5,1-0.9,1.5-1.1c0.6-0.3,1.2-0.4,1.8-0.4
			c0.7,0,1.3,0.1,1.8,0.4c0.5,0.2,1,0.6,1.3,1c0.4,0.4,0.6,1,0.8,1.6c0.2,0.6,0.3,1.3,0.3,2.1c0,0.2,0,0.4,0,0.6
			c0,0.2,0,0.3-0.1,0.5h-7.2c0.1,1.1,0.4,2.1,1.1,2.7c0.6,0.7,1.5,1,2.5,1c0.5,0,1-0.1,1.4-0.2c0.4-0.2,0.8-0.4,1.2-0.6l0.6,1.2
			c-0.5,0.3-1,0.6-1.6,0.8C282.2,278.1,281.5,278.2,280.8,278.2"/>
	</g>
	<polygon class="st2" points="287.4,277.9 287.4,262.3 289.2,262.3 289.2,272.9 289.2,272.9 293.8,267.3 295.8,267.3 292.2,271.5 
		296.3,277.9 294.3,277.9 291.2,272.8 289.2,275.1 289.2,277.9 	"/>
	<g>
		<defs>
			<rect id="SVGID_00000074414383424766265310000006311670303799241911_" width="902.2" height="321.5"/>
		</defs>
		<clipPath id="SVGID_00000106117636175330681540000004302778608676330410_">
			<use xlink:href="#SVGID_00000074414383424766265310000006311670303799241911_"  style="overflow:visible;"/>
		</clipPath>
		<path style="clip-path:url(#SVGID_00000106117636175330681540000004302778608676330410_);fill:#162259;" d="M301.6,278.2
			c-0.6,0-1.1-0.1-1.4-0.3c-0.4-0.2-0.7-0.4-0.9-0.7c-0.2-0.3-0.4-0.7-0.5-1.1c-0.1-0.4-0.2-0.9-0.2-1.5v-5.9H297v-1.4l1.7-0.1
			l0.2-3h1.5v3h2.9v1.5h-2.9v5.9c0,0.7,0.1,1.2,0.4,1.5c0.2,0.4,0.7,0.5,1.3,0.5c0.2,0,0.4,0,0.6-0.1c0.2-0.1,0.4-0.1,0.6-0.2
			l0.4,1.4c-0.3,0.1-0.6,0.2-1,0.3C302.3,278.2,302,278.2,301.6,278.2"/>
		<path style="clip-path:url(#SVGID_00000106117636175330681540000004302778608676330410_);fill:#162259;" d="M305.7,277.9v-10.7
			h1.5l0.2,1.5h0.1c0.5-0.5,1-0.9,1.5-1.3c0.5-0.3,1.1-0.5,1.8-0.5c0.8,0,1.5,0.2,1.9,0.5c0.5,0.4,0.8,0.9,1,1.5
			c0.6-0.6,1.1-1.1,1.7-1.5c0.6-0.4,1.2-0.6,1.8-0.6c1.1,0,1.9,0.4,2.5,1.1c0.5,0.7,0.8,1.7,0.8,3.1v6.8h-1.8v-6.5
			c0-1-0.2-1.7-0.5-2.2c-0.3-0.4-0.8-0.7-1.5-0.7c-0.8,0-1.7,0.5-2.7,1.6v7.7h-1.8v-6.5c0-1-0.2-1.7-0.5-2.2
			c-0.3-0.4-0.8-0.7-1.5-0.7c-0.8,0-1.7,0.5-2.7,1.6v7.7H305.7z"/>
		<path style="clip-path:url(#SVGID_00000106117636175330681540000004302778608676330410_);fill:#162259;" d="M326.9,276.8
			c0.5,0,1-0.1,1.5-0.4c0.5-0.2,0.9-0.6,1.5-1.1v-3c-0.9,0.1-1.6,0.3-2.3,0.4c-0.6,0.2-1.1,0.4-1.5,0.6c-0.4,0.2-0.6,0.5-0.8,0.8
			c-0.2,0.3-0.3,0.6-0.3,0.9c0,0.6,0.2,1.1,0.5,1.3C326,276.6,326.4,276.8,326.9,276.8 M326.4,278.2c-0.9,0-1.6-0.3-2.2-0.8
			c-0.6-0.5-0.9-1.3-0.9-2.2c0-1.2,0.5-2.1,1.6-2.7c1-0.6,2.7-1.1,5-1.3c0-0.3,0-0.7-0.1-1c-0.1-0.3-0.2-0.6-0.3-0.9
			c-0.2-0.2-0.4-0.5-0.7-0.6c-0.3-0.2-0.6-0.2-1.1-0.2c-0.6,0-1.2,0.1-1.7,0.4c-0.5,0.2-1,0.5-1.5,0.8l-0.7-1.3
			c0.5-0.3,1.1-0.6,1.8-0.9c0.7-0.3,1.5-0.5,2.4-0.5c1.3,0,2.3,0.4,2.8,1.2c0.6,0.8,0.9,1.9,0.9,3.2v6.6h-1.5l-0.2-1.3H330
			c-0.5,0.4-1.1,0.8-1.6,1.1C327.7,278.1,327.1,278.2,326.4,278.2"/>
		<path style="clip-path:url(#SVGID_00000106117636175330681540000004302778608676330410_);fill:#162259;" d="M335,277.9v-10.7h1.5
			l0.2,1.5h0.1c0.5-0.5,1.1-0.9,1.6-1.3c0.6-0.3,1.2-0.5,2-0.5c1.1,0,2,0.4,2.5,1.1c0.5,0.7,0.8,1.7,0.8,3.1v6.8h-1.8v-6.5
			c0-1-0.2-1.7-0.5-2.2c-0.3-0.4-0.8-0.7-1.5-0.7c-0.6,0-1,0.1-1.5,0.4c-0.4,0.3-0.9,0.7-1.5,1.2v7.7H335z"/>
		<path style="clip-path:url(#SVGID_00000106117636175330681540000004302778608676330410_);fill:#162259;" d="M350.1,276.8
			c0.5,0,1-0.1,1.5-0.4c0.5-0.2,0.9-0.6,1.5-1.1v-3c-0.9,0.1-1.6,0.3-2.3,0.4c-0.6,0.2-1.1,0.4-1.5,0.6c-0.4,0.2-0.6,0.5-0.8,0.8
			c-0.2,0.3-0.3,0.6-0.3,0.9c0,0.6,0.2,1.1,0.5,1.3C349.1,276.6,349.5,276.8,350.1,276.8 M349.5,278.2c-0.9,0-1.6-0.3-2.2-0.8
			c-0.6-0.5-0.9-1.3-0.9-2.2c0-1.2,0.5-2.1,1.6-2.7c1-0.6,2.7-1.1,5-1.3c0-0.3,0-0.7-0.1-1c-0.1-0.3-0.2-0.6-0.3-0.9
			c-0.2-0.2-0.4-0.5-0.7-0.6c-0.3-0.2-0.6-0.2-1.1-0.2c-0.6,0-1.2,0.1-1.7,0.4c-0.5,0.2-1,0.5-1.5,0.8l-0.7-1.3
			c0.5-0.3,1.1-0.6,1.8-0.9c0.7-0.3,1.5-0.5,2.4-0.5c1.3,0,2.3,0.4,2.8,1.2c0.6,0.8,0.9,1.9,0.9,3.2v6.6h-1.5l-0.2-1.3h-0.1
			c-0.5,0.4-1.1,0.8-1.6,1.1C350.8,278.1,350.2,278.2,349.5,278.2"/>
		<path style="clip-path:url(#SVGID_00000106117636175330681540000004302778608676330410_);fill:#162259;" d="M361.8,273.3
			c0.3,0,0.6-0.1,0.9-0.2c0.3-0.1,0.5-0.3,0.7-0.5c0.2-0.2,0.4-0.5,0.5-0.8c0.1-0.3,0.2-0.7,0.2-1.1c0-0.8-0.2-1.4-0.7-1.8
			c-0.4-0.4-1-0.6-1.6-0.6c-0.6,0-1.2,0.2-1.6,0.6c-0.4,0.4-0.7,1-0.7,1.8c0,0.4,0.1,0.8,0.2,1.1c0.1,0.3,0.3,0.6,0.5,0.8
			c0.2,0.2,0.5,0.4,0.7,0.5C361.2,273.3,361.5,273.3,361.8,273.3 M362,281.6c0.5,0,1-0.1,1.4-0.2c0.4-0.1,0.8-0.3,1.1-0.5
			c0.3-0.2,0.5-0.4,0.7-0.7c0.2-0.3,0.2-0.5,0.2-0.8c0-0.5-0.2-0.8-0.5-1c-0.4-0.2-0.9-0.3-1.6-0.3h-1.8c-0.2,0-0.4,0-0.7,0
			c-0.2,0-0.5-0.1-0.7-0.1c-0.4,0.3-0.7,0.6-0.8,0.9c-0.2,0.3-0.3,0.6-0.3,0.9c0,0.6,0.3,1,0.8,1.4
			C360.3,281.5,361.1,281.6,362,281.6 M361.8,282.9c-0.7,0-1.3-0.1-1.8-0.2c-0.5-0.1-1-0.3-1.4-0.6c-0.4-0.2-0.7-0.5-0.9-0.9
			c-0.2-0.4-0.3-0.8-0.3-1.2c0-0.5,0.1-0.9,0.4-1.3c0.3-0.4,0.7-0.8,1.1-1.1v-0.1c-0.3-0.2-0.5-0.4-0.7-0.7
			c-0.2-0.3-0.3-0.6-0.3-1.1c0-0.5,0.1-0.9,0.4-1.2c0.2-0.3,0.5-0.6,0.8-0.8v-0.1c-0.4-0.3-0.7-0.7-1-1.2c-0.3-0.5-0.4-1.1-0.4-1.7
			c0-0.6,0.1-1.1,0.3-1.6c0.2-0.5,0.5-0.9,0.9-1.2c0.4-0.3,0.8-0.6,1.3-0.8c0.5-0.2,1-0.3,1.6-0.3c0.3,0,0.6,0,0.8,0.1
			c0.3,0.1,0.5,0.1,0.7,0.2h3.7v1.4h-2.2c0.2,0.2,0.5,0.6,0.6,0.9c0.2,0.4,0.3,0.8,0.3,1.3c0,0.6-0.1,1.1-0.3,1.6
			c-0.2,0.5-0.5,0.9-0.8,1.2c-0.4,0.3-0.8,0.6-1.2,0.7c-0.5,0.2-1,0.3-1.5,0.3c-0.3,0-0.5,0-0.8-0.1c-0.3-0.1-0.5-0.2-0.8-0.3
			c-0.2,0.2-0.4,0.3-0.5,0.5c-0.1,0.2-0.2,0.4-0.2,0.7c0,0.3,0.1,0.6,0.4,0.8c0.3,0.2,0.8,0.3,1.5,0.3h2.1c1.2,0,2.2,0.2,2.8,0.6
			c0.6,0.4,0.9,1.1,0.9,1.9c0,0.5-0.1,1-0.4,1.4c-0.2,0.4-0.6,0.8-1.1,1.2c-0.5,0.3-1,0.6-1.7,0.8
			C363.4,282.8,362.6,282.9,361.8,282.9"/>
		<path style="clip-path:url(#SVGID_00000106117636175330681540000004302778608676330410_);fill:#162259;" d="M370.2,271.7h5.7
			c0-1.1-0.2-1.9-0.7-2.5c-0.5-0.6-1.1-0.8-1.9-0.8c-0.4,0-0.7,0.1-1.1,0.2c-0.3,0.1-0.7,0.4-0.9,0.6c-0.3,0.3-0.5,0.6-0.7,1
			C370.4,270.7,370.3,271.2,370.2,271.7 M373.6,278.2c-0.7,0-1.4-0.1-2-0.4c-0.6-0.3-1.2-0.6-1.6-1.1c-0.5-0.5-0.8-1.1-1.1-1.7
			c-0.3-0.7-0.4-1.5-0.4-2.4c0-0.9,0.1-1.7,0.4-2.4c0.3-0.7,0.6-1.3,1.1-1.8c0.4-0.5,1-0.9,1.5-1.1c0.6-0.3,1.2-0.4,1.8-0.4
			c0.7,0,1.3,0.1,1.8,0.4c0.5,0.2,1,0.6,1.3,1c0.4,0.4,0.6,1,0.8,1.6c0.2,0.6,0.3,1.3,0.3,2.1c0,0.2,0,0.4,0,0.6
			c0,0.2,0,0.3-0.1,0.5h-7.2c0.1,1.1,0.4,2.1,1.1,2.7c0.6,0.7,1.5,1,2.5,1c0.5,0,1-0.1,1.4-0.2c0.4-0.2,0.8-0.4,1.2-0.6l0.6,1.2
			c-0.5,0.3-1,0.6-1.6,0.8C375,278.1,374.3,278.2,373.6,278.2"/>
		<path style="clip-path:url(#SVGID_00000106117636175330681540000004302778608676330410_);fill:#162259;" d="M380.2,277.9v-10.7
			h1.5l0.2,1.5h0.1c0.5-0.5,1-0.9,1.5-1.3c0.5-0.3,1.1-0.5,1.8-0.5c0.8,0,1.5,0.2,1.9,0.5c0.5,0.4,0.8,0.9,1,1.5
			c0.6-0.6,1.1-1.1,1.7-1.5c0.6-0.4,1.2-0.6,1.8-0.6c1.1,0,1.9,0.4,2.5,1.1c0.5,0.7,0.8,1.7,0.8,3.1v6.8h-1.8v-6.5
			c0-1-0.2-1.7-0.5-2.2c-0.3-0.4-0.8-0.7-1.5-0.7c-0.8,0-1.7,0.5-2.7,1.6v7.7h-1.8v-6.5c0-1-0.2-1.7-0.5-2.2
			c-0.3-0.4-0.8-0.7-1.5-0.7c-0.8,0-1.7,0.5-2.7,1.6v7.7H380.2z"/>
		<path style="clip-path:url(#SVGID_00000106117636175330681540000004302778608676330410_);fill:#162259;" d="M399.4,271.7h5.7
			c0-1.1-0.2-1.9-0.7-2.5c-0.5-0.6-1.1-0.8-1.9-0.8c-0.4,0-0.7,0.1-1.1,0.2c-0.3,0.1-0.7,0.4-0.9,0.6c-0.3,0.3-0.5,0.6-0.7,1
			C399.5,270.7,399.4,271.2,399.4,271.7 M402.7,278.2c-0.7,0-1.4-0.1-2-0.4c-0.6-0.3-1.2-0.6-1.6-1.1c-0.5-0.5-0.8-1.1-1.1-1.7
			c-0.3-0.7-0.4-1.5-0.4-2.4c0-0.9,0.1-1.7,0.4-2.4c0.3-0.7,0.6-1.3,1.1-1.8c0.4-0.5,1-0.9,1.5-1.1c0.6-0.3,1.2-0.4,1.8-0.4
			c0.7,0,1.3,0.1,1.8,0.4c0.5,0.2,1,0.6,1.3,1c0.4,0.4,0.6,1,0.8,1.6c0.2,0.6,0.3,1.3,0.3,2.1c0,0.2,0,0.4,0,0.6
			c0,0.2,0,0.3-0.1,0.5h-7.2c0.1,1.1,0.4,2.1,1.1,2.7c0.6,0.7,1.5,1,2.5,1c0.5,0,1-0.1,1.4-0.2c0.4-0.2,0.8-0.4,1.2-0.6l0.6,1.2
			c-0.5,0.3-1,0.6-1.6,0.8C404.1,278.1,403.5,278.2,402.7,278.2"/>
		<path style="clip-path:url(#SVGID_00000106117636175330681540000004302778608676330410_);fill:#162259;" d="M409.3,277.9v-10.7
			h1.5l0.2,1.5h0.1c0.5-0.5,1.1-0.9,1.6-1.3c0.6-0.3,1.2-0.5,2-0.5c1.1,0,2,0.4,2.5,1.1c0.5,0.7,0.8,1.7,0.8,3.1v6.8h-1.8v-6.5
			c0-1-0.2-1.7-0.5-2.2c-0.3-0.4-0.8-0.7-1.5-0.7c-0.6,0-1,0.1-1.5,0.4c-0.4,0.3-0.9,0.7-1.5,1.2v7.7H409.3z"/>
		<path style="clip-path:url(#SVGID_00000106117636175330681540000004302778608676330410_);fill:#162259;" d="M424.7,278.2
			c-0.6,0-1.1-0.1-1.4-0.3c-0.4-0.2-0.7-0.4-0.9-0.7c-0.2-0.3-0.4-0.7-0.5-1.1c-0.1-0.4-0.2-0.9-0.2-1.5v-5.9h-1.6v-1.4l1.7-0.1
			l0.2-3h1.5v3h2.9v1.5h-2.9v5.9c0,0.7,0.1,1.2,0.4,1.5c0.2,0.4,0.7,0.5,1.3,0.5c0.2,0,0.4,0,0.6-0.1c0.2-0.1,0.4-0.1,0.6-0.2
			l0.4,1.4c-0.3,0.1-0.6,0.2-1,0.3C425.4,278.2,425,278.2,424.7,278.2"/>
	</g>
	<polygon class="st2" points="563.9,316.5 563.9,302.1 572.2,302.1 572.2,303.7 565.7,303.7 565.7,308.2 571.2,308.2 571.2,309.8 
		565.7,309.8 565.7,315 572.5,315 572.5,316.5 	"/>
	<g>
		<defs>
			<rect id="SVGID_00000030463991412891521390000002140060370675258543_" width="902.2" height="321.5"/>
		</defs>
		<clipPath id="SVGID_00000136378311574197692350000004256474090737736354_">
			<use xlink:href="#SVGID_00000030463991412891521390000002140060370675258543_"  style="overflow:visible;"/>
		</clipPath>
		<path style="clip-path:url(#SVGID_00000136378311574197692350000004256474090737736354_);fill:#162259;" d="M575.3,316.5v-10.7
			h1.5l0.2,1.9h0.1c0.4-0.7,0.8-1.2,1.3-1.6c0.5-0.4,1.1-0.6,1.7-0.6c0.4,0,0.8,0.1,1.1,0.2l-0.4,1.6c-0.2-0.1-0.3-0.1-0.5-0.1
			c-0.1,0-0.3,0-0.5,0c-0.5,0-0.9,0.2-1.4,0.6c-0.5,0.4-0.9,1-1.3,1.9v6.9H575.3z"/>
		<path style="clip-path:url(#SVGID_00000136378311574197692350000004256474090737736354_);fill:#162259;" d="M583.3,316.5v-9.2
			h-1.5V306l1.5-0.1v-1.7c0-1.1,0.3-2,0.8-2.6c0.5-0.6,1.3-0.9,2.4-0.9c0.3,0,0.7,0,1,0.1c0.3,0.1,0.6,0.2,0.8,0.3l-0.4,1.4
			c-0.4-0.2-0.8-0.3-1.2-0.3c-1,0-1.5,0.7-1.5,2.1v1.7h2.3v1.5h-2.3v9.2H583.3z"/>
		<path style="clip-path:url(#SVGID_00000136378311574197692350000004256474090737736354_);fill:#162259;" d="M593.6,315.3
			c0.5,0,0.9-0.1,1.3-0.3c0.4-0.2,0.7-0.5,1-0.8c0.3-0.4,0.5-0.8,0.6-1.3c0.1-0.5,0.2-1.1,0.2-1.7s-0.1-1.2-0.2-1.7
			c-0.1-0.5-0.4-0.9-0.6-1.3c-0.3-0.4-0.6-0.6-1-0.8c-0.4-0.2-0.8-0.3-1.3-0.3c-0.5,0-0.9,0.1-1.3,0.3c-0.4,0.2-0.7,0.5-1,0.8
			c-0.3,0.4-0.5,0.8-0.6,1.3c-0.1,0.5-0.2,1.1-0.2,1.7s0.1,1.2,0.2,1.7c0.1,0.5,0.4,0.9,0.6,1.3c0.3,0.4,0.6,0.6,1,0.8
			C592.7,315.2,593.1,315.3,593.6,315.3 M593.6,316.8c-0.7,0-1.3-0.1-1.9-0.4c-0.6-0.2-1.1-0.6-1.6-1.1c-0.5-0.5-0.8-1.1-1.1-1.8
			c-0.3-0.7-0.4-1.5-0.4-2.4c0-0.9,0.1-1.7,0.4-2.4c0.3-0.7,0.6-1.3,1.1-1.8c0.5-0.5,1-0.9,1.6-1.1c0.6-0.2,1.2-0.4,1.9-0.4
			c0.7,0,1.3,0.1,1.9,0.4c0.6,0.2,1.1,0.6,1.6,1.1c0.5,0.5,0.8,1.1,1.1,1.8c0.3,0.7,0.4,1.5,0.4,2.4c0,0.9-0.1,1.7-0.4,2.4
			c-0.3,0.7-0.6,1.3-1.1,1.8c-0.5,0.5-1,0.8-1.6,1.1C594.8,316.7,594.2,316.8,593.6,316.8"/>
		<path style="clip-path:url(#SVGID_00000136378311574197692350000004256474090737736354_);fill:#162259;" d="M603.2,316.8
			c-0.7,0-1.2-0.2-1.5-0.6c-0.3-0.4-0.4-1-0.4-1.8v-13.5h1.8v13.6c0,0.3,0.1,0.5,0.2,0.6c0.1,0.1,0.2,0.2,0.4,0.2h0.2
			c0.1,0,0.1,0,0.2,0l0.2,1.4c-0.1,0.1-0.3,0.1-0.4,0.1C603.7,316.8,603.5,316.8,603.2,316.8"/>
		<path style="clip-path:url(#SVGID_00000136378311574197692350000004256474090737736354_);fill:#162259;" d="M610.5,312
			c0.3,0,0.6-0.1,0.9-0.2c0.3-0.1,0.5-0.3,0.7-0.5c0.2-0.2,0.4-0.5,0.5-0.8c0.1-0.3,0.2-0.7,0.2-1.1c0-0.8-0.2-1.4-0.7-1.8
			c-0.4-0.4-1-0.6-1.6-0.6c-0.6,0-1.2,0.2-1.6,0.6c-0.4,0.4-0.7,1-0.7,1.8c0,0.4,0.1,0.8,0.2,1.1c0.1,0.3,0.3,0.6,0.5,0.8
			c0.2,0.2,0.5,0.4,0.7,0.5C609.9,311.9,610.2,312,610.5,312 M610.8,320.2c0.5,0,1-0.1,1.4-0.2c0.4-0.1,0.8-0.3,1.1-0.5
			c0.3-0.2,0.5-0.4,0.7-0.7c0.2-0.3,0.2-0.5,0.2-0.8c0-0.5-0.2-0.8-0.5-1c-0.4-0.2-0.9-0.3-1.6-0.3h-1.8c-0.2,0-0.4,0-0.7,0
			c-0.2,0-0.5-0.1-0.7-0.1c-0.4,0.3-0.7,0.6-0.8,0.9c-0.2,0.3-0.3,0.6-0.3,0.9c0,0.6,0.3,1,0.8,1.4
			C609.1,320.1,609.8,320.2,610.8,320.2 M610.5,321.5c-0.7,0-1.3-0.1-1.8-0.2c-0.5-0.1-1-0.3-1.4-0.6c-0.4-0.2-0.7-0.6-0.9-0.9
			c-0.2-0.4-0.3-0.8-0.3-1.2c0-0.5,0.1-0.9,0.4-1.3c0.3-0.4,0.7-0.8,1.1-1.1v-0.1c-0.3-0.2-0.5-0.4-0.7-0.7
			c-0.2-0.3-0.3-0.6-0.3-1.1c0-0.5,0.1-0.9,0.4-1.2c0.2-0.3,0.5-0.6,0.8-0.8v-0.1c-0.4-0.3-0.7-0.7-1-1.2c-0.3-0.5-0.4-1.1-0.4-1.7
			c0-0.6,0.1-1.1,0.3-1.6c0.2-0.5,0.5-0.9,0.9-1.2c0.4-0.3,0.8-0.6,1.3-0.8c0.5-0.2,1-0.3,1.6-0.3c0.3,0,0.6,0,0.8,0.1
			c0.3,0.1,0.5,0.1,0.7,0.2h3.7v1.4h-2.2c0.2,0.2,0.5,0.6,0.6,0.9c0.2,0.4,0.3,0.8,0.3,1.3c0,0.6-0.1,1.1-0.3,1.6
			c-0.2,0.5-0.5,0.9-0.8,1.2c-0.4,0.3-0.8,0.6-1.2,0.7c-0.5,0.2-1,0.3-1.5,0.3c-0.3,0-0.5,0-0.8-0.1c-0.3-0.1-0.5-0.2-0.8-0.3
			c-0.2,0.2-0.4,0.3-0.5,0.5c-0.1,0.2-0.2,0.4-0.2,0.7c0,0.3,0.1,0.6,0.4,0.8s0.8,0.3,1.5,0.3h2.1c1.2,0,2.2,0.2,2.8,0.6
			c0.6,0.4,0.9,1.1,0.9,1.9c0,0.5-0.1,1-0.4,1.4c-0.2,0.4-0.6,0.8-1.1,1.2c-0.5,0.3-1,0.6-1.7,0.8
			C612.1,321.4,611.4,321.5,610.5,321.5"/>
		<path style="clip-path:url(#SVGID_00000136378311574197692350000004256474090737736354_);fill:#162259;" d="M619,310.3h5.7
			c0-1.1-0.2-1.9-0.7-2.5c-0.5-0.6-1.1-0.8-1.9-0.8c-0.4,0-0.7,0.1-1.1,0.2c-0.3,0.1-0.7,0.4-0.9,0.6c-0.3,0.3-0.5,0.6-0.7,1
			C619.2,309.3,619,309.8,619,310.3 M622.4,316.8c-0.7,0-1.4-0.1-2-0.4c-0.6-0.3-1.2-0.6-1.6-1.1c-0.5-0.5-0.8-1.1-1.1-1.7
			c-0.3-0.7-0.4-1.5-0.4-2.4s0.1-1.7,0.4-2.4c0.3-0.7,0.6-1.3,1.1-1.8c0.4-0.5,1-0.9,1.5-1.1c0.6-0.3,1.2-0.4,1.8-0.4
			c0.7,0,1.3,0.1,1.8,0.4c0.5,0.2,1,0.6,1.3,1c0.4,0.4,0.6,1,0.8,1.6c0.2,0.6,0.3,1.3,0.3,2.1c0,0.2,0,0.4,0,0.6
			c0,0.2,0,0.3-0.1,0.5H619c0.1,1.1,0.4,2.1,1.1,2.7c0.6,0.7,1.5,1,2.5,1c0.5,0,1-0.1,1.4-0.2c0.4-0.2,0.8-0.4,1.2-0.6l0.6,1.2
			c-0.5,0.3-1,0.5-1.6,0.8C623.7,316.7,623.1,316.8,622.4,316.8"/>
		<path style="clip-path:url(#SVGID_00000136378311574197692350000004256474090737736354_);fill:#162259;" d="M633.6,316.5v-9.2
			h-1.5V306l1.5-0.1v-1.7c0-1.1,0.3-2,0.8-2.6s1.3-0.9,2.4-0.9c0.3,0,0.7,0,1,0.1c0.3,0.1,0.6,0.2,0.8,0.3l-0.4,1.4
			c-0.4-0.2-0.8-0.3-1.2-0.3c-1,0-1.5,0.7-1.5,2.1v1.7h2.3v1.5h-2.3v9.2H633.6z"/>
		<path style="clip-path:url(#SVGID_00000136378311574197692350000004256474090737736354_);fill:#162259;" d="M640.7,310.3h5.7
			c0-1.1-0.2-1.9-0.7-2.5c-0.5-0.6-1.1-0.8-1.9-0.8c-0.4,0-0.7,0.1-1.1,0.2c-0.3,0.1-0.7,0.4-0.9,0.6c-0.3,0.3-0.5,0.6-0.7,1
			C640.9,309.3,640.8,309.8,640.7,310.3 M644.1,316.8c-0.7,0-1.4-0.1-2-0.4c-0.6-0.3-1.2-0.6-1.6-1.1c-0.5-0.5-0.8-1.1-1.1-1.7
			c-0.3-0.7-0.4-1.5-0.4-2.4s0.1-1.7,0.4-2.4c0.3-0.7,0.6-1.3,1.1-1.8c0.4-0.5,1-0.9,1.5-1.1c0.6-0.3,1.2-0.4,1.8-0.4
			c0.7,0,1.3,0.1,1.8,0.4c0.5,0.2,1,0.6,1.3,1c0.4,0.4,0.6,1,0.8,1.6c0.2,0.6,0.3,1.3,0.3,2.1c0,0.2,0,0.4,0,0.6
			c0,0.2,0,0.3-0.1,0.5h-7.2c0.1,1.1,0.4,2.1,1.1,2.7c0.6,0.7,1.5,1,2.5,1c0.5,0,1-0.1,1.4-0.2c0.4-0.2,0.8-0.4,1.2-0.6l0.6,1.2
			c-0.5,0.3-1,0.5-1.6,0.8C645.5,316.7,644.8,316.8,644.1,316.8"/>
		<path style="clip-path:url(#SVGID_00000136378311574197692350000004256474090737736354_);fill:#162259;" d="M650.7,305.9h1.8v10.7
			h-1.8V305.9z M651.6,303.7c-0.4,0-0.6-0.1-0.9-0.3c-0.2-0.2-0.4-0.5-0.4-0.8c0-0.4,0.1-0.6,0.4-0.8c0.2-0.2,0.5-0.3,0.9-0.3
			c0.4,0,0.6,0.1,0.9,0.3c0.2,0.2,0.4,0.5,0.4,0.8c0,0.3-0.1,0.6-0.4,0.8C652.2,303.5,651.9,303.7,651.6,303.7"/>
		<path style="clip-path:url(#SVGID_00000136378311574197692350000004256474090737736354_);fill:#162259;" d="M657,310.3h5.7
			c0-1.1-0.2-1.9-0.7-2.5c-0.5-0.6-1.1-0.8-1.9-0.8c-0.4,0-0.7,0.1-1.1,0.2c-0.3,0.1-0.7,0.4-0.9,0.6c-0.3,0.3-0.5,0.6-0.7,1
			C657.2,309.3,657.1,309.8,657,310.3 M660.4,316.8c-0.7,0-1.4-0.1-2-0.4c-0.6-0.3-1.2-0.6-1.6-1.1c-0.5-0.5-0.8-1.1-1.1-1.7
			c-0.3-0.7-0.4-1.5-0.4-2.4s0.1-1.7,0.4-2.4c0.3-0.7,0.6-1.3,1.1-1.8c0.4-0.5,1-0.9,1.5-1.1c0.6-0.3,1.2-0.4,1.8-0.4
			c0.7,0,1.3,0.1,1.8,0.4c0.5,0.2,1,0.6,1.3,1c0.4,0.4,0.6,1,0.8,1.6c0.2,0.6,0.3,1.3,0.3,2.1c0,0.2,0,0.4,0,0.6
			c0,0.2,0,0.3-0.1,0.5h-7.2c0.1,1.1,0.4,2.1,1.1,2.7c0.6,0.7,1.5,1,2.5,1c0.5,0,1-0.1,1.4-0.2c0.4-0.2,0.8-0.4,1.2-0.6l0.6,1.2
			c-0.5,0.3-1,0.5-1.6,0.8C661.8,316.7,661.1,316.8,660.4,316.8"/>
		<path style="clip-path:url(#SVGID_00000136378311574197692350000004256474090737736354_);fill:#162259;" d="M667,316.5v-10.7h1.5
			l0.2,1.9h0.1c0.4-0.7,0.8-1.2,1.3-1.6c0.5-0.4,1.1-0.6,1.7-0.6c0.4,0,0.8,0.1,1.1,0.2l-0.4,1.6c-0.2-0.1-0.3-0.1-0.5-0.1
			c-0.1,0-0.3,0-0.5,0c-0.5,0-0.9,0.2-1.4,0.6c-0.5,0.4-0.9,1-1.3,1.9v6.9H667z"/>
		<path style="clip-path:url(#SVGID_00000136378311574197692350000004256474090737736354_);fill:#162259;" d="M674.6,316.5v-10.7
			h1.5l0.2,1.5h0.1c0.5-0.5,1.1-0.9,1.6-1.3c0.6-0.3,1.2-0.5,2-0.5c1.1,0,2,0.4,2.5,1.1s0.8,1.7,0.8,3.1v6.8h-1.8V310
			c0-1-0.2-1.7-0.5-2.2c-0.3-0.4-0.8-0.7-1.5-0.7c-0.6,0-1,0.1-1.5,0.4c-0.4,0.3-0.9,0.7-1.5,1.2v7.7H674.6z"/>
		<path style="clip-path:url(#SVGID_00000136378311574197692350000004256474090737736354_);fill:#162259;" d="M0,134v-14.4h2.2
			l2.8,7.7c0.2,0.5,0.3,1,0.5,1.5c0.2,0.5,0.3,1,0.5,1.5h0.1c0.2-0.5,0.3-1,0.5-1.5c0.2-0.5,0.3-1,0.5-1.5l2.7-7.7H12V134h-1.7v-7.9
			c0-0.6,0-1.4,0.1-2.1c0.1-0.8,0.1-1.5,0.2-2.1h-0.1l-1.1,3.3l-2.7,7.5H5.4l-2.7-7.5l-1.1-3.3H1.4c0,0.6,0.1,1.4,0.1,2.1
			c0.1,0.8,0.1,1.5,0.1,2.1v7.9H0z"/>
		<path style="clip-path:url(#SVGID_00000136378311574197692350000004256474090737736354_);fill:#162259;" d="M18.8,132.9
			c0.5,0,1-0.1,1.5-0.4c0.5-0.2,0.9-0.6,1.5-1.1v-3c-0.9,0.1-1.6,0.3-2.3,0.4c-0.6,0.2-1.1,0.4-1.5,0.6c-0.4,0.2-0.6,0.5-0.8,0.8
			c-0.2,0.3-0.3,0.6-0.3,0.9c0,0.6,0.2,1.1,0.5,1.3C17.8,132.7,18.3,132.9,18.8,132.9 M18.3,134.3c-0.9,0-1.6-0.3-2.2-0.8
			c-0.6-0.5-0.9-1.3-0.9-2.2c0-1.2,0.5-2.1,1.6-2.7c1-0.6,2.7-1.1,5-1.3c0-0.3,0-0.7-0.1-1c-0.1-0.3-0.2-0.6-0.3-0.9
			c-0.2-0.2-0.4-0.5-0.7-0.6c-0.3-0.2-0.6-0.2-1.1-0.2c-0.6,0-1.2,0.1-1.7,0.4c-0.5,0.2-1,0.5-1.5,0.8l-0.7-1.3
			c0.5-0.3,1.1-0.6,1.8-0.9c0.7-0.3,1.5-0.5,2.4-0.5c1.3,0,2.3,0.4,2.8,1.2c0.6,0.8,0.9,1.9,0.9,3.2v6.6H22l-0.2-1.3h-0.1
			c-0.5,0.4-1.1,0.8-1.7,1.1C19.6,134.2,19,134.3,18.3,134.3"/>
		<path style="clip-path:url(#SVGID_00000136378311574197692350000004256474090737736354_);fill:#162259;" d="M26.9,134v-10.7h1.5
			l0.2,1.9h0.1c0.4-0.7,0.8-1.2,1.3-1.6c0.5-0.4,1.1-0.6,1.7-0.6c0.4,0,0.8,0.1,1.1,0.2l-0.4,1.6c-0.2-0.1-0.3-0.1-0.5-0.1
			c-0.1,0-0.3,0-0.5,0c-0.5,0-0.9,0.2-1.4,0.5c-0.5,0.4-0.9,1-1.3,1.9v6.9H26.9z"/>
	</g>
	<polygon class="st2" points="34.5,134 34.5,118.4 36.3,118.4 36.3,129 36.4,129 40.9,123.4 42.9,123.4 39.4,127.6 43.4,134 
		41.4,134 38.3,128.9 36.3,131.2 36.3,134 	"/>
	<g>
		<defs>
			<rect id="SVGID_00000043434749007163869740000010928520010940753838_" width="902.2" height="321.5"/>
		</defs>
		<clipPath id="SVGID_00000075879423805002971450000014954615712828042160_">
			<use xlink:href="#SVGID_00000043434749007163869740000010928520010940753838_"  style="overflow:visible;"/>
		</clipPath>
		<path style="clip-path:url(#SVGID_00000075879423805002971450000014954615712828042160_);fill:#162259;" d="M46.4,127.8h5.7
			c0-1.1-0.2-1.9-0.7-2.5c-0.5-0.6-1.1-0.8-1.9-0.8c-0.4,0-0.7,0.1-1.1,0.2c-0.3,0.1-0.7,0.4-0.9,0.6c-0.3,0.3-0.5,0.6-0.7,1
			C46.6,126.8,46.5,127.3,46.4,127.8 M49.8,134.3c-0.7,0-1.4-0.1-2-0.4c-0.6-0.3-1.2-0.6-1.6-1.1c-0.5-0.5-0.8-1.1-1.1-1.7
			c-0.3-0.7-0.4-1.5-0.4-2.4c0-0.9,0.1-1.7,0.4-2.4c0.3-0.7,0.6-1.3,1.1-1.8c0.4-0.5,1-0.9,1.5-1.1c0.6-0.3,1.2-0.4,1.8-0.4
			c0.7,0,1.3,0.1,1.8,0.4c0.5,0.2,1,0.6,1.3,1c0.4,0.4,0.6,1,0.8,1.6c0.2,0.6,0.3,1.3,0.3,2.1c0,0.2,0,0.4,0,0.6
			c0,0.2,0,0.3-0.1,0.5h-7.2c0.1,1.1,0.4,2.1,1.1,2.7c0.6,0.7,1.5,1,2.5,1c0.5,0,1-0.1,1.4-0.2c0.4-0.2,0.8-0.4,1.2-0.6l0.6,1.2
			c-0.5,0.3-1,0.6-1.6,0.8C51.1,134.2,50.5,134.3,49.8,134.3"/>
		<path style="clip-path:url(#SVGID_00000075879423805002971450000014954615712828042160_);fill:#162259;" d="M59.7,134.3
			c-0.6,0-1.1-0.1-1.4-0.3c-0.4-0.2-0.7-0.4-0.9-0.7c-0.2-0.3-0.4-0.7-0.5-1.1c-0.1-0.4-0.2-0.9-0.2-1.5v-5.9h-1.6v-1.4l1.7-0.1
			l0.2-3h1.5v3h2.9v1.5h-2.9v5.9c0,0.7,0.1,1.2,0.4,1.5c0.2,0.4,0.7,0.5,1.3,0.5c0.2,0,0.4,0,0.6-0.1c0.2-0.1,0.4-0.1,0.6-0.2
			l0.4,1.4c-0.3,0.1-0.6,0.2-1,0.3C60.4,134.3,60,134.3,59.7,134.3"/>
		<path style="clip-path:url(#SVGID_00000075879423805002971450000014954615712828042160_);fill:#162259;" d="M63.8,123.4h1.8V134
			h-1.8V123.4z M64.7,121.2c-0.4,0-0.6-0.1-0.9-0.3c-0.2-0.2-0.4-0.5-0.4-0.8c0-0.4,0.1-0.6,0.4-0.8c0.2-0.2,0.5-0.3,0.9-0.3
			c0.4,0,0.6,0.1,0.9,0.3c0.2,0.2,0.4,0.5,0.4,0.8c0,0.3-0.1,0.6-0.4,0.8C65.4,121,65.1,121.2,64.7,121.2"/>
		<path style="clip-path:url(#SVGID_00000075879423805002971450000014954615712828042160_);fill:#162259;" d="M69.2,134v-10.7h1.5
			l0.2,1.5h0.1c0.5-0.5,1.1-0.9,1.6-1.3c0.6-0.3,1.2-0.5,2-0.5c1.1,0,2,0.4,2.5,1.1c0.5,0.7,0.8,1.7,0.8,3.1v6.8h-1.8v-6.5
			c0-1-0.2-1.7-0.5-2.2c-0.3-0.4-0.8-0.7-1.5-0.7c-0.6,0-1,0.1-1.5,0.4c-0.4,0.3-0.9,0.7-1.5,1.2v7.7H69.2z"/>
		<path style="clip-path:url(#SVGID_00000075879423805002971450000014954615712828042160_);fill:#162259;" d="M84.8,129.4
			c0.3,0,0.6-0.1,0.9-0.2c0.3-0.1,0.5-0.3,0.7-0.5c0.2-0.2,0.4-0.5,0.5-0.8c0.1-0.3,0.2-0.7,0.2-1.1c0-0.8-0.2-1.4-0.7-1.8
			s-1-0.6-1.6-0.6c-0.6,0-1.2,0.2-1.6,0.6s-0.7,1-0.7,1.8c0,0.4,0.1,0.8,0.2,1.1c0.1,0.3,0.3,0.6,0.5,0.8c0.2,0.2,0.5,0.4,0.7,0.5
			C84.2,129.4,84.5,129.4,84.8,129.4 M85.1,137.7c0.5,0,1-0.1,1.4-0.2c0.4-0.1,0.8-0.3,1.1-0.5s0.5-0.4,0.7-0.7
			c0.2-0.3,0.2-0.5,0.2-0.8c0-0.5-0.2-0.8-0.5-1c-0.4-0.2-0.9-0.3-1.6-0.3h-1.8c-0.2,0-0.4,0-0.7,0c-0.2,0-0.5-0.1-0.7-0.1
			c-0.4,0.3-0.7,0.6-0.8,0.9c-0.2,0.3-0.3,0.6-0.3,0.9c0,0.6,0.3,1,0.8,1.4C83.4,137.5,84.1,137.7,85.1,137.7 M84.8,139
			c-0.7,0-1.3-0.1-1.8-0.2c-0.5-0.1-1-0.3-1.4-0.6c-0.4-0.2-0.7-0.6-0.9-0.9c-0.2-0.4-0.3-0.8-0.3-1.2c0-0.5,0.1-0.9,0.4-1.3
			c0.3-0.4,0.7-0.8,1.1-1.1v-0.1c-0.3-0.2-0.5-0.4-0.7-0.7c-0.2-0.3-0.3-0.6-0.3-1.1c0-0.5,0.1-0.9,0.4-1.2c0.2-0.3,0.5-0.6,0.8-0.8
			v-0.1c-0.4-0.3-0.7-0.7-1-1.2c-0.3-0.5-0.4-1.1-0.4-1.7c0-0.6,0.1-1.1,0.3-1.6c0.2-0.5,0.5-0.9,0.9-1.2c0.4-0.3,0.8-0.6,1.3-0.8
			c0.5-0.2,1-0.3,1.6-0.3c0.3,0,0.6,0,0.8,0.1c0.3,0.1,0.5,0.1,0.7,0.2h3.7v1.4h-2.2c0.2,0.2,0.5,0.6,0.6,0.9
			c0.2,0.4,0.3,0.8,0.3,1.3c0,0.6-0.1,1.1-0.3,1.6c-0.2,0.5-0.5,0.9-0.8,1.2c-0.4,0.3-0.8,0.6-1.2,0.7c-0.5,0.2-1,0.3-1.5,0.3
			c-0.3,0-0.5,0-0.8-0.1c-0.3-0.1-0.5-0.2-0.8-0.3c-0.2,0.2-0.4,0.3-0.5,0.5c-0.1,0.2-0.2,0.4-0.2,0.7c0,0.3,0.1,0.6,0.4,0.8
			c0.3,0.2,0.8,0.3,1.5,0.3h2.1c1.2,0,2.2,0.2,2.8,0.6c0.6,0.4,0.9,1.1,0.9,1.9c0,0.5-0.1,1-0.4,1.4c-0.2,0.4-0.6,0.8-1.1,1.2
			c-0.5,0.3-1,0.6-1.7,0.8C86.4,138.9,85.7,139,84.8,139"/>
	</g>
	<polygon class="st2" points="92.3,134 92.3,118.4 94.1,118.4 94.1,129 94.2,129 98.7,123.4 100.7,123.4 97.1,127.6 101.2,134 
		99.2,134 96.1,128.9 94.1,131.2 94.1,134 	"/>
	<g>
		<defs>
			<rect id="SVGID_00000177454731315818391890000014050594399627578763_" width="902.2" height="321.5"/>
		</defs>
		<clipPath id="SVGID_00000166643693719785711560000009060781003950239139_">
			<use xlink:href="#SVGID_00000177454731315818391890000014050594399627578763_"  style="overflow:visible;"/>
		</clipPath>
		<path style="clip-path:url(#SVGID_00000166643693719785711560000009060781003950239139_);fill:#162259;" d="M106.2,132.9
			c0.5,0,1-0.1,1.5-0.4c0.5-0.2,0.9-0.6,1.5-1.1v-3c-0.9,0.1-1.6,0.3-2.3,0.4c-0.6,0.2-1.1,0.4-1.5,0.6c-0.4,0.2-0.6,0.5-0.8,0.8
			c-0.2,0.3-0.3,0.6-0.3,0.9c0,0.6,0.2,1.1,0.6,1.3C105.2,132.7,105.7,132.9,106.2,132.9 M105.7,134.3c-0.9,0-1.6-0.3-2.2-0.8
			c-0.6-0.5-0.9-1.3-0.9-2.2c0-1.2,0.5-2.1,1.6-2.7c1-0.6,2.7-1.1,5-1.3c0-0.3,0-0.7-0.1-1c-0.1-0.3-0.2-0.6-0.3-0.9
			c-0.2-0.2-0.4-0.5-0.7-0.6c-0.3-0.2-0.6-0.2-1.1-0.2c-0.6,0-1.2,0.1-1.7,0.4c-0.5,0.2-1,0.5-1.5,0.8l-0.7-1.3
			c0.5-0.3,1.1-0.6,1.8-0.9c0.7-0.3,1.5-0.5,2.4-0.5c1.3,0,2.3,0.4,2.8,1.2c0.6,0.8,0.9,1.9,0.9,3.2v6.6h-1.5l-0.2-1.3h-0.1
			c-0.5,0.4-1.1,0.8-1.7,1.1C107,134.2,106.3,134.3,105.7,134.3"/>
		<path style="clip-path:url(#SVGID_00000166643693719785711560000009060781003950239139_);fill:#162259;" d="M114.3,134v-10.7h1.5
			l0.2,1.5h0.1c0.5-0.5,1-0.9,1.5-1.3c0.6-0.3,1.1-0.5,1.8-0.5c0.8,0,1.5,0.2,1.9,0.5s0.8,0.9,1,1.5c0.6-0.6,1.1-1.1,1.7-1.5
			c0.6-0.4,1.2-0.6,1.8-0.6c1.1,0,1.9,0.4,2.5,1.1c0.5,0.7,0.8,1.7,0.8,3.1v6.8h-1.8v-6.5c0-1-0.2-1.7-0.5-2.2
			c-0.3-0.4-0.8-0.7-1.5-0.7c-0.8,0-1.7,0.6-2.7,1.7v7.7h-1.8v-6.5c0-1-0.2-1.7-0.5-2.2c-0.3-0.4-0.8-0.7-1.5-0.7
			c-0.8,0-1.7,0.6-2.7,1.7v7.7H114.3z"/>
		<path style="clip-path:url(#SVGID_00000166643693719785711560000009060781003950239139_);fill:#162259;" d="M136.9,132.8
			c0.4,0,0.8-0.1,1.2-0.3c0.4-0.2,0.7-0.5,1-0.8c0.3-0.4,0.5-0.8,0.6-1.3s0.2-1.1,0.2-1.8c0-0.6-0.1-1.1-0.2-1.6
			c-0.1-0.5-0.3-0.9-0.5-1.2c-0.2-0.3-0.5-0.6-0.9-0.8c-0.4-0.2-0.8-0.3-1.3-0.3c-0.5,0-0.9,0.1-1.4,0.4c-0.5,0.2-1,0.6-1.5,1.1v5.6
			c0.5,0.4,1,0.7,1.4,0.9C136.2,132.7,136.6,132.8,136.9,132.8 M132.5,138.6v-15.2h1.5l0.2,1.2h0.1c0.5-0.4,1-0.8,1.6-1.1
			c0.6-0.3,1.2-0.4,1.8-0.4c0.7,0,1.3,0.1,1.8,0.4c0.5,0.3,1,0.6,1.3,1.1c0.4,0.5,0.6,1,0.8,1.7c0.2,0.7,0.3,1.4,0.3,2.3
			c0,0.9-0.1,1.7-0.4,2.4c-0.2,0.7-0.6,1.3-1,1.8c-0.4,0.5-0.9,0.9-1.5,1.1c-0.6,0.3-1.1,0.4-1.8,0.4c-0.5,0-1-0.1-1.5-0.3
			c-0.5-0.2-1-0.5-1.5-0.9l0,1.9v3.6H132.5z"/>
		<path style="clip-path:url(#SVGID_00000166643693719785711560000009060781003950239139_);fill:#162259;" d="M147.7,132.9
			c0.5,0,1-0.1,1.5-0.4c0.5-0.2,0.9-0.6,1.5-1.1v-3c-0.9,0.1-1.6,0.3-2.3,0.4c-0.6,0.2-1.1,0.4-1.5,0.6c-0.4,0.2-0.6,0.5-0.8,0.8
			c-0.2,0.3-0.3,0.6-0.3,0.9c0,0.6,0.2,1.1,0.6,1.3C146.8,132.7,147.2,132.9,147.7,132.9 M147.2,134.3c-0.9,0-1.6-0.3-2.2-0.8
			c-0.6-0.5-0.9-1.3-0.9-2.2c0-1.2,0.5-2.1,1.6-2.7c1-0.6,2.7-1.1,5-1.3c0-0.3,0-0.7-0.1-1c-0.1-0.3-0.2-0.6-0.3-0.9
			c-0.2-0.2-0.4-0.5-0.7-0.6c-0.3-0.2-0.6-0.2-1.1-0.2c-0.6,0-1.2,0.1-1.7,0.4c-0.5,0.2-1,0.5-1.5,0.8l-0.7-1.3
			c0.5-0.3,1.1-0.6,1.8-0.9c0.7-0.3,1.5-0.5,2.4-0.5c1.3,0,2.3,0.4,2.8,1.2c0.6,0.8,0.9,1.9,0.9,3.2v6.6H151l-0.2-1.3h-0.1
			c-0.5,0.4-1.1,0.8-1.6,1.1C148.5,134.2,147.9,134.3,147.2,134.3"/>
		<path style="clip-path:url(#SVGID_00000166643693719785711560000009060781003950239139_);fill:#162259;" d="M159.4,129.4
			c0.3,0,0.6-0.1,0.9-0.2c0.3-0.1,0.5-0.3,0.7-0.5c0.2-0.2,0.4-0.5,0.5-0.8c0.1-0.3,0.2-0.7,0.2-1.1c0-0.8-0.2-1.4-0.7-1.8
			s-1-0.6-1.6-0.6c-0.6,0-1.2,0.2-1.6,0.6s-0.7,1-0.7,1.8c0,0.4,0.1,0.8,0.2,1.1c0.1,0.3,0.3,0.6,0.5,0.8c0.2,0.2,0.5,0.4,0.7,0.5
			C158.8,129.4,159.1,129.4,159.4,129.4 M159.7,137.7c0.5,0,1-0.1,1.4-0.2c0.4-0.1,0.8-0.3,1.1-0.5s0.5-0.4,0.7-0.7
			c0.2-0.3,0.2-0.5,0.2-0.8c0-0.5-0.2-0.8-0.6-1c-0.4-0.2-0.9-0.3-1.6-0.3h-1.8c-0.2,0-0.4,0-0.7,0s-0.5-0.1-0.7-0.1
			c-0.4,0.3-0.7,0.6-0.8,0.9c-0.2,0.3-0.3,0.6-0.3,0.9c0,0.6,0.3,1,0.8,1.4C158,137.5,158.7,137.7,159.7,137.7 M159.4,139
			c-0.7,0-1.3-0.1-1.8-0.2c-0.5-0.1-1-0.3-1.4-0.6c-0.4-0.2-0.7-0.6-0.9-0.9c-0.2-0.4-0.3-0.8-0.3-1.2c0-0.5,0.1-0.9,0.4-1.3
			c0.3-0.4,0.7-0.8,1.1-1.1v-0.1c-0.3-0.2-0.5-0.4-0.7-0.7c-0.2-0.3-0.3-0.6-0.3-1.1c0-0.5,0.1-0.9,0.4-1.2c0.2-0.3,0.5-0.6,0.8-0.8
			v-0.1c-0.4-0.3-0.7-0.7-1-1.2c-0.3-0.5-0.4-1.1-0.4-1.7c0-0.6,0.1-1.1,0.3-1.6c0.2-0.5,0.5-0.9,0.9-1.2c0.4-0.3,0.8-0.6,1.3-0.8
			c0.5-0.2,1-0.3,1.6-0.3c0.3,0,0.6,0,0.8,0.1c0.3,0.1,0.5,0.1,0.7,0.2h3.7v1.4h-2.2c0.2,0.2,0.5,0.6,0.6,0.9
			c0.2,0.4,0.3,0.8,0.3,1.3c0,0.6-0.1,1.1-0.3,1.6c-0.2,0.5-0.5,0.9-0.8,1.2c-0.4,0.3-0.8,0.6-1.2,0.7c-0.5,0.2-1,0.3-1.5,0.3
			c-0.3,0-0.5,0-0.8-0.1c-0.3-0.1-0.5-0.2-0.8-0.3c-0.2,0.2-0.4,0.3-0.5,0.5c-0.1,0.2-0.2,0.4-0.2,0.7c0,0.3,0.1,0.6,0.4,0.8
			c0.3,0.2,0.8,0.3,1.5,0.3h2.1c1.2,0,2.2,0.2,2.8,0.6c0.6,0.4,0.9,1.1,0.9,1.9c0,0.5-0.1,1-0.4,1.4c-0.2,0.4-0.6,0.8-1.1,1.2
			c-0.5,0.3-1,0.6-1.7,0.8C161,138.9,160.3,139,159.4,139"/>
		<path style="clip-path:url(#SVGID_00000166643693719785711560000009060781003950239139_);fill:#162259;" d="M166.9,134v-10.7h1.5
			l0.2,1.5h0.1c0.5-0.5,1.1-0.9,1.6-1.3c0.6-0.3,1.2-0.5,2-0.5c1.1,0,2,0.4,2.5,1.1c0.5,0.7,0.8,1.7,0.8,3.1v6.8h-1.8v-6.5
			c0-1-0.2-1.7-0.5-2.2c-0.3-0.4-0.8-0.7-1.5-0.7c-0.6,0-1,0.1-1.5,0.4c-0.4,0.3-0.9,0.7-1.5,1.2v7.7H166.9z"/>
		<path style="clip-path:url(#SVGID_00000166643693719785711560000009060781003950239139_);fill:#162259;" d="M179.9,127.8h5.7
			c0-1.1-0.2-1.9-0.7-2.5c-0.5-0.6-1.1-0.8-1.9-0.8c-0.4,0-0.7,0.1-1.1,0.2c-0.3,0.1-0.7,0.4-0.9,0.6c-0.3,0.3-0.5,0.6-0.7,1
			C180.1,126.8,180,127.3,179.9,127.8 M183.3,134.3c-0.7,0-1.4-0.1-2-0.4c-0.6-0.3-1.2-0.6-1.6-1.1c-0.5-0.5-0.8-1.1-1.1-1.7
			c-0.3-0.7-0.4-1.5-0.4-2.4c0-0.9,0.1-1.7,0.4-2.4c0.3-0.7,0.6-1.3,1.1-1.8c0.4-0.5,1-0.9,1.5-1.1c0.6-0.3,1.2-0.4,1.8-0.4
			c0.7,0,1.3,0.1,1.8,0.4c0.5,0.2,1,0.6,1.3,1c0.4,0.4,0.6,1,0.8,1.6c0.2,0.6,0.3,1.3,0.3,2.1c0,0.2,0,0.4,0,0.6
			c0,0.2,0,0.3-0.1,0.5h-7.2c0.1,1.1,0.4,2.1,1.1,2.7c0.6,0.7,1.5,1,2.5,1c0.5,0,1-0.1,1.4-0.2c0.4-0.2,0.8-0.4,1.2-0.6l0.6,1.2
			c-0.5,0.3-1,0.6-1.6,0.8C184.7,134.2,184,134.3,183.3,134.3"/>
		<path style="clip-path:url(#SVGID_00000166643693719785711560000009060781003950239139_);fill:#162259;" d="M189.9,134v-10.7h1.5
			l0.2,1.5h0.1c0.5-0.5,1.1-0.9,1.6-1.3c0.6-0.3,1.2-0.5,2-0.5c1.1,0,2,0.4,2.5,1.1c0.5,0.7,0.8,1.7,0.8,3.1v6.8h-1.8v-6.5
			c0-1-0.2-1.7-0.5-2.2c-0.3-0.4-0.8-0.7-1.5-0.7c-0.6,0-1,0.1-1.5,0.4c-0.4,0.3-0.9,0.7-1.5,1.2v7.7H189.9z"/>
		<path style="clip-path:url(#SVGID_00000166643693719785711560000009060781003950239139_);fill:#2A7FC2;" d="M525.6,15.7V1.2h2.2
			l2.8,7.7c0.2,0.5,0.3,1,0.5,1.5c0.2,0.5,0.3,1,0.5,1.5h0.1c0.2-0.5,0.3-1,0.5-1.5c0.2-0.5,0.3-1,0.5-1.5l2.7-7.7h2.2v14.4H536V7.7
			c0-0.6,0-1.4,0.1-2.1c0.1-0.8,0.1-1.5,0.2-2.1h-0.1L535,6.7l-2.7,7.5H531l-2.7-7.5l-1.1-3.3h-0.1c0,0.6,0.1,1.4,0.1,2.1
			c0.1,0.8,0.1,1.5,0.1,2.1v7.9H525.6z"/>
		<path style="clip-path:url(#SVGID_00000166643693719785711560000009060781003950239139_);fill:#2A7FC2;" d="M544.4,14.5
			c0.5,0,1-0.1,1.5-0.4c0.5-0.2,0.9-0.6,1.5-1.1v-3c-0.9,0.1-1.6,0.3-2.3,0.4c-0.6,0.2-1.1,0.4-1.5,0.6c-0.4,0.2-0.6,0.5-0.8,0.8
			c-0.2,0.3-0.3,0.6-0.3,0.9c0,0.6,0.2,1.1,0.5,1.3C543.5,14.3,543.9,14.5,544.4,14.5 M543.9,15.9c-0.9,0-1.6-0.3-2.2-0.8
			c-0.6-0.5-0.9-1.3-0.9-2.2c0-1.2,0.5-2.1,1.6-2.7c1-0.6,2.7-1.1,5-1.3c0-0.3,0-0.7-0.1-1c-0.1-0.3-0.2-0.6-0.3-0.9
			c-0.2-0.2-0.4-0.5-0.7-0.6c-0.3-0.2-0.6-0.2-1.1-0.2c-0.6,0-1.2,0.1-1.7,0.4c-0.5,0.2-1,0.5-1.5,0.8l-0.7-1.3
			c0.5-0.3,1.1-0.6,1.8-0.9c0.7-0.3,1.5-0.5,2.4-0.5c1.3,0,2.3,0.4,2.8,1.2c0.6,0.8,0.9,1.9,0.9,3.2v6.6h-1.5l-0.2-1.3h-0.1
			c-0.5,0.4-1.1,0.8-1.7,1.1C545.2,15.8,544.6,15.9,543.9,15.9"/>
		<path style="clip-path:url(#SVGID_00000166643693719785711560000009060781003950239139_);fill:#2A7FC2;" d="M552.5,15.7V5h1.5
			l0.2,1.9h0.1c0.4-0.7,0.8-1.2,1.3-1.6c0.5-0.4,1.1-0.6,1.7-0.6c0.4,0,0.8,0.1,1.1,0.2l-0.4,1.6c-0.2-0.1-0.3-0.1-0.5-0.1
			c-0.1,0-0.3,0-0.6,0c-0.5,0-0.9,0.2-1.4,0.5c-0.5,0.4-0.9,1-1.3,1.9v6.9H552.5z"/>
	</g>
	<polygon class="st6" points="560.2,0 560.2,15.7 562,15.7 562,12.8 564,10.5 567.1,15.7 569.1,15.7 565,9.3 568.6,5 566.6,5 
		562,10.6 562,10.6 562,0 	"/>
	<g>
		<defs>
			<rect id="SVGID_00000167397424477146224390000000356030618422698679_" width="902.2" height="321.5"/>
		</defs>
		<clipPath id="SVGID_00000008150431936379373080000010908569477427614889_">
			<use xlink:href="#SVGID_00000167397424477146224390000000356030618422698679_"  style="overflow:visible;"/>
		</clipPath>
		<path style="clip-path:url(#SVGID_00000008150431936379373080000010908569477427614889_);fill:#2A7FC2;" d="M572,9.5h5.7
			c0-1.1-0.2-1.9-0.7-2.5c-0.5-0.6-1.1-0.8-1.9-0.8c-0.4,0-0.7,0.1-1.1,0.2c-0.3,0.1-0.7,0.4-0.9,0.6c-0.3,0.3-0.5,0.6-0.7,1
			C572.2,8.5,572.1,8.9,572,9.5 M575.4,15.9c-0.7,0-1.4-0.1-2-0.4c-0.6-0.3-1.2-0.6-1.6-1.1c-0.5-0.5-0.8-1.1-1.1-1.7
			c-0.3-0.7-0.4-1.5-0.4-2.4s0.1-1.7,0.4-2.4c0.3-0.7,0.6-1.3,1.1-1.8c0.4-0.5,1-0.9,1.5-1.1c0.6-0.3,1.2-0.4,1.8-0.4
			c0.7,0,1.3,0.1,1.8,0.4c0.5,0.2,1,0.6,1.3,1c0.4,0.4,0.6,1,0.8,1.6c0.2,0.6,0.3,1.3,0.3,2.1c0,0.2,0,0.4,0,0.6
			c0,0.2,0,0.3-0.1,0.5h-7.2c0.1,1.1,0.4,2,1.1,2.7c0.6,0.7,1.5,1,2.5,1c0.5,0,1-0.1,1.4-0.2c0.4-0.2,0.8-0.4,1.2-0.6l0.6,1.2
			c-0.5,0.3-1,0.5-1.6,0.8C576.8,15.8,576.1,15.9,575.4,15.9"/>
		<path style="clip-path:url(#SVGID_00000008150431936379373080000010908569477427614889_);fill:#2A7FC2;" d="M585.3,15.9
			c-0.6,0-1.1-0.1-1.4-0.3c-0.4-0.2-0.7-0.4-0.9-0.7c-0.2-0.3-0.4-0.7-0.5-1.1c-0.1-0.4-0.2-0.9-0.2-1.5V6.4h-1.6V5.1l1.7-0.1l0.2-3
			h1.5v3h2.9v1.5h-2.9v5.9c0,0.7,0.1,1.2,0.4,1.5c0.2,0.4,0.7,0.5,1.3,0.5c0.2,0,0.4,0,0.6-0.1c0.2-0.1,0.4-0.1,0.6-0.2l0.4,1.4
			c-0.3,0.1-0.6,0.2-1,0.3C586,15.9,585.7,15.9,585.3,15.9"/>
		<path style="clip-path:url(#SVGID_00000008150431936379373080000010908569477427614889_);fill:#2A7FC2;" d="M589.4,5h1.8v10.7
			h-1.8V5z M590.3,2.8c-0.4,0-0.6-0.1-0.9-0.3c-0.2-0.2-0.4-0.5-0.4-0.8c0-0.4,0.1-0.6,0.4-0.8c0.2-0.2,0.5-0.3,0.9-0.3
			c0.4,0,0.6,0.1,0.9,0.3c0.2,0.2,0.4,0.5,0.4,0.8c0,0.3-0.1,0.6-0.4,0.8C591,2.7,590.7,2.8,590.3,2.8"/>
		<path style="clip-path:url(#SVGID_00000008150431936379373080000010908569477427614889_);fill:#2A7FC2;" d="M594.8,15.7V5h1.5
			l0.2,1.5h0.1c0.5-0.5,1.1-0.9,1.6-1.3c0.6-0.3,1.2-0.5,2-0.5c1.1,0,2,0.4,2.5,1.1c0.5,0.7,0.8,1.7,0.8,3.1v6.8h-1.8V9.1
			c0-1-0.2-1.7-0.5-2.2c-0.3-0.4-0.8-0.7-1.5-0.7c-0.6,0-1,0.1-1.5,0.4c-0.4,0.3-0.9,0.7-1.5,1.2v7.7H594.8z"/>
		<path style="clip-path:url(#SVGID_00000008150431936379373080000010908569477427614889_);fill:#2A7FC2;" d="M610.5,11.1
			c0.3,0,0.6-0.1,0.9-0.2c0.3-0.1,0.5-0.3,0.7-0.5c0.2-0.2,0.4-0.5,0.5-0.8c0.1-0.3,0.2-0.7,0.2-1.1c0-0.8-0.2-1.4-0.7-1.8
			c-0.4-0.4-1-0.6-1.6-0.6c-0.6,0-1.2,0.2-1.6,0.6c-0.4,0.4-0.7,1-0.7,1.8c0,0.4,0.1,0.8,0.2,1.1c0.1,0.3,0.3,0.6,0.5,0.8
			c0.2,0.2,0.5,0.4,0.7,0.5C609.9,11,610.2,11.1,610.5,11.1 M610.7,19.3c0.5,0,1-0.1,1.4-0.2c0.4-0.1,0.8-0.3,1.1-0.5
			c0.3-0.2,0.5-0.4,0.7-0.7c0.2-0.3,0.2-0.5,0.2-0.8c0-0.5-0.2-0.8-0.5-1c-0.4-0.2-0.9-0.3-1.6-0.3h-1.8c-0.2,0-0.4,0-0.7,0
			s-0.5-0.1-0.7-0.1c-0.4,0.3-0.7,0.6-0.8,0.9c-0.2,0.3-0.3,0.6-0.3,0.9c0,0.6,0.3,1,0.8,1.4C609,19.2,609.8,19.3,610.7,19.3
			 M610.5,20.6c-0.7,0-1.3-0.1-1.8-0.2c-0.5-0.1-1-0.3-1.4-0.6c-0.4-0.2-0.7-0.5-0.9-0.9c-0.2-0.4-0.3-0.8-0.3-1.2
			c0-0.5,0.1-0.9,0.4-1.3c0.3-0.4,0.7-0.8,1.1-1.1v-0.1c-0.3-0.2-0.5-0.4-0.7-0.7c-0.2-0.3-0.3-0.6-0.3-1.1c0-0.5,0.1-0.9,0.4-1.2
			c0.2-0.3,0.5-0.6,0.8-0.8v-0.1c-0.4-0.3-0.7-0.7-1-1.2c-0.3-0.5-0.4-1.1-0.4-1.7c0-0.6,0.1-1.1,0.3-1.6c0.2-0.5,0.5-0.9,0.9-1.2
			c0.4-0.3,0.8-0.6,1.3-0.8c0.5-0.2,1-0.3,1.6-0.3c0.3,0,0.6,0,0.8,0.1c0.3,0.1,0.5,0.1,0.7,0.2h3.7v1.4h-2.2
			c0.2,0.2,0.5,0.6,0.6,0.9c0.2,0.4,0.3,0.8,0.3,1.3c0,0.6-0.1,1.1-0.3,1.6c-0.2,0.5-0.5,0.9-0.8,1.2c-0.4,0.3-0.8,0.6-1.2,0.7
			c-0.5,0.2-1,0.3-1.5,0.3c-0.3,0-0.5,0-0.8-0.1c-0.3-0.1-0.5-0.2-0.8-0.3c-0.2,0.2-0.4,0.3-0.5,0.5c-0.1,0.2-0.2,0.4-0.2,0.7
			c0,0.3,0.1,0.6,0.4,0.8c0.3,0.2,0.8,0.3,1.5,0.3h2.1c1.2,0,2.2,0.2,2.8,0.6c0.6,0.4,0.9,1.1,0.9,1.9c0,0.5-0.1,1-0.4,1.4
			c-0.2,0.4-0.6,0.8-1.1,1.2c-0.5,0.3-1,0.6-1.7,0.8C612,20.5,611.3,20.6,610.5,20.6"/>
		<path style="clip-path:url(#SVGID_00000008150431936379373080000010908569477427614889_);fill:#2A7FC2;" d="M620.7,15.9
			c-0.8,0-1.5-0.1-2.2-0.4c-0.7-0.3-1.3-0.6-1.8-1.1l0.9-1.2c0.5,0.4,0.9,0.7,1.4,0.9c0.5,0.2,1.1,0.4,1.7,0.4
			c0.7,0,1.2-0.2,1.6-0.5c0.4-0.3,0.5-0.7,0.5-1.2c0-0.3-0.1-0.5-0.2-0.7c-0.1-0.2-0.3-0.4-0.6-0.5c-0.2-0.2-0.5-0.3-0.8-0.4
			c-0.3-0.1-0.6-0.2-0.9-0.4c-0.4-0.1-0.8-0.3-1.1-0.5c-0.4-0.2-0.7-0.4-1-0.6c-0.3-0.2-0.5-0.5-0.7-0.8c-0.2-0.3-0.3-0.7-0.3-1.2
			c0-0.4,0.1-0.8,0.3-1.2c0.2-0.4,0.4-0.7,0.7-1c0.3-0.3,0.7-0.5,1.2-0.6c0.5-0.2,1-0.2,1.5-0.2c0.7,0,1.3,0.1,1.9,0.4
			c0.6,0.2,1.1,0.5,1.5,0.9l-0.9,1.1c-0.4-0.3-0.7-0.5-1.1-0.7c-0.4-0.2-0.8-0.3-1.3-0.3c-0.7,0-1.2,0.2-1.5,0.5
			c-0.3,0.3-0.5,0.7-0.5,1.1c0,0.2,0.1,0.5,0.2,0.6c0.1,0.2,0.3,0.3,0.5,0.5c0.2,0.1,0.5,0.3,0.8,0.4c0.3,0.1,0.6,0.2,0.9,0.3
			c0.4,0.1,0.8,0.3,1.2,0.5c0.4,0.2,0.7,0.4,1,0.6c0.3,0.2,0.6,0.5,0.8,0.9c0.2,0.4,0.3,0.8,0.3,1.3c0,0.4-0.1,0.9-0.3,1.2
			c-0.2,0.4-0.4,0.7-0.7,1c-0.3,0.3-0.7,0.5-1.2,0.7C621.9,15.8,621.4,15.9,620.7,15.9"/>
		<path style="clip-path:url(#SVGID_00000008150431936379373080000010908569477427614889_);fill:#2A7FC2;" d="M630.5,15.9
			c-0.6,0-1.1-0.1-1.4-0.3c-0.4-0.2-0.7-0.4-0.9-0.7c-0.2-0.3-0.4-0.7-0.5-1.1c-0.1-0.4-0.2-0.9-0.2-1.5V6.4h-1.6V5.1l1.7-0.1l0.2-3
			h1.5v3h2.9v1.5h-2.9v5.9c0,0.7,0.1,1.2,0.4,1.5c0.2,0.4,0.7,0.5,1.3,0.5c0.2,0,0.4,0,0.6-0.1c0.2-0.1,0.4-0.1,0.6-0.2l0.4,1.4
			c-0.3,0.1-0.6,0.2-1,0.3C631.2,15.9,630.9,15.9,630.5,15.9"/>
		<path style="clip-path:url(#SVGID_00000008150431936379373080000010908569477427614889_);fill:#2A7FC2;" d="M634.6,15.7V5h1.5
			l0.2,1.9h0.1c0.4-0.7,0.8-1.2,1.3-1.6c0.5-0.4,1.1-0.6,1.7-0.6c0.4,0,0.8,0.1,1.1,0.2l-0.4,1.6c-0.2-0.1-0.3-0.1-0.5-0.1
			c-0.1,0-0.3,0-0.6,0c-0.5,0-0.9,0.2-1.4,0.5c-0.5,0.4-0.9,1-1.3,1.9v6.9H634.6z"/>
		<path style="clip-path:url(#SVGID_00000008150431936379373080000010908569477427614889_);fill:#2A7FC2;" d="M645.2,14.5
			c0.5,0,1-0.1,1.5-0.4c0.5-0.2,0.9-0.6,1.5-1.1v-3c-0.9,0.1-1.6,0.3-2.3,0.4c-0.6,0.2-1.1,0.4-1.5,0.6c-0.4,0.2-0.6,0.5-0.8,0.8
			c-0.2,0.3-0.3,0.6-0.3,0.9c0,0.6,0.2,1.1,0.5,1.3C644.2,14.3,644.7,14.5,645.2,14.5 M644.7,15.9c-0.9,0-1.6-0.3-2.2-0.8
			c-0.6-0.5-0.9-1.3-0.9-2.2c0-1.2,0.5-2.1,1.6-2.7c1-0.6,2.7-1.1,5-1.3c0-0.3,0-0.7-0.1-1c-0.1-0.3-0.2-0.6-0.3-0.9
			c-0.2-0.2-0.4-0.5-0.7-0.6c-0.3-0.2-0.6-0.2-1.1-0.2c-0.6,0-1.2,0.1-1.7,0.4c-0.5,0.2-1,0.5-1.5,0.8L642,6.1
			c0.5-0.3,1.1-0.6,1.8-0.9c0.7-0.3,1.5-0.5,2.4-0.5c1.3,0,2.3,0.4,2.8,1.2c0.6,0.8,0.9,1.9,0.9,3.2v6.6h-1.5l-0.2-1.3h-0.1
			c-0.5,0.4-1.1,0.8-1.7,1.1C646,15.8,645.4,15.9,644.7,15.9"/>
		<path style="clip-path:url(#SVGID_00000008150431936379373080000010908569477427614889_);fill:#2A7FC2;" d="M656.7,15.9
			c-0.6,0-1.1-0.1-1.4-0.3c-0.4-0.2-0.7-0.4-0.9-0.7c-0.2-0.3-0.4-0.7-0.5-1.1c-0.1-0.4-0.2-0.9-0.2-1.5V6.4H652V5.1l1.7-0.1l0.2-3
			h1.5v3h2.9v1.5h-2.9v5.9c0,0.7,0.1,1.2,0.4,1.5c0.2,0.4,0.7,0.5,1.3,0.5c0.2,0,0.4,0,0.6-0.1c0.2-0.1,0.4-0.1,0.6-0.2l0.4,1.4
			c-0.3,0.1-0.6,0.2-1,0.3C657.4,15.9,657,15.9,656.7,15.9"/>
		<path style="clip-path:url(#SVGID_00000008150431936379373080000010908569477427614889_);fill:#2A7FC2;" d="M661.7,9.5h5.7
			c0-1.1-0.2-1.9-0.7-2.5c-0.5-0.6-1.1-0.8-1.9-0.8c-0.4,0-0.7,0.1-1.1,0.2c-0.3,0.1-0.7,0.4-0.9,0.6c-0.3,0.3-0.5,0.6-0.7,1
			C661.9,8.5,661.8,8.9,661.7,9.5 M665.1,15.9c-0.7,0-1.4-0.1-2-0.4c-0.6-0.3-1.2-0.6-1.6-1.1c-0.5-0.5-0.8-1.1-1.1-1.7
			c-0.3-0.7-0.4-1.5-0.4-2.4s0.1-1.7,0.4-2.4c0.3-0.7,0.6-1.3,1.1-1.8c0.4-0.5,1-0.9,1.5-1.1c0.6-0.3,1.2-0.4,1.8-0.4
			c0.7,0,1.3,0.1,1.8,0.4c0.5,0.2,1,0.6,1.3,1c0.4,0.4,0.6,1,0.8,1.6c0.2,0.6,0.3,1.3,0.3,2.1c0,0.2,0,0.4,0,0.6
			c0,0.2,0,0.3-0.1,0.5h-7.2c0.1,1.1,0.4,2,1.1,2.7c0.6,0.7,1.5,1,2.5,1c0.5,0,1-0.1,1.4-0.2c0.4-0.2,0.8-0.4,1.2-0.6l0.6,1.2
			c-0.5,0.3-1,0.5-1.6,0.8C666.5,15.8,665.8,15.9,665.1,15.9"/>
		<path style="clip-path:url(#SVGID_00000008150431936379373080000010908569477427614889_);fill:#2A7FC2;" d="M675.3,11.1
			c0.3,0,0.6-0.1,0.9-0.2c0.3-0.1,0.5-0.3,0.7-0.5c0.2-0.2,0.4-0.5,0.5-0.8c0.1-0.3,0.2-0.7,0.2-1.1c0-0.8-0.2-1.4-0.7-1.8
			c-0.4-0.4-1-0.6-1.6-0.6c-0.6,0-1.2,0.2-1.6,0.6c-0.4,0.4-0.7,1-0.7,1.8c0,0.4,0.1,0.8,0.2,1.1c0.1,0.3,0.3,0.6,0.5,0.8
			c0.2,0.2,0.5,0.4,0.7,0.5C674.7,11,675,11.1,675.3,11.1 M675.5,19.3c0.5,0,1-0.1,1.4-0.2c0.4-0.1,0.8-0.3,1.1-0.5
			c0.3-0.2,0.5-0.4,0.7-0.7s0.2-0.5,0.2-0.8c0-0.5-0.2-0.8-0.5-1c-0.4-0.2-0.9-0.3-1.6-0.3h-1.8c-0.2,0-0.4,0-0.7,0
			s-0.5-0.1-0.7-0.1c-0.4,0.3-0.7,0.6-0.8,0.9c-0.2,0.3-0.3,0.6-0.3,0.9c0,0.6,0.3,1,0.8,1.4C673.8,19.2,674.6,19.3,675.5,19.3
			 M675.3,20.6c-0.7,0-1.3-0.1-1.8-0.2c-0.5-0.1-1-0.3-1.4-0.6c-0.4-0.2-0.7-0.5-0.9-0.9c-0.2-0.4-0.3-0.8-0.3-1.2
			c0-0.5,0.1-0.9,0.4-1.3c0.3-0.4,0.7-0.8,1.1-1.1v-0.1c-0.3-0.2-0.5-0.4-0.7-0.7c-0.2-0.3-0.3-0.6-0.3-1.1c0-0.5,0.1-0.9,0.4-1.2
			c0.2-0.3,0.5-0.6,0.8-0.8v-0.1c-0.4-0.3-0.7-0.7-1-1.2c-0.3-0.5-0.4-1.1-0.4-1.7c0-0.6,0.1-1.1,0.3-1.6c0.2-0.5,0.5-0.9,0.9-1.2
			c0.4-0.3,0.8-0.6,1.3-0.8c0.5-0.2,1-0.3,1.6-0.3c0.3,0,0.6,0,0.8,0.1c0.3,0.1,0.5,0.1,0.7,0.2h3.7v1.4h-2.2
			c0.2,0.2,0.5,0.6,0.6,0.9c0.2,0.4,0.3,0.8,0.3,1.3c0,0.6-0.1,1.1-0.3,1.6c-0.2,0.5-0.5,0.9-0.8,1.2c-0.4,0.3-0.8,0.6-1.2,0.7
			c-0.5,0.2-1,0.3-1.5,0.3c-0.3,0-0.5,0-0.8-0.1c-0.3-0.1-0.5-0.2-0.8-0.3c-0.2,0.2-0.4,0.3-0.5,0.5c-0.1,0.2-0.2,0.4-0.2,0.7
			c0,0.3,0.1,0.6,0.4,0.8c0.3,0.2,0.8,0.3,1.5,0.3h2.1c1.2,0,2.2,0.2,2.8,0.6c0.6,0.4,0.9,1.1,0.9,1.9c0,0.5-0.1,1-0.4,1.4
			c-0.2,0.4-0.6,0.8-1.1,1.2c-0.5,0.3-1,0.6-1.7,0.8C676.9,20.5,676.1,20.6,675.3,20.6"/>
		<path style="clip-path:url(#SVGID_00000008150431936379373080000010908569477427614889_);fill:#2A7FC2;" d="M682.8,5h1.8v10.7
			h-1.8V5z M683.7,2.8c-0.4,0-0.6-0.1-0.9-0.3c-0.2-0.2-0.4-0.5-0.4-0.8c0-0.4,0.1-0.6,0.4-0.8c0.2-0.2,0.5-0.3,0.9-0.3
			c0.4,0,0.6,0.1,0.9,0.3c0.2,0.2,0.4,0.5,0.4,0.8c0,0.3-0.1,0.6-0.4,0.8C684.3,2.7,684,2.8,683.7,2.8"/>
		<path style="clip-path:url(#SVGID_00000008150431936379373080000010908569477427614889_);fill:#2A7FC2;" d="M689.1,9.5h5.7
			c0-1.1-0.2-1.9-0.7-2.5c-0.5-0.6-1.1-0.8-1.9-0.8c-0.4,0-0.7,0.1-1.1,0.2c-0.3,0.1-0.7,0.4-0.9,0.6c-0.3,0.3-0.5,0.6-0.7,1
			C689.3,8.5,689.2,8.9,689.1,9.5 M692.5,15.9c-0.7,0-1.4-0.1-2-0.4c-0.6-0.3-1.2-0.6-1.6-1.1c-0.5-0.5-0.8-1.1-1.1-1.7
			c-0.3-0.7-0.4-1.5-0.4-2.4s0.1-1.7,0.4-2.4c0.3-0.7,0.6-1.3,1.1-1.8c0.4-0.5,1-0.9,1.5-1.1c0.6-0.3,1.2-0.4,1.8-0.4
			c0.7,0,1.3,0.1,1.8,0.4c0.5,0.2,1,0.6,1.3,1c0.4,0.4,0.6,1,0.8,1.6c0.2,0.6,0.3,1.3,0.3,2.1c0,0.2,0,0.4,0,0.6
			c0,0.2,0,0.3-0.1,0.5h-7.2c0.1,1.1,0.4,2,1.1,2.7c0.6,0.7,1.5,1,2.5,1c0.5,0,1-0.1,1.4-0.2c0.4-0.2,0.8-0.4,1.2-0.6l0.6,1.2
			c-0.5,0.3-1,0.5-1.6,0.8C693.9,15.8,693.2,15.9,692.5,15.9"/>
	</g>
	<g>
		<defs>
			<path id="SVGID_00000179647532574715796240000008838132677145821077_" d="M9.6,8.3c-0.6,0.2-1,0.5-1.4,0.8
				c-0.4,0.3-0.7,0.8-0.9,1.2c-0.2,0.5-0.3,1-0.3,1.5c0,0.5,0.1,1,0.3,1.4c0.2,0.4,0.4,0.8,0.7,1c0.3,0.3,0.6,0.5,0.9,0.7
				c0.4,0.2,0.7,0.4,1,0.5l2.1,0.9c0.3,0.2,0.7,0.3,0.9,0.5c0.3,0.1,0.5,0.3,0.8,0.5c0.2,0.2,0.4,0.4,0.5,0.7
				c0.1,0.3,0.2,0.6,0.2,0.9c0,0.7-0.3,1.3-0.8,1.7s-1.3,0.6-2.2,0.6c-0.7,0-1.5-0.2-2.2-0.5c-0.7-0.3-1.3-0.8-1.8-1.3l-1.1,1.3
				c0.6,0.7,1.4,1.2,2.2,1.6c0.9,0.4,1.8,0.6,2.8,0.6c0.8,0,1.4-0.1,2-0.3c0.6-0.2,1.1-0.5,1.5-0.9c0.4-0.4,0.8-0.8,1-1.3
				c0.2-0.5,0.3-1,0.3-1.6c0-0.5-0.1-1-0.2-1.4c-0.2-0.4-0.4-0.8-0.6-1.1c-0.3-0.3-0.6-0.6-0.9-0.8c-0.4-0.2-0.8-0.4-1.2-0.6l-2-0.9
				c-0.3-0.1-0.6-0.2-0.9-0.4c-0.3-0.1-0.5-0.3-0.8-0.5C9.3,13,9.1,12.8,9,12.6c-0.1-0.2-0.2-0.5-0.2-0.9c0-0.7,0.2-1.2,0.7-1.6
				c0.5-0.4,1.1-0.6,1.9-0.6c0.7,0,1.3,0.1,1.8,0.4c0.5,0.2,1,0.6,1.5,1l1-1.2c-0.5-0.5-1.1-1-1.9-1.3C13.1,8.1,12.3,8,11.4,8
				C10.8,8,10.2,8.1,9.6,8.3"/>
		</defs>
		<use xlink:href="#SVGID_00000179647532574715796240000008838132677145821077_"  style="overflow:visible;fill:#162259;"/>
		<clipPath id="SVGID_00000054945433289009247510000001665090369172075415_">
			<use xlink:href="#SVGID_00000179647532574715796240000008838132677145821077_"  style="overflow:visible;"/>
		</clipPath>
		
			<rect x="6.2" y="8" style="clip-path:url(#SVGID_00000054945433289009247510000001665090369172075415_);fill:#162259;" width="10" height="15"/>
	</g>
	<g>
		<defs>
			<path id="SVGID_00000034068370460899237620000004515819578000956546_" d="M20.5,21.1c-0.4-0.3-0.6-0.7-0.6-1.3
				c0-0.3,0.1-0.6,0.3-0.9c0.2-0.3,0.4-0.5,0.8-0.8c0.4-0.2,0.9-0.4,1.5-0.6c0.6-0.2,1.4-0.3,2.3-0.4v3c-0.5,0.5-1,0.8-1.5,1.1
				c-0.5,0.2-0.9,0.4-1.5,0.4C21.3,21.5,20.8,21.4,20.5,21.1 M20.4,12.2c-0.7,0.3-1.3,0.6-1.8,0.9l0.7,1.3c0.4-0.3,0.9-0.6,1.5-0.8
				c0.5-0.2,1.1-0.4,1.7-0.4c0.4,0,0.8,0.1,1.1,0.2c0.3,0.2,0.5,0.4,0.7,0.6c0.2,0.3,0.3,0.5,0.3,0.9c0.1,0.3,0.1,0.7,0.1,1
				c-2.3,0.2-4,0.7-5,1.3c-1,0.6-1.6,1.5-1.6,2.7c0,1,0.3,1.7,0.9,2.2c0.6,0.5,1.3,0.8,2.2,0.8c0.7,0,1.3-0.1,1.9-0.5
				c0.6-0.3,1.1-0.7,1.6-1.1h0.1l0.2,1.3h1.5v-6.6c0-1.3-0.3-2.4-0.9-3.2c-0.6-0.8-1.5-1.2-2.8-1.2C22,11.7,21.2,11.9,20.4,12.2"/>
		</defs>
		<use xlink:href="#SVGID_00000034068370460899237620000004515819578000956546_"  style="overflow:visible;fill:#162259;"/>
		<clipPath id="SVGID_00000049905812214212528850000013019069839512345002_">
			<use xlink:href="#SVGID_00000034068370460899237620000004515819578000956546_"  style="overflow:visible;"/>
		</clipPath>
		
			<rect x="18.2" y="11.7" style="clip-path:url(#SVGID_00000049905812214212528850000013019069839512345002_);fill:#162259;" width="8.4" height="11.2"/>
	</g>
	<g>
		<defs>
			<path id="SVGID_00000143598814823837803180000010090436835386212534_" d="M29.9,7v13.5c0,0.8,0.1,1.4,0.4,1.8
				c0.3,0.4,0.8,0.6,1.5,0.6c0.2,0,0.5,0,0.6,0c0.2,0,0.3-0.1,0.4-0.1l-0.2-1.4c-0.1,0-0.2,0-0.2,0h-0.2c-0.1,0-0.2-0.1-0.4-0.2
				c-0.1-0.1-0.2-0.3-0.2-0.6V7H29.9z"/>
		</defs>
		<use xlink:href="#SVGID_00000143598814823837803180000010090436835386212534_"  style="overflow:visible;fill:#162259;"/>
		<clipPath id="SVGID_00000163777711119337401620000003175477355374510498_">
			<use xlink:href="#SVGID_00000143598814823837803180000010090436835386212534_"  style="overflow:visible;"/>
		</clipPath>
		
			<rect x="29.9" y="7" style="clip-path:url(#SVGID_00000163777711119337401620000003175477355374510498_);fill:#162259;" width="2.9" height="15.9"/>
	</g>
	<g>
		<defs>
			<path id="SVGID_00000160153488919952581060000007532376060785264534_" d="M36.8,15.1c0.2-0.4,0.4-0.8,0.7-1
				c0.3-0.3,0.6-0.5,0.9-0.6c0.3-0.1,0.7-0.2,1.1-0.2c0.8,0,1.5,0.3,1.9,0.8c0.5,0.6,0.7,1.4,0.7,2.5h-5.7
				C36.5,15.9,36.7,15.5,36.8,15.1 M37.7,12.1c-0.6,0.3-1.1,0.6-1.5,1.1c-0.4,0.5-0.8,1.1-1.1,1.8c-0.3,0.7-0.4,1.5-0.4,2.4
				c0,0.9,0.1,1.7,0.4,2.4c0.3,0.7,0.6,1.3,1.1,1.7c0.5,0.5,1,0.8,1.6,1.1c0.6,0.3,1.3,0.4,2,0.4c0.7,0,1.4-0.1,2-0.3
				c0.6-0.2,1.1-0.5,1.6-0.8l-0.6-1.2c-0.4,0.2-0.8,0.5-1.2,0.6c-0.4,0.2-0.9,0.2-1.4,0.2c-1,0-1.9-0.3-2.5-1
				c-0.6-0.7-1-1.6-1.1-2.7h7.2c0-0.1,0-0.3,0.1-0.5c0-0.2,0-0.4,0-0.6c0-0.8-0.1-1.5-0.3-2.1c-0.2-0.6-0.5-1.1-0.8-1.6
				c-0.4-0.4-0.8-0.8-1.3-1c-0.5-0.2-1.1-0.4-1.8-0.4C38.9,11.7,38.3,11.8,37.7,12.1"/>
		</defs>
		<use xlink:href="#SVGID_00000160153488919952581060000007532376060785264534_"  style="overflow:visible;fill:#162259;"/>
		<clipPath id="SVGID_00000048468666329370786090000016411035822250745266_">
			<use xlink:href="#SVGID_00000160153488919952581060000007532376060785264534_"  style="overflow:visible;"/>
		</clipPath>
		
			<rect x="34.7" y="11.7" style="clip-path:url(#SVGID_00000048468666329370786090000016411035822250745266_);fill:#162259;" width="9.1" height="11.2"/>
	</g>
	<g>
		<defs>
			<path id="SVGID_00000157269661125071555470000005725285522833450683_" d="M47.9,12c-0.5,0.2-0.8,0.4-1.2,0.6
				c-0.3,0.3-0.6,0.6-0.7,1c-0.2,0.4-0.3,0.8-0.3,1.2c0,0.5,0.1,0.8,0.3,1.2c0.2,0.3,0.4,0.6,0.7,0.8c0.3,0.2,0.6,0.4,1,0.6
				c0.4,0.2,0.8,0.3,1.1,0.5c0.3,0.1,0.6,0.2,0.9,0.4c0.3,0.1,0.6,0.3,0.8,0.4c0.2,0.2,0.4,0.3,0.6,0.5c0.1,0.2,0.2,0.4,0.2,0.7
				c0,0.5-0.2,0.9-0.5,1.2c-0.4,0.3-0.9,0.5-1.6,0.5c-0.6,0-1.2-0.1-1.7-0.4c-0.5-0.2-1-0.5-1.4-0.9l-0.9,1.2
				c0.5,0.4,1.1,0.8,1.8,1.1c0.7,0.3,1.4,0.4,2.2,0.4c0.6,0,1.2-0.1,1.7-0.3c0.5-0.2,0.9-0.4,1.2-0.7c0.3-0.3,0.6-0.6,0.7-1
				c0.2-0.4,0.3-0.8,0.3-1.2c0-0.5-0.1-0.9-0.3-1.3c-0.2-0.4-0.5-0.6-0.8-0.9c-0.3-0.2-0.7-0.4-1-0.6c-0.4-0.2-0.8-0.3-1.2-0.5
				c-0.3-0.1-0.6-0.2-0.9-0.3c-0.3-0.1-0.5-0.2-0.8-0.4c-0.2-0.1-0.4-0.3-0.5-0.5c-0.1-0.2-0.2-0.4-0.2-0.6c0-0.4,0.2-0.8,0.5-1.1
				c0.3-0.3,0.8-0.5,1.5-0.5c0.5,0,0.9,0.1,1.3,0.3c0.4,0.2,0.8,0.4,1.1,0.7l0.9-1.1c-0.4-0.3-0.9-0.6-1.5-0.9
				c-0.6-0.2-1.2-0.4-1.9-0.4C48.9,11.7,48.4,11.8,47.9,12"/>
		</defs>
		<use xlink:href="#SVGID_00000157269661125071555470000005725285522833450683_"  style="overflow:visible;fill:#162259;"/>
		<clipPath id="SVGID_00000013157072916472756630000011792031497106873747_">
			<use xlink:href="#SVGID_00000157269661125071555470000005725285522833450683_"  style="overflow:visible;"/>
		</clipPath>
		
			<rect x="45.2" y="11.7" style="clip-path:url(#SVGID_00000013157072916472756630000011792031497106873747_);fill:#162259;" width="7.9" height="11.2"/>
	</g>
	<g>
		<defs>
			<path id="SVGID_00000068643335006571338860000012427685564955508881_" d="M62.4,21.3c-0.3-0.1-0.6-0.3-0.9-0.5
				c-0.3-0.2-0.5-0.5-0.6-0.8c-0.1-0.3-0.2-0.7-0.2-1.1c0-0.6,0.2-1.1,0.5-1.5c0.3-0.4,0.8-0.9,1.3-1.3c0.5,0.8,1.1,1.6,1.7,2.3
				c0.7,0.7,1.3,1.4,2,2c-0.4,0.4-0.9,0.7-1.3,0.9c-0.5,0.2-0.9,0.3-1.4,0.3C63.1,21.5,62.8,21.4,62.4,21.3 M62.6,12.6
				c-0.1-0.4-0.2-0.8-0.2-1.2c0-0.6,0.2-1.1,0.5-1.5c0.3-0.4,0.8-0.6,1.3-0.6c0.5,0,0.8,0.2,1,0.5c0.2,0.3,0.3,0.7,0.3,1.1
				c0,0.3-0.1,0.6-0.2,0.9c-0.1,0.3-0.3,0.5-0.5,0.8c-0.2,0.2-0.5,0.5-0.8,0.7c-0.3,0.2-0.6,0.5-0.9,0.7
				C62.9,13.5,62.7,13,62.6,12.6 M62.8,8.2c-0.4,0.2-0.8,0.4-1.1,0.7c-0.3,0.3-0.5,0.7-0.7,1.1c-0.2,0.4-0.2,0.9-0.2,1.3
				c0,0.5,0.1,1.1,0.3,1.6c0.2,0.6,0.4,1.1,0.7,1.7c-0.4,0.2-0.7,0.5-1.1,0.8c-0.3,0.3-0.6,0.6-0.9,0.9c-0.3,0.3-0.5,0.7-0.6,1.1
				c-0.2,0.4-0.2,0.8-0.2,1.3c0,0.6,0.1,1.1,0.3,1.6c0.2,0.5,0.5,0.9,0.9,1.3c0.4,0.4,0.9,0.6,1.4,0.8c0.5,0.2,1.1,0.3,1.8,0.3
				c0.9,0,1.6-0.1,2.3-0.5c0.7-0.3,1.3-0.7,1.9-1.2c0.6,0.4,1.2,0.8,1.7,1c0.6,0.3,1.1,0.5,1.6,0.6l0.5-1.5
				c-0.4-0.1-0.8-0.3-1.3-0.5c-0.5-0.2-0.9-0.5-1.4-0.9c0.6-0.8,1.1-1.6,1.5-2.4c0.4-0.9,0.8-1.8,1.1-2.7h-1.7
				c-0.2,0.8-0.5,1.6-0.8,2.3c-0.3,0.7-0.7,1.4-1.2,2c-0.7-0.6-1.4-1.2-2-1.9c-0.6-0.7-1.2-1.4-1.7-2.2c0.4-0.3,0.8-0.6,1.2-0.9
				c0.4-0.3,0.7-0.6,1-1c0.3-0.3,0.6-0.7,0.7-1.1c0.2-0.4,0.3-0.8,0.3-1.3c0-0.9-0.2-1.5-0.7-2.1C65.8,8.2,65.1,8,64.2,8
				C63.7,8,63.2,8.1,62.8,8.2"/>
		</defs>
		<use xlink:href="#SVGID_00000068643335006571338860000012427685564955508881_"  style="overflow:visible;fill:#162259;"/>
		<clipPath id="SVGID_00000082351633575070501240000001144726373253554110_">
			<use xlink:href="#SVGID_00000068643335006571338860000012427685564955508881_"  style="overflow:visible;"/>
		</clipPath>
		
			<rect x="58.9" y="8" style="clip-path:url(#SVGID_00000082351633575070501240000001144726373253554110_);fill:#162259;" width="12.4" height="15"/>
	</g>
	<g>
		<defs>
			<path id="SVGID_00000153696123698167950510000008907004377401369228_" d="M87.8,8.2l-2.7,7.7c-0.2,0.5-0.3,1-0.5,1.5
				c-0.2,0.5-0.3,1-0.5,1.5H84c-0.2-0.5-0.3-1-0.5-1.5c-0.2-0.5-0.3-1-0.5-1.5l-2.8-7.7H78v14.4h1.6v-7.9c0-0.6,0-1.4-0.1-2.1
				c-0.1-0.8-0.1-1.5-0.1-2.1h0.1l1.1,3.3l2.7,7.5h1.2l2.7-7.5l1.1-3.3h0.1c0,0.6-0.1,1.4-0.2,2.1c-0.1,0.8-0.1,1.5-0.1,2.1v7.9h1.7
				V8.2H87.8z"/>
		</defs>
		<use xlink:href="#SVGID_00000153696123698167950510000008907004377401369228_"  style="overflow:visible;fill:#162259;"/>
		<clipPath id="SVGID_00000049935927508989253530000012445665083925067709_">
			<use xlink:href="#SVGID_00000153696123698167950510000008907004377401369228_"  style="overflow:visible;"/>
		</clipPath>
		
			<rect x="78" y="8.2" style="clip-path:url(#SVGID_00000049935927508989253530000012445665083925067709_);fill:#162259;" width="12" height="14.4"/>
	</g>
	<g>
		<defs>
			<path id="SVGID_00000124162506758927074260000016352649462606079658_" d="M95.5,21.1c-0.4-0.3-0.6-0.7-0.6-1.3
				c0-0.3,0.1-0.6,0.3-0.9c0.2-0.3,0.4-0.5,0.8-0.8c0.4-0.2,0.9-0.4,1.5-0.6c0.6-0.2,1.4-0.3,2.3-0.4v3c-0.5,0.5-1,0.8-1.5,1.1
				c-0.5,0.2-0.9,0.4-1.5,0.4C96.3,21.5,95.9,21.4,95.5,21.1 M95.5,12.2c-0.7,0.3-1.3,0.6-1.8,0.9l0.7,1.3c0.4-0.3,0.9-0.6,1.5-0.8
				c0.5-0.2,1.1-0.4,1.7-0.4c0.4,0,0.8,0.1,1.1,0.2s0.5,0.4,0.7,0.6c0.2,0.3,0.3,0.5,0.3,0.9c0.1,0.3,0.1,0.7,0.1,1
				c-2.3,0.2-4,0.7-5,1.3c-1,0.6-1.6,1.5-1.6,2.7c0,1,0.3,1.7,0.9,2.2c0.6,0.5,1.3,0.8,2.2,0.8c0.7,0,1.3-0.1,1.9-0.5
				c0.6-0.3,1.1-0.7,1.7-1.1h0.1l0.2,1.3h1.5v-6.6c0-1.3-0.3-2.4-0.9-3.2c-0.6-0.8-1.5-1.2-2.8-1.2C97,11.7,96.2,11.9,95.5,12.2"/>
		</defs>
		<use xlink:href="#SVGID_00000124162506758927074260000016352649462606079658_"  style="overflow:visible;fill:#162259;"/>
		<clipPath id="SVGID_00000152987151624306860950000017995772353580516743_">
			<use xlink:href="#SVGID_00000124162506758927074260000016352649462606079658_"  style="overflow:visible;"/>
		</clipPath>
		
			<rect x="93.2" y="11.7" style="clip-path:url(#SVGID_00000152987151624306860950000017995772353580516743_);fill:#162259;" width="8.4" height="11.2"/>
	</g>
	<g>
		<defs>
			<path id="SVGID_00000057129887929008183440000011025724258563431837_" d="M108,12.3c-0.5,0.4-1,0.9-1.3,1.6h-0.1l-0.2-1.9h-1.5
				v10.7h1.8v-6.9c0.4-0.9,0.8-1.5,1.3-1.9c0.5-0.4,1-0.5,1.4-0.5c0.2,0,0.4,0,0.6,0c0.1,0,0.3,0.1,0.5,0.1l0.4-1.6
				c-0.3-0.1-0.7-0.2-1.1-0.2C109.1,11.7,108.5,11.9,108,12.3"/>
		</defs>
		<use xlink:href="#SVGID_00000057129887929008183440000011025724258563431837_"  style="overflow:visible;fill:#162259;"/>
		<clipPath id="SVGID_00000134948071967172939470000010498666478707206047_">
			<use xlink:href="#SVGID_00000057129887929008183440000011025724258563431837_"  style="overflow:visible;"/>
		</clipPath>
		
			<rect x="104.9" y="11.7" style="clip-path:url(#SVGID_00000134948071967172939470000010498666478707206047_);fill:#162259;" width="5.9" height="11"/>
	</g>
	<g>
		<defs>
			<polygon id="SVGID_00000037656840149306668540000006737360097953460922_" points="112.6,22.7 112.6,7 114.3,7 114.3,17.6 
				114.4,17.6 119,12 121,12 117.4,16.3 121.4,22.7 119.5,22.7 116.3,17.5 114.3,19.9 114.3,22.7 			"/>
		</defs>
		<use xlink:href="#SVGID_00000037656840149306668540000006737360097953460922_"  style="overflow:visible;fill:#162259;"/>
		<clipPath id="SVGID_00000183967429505709883470000004525160405409887391_">
			<use xlink:href="#SVGID_00000037656840149306668540000006737360097953460922_"  style="overflow:visible;"/>
		</clipPath>
		
			<rect x="112.6" y="7" style="clip-path:url(#SVGID_00000183967429505709883470000004525160405409887391_);fill:#162259;" width="8.9" height="15.7"/>
	</g>
	<g>
		<defs>
			<path id="SVGID_00000181083434730134244210000016956769982021089465_" d="M124.8,15.1c0.2-0.4,0.4-0.8,0.7-1
				c0.3-0.3,0.6-0.5,0.9-0.6c0.3-0.1,0.7-0.2,1.1-0.2c0.8,0,1.5,0.3,1.9,0.8c0.5,0.6,0.7,1.4,0.7,2.5h-5.7
				C124.5,15.9,124.6,15.5,124.8,15.1 M125.7,12.1c-0.6,0.3-1.1,0.6-1.5,1.1c-0.4,0.5-0.8,1.1-1.1,1.8c-0.3,0.7-0.4,1.5-0.4,2.4
				c0,0.9,0.1,1.7,0.4,2.4c0.3,0.7,0.6,1.3,1.1,1.7c0.5,0.5,1,0.8,1.6,1.1c0.6,0.3,1.3,0.4,2,0.4c0.7,0,1.4-0.1,2-0.3
				c0.6-0.2,1.1-0.5,1.6-0.8l-0.6-1.2c-0.4,0.2-0.8,0.5-1.2,0.6c-0.4,0.2-0.9,0.2-1.4,0.2c-1,0-1.9-0.3-2.5-1
				c-0.6-0.7-1-1.6-1.1-2.7h7.2c0-0.1,0-0.3,0.1-0.5c0-0.2,0-0.4,0-0.6c0-0.8-0.1-1.5-0.3-2.1c-0.2-0.6-0.5-1.1-0.8-1.6
				c-0.4-0.4-0.8-0.8-1.3-1c-0.5-0.2-1.1-0.4-1.8-0.4C126.8,11.7,126.2,11.8,125.7,12.1"/>
		</defs>
		<use xlink:href="#SVGID_00000181083434730134244210000016956769982021089465_"  style="overflow:visible;fill:#162259;"/>
		<clipPath id="SVGID_00000096772840900658725650000015017631373901943737_">
			<use xlink:href="#SVGID_00000181083434730134244210000016956769982021089465_"  style="overflow:visible;"/>
		</clipPath>
		
			<rect x="122.7" y="11.7" style="clip-path:url(#SVGID_00000096772840900658725650000015017631373901943737_);fill:#162259;" width="9.1" height="11.2"/>
	</g>
	<g>
		<defs>
			<path id="SVGID_00000149361215099801072710000013103307431090023323_" d="M135,9l-0.2,3l-1.7,0.1v1.4h1.6v5.9
				c0,0.5,0.1,1,0.2,1.5c0.1,0.4,0.3,0.8,0.5,1.1c0.2,0.3,0.6,0.6,0.9,0.7c0.4,0.2,0.9,0.3,1.4,0.3c0.3,0,0.7,0,1-0.1
				c0.3-0.1,0.7-0.2,1-0.3l-0.4-1.4c-0.2,0.1-0.4,0.1-0.6,0.2c-0.2,0.1-0.4,0.1-0.6,0.1c-0.6,0-1-0.2-1.3-0.5
				c-0.2-0.4-0.4-0.9-0.4-1.5v-5.9h2.9V12h-2.9V9H135z"/>
		</defs>
		<use xlink:href="#SVGID_00000149361215099801072710000013103307431090023323_"  style="overflow:visible;fill:#162259;"/>
		<clipPath id="SVGID_00000109002216815192224460000018022469789217203101_">
			<use xlink:href="#SVGID_00000149361215099801072710000013103307431090023323_"  style="overflow:visible;"/>
		</clipPath>
		
			<rect x="133.1" y="9" style="clip-path:url(#SVGID_00000109002216815192224460000018022469789217203101_);fill:#162259;" width="6.6" height="13.9"/>
	</g>
	<g>
		<defs>
			<path id="SVGID_00000146466746333829036740000007636031552436601996_" d="M141.8,22.7h1.8V12h-1.8V22.7z M141.8,7.8
				c-0.2,0.2-0.4,0.5-0.4,0.8c0,0.3,0.1,0.6,0.4,0.8c0.2,0.2,0.5,0.3,0.9,0.3c0.4,0,0.6-0.1,0.9-0.3c0.2-0.2,0.4-0.5,0.4-0.8
				c0-0.4-0.1-0.6-0.4-0.8c-0.2-0.2-0.5-0.3-0.9-0.3C142.4,7.5,142.1,7.6,141.8,7.8"/>
		</defs>
		<use xlink:href="#SVGID_00000146466746333829036740000007636031552436601996_"  style="overflow:visible;fill:#162259;"/>
		<clipPath id="SVGID_00000177452825875272171470000012808318309608441494_">
			<use xlink:href="#SVGID_00000146466746333829036740000007636031552436601996_"  style="overflow:visible;"/>
		</clipPath>
		
			<rect x="141.5" y="7.5" style="clip-path:url(#SVGID_00000177452825875272171470000012808318309608441494_);fill:#162259;" width="2.5" height="15.2"/>
	</g>
	<g>
		<defs>
			<path id="SVGID_00000151536753018673226730000007086881489203051440_" d="M150.5,12.2c-0.6,0.3-1.1,0.8-1.6,1.3h-0.1l-0.2-1.5
				h-1.5v10.7h1.8v-7.7c0.5-0.5,1-1,1.5-1.2c0.4-0.3,0.9-0.4,1.5-0.4c0.7,0,1.2,0.2,1.5,0.7c0.3,0.4,0.5,1.2,0.5,2.2v6.5h1.8v-6.8
				c0-1.4-0.3-2.4-0.8-3.1c-0.5-0.7-1.3-1.1-2.5-1.1C151.8,11.7,151.1,11.9,150.5,12.2"/>
		</defs>
		<use xlink:href="#SVGID_00000151536753018673226730000007086881489203051440_"  style="overflow:visible;fill:#162259;"/>
		<clipPath id="SVGID_00000182488582064805510660000011578726264722356927_">
			<use xlink:href="#SVGID_00000151536753018673226730000007086881489203051440_"  style="overflow:visible;"/>
		</clipPath>
		
			<rect x="147.2" y="11.7" style="clip-path:url(#SVGID_00000182488582064805510660000011578726264722356927_);fill:#162259;" width="8.6" height="11"/>
	</g>
	<g>
		<defs>
			<path id="SVGID_00000117635400162297288800000014297164683519885983_" d="M160.8,25.8c-0.6-0.3-0.8-0.8-0.8-1.4
				c0-0.3,0.1-0.6,0.3-0.9c0.2-0.3,0.5-0.6,0.8-0.9c0.2,0.1,0.5,0.1,0.7,0.1c0.2,0,0.5,0,0.7,0h1.8c0.7,0,1.2,0.1,1.6,0.3
				c0.4,0.2,0.5,0.5,0.5,1c0,0.3-0.1,0.5-0.2,0.8c-0.2,0.3-0.4,0.5-0.7,0.7c-0.3,0.2-0.7,0.4-1.1,0.5c-0.4,0.1-0.9,0.2-1.4,0.2
				C162.1,26.3,161.4,26.2,160.8,25.8 M162,17.9c-0.3-0.1-0.5-0.3-0.7-0.5c-0.2-0.2-0.4-0.5-0.5-0.8c-0.1-0.3-0.2-0.7-0.2-1.1
				c0-0.8,0.2-1.4,0.7-1.8c0.4-0.4,1-0.6,1.6-0.6s1.2,0.2,1.6,0.6c0.4,0.4,0.7,1,0.7,1.8c0,0.4-0.1,0.8-0.2,1.1
				c-0.1,0.3-0.3,0.6-0.5,0.8c-0.2,0.2-0.5,0.4-0.7,0.5c-0.3,0.1-0.6,0.2-0.9,0.2C162.5,18.1,162.3,18,162,17.9 M161.3,12
				c-0.5,0.2-0.9,0.4-1.3,0.8c-0.4,0.3-0.7,0.7-0.9,1.2c-0.2,0.5-0.3,1-0.3,1.6c0,0.6,0.1,1.2,0.4,1.7c0.3,0.5,0.6,0.9,1,1.2v0.1
				c-0.3,0.2-0.5,0.5-0.8,0.8c-0.2,0.3-0.4,0.7-0.4,1.2c0,0.4,0.1,0.8,0.3,1.1c0.2,0.3,0.4,0.5,0.7,0.7v0.1
				c-0.5,0.3-0.9,0.7-1.1,1.1c-0.3,0.4-0.4,0.8-0.4,1.3c0,0.5,0.1,0.9,0.3,1.2c0.2,0.4,0.5,0.7,0.9,0.9c0.4,0.2,0.9,0.4,1.4,0.6
				c0.5,0.1,1.1,0.2,1.8,0.2c0.8,0,1.6-0.1,2.3-0.3c0.7-0.2,1.2-0.5,1.7-0.8c0.5-0.3,0.8-0.7,1.1-1.2c0.2-0.4,0.4-0.9,0.4-1.4
				c0-0.9-0.3-1.5-0.9-1.9c-0.6-0.4-1.6-0.6-2.8-0.6h-2.1c-0.7,0-1.2-0.1-1.5-0.3c-0.3-0.2-0.4-0.5-0.4-0.8c0-0.3,0.1-0.5,0.2-0.7
				c0.1-0.2,0.3-0.4,0.5-0.5c0.2,0.1,0.5,0.2,0.8,0.3c0.3,0.1,0.6,0.1,0.8,0.1c0.5,0,1.1-0.1,1.5-0.3c0.5-0.2,0.9-0.4,1.2-0.7
				c0.4-0.3,0.6-0.7,0.8-1.2c0.2-0.5,0.3-1,0.3-1.6c0-0.5-0.1-0.9-0.3-1.3c-0.2-0.4-0.4-0.7-0.6-0.9h2.2V12h-3.7
				c-0.2-0.1-0.4-0.1-0.7-0.2c-0.3-0.1-0.5-0.1-0.8-0.1C162.3,11.7,161.8,11.8,161.3,12"/>
		</defs>
		<use xlink:href="#SVGID_00000117635400162297288800000014297164683519885983_"  style="overflow:visible;fill:#162259;"/>
		<clipPath id="SVGID_00000147195930925509673910000005957694257364972210_">
			<use xlink:href="#SVGID_00000117635400162297288800000014297164683519885983_"  style="overflow:visible;"/>
		</clipPath>
		
			<rect x="158.4" y="11.7" style="clip-path:url(#SVGID_00000147195930925509673910000005957694257364972210_);fill:#162259;" width="9.8" height="15.9"/>
	</g>
	<g>
		<defs>
			<polygon id="SVGID_00000114754330121279694880000016946012730879505058_" points="174.9,22.7 174.9,8.2 183.2,8.2 183.2,9.8 
				176.7,9.8 176.7,14.7 182.2,14.7 182.2,16.2 176.7,16.2 176.7,22.7 			"/>
		</defs>
		<use xlink:href="#SVGID_00000114754330121279694880000016946012730879505058_"  style="overflow:visible;fill:#162259;"/>
		<clipPath id="SVGID_00000059992554101974193190000009010560258190898359_">
			<use xlink:href="#SVGID_00000114754330121279694880000016946012730879505058_"  style="overflow:visible;"/>
		</clipPath>
		
			<rect x="174.9" y="8.2" style="clip-path:url(#SVGID_00000059992554101974193190000009010560258190898359_);fill:#162259;" width="8.3" height="14.4"/>
	</g>
	<g>
		<defs>
			<path id="SVGID_00000006692509216226324080000015599752130536808882_" d="M192.2,12v7.6c-0.5,0.6-1,1.1-1.4,1.4
				c-0.4,0.3-0.9,0.4-1.5,0.4c-0.7,0-1.2-0.2-1.5-0.7c-0.3-0.4-0.5-1.2-0.5-2.2V12h-1.8v6.8c0,1.4,0.3,2.4,0.8,3.1
				c0.5,0.7,1.4,1.1,2.5,1.1c0.7,0,1.4-0.2,1.9-0.5c0.5-0.4,1.1-0.8,1.6-1.4h0.1l0.2,1.7h1.5V12H192.2z"/>
		</defs>
		<use xlink:href="#SVGID_00000006692509216226324080000015599752130536808882_"  style="overflow:visible;fill:#162259;"/>
		<clipPath id="SVGID_00000102536719844948762400000002849589955363782541_">
			<use xlink:href="#SVGID_00000006692509216226324080000015599752130536808882_"  style="overflow:visible;"/>
		</clipPath>
		
			<rect x="185.4" y="12" style="clip-path:url(#SVGID_00000102536719844948762400000002849589955363782541_);fill:#162259;" width="8.5" height="11"/>
	</g>
	<g>
		<defs>
			<path id="SVGID_00000170959698868969799870000017514003114514331798_" d="M200.9,12.2c-0.6,0.3-1.1,0.8-1.6,1.3h-0.1l-0.2-1.5
				h-1.5v10.7h1.8v-7.7c0.5-0.5,1-1,1.5-1.2c0.4-0.3,0.9-0.4,1.5-0.4c0.7,0,1.2,0.2,1.5,0.7c0.3,0.4,0.5,1.2,0.5,2.2v6.5h1.8v-6.8
				c0-1.4-0.3-2.4-0.8-3.1c-0.5-0.7-1.3-1.1-2.5-1.1C202.1,11.7,201.5,11.9,200.9,12.2"/>
		</defs>
		<use xlink:href="#SVGID_00000170959698868969799870000017514003114514331798_"  style="overflow:visible;fill:#162259;"/>
		<clipPath id="SVGID_00000023986455529200434610000006170428252935382940_">
			<use xlink:href="#SVGID_00000170959698868969799870000017514003114514331798_"  style="overflow:visible;"/>
		</clipPath>
		
			<rect x="197.6" y="11.7" style="clip-path:url(#SVGID_00000023986455529200434610000006170428252935382940_);fill:#162259;" width="8.6" height="11"/>
	</g>
	<g>
		<defs>
			<path id="SVGID_00000063623558958643306620000012920449398422700165_" d="M212.9,12.2c-0.6,0.3-1.1,0.8-1.6,1.3h-0.1l-0.2-1.5
				h-1.5v10.7h1.8v-7.7c0.5-0.5,1-1,1.5-1.2c0.4-0.3,0.9-0.4,1.5-0.4c0.7,0,1.2,0.2,1.5,0.7c0.3,0.4,0.5,1.2,0.5,2.2v6.5h1.8v-6.8
				c0-1.4-0.3-2.4-0.8-3.1c-0.5-0.7-1.3-1.1-2.5-1.1C214.2,11.7,213.5,11.9,212.9,12.2"/>
		</defs>
		<use xlink:href="#SVGID_00000063623558958643306620000012920449398422700165_"  style="overflow:visible;fill:#162259;"/>
		<clipPath id="SVGID_00000168112057297358332070000001990096142739434918_">
			<use xlink:href="#SVGID_00000063623558958643306620000012920449398422700165_"  style="overflow:visible;"/>
		</clipPath>
		
			<rect x="209.6" y="11.7" style="clip-path:url(#SVGID_00000168112057297358332070000001990096142739434918_);fill:#162259;" width="8.6" height="11"/>
	</g>
	<g>
		<defs>
			<path id="SVGID_00000059308532758333397470000008498267364103974291_" d="M223,15.1c0.2-0.4,0.4-0.8,0.7-1
				c0.3-0.3,0.6-0.5,0.9-0.6c0.3-0.1,0.7-0.2,1.1-0.2c0.8,0,1.5,0.3,1.9,0.8c0.5,0.6,0.7,1.4,0.7,2.5h-5.7
				C222.7,15.9,222.8,15.5,223,15.1 M223.9,12.1c-0.6,0.3-1.1,0.6-1.5,1.1c-0.4,0.5-0.8,1.1-1.1,1.8c-0.3,0.7-0.4,1.5-0.4,2.4
				c0,0.9,0.1,1.7,0.4,2.4c0.3,0.7,0.6,1.3,1.1,1.7c0.5,0.5,1,0.8,1.6,1.1c0.6,0.3,1.3,0.4,2,0.4c0.7,0,1.4-0.1,2-0.3
				c0.6-0.2,1.1-0.5,1.6-0.8l-0.6-1.2c-0.4,0.2-0.8,0.5-1.2,0.6c-0.4,0.2-0.9,0.2-1.4,0.2c-1,0-1.9-0.3-2.5-1
				c-0.6-0.7-1-1.6-1.1-2.7h7.2c0-0.1,0-0.3,0.1-0.5c0-0.2,0-0.4,0-0.6c0-0.8-0.1-1.5-0.3-2.1c-0.2-0.6-0.5-1.1-0.8-1.6
				c-0.4-0.4-0.8-0.8-1.3-1c-0.5-0.2-1.1-0.4-1.8-0.4C225,11.7,224.4,11.8,223.9,12.1"/>
		</defs>
		<use xlink:href="#SVGID_00000059308532758333397470000008498267364103974291_"  style="overflow:visible;fill:#162259;"/>
		<clipPath id="SVGID_00000119102669267503939320000000158591420466282396_">
			<use xlink:href="#SVGID_00000059308532758333397470000008498267364103974291_"  style="overflow:visible;"/>
		</clipPath>
		
			<rect x="220.8" y="11.7" style="clip-path:url(#SVGID_00000119102669267503939320000000158591420466282396_);fill:#162259;" width="9.1" height="11.2"/>
	</g>
	<g>
		<defs>
			<path id="SVGID_00000111186727112577774220000011140525878601714073_" d="M232.5,7v13.5c0,0.8,0.1,1.4,0.4,1.8
				c0.3,0.4,0.8,0.6,1.5,0.6c0.2,0,0.5,0,0.6,0c0.2,0,0.3-0.1,0.4-0.1l-0.2-1.4c-0.1,0-0.2,0-0.2,0h-0.2c-0.1,0-0.2-0.1-0.4-0.2
				c-0.1-0.1-0.2-0.3-0.2-0.6V7H232.5z"/>
		</defs>
		<use xlink:href="#SVGID_00000111186727112577774220000011140525878601714073_"  style="overflow:visible;fill:#162259;"/>
		<clipPath id="SVGID_00000026131913007235747290000017617258251710047928_">
			<use xlink:href="#SVGID_00000111186727112577774220000011140525878601714073_"  style="overflow:visible;"/>
		</clipPath>
		
			<rect x="232.5" y="7" style="clip-path:url(#SVGID_00000026131913007235747290000017617258251710047928_);fill:#162259;" width="2.9" height="15.9"/>
	</g>
</g>
</svg>
