<?xml version="1.0" encoding="UTF-8"?>
<svg xmlns="http://www.w3.org/2000/svg" viewBox="0 0 943.8 728.44">
  <g id="a" data-name="Blöcke">
    <polygon points="238.07 235.42 222.81 235.42 .97 235.42 .97 314.79 281.31 314.79 285.52 314.79 430.42 314.79 430.42 235.42 238.07 235.42" style="fill: #00adea;"/>
    <polygon points="285.52 320.46 191.85 320.46 .97 320.46 .97 399.83 230.32 399.83 316.03 399.83 321.04 399.83 356.14 399.83 430.42 399.83 430.42 341.14 430.42 325.33 430.42 320.46 285.52 320.46" style="fill: #2a7fc2;"/>
    <polygon points="356.13 405.5 321.04 405.5 316.03 405.5 245.89 405.5 .97 405.5 .97 484.87 216.65 484.87 232.16 484.87 337.81 484.87 391.63 484.87 430.42 484.87 430.42 405.5 356.13 405.5" style="fill: #0f4988;"/>
    <polygon points="391.63 490.54 313.6 490.54 232.16 490.54 216.65 490.54 .97 490.54 .97 569.91 189.8 569.91 212.52 569.91 228.53 569.91 351.89 569.91 430.42 569.91 430.42 490.54 391.63 490.54" style="fill: #162259;"/>
    <polygon points="410.75 150.38 405.65 150.38 263.24 150.38 256.24 150.38 .97 150.38 .97 229.75 222.81 229.75 238.07 229.75 430.42 229.75 430.42 150.38 410.75 150.38" style="fill: #45b5cf;"/>
    <path d="M476.56,339.78s-.09,.03-.15,.07c.05-.02,.1-.05,.15-.07Z" style="fill: #0f4988;"/>
  </g>
  <g id="b" data-name="Text">
    <g>
      <path d="M68.39,196.6v-14.43h8.32v1.54h-6.49v4.53h5.48v1.56h-5.48v5.24h6.71v1.56h-8.54Z" style="fill: #fff;"/>
      <path d="M79.81,196.6v-10.69h1.5l.15,1.94h.07c.37-.67,.81-1.21,1.33-1.61,.52-.4,1.09-.59,1.71-.59,.43,0,.81,.07,1.14,.22l-.35,1.58c-.18-.06-.34-.1-.48-.13s-.33-.04-.55-.04c-.45,0-.93,.18-1.42,.55-.49,.37-.92,1-1.29,1.91v6.86h-1.8Z" style="fill: #fff;"/>
      <path d="M90.24,196.87c-.76,0-1.49-.14-2.18-.42s-1.29-.63-1.8-1.06l.9-1.21c.47,.38,.95,.69,1.44,.92,.49,.24,1.06,.35,1.71,.35,.7,0,1.23-.16,1.58-.48s.53-.72,.53-1.19c0-.28-.07-.52-.22-.73-.15-.21-.33-.38-.56-.54-.23-.15-.49-.29-.78-.41-.29-.12-.59-.23-.88-.35-.38-.13-.76-.28-1.14-.45-.38-.17-.72-.37-1.02-.62-.3-.24-.55-.52-.74-.85-.19-.32-.29-.71-.29-1.17,0-.43,.08-.83,.25-1.2,.17-.37,.41-.7,.73-.97,.31-.27,.7-.48,1.15-.64,.45-.15,.97-.23,1.54-.23,.67,0,1.29,.12,1.86,.35,.56,.23,1.05,.52,1.46,.86l-.86,1.14c-.37-.28-.75-.51-1.14-.68s-.83-.26-1.3-.26c-.67,0-1.17,.15-1.48,.46s-.47,.67-.47,1.08c0,.25,.07,.47,.2,.65,.13,.18,.31,.34,.53,.48,.22,.14,.47,.26,.76,.37,.29,.11,.58,.22,.89,.34,.38,.15,.77,.3,1.16,.46,.39,.16,.74,.36,1.04,.61s.56,.54,.76,.89c.2,.35,.3,.78,.3,1.28,0,.44-.08,.85-.25,1.23-.17,.38-.42,.72-.75,1.01-.33,.29-.74,.52-1.23,.69-.49,.17-1.05,.25-1.68,.25Z" style="fill: #fff;"/>
      <path d="M100.03,196.87c-.57,0-1.05-.09-1.44-.26s-.7-.42-.95-.73c-.24-.31-.41-.68-.52-1.12-.1-.44-.15-.92-.15-1.45v-5.92h-1.58v-1.36l1.67-.11,.22-2.99h1.52v2.99h2.88v1.47h-2.88v5.94c0,.66,.12,1.17,.36,1.53,.24,.36,.67,.54,1.29,.54,.19,0,.4-.03,.62-.09,.22-.06,.42-.12,.59-.2l.35,1.36c-.29,.1-.61,.19-.96,.27-.34,.08-.69,.12-1.02,.12Z" style="fill: #fff;"/>
      <path d="M107.7,201.53c-.66,0-1.26-.06-1.8-.19-.54-.12-1.01-.31-1.4-.56-.39-.25-.69-.55-.9-.9-.21-.35-.32-.76-.32-1.23s.14-.89,.42-1.3c.28-.41,.66-.78,1.14-1.12v-.09c-.26-.16-.49-.38-.67-.67s-.27-.64-.27-1.07c0-.45,.12-.85,.37-1.19,.25-.34,.51-.6,.79-.79v-.09c-.35-.29-.67-.69-.96-1.18-.29-.49-.43-1.06-.43-1.71,0-.59,.11-1.11,.32-1.58,.21-.47,.5-.87,.87-1.2,.37-.33,.8-.58,1.29-.76,.49-.18,1.01-.26,1.55-.26,.29,0,.57,.03,.82,.08s.49,.11,.69,.19h3.72v1.39h-2.2c.25,.25,.46,.56,.63,.95,.17,.38,.25,.8,.25,1.25,0,.57-.1,1.09-.31,1.55-.21,.46-.48,.85-.84,1.17s-.77,.56-1.24,.74c-.48,.18-.99,.26-1.53,.26-.26,0-.54-.03-.81-.1-.28-.07-.54-.16-.79-.27-.19,.16-.35,.34-.48,.54-.13,.2-.2,.44-.2,.74,0,.34,.13,.62,.4,.84,.26,.22,.76,.33,1.5,.33h2.07c1.25,0,2.18,.2,2.81,.61,.62,.4,.94,1.05,.94,1.95,0,.5-.12,.97-.37,1.42-.25,.45-.61,.84-1.08,1.18-.47,.34-1.04,.6-1.71,.8-.67,.2-1.42,.3-2.25,.3Zm.26-1.25c.51,0,.98-.06,1.4-.19,.42-.12,.77-.29,1.07-.48,.29-.2,.52-.43,.68-.69,.16-.26,.24-.54,.24-.81,0-.5-.18-.84-.55-1.03-.37-.19-.9-.29-1.61-.29h-1.85c-.21,0-.43-.01-.67-.03-.24-.02-.48-.07-.72-.14-.38,.28-.66,.57-.84,.88-.18,.31-.26,.62-.26,.92,0,.57,.27,1.03,.82,1.36,.55,.34,1.31,.51,2.28,.51Zm-.26-8.27c.31,0,.6-.06,.87-.18,.27-.12,.51-.29,.73-.51,.21-.22,.38-.49,.5-.8,.12-.32,.18-.67,.18-1.07,0-.79-.22-1.4-.66-1.84s-.98-.65-1.61-.65-1.17,.22-1.61,.65-.66,1.04-.66,1.84c0,.4,.06,.75,.18,1.07,.12,.32,.28,.58,.5,.8,.21,.22,.45,.39,.73,.51,.27,.12,.56,.18,.87,.18Z" style="fill: #fff;"/>
      <path d="M119.52,196.87c-.72,0-1.39-.13-2.01-.38-.62-.26-1.17-.62-1.63-1.1s-.83-1.06-1.09-1.75c-.26-.69-.4-1.47-.4-2.35s.14-1.67,.41-2.37c.27-.7,.63-1.29,1.08-1.77,.45-.48,.96-.85,1.53-1.11,.57-.26,1.17-.38,1.78-.38,.67,0,1.28,.12,1.81,.35,.54,.23,.98,.57,1.34,1.01,.36,.44,.63,.97,.83,1.58,.19,.62,.29,1.31,.29,2.07,0,.19,0,.38-.01,.56s-.03,.34-.06,.47h-7.22c.07,1.14,.43,2.05,1.07,2.72,.64,.67,1.47,1,2.5,1,.51,0,.99-.08,1.42-.23s.85-.36,1.24-.61l.64,1.19c-.47,.29-.99,.55-1.56,.77-.57,.22-1.23,.33-1.96,.33Zm-3.37-6.47h5.72c0-1.08-.23-1.91-.69-2.47-.46-.56-1.11-.85-1.95-.85-.38,0-.74,.07-1.09,.22-.34,.15-.66,.36-.94,.65-.28,.29-.51,.63-.69,1.04-.18,.41-.3,.88-.36,1.41Z" style="fill: #fff;"/>
      <path d="M128.89,196.87c-.76,0-1.49-.14-2.18-.42s-1.29-.63-1.8-1.06l.9-1.21c.47,.38,.95,.69,1.44,.92,.49,.24,1.06,.35,1.71,.35,.7,0,1.23-.16,1.58-.48s.53-.72,.53-1.19c0-.28-.07-.52-.22-.73-.15-.21-.33-.38-.56-.54-.23-.15-.49-.29-.78-.41-.29-.12-.59-.23-.88-.35-.38-.13-.76-.28-1.14-.45-.38-.17-.72-.37-1.02-.62-.3-.24-.55-.52-.74-.85-.19-.32-.29-.71-.29-1.17,0-.43,.08-.83,.25-1.2,.17-.37,.41-.7,.73-.97,.31-.27,.7-.48,1.15-.64,.45-.15,.97-.23,1.54-.23,.67,0,1.29,.12,1.86,.35,.56,.23,1.05,.52,1.46,.86l-.86,1.14c-.37-.28-.75-.51-1.14-.68s-.83-.26-1.3-.26c-.67,0-1.17,.15-1.48,.46s-.47,.67-.47,1.08c0,.25,.07,.47,.2,.65,.13,.18,.31,.34,.53,.48,.22,.14,.47,.26,.76,.37,.29,.11,.58,.22,.89,.34,.38,.15,.77,.3,1.16,.46,.39,.16,.74,.36,1.04,.61s.56,.54,.76,.89c.2,.35,.3,.78,.3,1.28,0,.44-.08,.85-.25,1.23-.17,.38-.42,.72-.75,1.01-.33,.29-.74,.52-1.23,.69-.49,.17-1.05,.25-1.68,.25Z" style="fill: #fff;"/>
      <path d="M135.31,201.11v-15.2h1.5l.15,1.23h.07c.48-.41,1.02-.76,1.6-1.06,.58-.29,1.18-.44,1.81-.44,.69,0,1.3,.13,1.83,.38,.53,.26,.97,.62,1.32,1.1s.62,1.05,.8,1.72c.18,.67,.27,1.42,.27,2.25,0,.91-.12,1.72-.37,2.43-.25,.71-.59,1.32-1.01,1.82-.43,.5-.92,.88-1.47,1.13-.56,.26-1.14,.38-1.76,.38-.5,0-.99-.11-1.49-.33-.49-.22-.99-.52-1.48-.9l.04,1.87v3.61h-1.8Zm4.42-5.76c.44,0,.85-.1,1.22-.3,.37-.2,.7-.48,.97-.84,.27-.36,.48-.8,.64-1.33,.15-.53,.23-1.12,.23-1.78,0-.59-.05-1.12-.15-1.61-.1-.48-.27-.9-.5-1.24s-.52-.61-.88-.8c-.36-.19-.79-.29-1.29-.29-.45,0-.91,.12-1.38,.37-.46,.25-.96,.61-1.48,1.08v5.61c.48,.41,.95,.7,1.41,.87,.45,.17,.86,.25,1.21,.25Z" style="fill: #fff;"/>
      <path d="M147.52,196.6v-10.69h1.5l.15,1.94h.07c.37-.67,.81-1.21,1.33-1.61,.52-.4,1.09-.59,1.71-.59,.43,0,.81,.07,1.14,.22l-.35,1.58c-.18-.06-.34-.1-.48-.13s-.33-.04-.55-.04c-.45,0-.93,.18-1.42,.55-.49,.37-.92,1-1.29,1.91v6.86h-1.8Z" style="fill: #fff;"/>
      <path d="M157.62,196.87c-.9,0-1.64-.26-2.23-.79-.59-.53-.89-1.28-.89-2.24,0-1.17,.52-2.07,1.56-2.69,1.04-.62,2.71-1.06,4.99-1.31,0-.34-.03-.67-.1-.99-.07-.32-.18-.61-.34-.86-.16-.25-.38-.45-.67-.6-.29-.15-.65-.23-1.09-.23-.62,0-1.2,.12-1.74,.35-.54,.24-1.03,.5-1.45,.79l-.7-1.25c.5-.32,1.11-.63,1.83-.93,.72-.3,1.51-.45,2.38-.45,1.31,0,2.25,.4,2.84,1.2,.59,.8,.88,1.87,.88,3.2v6.56h-1.5l-.15-1.28h-.07c-.51,.43-1.06,.79-1.65,1.09-.59,.3-1.22,.45-1.89,.45Zm-.62-13.18c-.32,0-.59-.11-.79-.32-.21-.21-.31-.47-.31-.78s.1-.57,.31-.78,.47-.32,.79-.32,.56,.11,.77,.32,.31,.47,.31,.78-.1,.57-.31,.78c-.21,.21-.46,.32-.77,.32Zm1.14,11.73c.51,0,1-.12,1.45-.36s.94-.6,1.45-1.07v-2.97c-.9,.12-1.65,.26-2.26,.42s-1.1,.35-1.47,.57c-.37,.22-.65,.47-.81,.76-.17,.29-.25,.6-.25,.93,0,.62,.18,1.06,.55,1.32,.37,.26,.81,.4,1.34,.4Zm3.08-11.73c-.31,0-.56-.11-.77-.32-.21-.21-.31-.47-.31-.78s.1-.57,.31-.78c.21-.21,.46-.32,.77-.32s.59,.11,.79,.32c.21,.21,.31,.47,.31,.78s-.1,.57-.31,.78c-.21,.21-.47,.32-.79,.32Z" style="fill: #fff;"/>
      <path d="M170.47,196.87c-.7,0-1.36-.12-1.98-.37-.62-.25-1.15-.61-1.59-1.09-.45-.48-.8-1.06-1.06-1.76-.26-.7-.38-1.49-.38-2.37s.14-1.69,.42-2.39c.28-.7,.65-1.29,1.12-1.77,.47-.48,1.02-.85,1.64-1.1,.62-.25,1.28-.37,1.97-.37s1.31,.12,1.8,.37c.5,.25,.94,.54,1.32,.88l-.92,1.19c-.31-.28-.63-.51-.98-.68-.34-.18-.73-.26-1.15-.26-.48,0-.93,.1-1.34,.3s-.76,.48-1.06,.85c-.29,.37-.52,.8-.69,1.31s-.25,1.07-.25,1.68,.08,1.17,.24,1.67c.16,.5,.38,.93,.67,1.29s.63,.64,1.04,.84c.41,.2,.86,.3,1.34,.3s.96-.11,1.38-.32,.8-.47,1.13-.76l.79,1.21c-.48,.42-1.02,.76-1.61,1-.59,.24-1.2,.36-1.85,.36Z" style="fill: #fff;"/>
      <path d="M176.28,196.6v-15.66h1.8v4.27l-.07,2.2c.51-.48,1.05-.9,1.61-1.24,.56-.34,1.21-.52,1.96-.52,1.13,0,1.95,.35,2.48,1.06,.52,.7,.78,1.75,.78,3.12v6.78h-1.8v-6.53c0-1.01-.16-1.74-.48-2.19-.32-.45-.84-.67-1.54-.67-.56,0-1.05,.14-1.47,.42-.43,.28-.91,.69-1.45,1.23v7.74h-1.8Z" style="fill: #fff;"/>
    </g>
    <g>
      <path d="M72.39,268.82c-1.01,0-1.95-.19-2.82-.57-.87-.38-1.61-.9-2.24-1.56l1.1-1.28c.51,.54,1.12,.98,1.81,1.31s1.42,.5,2.17,.5c.95,0,1.69-.22,2.22-.65s.79-1,.79-1.71c0-.37-.06-.68-.19-.93-.12-.26-.29-.48-.51-.66-.21-.18-.47-.35-.76-.5s-.61-.3-.95-.46l-2.07-.9c-.34-.15-.68-.32-1.03-.53s-.67-.46-.95-.75c-.28-.29-.51-.64-.68-1.04-.18-.4-.26-.87-.26-1.4s.11-1.05,.34-1.52c.23-.47,.54-.88,.95-1.22,.4-.34,.88-.61,1.43-.8,.55-.19,1.15-.29,1.81-.29,.87,0,1.66,.17,2.4,.5,.73,.33,1.36,.76,1.87,1.29l-.99,1.19c-.44-.43-.93-.76-1.46-1-.54-.24-1.14-.36-1.81-.36-.81,0-1.46,.19-1.95,.56s-.74,.89-.74,1.55c0,.35,.07,.65,.21,.89,.14,.24,.33,.46,.56,.64,.23,.18,.49,.34,.77,.48,.28,.14,.56,.27,.86,.38l2.05,.88c.41,.18,.8,.38,1.17,.61s.68,.49,.95,.79c.26,.3,.47,.65,.63,1.06,.15,.4,.23,.87,.23,1.4,0,.57-.11,1.11-.34,1.61-.23,.5-.55,.94-.98,1.31s-.94,.67-1.54,.88c-.6,.21-1.28,.32-2.05,.32Z" style="fill: #fff;"/>
      <path d="M83.33,268.82c-.57,0-1.05-.09-1.44-.26s-.7-.42-.95-.73c-.24-.31-.41-.68-.52-1.12-.1-.44-.15-.92-.15-1.45v-5.92h-1.58v-1.36l1.67-.11,.22-2.99h1.52v2.99h2.88v1.47h-2.88v5.94c0,.66,.12,1.17,.36,1.53,.24,.36,.67,.54,1.29,.54,.19,0,.4-.03,.62-.09,.22-.06,.42-.12,.59-.2l.35,1.36c-.29,.1-.61,.19-.96,.27-.34,.08-.69,.12-1.02,.12Z" style="fill: #fff;"/>
      <path d="M87.4,268.56v-10.69h1.5l.15,1.94h.07c.37-.67,.81-1.21,1.33-1.61,.52-.4,1.09-.59,1.71-.59,.43,0,.81,.07,1.14,.22l-.35,1.58c-.18-.06-.34-.1-.48-.13s-.33-.04-.55-.04c-.45,0-.93,.18-1.42,.55-.49,.37-.92,1-1.29,1.91v6.86h-1.8Z" style="fill: #fff;"/>
      <path d="M97.5,268.82c-.9,0-1.64-.26-2.23-.79-.59-.53-.89-1.28-.89-2.24,0-1.17,.52-2.07,1.56-2.69,1.04-.62,2.71-1.06,4.99-1.31,0-.34-.03-.67-.1-.99-.07-.32-.18-.61-.34-.86-.16-.25-.38-.45-.67-.6-.29-.15-.65-.23-1.09-.23-.62,0-1.2,.12-1.74,.35-.54,.24-1.03,.5-1.45,.79l-.7-1.25c.5-.32,1.11-.63,1.83-.93,.72-.3,1.51-.45,2.38-.45,1.31,0,2.25,.4,2.84,1.2,.59,.8,.88,1.87,.88,3.2v6.56h-1.5l-.15-1.28h-.07c-.51,.43-1.06,.79-1.65,1.09-.59,.3-1.22,.45-1.89,.45Zm.53-1.45c.51,0,1-.12,1.45-.36s.94-.6,1.45-1.07v-2.97c-.9,.12-1.65,.26-2.26,.42s-1.1,.35-1.47,.57c-.37,.22-.65,.47-.81,.76-.17,.29-.25,.6-.25,.93,0,.62,.18,1.06,.55,1.32,.37,.26,.81,.4,1.34,.4Z" style="fill: #fff;"/>
      <path d="M109.49,268.82c-.57,0-1.05-.09-1.44-.26s-.7-.42-.95-.73c-.24-.31-.41-.68-.52-1.12-.1-.44-.15-.92-.15-1.45v-5.92h-1.58v-1.36l1.67-.11,.22-2.99h1.52v2.99h2.88v1.47h-2.88v5.94c0,.66,.12,1.17,.36,1.53,.24,.36,.67,.54,1.29,.54,.19,0,.4-.03,.62-.09,.22-.06,.42-.12,.59-.2l.35,1.36c-.29,.1-.61,.19-.96,.27-.34,.08-.69,.12-1.02,.12Z" style="fill: #fff;"/>
      <path d="M117.89,268.82c-.72,0-1.39-.13-2.01-.38-.62-.26-1.17-.62-1.63-1.1s-.83-1.06-1.09-1.75c-.26-.69-.4-1.47-.4-2.35s.14-1.67,.41-2.37c.27-.7,.63-1.29,1.08-1.77,.45-.48,.96-.85,1.53-1.11,.57-.26,1.17-.38,1.78-.38,.67,0,1.28,.12,1.81,.35,.54,.23,.98,.57,1.34,1.01,.36,.44,.63,.97,.83,1.58,.19,.62,.29,1.31,.29,2.07,0,.19,0,.38-.01,.56s-.03,.34-.06,.47h-7.22c.07,1.14,.43,2.05,1.07,2.72,.64,.67,1.47,1,2.5,1,.51,0,.99-.08,1.42-.23s.85-.36,1.24-.61l.64,1.19c-.47,.29-.99,.55-1.56,.77-.57,.22-1.23,.33-1.96,.33Zm-3.37-6.47h5.72c0-1.08-.23-1.91-.69-2.47-.46-.56-1.11-.85-1.95-.85-.38,0-.74,.07-1.09,.22-.34,.15-.66,.36-.94,.65-.28,.29-.51,.63-.69,1.04-.18,.41-.3,.88-.36,1.41Z" style="fill: #fff;"/>
      <path d="M128.08,273.49c-.66,0-1.26-.06-1.8-.19-.54-.12-1.01-.31-1.4-.56-.39-.25-.69-.55-.9-.9-.21-.35-.32-.76-.32-1.23s.14-.89,.42-1.3c.28-.41,.66-.78,1.14-1.12v-.09c-.26-.16-.49-.38-.67-.67s-.27-.64-.27-1.07c0-.45,.12-.85,.37-1.19,.25-.34,.51-.6,.79-.79v-.09c-.35-.29-.67-.69-.96-1.18-.29-.49-.43-1.06-.43-1.71,0-.59,.11-1.11,.32-1.58,.21-.47,.5-.87,.87-1.2,.37-.33,.8-.58,1.29-.76,.49-.18,1.01-.26,1.55-.26,.29,0,.57,.03,.82,.08s.49,.11,.69,.19h3.72v1.39h-2.2c.25,.25,.46,.56,.63,.95,.17,.38,.25,.8,.25,1.25,0,.57-.1,1.09-.31,1.55-.21,.46-.48,.85-.84,1.17s-.77,.56-1.24,.74c-.48,.18-.99,.26-1.53,.26-.26,0-.54-.03-.81-.1-.28-.07-.54-.16-.79-.27-.19,.16-.35,.34-.48,.54-.13,.2-.2,.44-.2,.74,0,.34,.13,.62,.4,.84,.26,.22,.76,.33,1.5,.33h2.07c1.25,0,2.18,.2,2.81,.61,.62,.4,.94,1.05,.94,1.95,0,.5-.12,.97-.37,1.42-.25,.45-.61,.84-1.08,1.18-.47,.34-1.04,.6-1.71,.8-.67,.2-1.42,.3-2.25,.3Zm.26-1.25c.51,0,.98-.06,1.4-.19,.42-.12,.77-.29,1.07-.48,.29-.2,.52-.43,.68-.69,.16-.26,.24-.54,.24-.81,0-.5-.18-.84-.55-1.03-.37-.19-.9-.29-1.61-.29h-1.85c-.21,0-.43-.01-.67-.03-.24-.02-.48-.07-.72-.14-.38,.28-.66,.57-.84,.88-.18,.31-.26,.62-.26,.92,0,.57,.27,1.03,.82,1.36,.55,.34,1.31,.51,2.28,.51Zm-.26-8.27c.31,0,.6-.06,.87-.18,.27-.12,.51-.29,.73-.51,.21-.22,.38-.49,.5-.8,.12-.32,.18-.67,.18-1.07,0-.79-.22-1.4-.66-1.84s-.98-.65-1.61-.65-1.17,.22-1.61,.65-.66,1.04-.66,1.84c0,.4,.06,.75,.18,1.07,.12,.32,.28,.58,.5,.8,.21,.22,.45,.39,.73,.51,.27,.12,.56,.18,.87,.18Z" style="fill: #fff;"/>
      <path d="M136.48,255.67c-.35,0-.65-.11-.89-.33-.24-.22-.36-.5-.36-.84s.12-.63,.36-.85c.24-.21,.54-.32,.89-.32s.65,.11,.89,.32c.24,.21,.36,.5,.36,.85s-.12,.62-.36,.84c-.24,.22-.54,.33-.89,.33Zm-.92,12.89v-10.69h1.8v10.69h-1.8Z" style="fill: #fff;"/>
      <path d="M145.3,268.82c-.72,0-1.39-.13-2.01-.38-.62-.26-1.17-.62-1.63-1.1s-.83-1.06-1.09-1.75c-.26-.69-.4-1.47-.4-2.35s.14-1.67,.41-2.37c.27-.7,.63-1.29,1.08-1.77,.45-.48,.96-.85,1.53-1.11,.57-.26,1.17-.38,1.78-.38,.67,0,1.28,.12,1.81,.35,.54,.23,.98,.57,1.34,1.01,.36,.44,.63,.97,.83,1.58,.19,.62,.29,1.31,.29,2.07,0,.19,0,.38-.01,.56s-.03,.34-.06,.47h-7.22c.07,1.14,.43,2.05,1.07,2.72,.64,.67,1.47,1,2.5,1,.51,0,.99-.08,1.42-.23s.85-.36,1.24-.61l.64,1.19c-.47,.29-.99,.55-1.56,.77-.57,.22-1.23,.33-1.96,.33Zm-3.37-6.47h5.72c0-1.08-.23-1.91-.69-2.47-.46-.56-1.11-.85-1.95-.85-.38,0-.74,.07-1.09,.22-.34,.15-.66,.36-.94,.65-.28,.29-.51,.63-.69,1.04-.18,.41-.3,.88-.36,1.41Z" style="fill: #fff;"/>
      <path d="M150.98,263.74v-1.39h5.06v1.39h-5.06Z" style="fill: #fff;"/>
      <path d="M69.91,295.56l-2.97-10.69h1.85l1.58,6.18c.12,.51,.23,1.01,.33,1.5,.1,.48,.21,.98,.31,1.47h.09c.12-.5,.23-.99,.35-1.49,.12-.49,.24-.99,.37-1.48l1.65-6.18h1.76l1.67,6.18c.13,.51,.26,1.01,.38,1.5,.12,.48,.25,.98,.36,1.47h.09c.12-.5,.23-.99,.33-1.47,.1-.48,.21-.98,.33-1.5l1.56-6.18h1.72l-2.86,10.69h-2.2l-1.54-5.74c-.13-.51-.25-1.02-.36-1.52-.11-.5-.23-1.02-.36-1.56h-.09c-.12,.54-.23,1.07-.35,1.57-.12,.51-.25,1.02-.4,1.53l-1.5,5.72h-2.11Z" style="fill: #fff;"/>
      <path d="M88.17,295.82c-.66,0-1.29-.12-1.88-.37-.59-.25-1.12-.61-1.57-1.09s-.82-1.06-1.09-1.76-.41-1.49-.41-2.37,.14-1.69,.41-2.39,.63-1.29,1.09-1.77c.45-.48,.98-.85,1.57-1.1,.59-.25,1.22-.37,1.88-.37s1.29,.12,1.88,.37c.59,.25,1.12,.62,1.57,1.1,.45,.48,.82,1.08,1.09,1.77s.41,1.49,.41,2.39-.14,1.67-.41,2.37-.63,1.28-1.09,1.76-.98,.84-1.57,1.09c-.59,.25-1.22,.37-1.88,.37Zm0-1.5c.45,0,.87-.1,1.25-.3,.38-.2,.71-.48,.98-.84s.48-.79,.63-1.29c.15-.5,.22-1.06,.22-1.67s-.07-1.18-.22-1.68-.36-.94-.63-1.31c-.27-.37-.6-.65-.98-.85s-.8-.3-1.25-.3-.87,.1-1.25,.3-.71,.48-.98,.85c-.27,.37-.48,.8-.63,1.31-.15,.51-.22,1.07-.22,1.68s.07,1.17,.22,1.67c.15,.5,.36,.93,.63,1.29,.27,.36,.6,.64,.98,.84,.38,.2,.8,.3,1.25,.3Z" style="fill: #fff;"/>
      <path d="M95.93,295.56v-10.69h1.5l.15,1.94h.07c.37-.67,.81-1.21,1.33-1.61,.52-.4,1.09-.59,1.71-.59,.43,0,.81,.07,1.14,.22l-.35,1.58c-.18-.06-.34-.1-.48-.13s-.33-.04-.55-.04c-.45,0-.93,.18-1.42,.55-.49,.37-.92,1-1.29,1.91v6.86h-1.8Z" style="fill: #fff;"/>
      <path d="M103.57,295.56v-15.66h1.78v10.6h.07l4.55-5.63h2l-3.59,4.29,4.07,6.4h-1.98l-3.12-5.15-2,2.33v2.82h-1.78Z" style="fill: #fff;"/>
      <path d="M117.25,295.82c-.76,0-1.49-.14-2.18-.42s-1.29-.63-1.8-1.06l.9-1.21c.47,.38,.95,.69,1.44,.92,.49,.24,1.06,.35,1.71,.35,.7,0,1.23-.16,1.58-.48s.53-.72,.53-1.19c0-.28-.07-.52-.22-.73-.15-.21-.33-.38-.56-.54-.23-.15-.49-.29-.78-.41-.29-.12-.59-.23-.88-.35-.38-.13-.76-.28-1.14-.45-.38-.17-.72-.37-1.02-.62-.3-.24-.55-.52-.74-.85-.19-.32-.29-.71-.29-1.17,0-.43,.08-.83,.25-1.2,.17-.37,.41-.7,.73-.97,.31-.27,.7-.48,1.15-.64,.45-.15,.97-.23,1.54-.23,.67,0,1.29,.12,1.86,.35,.56,.23,1.05,.52,1.46,.86l-.86,1.14c-.37-.28-.75-.51-1.14-.68s-.83-.26-1.3-.26c-.67,0-1.17,.15-1.48,.46s-.47,.67-.47,1.08c0,.25,.07,.47,.2,.65,.13,.18,.31,.34,.53,.48,.22,.14,.47,.26,.76,.37,.29,.11,.58,.22,.89,.34,.38,.15,.77,.3,1.16,.46,.39,.16,.74,.36,1.04,.61s.56,.54,.76,.89c.2,.35,.3,.78,.3,1.28,0,.44-.08,.85-.25,1.23-.17,.38-.42,.72-.75,1.01-.33,.29-.74,.52-1.23,.69-.49,.17-1.05,.25-1.68,.25Z" style="fill: #fff;"/>
      <path d="M123.68,295.56v-15.66h1.8v4.27l-.07,2.2c.51-.48,1.05-.9,1.61-1.24,.56-.34,1.21-.52,1.96-.52,1.13,0,1.95,.35,2.48,1.06,.52,.7,.78,1.75,.78,3.12v6.78h-1.8v-6.53c0-1.01-.16-1.74-.48-2.19-.32-.45-.84-.67-1.54-.67-.56,0-1.05,.14-1.47,.42-.43,.28-.91,.69-1.45,1.23v7.74h-1.8Z" style="fill: #fff;"/>
      <path d="M139.8,295.82c-.66,0-1.29-.12-1.88-.37-.59-.25-1.12-.61-1.57-1.09s-.82-1.06-1.09-1.76-.41-1.49-.41-2.37,.14-1.69,.41-2.39,.63-1.29,1.09-1.77c.45-.48,.98-.85,1.57-1.1,.59-.25,1.22-.37,1.88-.37s1.29,.12,1.88,.37c.59,.25,1.12,.62,1.57,1.1,.45,.48,.82,1.08,1.09,1.77s.41,1.49,.41,2.39-.14,1.67-.41,2.37-.63,1.28-1.09,1.76-.98,.84-1.57,1.09c-.59,.25-1.22,.37-1.88,.37Zm0-1.5c.45,0,.87-.1,1.25-.3,.38-.2,.71-.48,.98-.84s.48-.79,.63-1.29c.15-.5,.22-1.06,.22-1.67s-.07-1.18-.22-1.68-.36-.94-.63-1.31c-.27-.37-.6-.65-.98-.85s-.8-.3-1.25-.3-.87,.1-1.25,.3-.71,.48-.98,.85c-.27,.37-.48,.8-.63,1.31-.15,.51-.22,1.07-.22,1.68s.07,1.17,.22,1.67c.15,.5,.36,.93,.63,1.29,.27,.36,.6,.64,.98,.84,.38,.2,.8,.3,1.25,.3Z" style="fill: #fff;"/>
      <path d="M147.57,300.07v-15.2h1.5l.15,1.23h.07c.48-.41,1.02-.76,1.6-1.06,.58-.29,1.18-.44,1.81-.44,.69,0,1.3,.13,1.83,.38,.53,.26,.97,.62,1.32,1.1s.62,1.05,.8,1.72c.18,.67,.27,1.42,.27,2.25,0,.91-.12,1.72-.37,2.43-.25,.71-.59,1.32-1.01,1.82-.43,.5-.92,.88-1.47,1.13-.56,.26-1.14,.38-1.76,.38-.5,0-.99-.11-1.49-.33-.49-.22-.99-.52-1.48-.9l.04,1.87v3.61h-1.8Zm4.42-5.76c.44,0,.85-.1,1.22-.3,.37-.2,.7-.48,.97-.84,.27-.36,.48-.8,.64-1.33,.15-.53,.23-1.12,.23-1.78,0-.59-.05-1.12-.15-1.61-.1-.48-.27-.9-.5-1.24s-.52-.61-.88-.8c-.36-.19-.79-.29-1.29-.29-.45,0-.91,.12-1.38,.37-.46,.25-.96,.61-1.48,1.08v5.61c.48,.41,.95,.7,1.41,.87,.45,.17,.86,.25,1.21,.25Z" style="fill: #fff;"/>
    </g>
    <g>
      <path d="M68.39,367.56v-14.43h2.2l2.77,7.7c.18,.5,.35,1,.52,1.51,.17,.51,.34,1.01,.52,1.51h.09c.18-.5,.34-1,.49-1.51,.15-.51,.32-1.01,.5-1.51l2.73-7.7h2.22v14.43h-1.72v-7.94c0-.64,.03-1.36,.09-2.13,.06-.78,.11-1.49,.15-2.13h-.09l-1.14,3.28-2.73,7.48h-1.21l-2.73-7.48-1.14-3.28h-.09c.04,.65,.09,1.36,.14,2.13,.05,.78,.08,1.49,.08,2.13v7.94h-1.65Z" style="fill: #fff;"/>
      <path d="M86.67,367.83c-.9,0-1.64-.26-2.23-.79-.59-.53-.89-1.28-.89-2.24,0-1.17,.52-2.07,1.56-2.69,1.04-.62,2.71-1.06,4.99-1.31,0-.34-.03-.67-.1-.99-.07-.32-.18-.61-.34-.86-.16-.25-.38-.45-.67-.6-.29-.15-.65-.23-1.09-.23-.62,0-1.2,.12-1.74,.35-.54,.24-1.03,.5-1.45,.79l-.7-1.25c.5-.32,1.11-.63,1.83-.93,.72-.3,1.51-.45,2.38-.45,1.31,0,2.25,.4,2.84,1.2,.59,.8,.88,1.87,.88,3.2v6.56h-1.5l-.15-1.28h-.07c-.51,.43-1.06,.79-1.65,1.09-.59,.3-1.22,.45-1.89,.45Zm.53-1.45c.51,0,1-.12,1.45-.36s.94-.6,1.45-1.07v-2.97c-.9,.12-1.65,.26-2.26,.42s-1.1,.35-1.47,.57c-.37,.22-.65,.47-.81,.76-.17,.29-.25,.6-.25,.93,0,.62,.18,1.06,.55,1.32,.37,.26,.81,.4,1.34,.4Z" style="fill: #fff;"/>
      <path d="M95.3,367.56v-10.69h1.5l.15,1.94h.07c.37-.67,.81-1.21,1.33-1.61,.52-.4,1.09-.59,1.71-.59,.43,0,.81,.07,1.14,.22l-.35,1.58c-.18-.06-.34-.1-.48-.13s-.33-.04-.55-.04c-.45,0-.93,.18-1.42,.55-.49,.37-.92,1-1.29,1.91v6.86h-1.8Z" style="fill: #fff;"/>
      <path d="M102.93,367.56v-15.66h1.78v10.6h.07l4.55-5.63h2l-3.59,4.29,4.07,6.4h-1.98l-3.12-5.15-2,2.33v2.82h-1.78Z" style="fill: #fff;"/>
      <path d="M118.15,367.83c-.72,0-1.39-.13-2.01-.38-.62-.26-1.17-.62-1.63-1.1s-.83-1.06-1.09-1.75c-.26-.69-.4-1.47-.4-2.35s.14-1.67,.41-2.37c.27-.7,.63-1.29,1.08-1.77,.45-.48,.96-.85,1.53-1.11,.57-.26,1.17-.38,1.78-.38,.67,0,1.28,.12,1.81,.35,.54,.23,.98,.57,1.34,1.01,.36,.44,.63,.97,.83,1.58,.19,.62,.29,1.31,.29,2.07,0,.19,0,.38-.01,.56s-.03,.34-.06,.47h-7.22c.07,1.14,.43,2.05,1.07,2.72,.64,.67,1.47,1,2.5,1,.51,0,.99-.08,1.42-.23s.85-.36,1.24-.61l.64,1.19c-.47,.29-.99,.55-1.56,.77-.57,.22-1.23,.33-1.96,.33Zm-3.37-6.47h5.72c0-1.08-.23-1.91-.69-2.47-.46-.56-1.11-.85-1.95-.85-.38,0-.74,.07-1.09,.22-.34,.15-.66,.36-.94,.65-.28,.29-.51,.63-.69,1.04-.18,.41-.3,.88-.36,1.41Z" style="fill: #fff;"/>
      <path d="M128.1,367.83c-.57,0-1.05-.09-1.44-.26s-.7-.42-.95-.73c-.24-.31-.41-.68-.52-1.12-.1-.44-.15-.92-.15-1.45v-5.92h-1.58v-1.36l1.67-.11,.22-2.99h1.52v2.99h2.88v1.47h-2.88v5.94c0,.66,.12,1.17,.36,1.53,.24,.36,.67,.54,1.29,.54,.19,0,.4-.03,.62-.09,.22-.06,.42-.12,.59-.2l.35,1.36c-.29,.1-.61,.19-.96,.27-.34,.08-.69,.12-1.02,.12Z" style="fill: #fff;"/>
      <path d="M133.09,354.67c-.35,0-.65-.11-.89-.33-.24-.22-.36-.5-.36-.84s.12-.63,.36-.85c.24-.21,.54-.32,.89-.32s.65,.11,.89,.32c.24,.21,.36,.5,.36,.85s-.12,.62-.36,.84c-.24,.22-.54,.33-.89,.33Zm-.92,12.89v-10.69h1.8v10.69h-1.8Z" style="fill: #fff;"/>
      <path d="M137.58,367.56v-10.69h1.5l.15,1.54h.07c.51-.51,1.05-.94,1.62-1.29,.56-.34,1.22-.52,1.97-.52,1.13,0,1.95,.35,2.48,1.06,.52,.7,.78,1.75,.78,3.12v6.78h-1.8v-6.53c0-1.01-.16-1.74-.48-2.19-.32-.45-.84-.67-1.54-.67-.56,0-1.05,.14-1.47,.42-.43,.28-.91,.69-1.45,1.23v7.74h-1.8Z" style="fill: #fff;"/>
      <path d="M153.22,372.49c-.66,0-1.26-.06-1.8-.19-.54-.12-1.01-.31-1.4-.56-.39-.25-.69-.55-.9-.9-.21-.35-.32-.76-.32-1.23s.14-.89,.42-1.3c.28-.41,.66-.78,1.14-1.12v-.09c-.26-.16-.49-.38-.67-.67s-.27-.64-.27-1.07c0-.45,.12-.85,.37-1.19,.25-.34,.51-.6,.79-.79v-.09c-.35-.29-.67-.69-.96-1.18-.29-.49-.43-1.06-.43-1.71,0-.59,.11-1.11,.32-1.58,.21-.47,.5-.87,.87-1.2,.37-.33,.8-.58,1.29-.76,.49-.18,1.01-.26,1.55-.26,.29,0,.57,.03,.82,.08s.49,.11,.69,.19h3.72v1.39h-2.2c.25,.25,.46,.56,.63,.95,.17,.38,.25,.8,.25,1.25,0,.57-.1,1.09-.31,1.55-.21,.46-.48,.85-.84,1.17s-.77,.56-1.24,.74c-.48,.18-.99,.26-1.53,.26-.26,0-.54-.03-.81-.1-.28-.07-.54-.16-.79-.27-.19,.16-.35,.34-.48,.54-.13,.2-.2,.44-.2,.74,0,.34,.13,.62,.4,.84,.26,.22,.76,.33,1.5,.33h2.07c1.25,0,2.18,.2,2.81,.61,.62,.4,.94,1.05,.94,1.95,0,.5-.12,.97-.37,1.42-.25,.45-.61,.84-1.08,1.18-.47,.34-1.04,.6-1.71,.8-.67,.2-1.42,.3-2.25,.3Zm.26-1.25c.51,0,.98-.06,1.4-.19,.42-.12,.77-.29,1.07-.48,.29-.2,.52-.43,.68-.69,.16-.26,.24-.54,.24-.81,0-.5-.18-.84-.55-1.03-.37-.19-.9-.29-1.61-.29h-1.85c-.21,0-.43-.01-.67-.03-.24-.02-.48-.07-.72-.14-.38,.28-.66,.57-.84,.88-.18,.31-.26,.62-.26,.92,0,.57,.27,1.03,.82,1.36,.55,.34,1.31,.51,2.28,.51Zm-.26-8.27c.31,0,.6-.06,.87-.18,.27-.12,.51-.29,.73-.51,.21-.22,.38-.49,.5-.8,.12-.32,.18-.67,.18-1.07,0-.79-.22-1.4-.66-1.84s-.98-.65-1.61-.65-1.17,.22-1.61,.65-.66,1.04-.66,1.84c0,.4,.06,.75,.18,1.07,.12,.32,.28,.58,.5,.8,.21,.22,.45,.39,.73,.51,.27,.12,.56,.18,.87,.18Z" style="fill: #fff;"/>
      <path d="M163.49,367.83c-.76,0-1.49-.14-2.18-.42s-1.29-.63-1.8-1.06l.9-1.21c.47,.38,.95,.69,1.44,.92,.49,.24,1.06,.35,1.71,.35,.7,0,1.23-.16,1.58-.48s.53-.72,.53-1.19c0-.28-.07-.52-.22-.73-.15-.21-.33-.38-.56-.54-.23-.15-.49-.29-.78-.41-.29-.12-.59-.23-.88-.35-.38-.13-.76-.28-1.14-.45-.38-.17-.72-.37-1.02-.62-.3-.24-.55-.52-.74-.85-.19-.32-.29-.71-.29-1.17,0-.43,.08-.83,.25-1.2,.17-.37,.41-.7,.73-.97,.31-.27,.7-.48,1.15-.64,.45-.15,.97-.23,1.54-.23,.67,0,1.29,.12,1.86,.35,.56,.23,1.05,.52,1.46,.86l-.86,1.14c-.37-.28-.75-.51-1.14-.68s-.83-.26-1.3-.26c-.67,0-1.17,.15-1.48,.46s-.47,.67-.47,1.08c0,.25,.07,.47,.2,.65,.13,.18,.31,.34,.53,.48,.22,.14,.47,.26,.76,.37,.29,.11,.58,.22,.89,.34,.38,.15,.77,.3,1.16,.46,.39,.16,.74,.36,1.04,.61s.56,.54,.76,.89c.2,.35,.3,.78,.3,1.28,0,.44-.08,.85-.25,1.23-.17,.38-.42,.72-.75,1.01-.33,.29-.74,.52-1.23,.69-.49,.17-1.05,.25-1.68,.25Z" style="fill: #fff;"/>
      <path d="M173.28,367.83c-.57,0-1.05-.09-1.44-.26s-.7-.42-.95-.73c-.24-.31-.41-.68-.52-1.12-.1-.44-.15-.92-.15-1.45v-5.92h-1.58v-1.36l1.67-.11,.22-2.99h1.52v2.99h2.88v1.47h-2.88v5.94c0,.66,.12,1.17,.36,1.53,.24,.36,.67,.54,1.29,.54,.19,0,.4-.03,.62-.09,.22-.06,.42-.12,.59-.2l.35,1.36c-.29,.1-.61,.19-.96,.27-.34,.08-.69,.12-1.02,.12Z" style="fill: #fff;"/>
      <path d="M177.35,367.56v-10.69h1.5l.15,1.94h.07c.37-.67,.81-1.21,1.33-1.61,.52-.4,1.09-.59,1.71-.59,.43,0,.81,.07,1.14,.22l-.35,1.58c-.18-.06-.34-.1-.48-.13s-.33-.04-.55-.04c-.45,0-.93,.18-1.42,.55-.49,.37-.92,1-1.29,1.91v6.86h-1.8Z" style="fill: #fff;"/>
      <path d="M187.45,367.83c-.9,0-1.64-.26-2.23-.79-.59-.53-.89-1.28-.89-2.24,0-1.17,.52-2.07,1.56-2.69,1.04-.62,2.71-1.06,4.99-1.31,0-.34-.03-.67-.1-.99-.07-.32-.18-.61-.34-.86-.16-.25-.38-.45-.67-.6-.29-.15-.65-.23-1.09-.23-.62,0-1.2,.12-1.74,.35-.54,.24-1.03,.5-1.45,.79l-.7-1.25c.5-.32,1.11-.63,1.83-.93,.72-.3,1.51-.45,2.38-.45,1.31,0,2.25,.4,2.84,1.2,.59,.8,.88,1.87,.88,3.2v6.56h-1.5l-.15-1.28h-.07c-.51,.43-1.06,.79-1.65,1.09-.59,.3-1.22,.45-1.89,.45Zm.53-1.45c.51,0,1-.12,1.45-.36s.94-.6,1.45-1.07v-2.97c-.9,.12-1.65,.26-2.26,.42s-1.1,.35-1.47,.57c-.37,.22-.65,.47-.81,.76-.17,.29-.25,.6-.25,.93,0,.62,.18,1.06,.55,1.32,.37,.26,.81,.4,1.34,.4Z" style="fill: #fff;"/>
      <path d="M199.44,367.83c-.57,0-1.05-.09-1.44-.26s-.7-.42-.95-.73c-.24-.31-.41-.68-.52-1.12-.1-.44-.15-.92-.15-1.45v-5.92h-1.58v-1.36l1.67-.11,.22-2.99h1.52v2.99h2.88v1.47h-2.88v5.94c0,.66,.12,1.17,.36,1.53,.24,.36,.67,.54,1.29,.54,.19,0,.4-.03,.62-.09,.22-.06,.42-.12,.59-.2l.35,1.36c-.29,.1-.61,.19-.96,.27-.34,.08-.69,.12-1.02,.12Z" style="fill: #fff;"/>
      <path d="M207.85,367.83c-.72,0-1.39-.13-2.01-.38-.62-.26-1.17-.62-1.63-1.1s-.83-1.06-1.09-1.75c-.26-.69-.4-1.47-.4-2.35s.14-1.67,.41-2.37c.27-.7,.63-1.29,1.08-1.77,.45-.48,.96-.85,1.53-1.11,.57-.26,1.17-.38,1.78-.38,.67,0,1.28,.12,1.81,.35,.54,.23,.98,.57,1.34,1.01,.36,.44,.63,.97,.83,1.58,.19,.62,.29,1.31,.29,2.07,0,.19,0,.38-.01,.56s-.03,.34-.06,.47h-7.22c.07,1.14,.43,2.05,1.07,2.72,.64,.67,1.47,1,2.5,1,.51,0,.99-.08,1.42-.23s.85-.36,1.24-.61l.64,1.19c-.47,.29-.99,.55-1.56,.77-.57,.22-1.23,.33-1.96,.33Zm-3.37-6.47h5.72c0-1.08-.23-1.91-.69-2.47-.46-.56-1.11-.85-1.95-.85-.38,0-.74,.07-1.09,.22-.34,.15-.66,.36-.94,.65-.28,.29-.51,.63-.69,1.04-.18,.41-.3,.88-.36,1.41Z" style="fill: #fff;"/>
      <path d="M218.03,372.49c-.66,0-1.26-.06-1.8-.19-.54-.12-1.01-.31-1.4-.56-.39-.25-.69-.55-.9-.9-.21-.35-.32-.76-.32-1.23s.14-.89,.42-1.3c.28-.41,.66-.78,1.14-1.12v-.09c-.26-.16-.49-.38-.67-.67s-.27-.64-.27-1.07c0-.45,.12-.85,.37-1.19,.25-.34,.51-.6,.79-.79v-.09c-.35-.29-.67-.69-.96-1.18-.29-.49-.43-1.06-.43-1.71,0-.59,.11-1.11,.32-1.58,.21-.47,.5-.87,.87-1.2,.37-.33,.8-.58,1.29-.76,.49-.18,1.01-.26,1.55-.26,.29,0,.57,.03,.82,.08s.49,.11,.69,.19h3.72v1.39h-2.2c.25,.25,.46,.56,.63,.95,.17,.38,.25,.8,.25,1.25,0,.57-.1,1.09-.31,1.55-.21,.46-.48,.85-.84,1.17s-.77,.56-1.24,.74c-.48,.18-.99,.26-1.53,.26-.26,0-.54-.03-.81-.1-.28-.07-.54-.16-.79-.27-.19,.16-.35,.34-.48,.54-.13,.2-.2,.44-.2,.74,0,.34,.13,.62,.4,.84,.26,.22,.76,.33,1.5,.33h2.07c1.25,0,2.18,.2,2.81,.61,.62,.4,.94,1.05,.94,1.95,0,.5-.12,.97-.37,1.42-.25,.45-.61,.84-1.08,1.18-.47,.34-1.04,.6-1.71,.8-.67,.2-1.42,.3-2.25,.3Zm.26-1.25c.51,0,.98-.06,1.4-.19,.42-.12,.77-.29,1.07-.48,.29-.2,.52-.43,.68-.69,.16-.26,.24-.54,.24-.81,0-.5-.18-.84-.55-1.03-.37-.19-.9-.29-1.61-.29h-1.85c-.21,0-.43-.01-.67-.03-.24-.02-.48-.07-.72-.14-.38,.28-.66,.57-.84,.88-.18,.31-.26,.62-.26,.92,0,.57,.27,1.03,.82,1.36,.55,.34,1.31,.51,2.28,.51Zm-.26-8.27c.31,0,.6-.06,.87-.18,.27-.12,.51-.29,.73-.51,.21-.22,.38-.49,.5-.8,.12-.32,.18-.67,.18-1.07,0-.79-.22-1.4-.66-1.84s-.98-.65-1.61-.65-1.17,.22-1.61,.65-.66,1.04-.66,1.84c0,.4,.06,.75,.18,1.07,.12,.32,.28,.58,.5,.8,.21,.22,.45,.39,.73,.51,.27,.12,.56,.18,.87,.18Z" style="fill: #fff;"/>
      <path d="M226.44,354.67c-.35,0-.65-.11-.89-.33-.24-.22-.36-.5-.36-.84s.12-.63,.36-.85c.24-.21,.54-.32,.89-.32s.65,.11,.89,.32c.24,.21,.36,.5,.36,.85s-.12,.62-.36,.84c-.24,.22-.54,.33-.89,.33Zm-.92,12.89v-10.69h1.8v10.69h-1.8Z" style="fill: #fff;"/>
      <path d="M235.26,367.83c-.72,0-1.39-.13-2.01-.38-.62-.26-1.17-.62-1.63-1.1s-.83-1.06-1.09-1.75c-.26-.69-.4-1.47-.4-2.35s.14-1.67,.41-2.37c.27-.7,.63-1.29,1.08-1.77,.45-.48,.96-.85,1.53-1.11,.57-.26,1.17-.38,1.78-.38,.67,0,1.28,.12,1.81,.35,.54,.23,.98,.57,1.34,1.01,.36,.44,.63,.97,.83,1.58,.19,.62,.29,1.31,.29,2.07,0,.19,0,.38-.01,.56s-.03,.34-.06,.47h-7.22c.07,1.14,.43,2.05,1.07,2.72,.64,.67,1.47,1,2.5,1,.51,0,.99-.08,1.42-.23s.85-.36,1.24-.61l.64,1.19c-.47,.29-.99,.55-1.56,.77-.57,.22-1.23,.33-1.96,.33Zm-3.37-6.47h5.72c0-1.08-.23-1.91-.69-2.47-.46-.56-1.11-.85-1.95-.85-.38,0-.74,.07-1.09,.22-.34,.15-.66,.36-.94,.65-.28,.29-.51,.63-.69,1.04-.18,.41-.3,.88-.36,1.41Z" style="fill: #fff;"/>
    </g>
    <g>
      <path d="M68.39,438.64v-14.43h2.2l2.77,7.7c.18,.5,.35,1,.52,1.51,.17,.51,.34,1.01,.52,1.51h.09c.18-.5,.34-1,.49-1.51,.15-.51,.32-1.01,.5-1.51l2.73-7.7h2.22v14.43h-1.72v-7.94c0-.64,.03-1.36,.09-2.13,.06-.78,.11-1.49,.15-2.13h-.09l-1.14,3.28-2.73,7.48h-1.21l-2.73-7.48-1.14-3.28h-.09c.04,.65,.09,1.36,.14,2.13,.05,.78,.08,1.49,.08,2.13v7.94h-1.65Z" style="fill: #fff;"/>
      <path d="M86.67,438.9c-.9,0-1.64-.26-2.23-.79-.59-.53-.89-1.28-.89-2.24,0-1.17,.52-2.07,1.56-2.69,1.04-.62,2.71-1.06,4.99-1.31,0-.34-.03-.67-.1-.99-.07-.32-.18-.61-.34-.86-.16-.25-.38-.45-.67-.6-.29-.15-.65-.23-1.09-.23-.62,0-1.2,.12-1.74,.35-.54,.24-1.03,.5-1.45,.79l-.7-1.25c.5-.32,1.11-.63,1.83-.93,.72-.3,1.51-.45,2.38-.45,1.31,0,2.25,.4,2.84,1.2,.59,.8,.88,1.87,.88,3.2v6.56h-1.5l-.15-1.28h-.07c-.51,.43-1.06,.79-1.65,1.09-.59,.3-1.22,.45-1.89,.45Zm.53-1.45c.51,0,1-.12,1.45-.36s.94-.6,1.45-1.07v-2.97c-.9,.12-1.65,.26-2.26,.42s-1.1,.35-1.47,.57c-.37,.22-.65,.47-.81,.76-.17,.29-.25,.6-.25,.93,0,.62,.18,1.06,.55,1.32,.37,.26,.81,.4,1.34,.4Z" style="fill: #fff;"/>
      <path d="M95.3,438.64v-10.69h1.5l.15,1.94h.07c.37-.67,.81-1.21,1.33-1.61,.52-.4,1.09-.59,1.71-.59,.43,0,.81,.07,1.14,.22l-.35,1.58c-.18-.06-.34-.1-.48-.13s-.33-.04-.55-.04c-.45,0-.93,.18-1.42,.55-.49,.37-.92,1-1.29,1.91v6.86h-1.8Z" style="fill: #fff;"/>
      <path d="M102.93,438.64v-15.66h1.78v10.6h.07l4.55-5.63h2l-3.59,4.29,4.07,6.4h-1.98l-3.12-5.15-2,2.33v2.82h-1.78Z" style="fill: #fff;"/>
      <path d="M118.15,438.9c-.72,0-1.39-.13-2.01-.38-.62-.26-1.17-.62-1.63-1.1s-.83-1.06-1.09-1.75c-.26-.69-.4-1.47-.4-2.35s.14-1.67,.41-2.37c.27-.7,.63-1.29,1.08-1.77,.45-.48,.96-.85,1.53-1.11,.57-.26,1.17-.38,1.78-.38,.67,0,1.28,.12,1.81,.35,.54,.23,.98,.57,1.34,1.01,.36,.44,.63,.97,.83,1.58,.19,.62,.29,1.31,.29,2.07,0,.19,0,.38-.01,.56s-.03,.34-.06,.47h-7.22c.07,1.14,.43,2.05,1.07,2.72,.64,.67,1.47,1,2.5,1,.51,0,.99-.08,1.42-.23s.85-.36,1.24-.61l.64,1.19c-.47,.29-.99,.55-1.56,.77-.57,.22-1.23,.33-1.96,.33Zm-3.37-6.47h5.72c0-1.08-.23-1.91-.69-2.47-.46-.56-1.11-.85-1.95-.85-.38,0-.74,.07-1.09,.22-.34,.15-.66,.36-.94,.65-.28,.29-.51,.63-.69,1.04-.18,.41-.3,.88-.36,1.41Z" style="fill: #fff;"/>
      <path d="M128.1,438.9c-.57,0-1.05-.09-1.44-.26s-.7-.42-.95-.73c-.24-.31-.41-.68-.52-1.12-.1-.44-.15-.92-.15-1.45v-5.92h-1.58v-1.36l1.67-.11,.22-2.99h1.52v2.99h2.88v1.47h-2.88v5.94c0,.66,.12,1.17,.36,1.53,.24,.36,.67,.54,1.29,.54,.19,0,.4-.03,.62-.09,.22-.06,.42-.12,.59-.2l.35,1.36c-.29,.1-.61,.19-.96,.27-.34,.08-.69,.12-1.02,.12Z" style="fill: #fff;"/>
      <path d="M133.09,425.75c-.35,0-.65-.11-.89-.33-.24-.22-.36-.5-.36-.84s.12-.63,.36-.85c.24-.21,.54-.32,.89-.32s.65,.11,.89,.32c.24,.21,.36,.5,.36,.85s-.12,.62-.36,.84c-.24,.22-.54,.33-.89,.33Zm-.92,12.89v-10.69h1.8v10.69h-1.8Z" style="fill: #fff;"/>
      <path d="M137.58,438.64v-10.69h1.5l.15,1.54h.07c.51-.51,1.05-.94,1.62-1.29,.56-.34,1.22-.52,1.97-.52,1.13,0,1.95,.35,2.48,1.06,.52,.7,.78,1.75,.78,3.12v6.78h-1.8v-6.53c0-1.01-.16-1.74-.48-2.19-.32-.45-.84-.67-1.54-.67-.56,0-1.05,.14-1.47,.42-.43,.28-.91,.69-1.45,1.23v7.74h-1.8Z" style="fill: #fff;"/>
      <path d="M153.22,443.57c-.66,0-1.26-.06-1.8-.19-.54-.12-1.01-.31-1.4-.56-.39-.25-.69-.55-.9-.9-.21-.35-.32-.76-.32-1.23s.14-.89,.42-1.3c.28-.41,.66-.78,1.14-1.12v-.09c-.26-.16-.49-.38-.67-.67s-.27-.64-.27-1.07c0-.45,.12-.85,.37-1.19,.25-.34,.51-.6,.79-.79v-.09c-.35-.29-.67-.69-.96-1.18-.29-.49-.43-1.06-.43-1.71,0-.59,.11-1.11,.32-1.58,.21-.47,.5-.87,.87-1.2,.37-.33,.8-.58,1.29-.76,.49-.18,1.01-.26,1.55-.26,.29,0,.57,.03,.82,.08s.49,.11,.69,.19h3.72v1.39h-2.2c.25,.25,.46,.56,.63,.95,.17,.38,.25,.8,.25,1.25,0,.57-.1,1.09-.31,1.55-.21,.46-.48,.85-.84,1.17s-.77,.56-1.24,.74c-.48,.18-.99,.26-1.53,.26-.26,0-.54-.03-.81-.1-.28-.07-.54-.16-.79-.27-.19,.16-.35,.34-.48,.54-.13,.2-.2,.44-.2,.74,0,.34,.13,.62,.4,.84,.26,.22,.76,.33,1.5,.33h2.07c1.25,0,2.18,.2,2.81,.61,.62,.4,.94,1.05,.94,1.95,0,.5-.12,.97-.37,1.42-.25,.45-.61,.84-1.08,1.18-.47,.34-1.04,.6-1.71,.8-.67,.2-1.42,.3-2.25,.3Zm.26-1.25c.51,0,.98-.06,1.4-.19,.42-.12,.77-.29,1.07-.48,.29-.2,.52-.43,.68-.69,.16-.26,.24-.54,.24-.81,0-.5-.18-.84-.55-1.03-.37-.19-.9-.29-1.61-.29h-1.85c-.21,0-.43-.01-.67-.03-.24-.02-.48-.07-.72-.14-.38,.28-.66,.57-.84,.88-.18,.31-.26,.62-.26,.92,0,.57,.27,1.03,.82,1.36,.55,.34,1.31,.51,2.28,.51Zm-.26-8.27c.31,0,.6-.06,.87-.18,.27-.12,.51-.29,.73-.51,.21-.22,.38-.49,.5-.8,.12-.32,.18-.67,.18-1.07,0-.79-.22-1.4-.66-1.84s-.98-.65-1.61-.65-1.17,.22-1.61,.65-.66,1.04-.66,1.84c0,.4,.06,.75,.18,1.07,.12,.32,.28,.58,.5,.8,.21,.22,.45,.39,.73,.51,.27,.12,.56,.18,.87,.18Z" style="fill: #fff;"/>
      <path d="M159.8,433.82v-1.39h5.06v1.39h-5.06Z" style="fill: #fff;"/>
      <path d="M68.21,465.64v-15.66h1.78v10.6h.07l4.55-5.63h2l-3.59,4.29,4.07,6.4h-1.98l-3.12-5.15-2,2.33v2.82h-1.78Z" style="fill: #fff;"/>
      <path d="M81.57,465.9c-.9,0-1.64-.26-2.23-.79-.59-.53-.89-1.28-.89-2.24,0-1.17,.52-2.07,1.56-2.69,1.04-.62,2.71-1.06,4.99-1.31,0-.34-.03-.67-.1-.99-.07-.32-.18-.61-.34-.86-.16-.25-.38-.45-.67-.6-.29-.15-.65-.23-1.09-.23-.62,0-1.2,.12-1.74,.35-.54,.24-1.03,.5-1.45,.79l-.7-1.25c.5-.32,1.11-.63,1.83-.93,.72-.3,1.51-.45,2.38-.45,1.31,0,2.25,.4,2.84,1.2,.59,.8,.88,1.87,.88,3.2v6.56h-1.5l-.15-1.28h-.07c-.51,.43-1.06,.79-1.65,1.09-.59,.3-1.22,.45-1.89,.45Zm.53-1.45c.51,0,1-.12,1.45-.36s.94-.6,1.45-1.07v-2.97c-.9,.12-1.65,.26-2.26,.42s-1.1,.35-1.47,.57c-.37,.22-.65,.47-.81,.76-.17,.29-.25,.6-.25,.93,0,.62,.18,1.06,.55,1.32,.37,.26,.81,.4,1.34,.4Z" style="fill: #fff;"/>
      <path d="M90.19,465.64v-10.69h1.5l.15,1.54h.07c.47-.51,.98-.94,1.53-1.29,.55-.34,1.15-.52,1.79-.52,.82,0,1.46,.18,1.93,.54s.8,.86,1.02,1.51c.56-.62,1.12-1.11,1.68-1.48,.56-.37,1.18-.56,1.84-.56,1.1,0,1.92,.35,2.45,1.06,.54,.7,.8,1.75,.8,3.12v6.78h-1.8v-6.53c0-1.01-.16-1.74-.48-2.19s-.82-.67-1.5-.67c-.81,0-1.7,.55-2.68,1.65v7.74h-1.8v-6.53c0-1.01-.16-1.74-.48-2.19-.32-.45-.83-.67-1.52-.67-.81,0-1.7,.55-2.68,1.65v7.74h-1.8Z" style="fill: #fff;"/>
      <path d="M108.43,470.15v-15.2h1.5l.15,1.23h.07c.48-.41,1.02-.76,1.6-1.06,.58-.29,1.18-.44,1.81-.44,.69,0,1.3,.13,1.83,.38,.53,.26,.97,.62,1.32,1.1s.62,1.05,.8,1.72c.18,.67,.27,1.42,.27,2.25,0,.91-.12,1.72-.37,2.43-.25,.71-.59,1.32-1.01,1.82-.43,.5-.92,.88-1.47,1.13-.56,.26-1.14,.38-1.76,.38-.5,0-.99-.11-1.49-.33-.49-.22-.99-.52-1.48-.9l.04,1.87v3.61h-1.8Zm4.42-5.76c.44,0,.85-.1,1.22-.3,.37-.2,.7-.48,.97-.84,.27-.36,.48-.8,.64-1.33,.15-.53,.23-1.12,.23-1.78,0-.59-.05-1.12-.15-1.61-.1-.48-.27-.9-.5-1.24s-.52-.61-.88-.8c-.36-.19-.79-.29-1.29-.29-.45,0-.91,.12-1.38,.37-.46,.25-.96,.61-1.48,1.08v5.61c.48,.41,.95,.7,1.41,.87,.45,.17,.86,.25,1.21,.25Z" style="fill: #fff;"/>
      <path d="M123.1,465.9c-.9,0-1.64-.26-2.23-.79-.59-.53-.89-1.28-.89-2.24,0-1.17,.52-2.07,1.56-2.69,1.04-.62,2.71-1.06,4.99-1.31,0-.34-.03-.67-.1-.99-.07-.32-.18-.61-.34-.86-.16-.25-.38-.45-.67-.6-.29-.15-.65-.23-1.09-.23-.62,0-1.2,.12-1.74,.35-.54,.24-1.03,.5-1.45,.79l-.7-1.25c.5-.32,1.11-.63,1.83-.93,.72-.3,1.51-.45,2.38-.45,1.31,0,2.25,.4,2.84,1.2,.59,.8,.88,1.87,.88,3.2v6.56h-1.5l-.15-1.28h-.07c-.51,.43-1.06,.79-1.65,1.09-.59,.3-1.22,.45-1.89,.45Zm.53-1.45c.51,0,1-.12,1.45-.36s.94-.6,1.45-1.07v-2.97c-.9,.12-1.65,.26-2.26,.42s-1.1,.35-1.47,.57c-.37,.22-.65,.47-.81,.76-.17,.29-.25,.6-.25,.93,0,.62,.18,1.06,.55,1.32,.37,.26,.81,.4,1.34,.4Z" style="fill: #fff;"/>
      <path d="M135.34,470.57c-.66,0-1.26-.06-1.8-.19-.54-.12-1.01-.31-1.4-.56-.39-.25-.69-.55-.9-.9-.21-.35-.32-.76-.32-1.23s.14-.89,.42-1.3c.28-.41,.66-.78,1.14-1.12v-.09c-.26-.16-.49-.38-.67-.67s-.27-.64-.27-1.07c0-.45,.12-.85,.37-1.19,.25-.34,.51-.6,.79-.79v-.09c-.35-.29-.67-.69-.96-1.18-.29-.49-.43-1.06-.43-1.71,0-.59,.11-1.11,.32-1.58,.21-.47,.5-.87,.87-1.2,.37-.33,.8-.58,1.29-.76,.49-.18,1.01-.26,1.55-.26,.29,0,.57,.03,.82,.08s.49,.11,.69,.19h3.72v1.39h-2.2c.25,.25,.46,.56,.63,.95,.17,.38,.25,.8,.25,1.25,0,.57-.1,1.09-.31,1.55-.21,.46-.48,.85-.84,1.17s-.77,.56-1.24,.74c-.48,.18-.99,.26-1.53,.26-.26,0-.54-.03-.81-.1-.28-.07-.54-.16-.79-.27-.19,.16-.35,.34-.48,.54-.13,.2-.2,.44-.2,.74,0,.34,.13,.62,.4,.84,.26,.22,.76,.33,1.5,.33h2.07c1.25,0,2.18,.2,2.81,.61,.62,.4,.94,1.05,.94,1.95,0,.5-.12,.97-.37,1.42-.25,.45-.61,.84-1.08,1.18-.47,.34-1.04,.6-1.71,.8-.67,.2-1.42,.3-2.25,.3Zm.26-1.25c.51,0,.98-.06,1.4-.19,.42-.12,.77-.29,1.07-.48,.29-.2,.52-.43,.68-.69,.16-.26,.24-.54,.24-.81,0-.5-.18-.84-.55-1.03-.37-.19-.9-.29-1.61-.29h-1.85c-.21,0-.43-.01-.67-.03-.24-.02-.48-.07-.72-.14-.38,.28-.66,.57-.84,.88-.18,.31-.26,.62-.26,.92,0,.57,.27,1.03,.82,1.36,.55,.34,1.31,.51,2.28,.51Zm-.26-8.27c.31,0,.6-.06,.87-.18,.27-.12,.51-.29,.73-.51,.21-.22,.38-.49,.5-.8,.12-.32,.18-.67,.18-1.07,0-.79-.22-1.4-.66-1.84s-.98-.65-1.61-.65-1.17,.22-1.61,.65-.66,1.04-.66,1.84c0,.4,.06,.75,.18,1.07,.12,.32,.28,.58,.5,.8,.21,.22,.45,.39,.73,.51,.27,.12,.56,.18,.87,.18Z" style="fill: #fff;"/>
      <path d="M142.82,465.64v-10.69h1.5l.15,1.54h.07c.51-.51,1.05-.94,1.62-1.29,.56-.34,1.22-.52,1.97-.52,1.13,0,1.95,.35,2.48,1.06,.52,.7,.78,1.75,.78,3.12v6.78h-1.8v-6.53c0-1.01-.16-1.74-.48-2.19-.32-.45-.84-.67-1.54-.67-.56,0-1.05,.14-1.47,.42-.43,.28-.91,.69-1.45,1.23v7.74h-1.8Z" style="fill: #fff;"/>
      <path d="M159.18,465.9c-.72,0-1.39-.13-2.01-.38-.62-.26-1.17-.62-1.63-1.1s-.83-1.06-1.09-1.75c-.26-.69-.4-1.47-.4-2.35s.14-1.67,.41-2.37c.27-.7,.63-1.29,1.08-1.77,.45-.48,.96-.85,1.53-1.11,.57-.26,1.17-.38,1.78-.38,.67,0,1.28,.12,1.81,.35,.54,.23,.98,.57,1.34,1.01,.36,.44,.63,.97,.83,1.58,.19,.62,.29,1.31,.29,2.07,0,.19,0,.38-.01,.56s-.03,.34-.06,.47h-7.22c.07,1.14,.43,2.05,1.07,2.72,.64,.67,1.47,1,2.5,1,.51,0,.99-.08,1.42-.23s.85-.36,1.24-.61l.64,1.19c-.47,.29-.99,.55-1.56,.77-.57,.22-1.23,.33-1.96,.33Zm-3.37-6.47h5.72c0-1.08-.23-1.91-.69-2.47-.46-.56-1.11-.85-1.95-.85-.38,0-.74,.07-1.09,.22-.34,.15-.66,.36-.94,.65-.28,.29-.51,.63-.69,1.04-.18,.41-.3,.88-.36,1.41Z" style="fill: #fff;"/>
      <path d="M165.76,465.64v-10.69h1.5l.15,1.54h.07c.51-.51,1.05-.94,1.62-1.29,.56-.34,1.22-.52,1.97-.52,1.13,0,1.95,.35,2.48,1.06,.52,.7,.78,1.75,.78,3.12v6.78h-1.8v-6.53c0-1.01-.16-1.74-.48-2.19-.32-.45-.84-.67-1.54-.67-.56,0-1.05,.14-1.47,.42-.43,.28-.91,.69-1.45,1.23v7.74h-1.8Z" style="fill: #fff;"/>
    </g>
    <g>
      <path d="M68.39,523.59v-14.43h4.11c.81,0,1.54,.07,2.21,.22,.67,.15,1.24,.38,1.7,.71s.84,.77,1.1,1.31c.26,.54,.4,1.21,.4,2s-.13,1.42-.38,1.98c-.26,.56-.62,1.02-1.09,1.39-.47,.37-1.03,.64-1.68,.83-.65,.18-1.38,.28-2.17,.28h-2.38v5.72h-1.83Zm1.83-7.22h2.16c1.26,0,2.2-.24,2.81-.71,.61-.48,.91-1.23,.91-2.25s-.32-1.76-.96-2.17c-.64-.4-1.59-.61-2.85-.61h-2.07v5.74Z" style="fill: #fff;"/>
      <path d="M80.67,523.59v-10.69h1.5l.15,1.94h.07c.37-.67,.81-1.21,1.33-1.61,.52-.4,1.09-.59,1.71-.59,.43,0,.81,.07,1.14,.22l-.35,1.58c-.18-.06-.34-.1-.48-.13s-.33-.04-.55-.04c-.45,0-.93,.18-1.42,.55-.49,.37-.92,1-1.29,1.91v6.86h-1.8Z" style="fill: #fff;"/>
      <path d="M92.46,523.86c-.66,0-1.29-.12-1.88-.37-.59-.25-1.12-.61-1.57-1.09s-.82-1.06-1.09-1.76-.41-1.49-.41-2.37,.14-1.69,.41-2.39,.63-1.29,1.09-1.77c.45-.48,.98-.85,1.57-1.1,.59-.25,1.22-.37,1.88-.37s1.29,.12,1.88,.37c.59,.25,1.12,.62,1.57,1.1,.45,.48,.82,1.08,1.09,1.77s.41,1.49,.41,2.39-.14,1.67-.41,2.37-.63,1.28-1.09,1.76-.98,.84-1.57,1.09c-.59,.25-1.22,.37-1.88,.37Zm0-1.5c.45,0,.87-.1,1.25-.3,.38-.2,.71-.48,.98-.84s.48-.79,.63-1.29c.15-.5,.22-1.06,.22-1.67s-.07-1.18-.22-1.68-.36-.94-.63-1.31c-.27-.37-.6-.65-.98-.85s-.8-.3-1.25-.3-.87,.1-1.25,.3-.71,.48-.98,.85c-.27,.37-.48,.8-.63,1.31-.15,.51-.22,1.07-.22,1.68s.07,1.17,.22,1.67c.15,.5,.36,.93,.63,1.29,.27,.36,.6,.64,.98,.84,.38,.2,.8,.3,1.25,.3Z" style="fill: #fff;"/>
      <path d="M99.12,528.37c-.34,0-.64-.03-.9-.09-.26-.06-.49-.12-.68-.2l.37-1.36c.13,.04,.29,.08,.46,.12,.18,.04,.36,.05,.55,.05,.53,0,.88-.18,1.06-.55,.18-.37,.26-.88,.26-1.54v-11.9h1.8v11.9c0,1.08-.22,1.95-.66,2.6-.44,.65-1.2,.97-2.27,.97Zm2.05-17.67c-.35,0-.65-.11-.89-.33-.24-.22-.36-.5-.36-.84s.12-.63,.36-.85c.24-.21,.54-.32,.89-.32s.63,.11,.87,.32c.24,.21,.36,.5,.36,.85s-.12,.62-.36,.84c-.24,.22-.53,.33-.87,.33Z" style="fill: #fff;"/>
      <path d="M109.99,523.86c-.72,0-1.39-.13-2.01-.38-.62-.26-1.17-.62-1.63-1.1s-.83-1.06-1.09-1.75c-.26-.69-.4-1.47-.4-2.35s.14-1.67,.41-2.37c.27-.7,.63-1.29,1.08-1.77,.45-.48,.96-.85,1.53-1.11,.57-.26,1.17-.38,1.78-.38,.67,0,1.28,.12,1.81,.35,.54,.23,.98,.57,1.34,1.01,.36,.44,.63,.97,.83,1.58,.19,.62,.29,1.31,.29,2.07,0,.19,0,.38-.01,.56s-.03,.34-.06,.47h-7.22c.07,1.14,.43,2.05,1.07,2.72,.64,.67,1.47,1,2.5,1,.51,0,.99-.08,1.42-.23s.85-.36,1.24-.61l.64,1.19c-.47,.29-.99,.55-1.56,.77-.57,.22-1.23,.33-1.96,.33Zm-3.37-6.47h5.72c0-1.08-.23-1.91-.69-2.47-.46-.56-1.11-.85-1.95-.85-.38,0-.74,.07-1.09,.22-.34,.15-.66,.36-.94,.65-.28,.29-.51,.63-.69,1.04-.18,.41-.3,.88-.36,1.41Z" style="fill: #fff;"/>
      <path d="M116.57,523.59v-15.66h1.78v10.6h.07l4.55-5.63h2l-3.59,4.29,4.07,6.4h-1.98l-3.12-5.15-2,2.33v2.82h-1.78Z" style="fill: #fff;"/>
      <path d="M130.83,523.86c-.57,0-1.05-.09-1.44-.26s-.7-.42-.95-.73c-.24-.31-.41-.68-.52-1.12-.1-.44-.15-.92-.15-1.45v-5.92h-1.58v-1.36l1.67-.11,.22-2.99h1.52v2.99h2.88v1.47h-2.88v5.94c0,.66,.12,1.17,.36,1.53,.24,.36,.67,.54,1.29,.54,.19,0,.4-.03,.62-.09,.22-.06,.42-.12,.59-.2l.35,1.36c-.29,.1-.61,.19-.96,.27-.34,.08-.69,.12-1.02,.12Z" style="fill: #fff;"/>
      <path d="M133.99,518.77v-1.39h5.06v1.39h-5.06Z" style="fill: #fff;"/>
      <path d="M68.21,549.59v-10.69h1.5l.15,1.54h.07c.47-.51,.98-.94,1.53-1.29,.55-.34,1.15-.52,1.79-.52,.82,0,1.46,.18,1.93,.54s.8,.86,1.02,1.51c.56-.62,1.12-1.11,1.68-1.48,.56-.37,1.18-.56,1.84-.56,1.1,0,1.92,.35,2.45,1.06,.54,.7,.8,1.75,.8,3.12v6.78h-1.8v-6.53c0-1.01-.16-1.74-.48-2.19s-.82-.67-1.5-.67c-.81,0-1.7,.55-2.68,1.65v7.74h-1.8v-6.53c0-1.01-.16-1.74-.48-2.19-.32-.45-.83-.67-1.52-.67-.81,0-1.7,.55-2.68,1.65v7.74h-1.8Z" style="fill: #fff;"/>
      <path d="M88.92,549.86c-.9,0-1.64-.26-2.23-.79-.59-.53-.89-1.28-.89-2.24,0-1.17,.52-2.07,1.56-2.69,1.04-.62,2.71-1.06,4.99-1.31,0-.34-.03-.67-.1-.99-.07-.32-.18-.61-.34-.86-.16-.25-.38-.45-.67-.6-.29-.15-.65-.23-1.09-.23-.62,0-1.2,.12-1.74,.35-.54,.24-1.03,.5-1.45,.79l-.7-1.25c.5-.32,1.11-.63,1.83-.93,.72-.3,1.51-.45,2.38-.45,1.31,0,2.25,.4,2.84,1.2,.59,.8,.88,1.87,.88,3.2v6.56h-1.5l-.15-1.28h-.07c-.51,.43-1.06,.79-1.65,1.09-.59,.3-1.22,.45-1.89,.45Zm.53-1.45c.51,0,1-.12,1.45-.36s.94-.6,1.45-1.07v-2.97c-.9,.12-1.65,.26-2.26,.42s-1.1,.35-1.47,.57c-.37,.22-.65,.47-.81,.76-.17,.29-.25,.6-.25,.93,0,.62,.18,1.06,.55,1.32,.37,.26,.81,.4,1.34,.4Z" style="fill: #fff;"/>
      <path d="M97.54,549.59v-10.69h1.5l.15,1.54h.07c.51-.51,1.05-.94,1.62-1.29,.56-.34,1.22-.52,1.97-.52,1.13,0,1.95,.35,2.48,1.06,.52,.7,.78,1.75,.78,3.12v6.78h-1.8v-6.53c0-1.01-.16-1.74-.48-2.19-.32-.45-.84-.67-1.54-.67-.56,0-1.05,.14-1.47,.42-.43,.28-.91,.69-1.45,1.23v7.74h-1.8Z" style="fill: #fff;"/>
      <path d="M112.04,549.86c-.9,0-1.64-.26-2.23-.79-.59-.53-.89-1.28-.89-2.24,0-1.17,.52-2.07,1.56-2.69,1.04-.62,2.71-1.06,4.99-1.31,0-.34-.03-.67-.1-.99-.07-.32-.18-.61-.34-.86-.16-.25-.38-.45-.67-.6-.29-.15-.65-.23-1.09-.23-.62,0-1.2,.12-1.74,.35-.54,.24-1.03,.5-1.45,.79l-.7-1.25c.5-.32,1.11-.63,1.83-.93,.72-.3,1.51-.45,2.38-.45,1.31,0,2.25,.4,2.84,1.2,.59,.8,.88,1.87,.88,3.2v6.56h-1.5l-.15-1.28h-.07c-.51,.43-1.06,.79-1.65,1.09-.59,.3-1.22,.45-1.89,.45Zm.53-1.45c.51,0,1-.12,1.45-.36s.94-.6,1.45-1.07v-2.97c-.9,.12-1.65,.26-2.26,.42s-1.1,.35-1.47,.57c-.37,.22-.65,.47-.81,.76-.17,.29-.25,.6-.25,.93,0,.62,.18,1.06,.55,1.32,.37,.26,.81,.4,1.34,.4Z" style="fill: #fff;"/>
      <path d="M124.27,554.52c-.66,0-1.26-.06-1.8-.19-.54-.12-1.01-.31-1.4-.56-.39-.25-.69-.55-.9-.9-.21-.35-.32-.76-.32-1.23s.14-.89,.42-1.3c.28-.41,.66-.78,1.14-1.12v-.09c-.26-.16-.49-.38-.67-.67s-.27-.64-.27-1.07c0-.45,.12-.85,.37-1.19,.25-.34,.51-.6,.79-.79v-.09c-.35-.29-.67-.69-.96-1.18-.29-.49-.43-1.06-.43-1.71,0-.59,.11-1.11,.32-1.58,.21-.47,.5-.87,.87-1.2,.37-.33,.8-.58,1.29-.76,.49-.18,1.01-.26,1.55-.26,.29,0,.57,.03,.82,.08s.49,.11,.69,.19h3.72v1.39h-2.2c.25,.25,.46,.56,.63,.95,.17,.38,.25,.8,.25,1.25,0,.57-.1,1.09-.31,1.55-.21,.46-.48,.85-.84,1.17s-.77,.56-1.24,.74c-.48,.18-.99,.26-1.53,.26-.26,0-.54-.03-.81-.1-.28-.07-.54-.16-.79-.27-.19,.16-.35,.34-.48,.54-.13,.2-.2,.44-.2,.74,0,.34,.13,.62,.4,.84,.26,.22,.76,.33,1.5,.33h2.07c1.25,0,2.18,.2,2.81,.61,.62,.4,.94,1.05,.94,1.95,0,.5-.12,.97-.37,1.42-.25,.45-.61,.84-1.08,1.18-.47,.34-1.04,.6-1.71,.8-.67,.2-1.42,.3-2.25,.3Zm.26-1.25c.51,0,.98-.06,1.4-.19,.42-.12,.77-.29,1.07-.48,.29-.2,.52-.43,.68-.69,.16-.26,.24-.54,.24-.81,0-.5-.18-.84-.55-1.03-.37-.19-.9-.29-1.61-.29h-1.85c-.21,0-.43-.01-.67-.03-.24-.02-.48-.07-.72-.14-.38,.28-.66,.57-.84,.88-.18,.31-.26,.62-.26,.92,0,.57,.27,1.03,.82,1.36,.55,.34,1.31,.51,2.28,.51Zm-.26-8.27c.31,0,.6-.06,.87-.18,.27-.12,.51-.29,.73-.51,.21-.22,.38-.49,.5-.8,.12-.32,.18-.67,.18-1.07,0-.79-.22-1.4-.66-1.84s-.98-.65-1.61-.65-1.17,.22-1.61,.65-.66,1.04-.66,1.84c0,.4,.06,.75,.18,1.07,.12,.32,.28,.58,.5,.8,.21,.22,.45,.39,.73,.51,.27,.12,.56,.18,.87,.18Z" style="fill: #fff;"/>
      <path d="M136.08,549.86c-.72,0-1.39-.13-2.01-.38-.62-.26-1.17-.62-1.63-1.1s-.83-1.06-1.09-1.75c-.26-.69-.4-1.47-.4-2.35s.14-1.67,.41-2.37c.27-.7,.63-1.29,1.08-1.77,.45-.48,.96-.85,1.53-1.11,.57-.26,1.17-.38,1.78-.38,.67,0,1.28,.12,1.81,.35,.54,.23,.98,.57,1.34,1.01,.36,.44,.63,.97,.83,1.58,.19,.62,.29,1.31,.29,2.07,0,.19,0,.38-.01,.56s-.03,.34-.06,.47h-7.22c.07,1.14,.43,2.05,1.07,2.72,.64,.67,1.47,1,2.5,1,.51,0,.99-.08,1.42-.23s.85-.36,1.24-.61l.64,1.19c-.47,.29-.99,.55-1.56,.77-.57,.22-1.23,.33-1.96,.33Zm-3.37-6.47h5.72c0-1.08-.23-1.91-.69-2.47-.46-.56-1.11-.85-1.95-.85-.38,0-.74,.07-1.09,.22-.34,.15-.66,.36-.94,.65-.28,.29-.51,.63-.69,1.04-.18,.41-.3,.88-.36,1.41Z" style="fill: #fff;"/>
      <path d="M142.66,549.59v-10.69h1.5l.15,1.54h.07c.47-.51,.98-.94,1.53-1.29,.55-.34,1.15-.52,1.79-.52,.82,0,1.46,.18,1.93,.54s.8,.86,1.02,1.51c.56-.62,1.12-1.11,1.68-1.48,.56-.37,1.18-.56,1.84-.56,1.1,0,1.92,.35,2.45,1.06,.54,.7,.8,1.75,.8,3.12v6.78h-1.8v-6.53c0-1.01-.16-1.74-.48-2.19s-.82-.67-1.5-.67c-.81,0-1.7,.55-2.68,1.65v7.74h-1.8v-6.53c0-1.01-.16-1.74-.48-2.19-.32-.45-.83-.67-1.52-.67-.81,0-1.7,.55-2.68,1.65v7.74h-1.8Z" style="fill: #fff;"/>
      <path d="M165.23,549.86c-.72,0-1.39-.13-2.01-.38-.62-.26-1.17-.62-1.63-1.1s-.83-1.06-1.09-1.75c-.26-.69-.4-1.47-.4-2.35s.14-1.67,.41-2.37c.27-.7,.63-1.29,1.08-1.77,.45-.48,.96-.85,1.53-1.11,.57-.26,1.17-.38,1.78-.38,.67,0,1.28,.12,1.81,.35,.54,.23,.98,.57,1.34,1.01,.36,.44,.63,.97,.83,1.58,.19,.62,.29,1.31,.29,2.07,0,.19,0,.38-.01,.56s-.03,.34-.06,.47h-7.22c.07,1.14,.43,2.05,1.07,2.72,.64,.67,1.47,1,2.5,1,.51,0,.99-.08,1.42-.23s.85-.36,1.24-.61l.64,1.19c-.47,.29-.99,.55-1.56,.77-.57,.22-1.23,.33-1.96,.33Zm-3.37-6.47h5.72c0-1.08-.23-1.91-.69-2.47-.46-.56-1.11-.85-1.95-.85-.38,0-.74,.07-1.09,.22-.34,.15-.66,.36-.94,.65-.28,.29-.51,.63-.69,1.04-.18,.41-.3,.88-.36,1.41Z" style="fill: #fff;"/>
      <path d="M171.81,549.59v-10.69h1.5l.15,1.54h.07c.51-.51,1.05-.94,1.62-1.29,.56-.34,1.22-.52,1.97-.52,1.13,0,1.95,.35,2.48,1.06,.52,.7,.78,1.75,.78,3.12v6.78h-1.8v-6.53c0-1.01-.16-1.74-.48-2.19-.32-.45-.84-.67-1.54-.67-.56,0-1.05,.14-1.47,.42-.43,.28-.91,.69-1.45,1.23v7.74h-1.8Z" style="fill: #fff;"/>
      <path d="M187.21,549.86c-.57,0-1.05-.09-1.44-.26s-.7-.42-.95-.73c-.24-.31-.41-.68-.52-1.12-.1-.44-.15-.92-.15-1.45v-5.92h-1.58v-1.36l1.67-.11,.22-2.99h1.52v2.99h2.88v1.47h-2.88v5.94c0,.66,.12,1.17,.36,1.53,.24,.36,.67,.54,1.29,.54,.19,0,.4-.03,.62-.09,.22-.06,.42-.12,.59-.2l.35,1.36c-.29,.1-.61,.19-.96,.27-.34,.08-.69,.12-1.02,.12Z" style="fill: #fff;"/>
    </g>
    <g>
      <g>
        <line x1="34.74" y1="179.27" x2="34.74" y2="201.94" style="fill: none; stroke: #fff; stroke-miterlimit: 10; stroke-width: 1.5px;"/>
        <line x1="46.18" y1="190.61" x2="23.5" y2="190.61" style="fill: none; stroke: #fff; stroke-miterlimit: 10; stroke-width: 1.5px;"/>
      </g>
      <g>
        <line x1="34.74" y1="264.31" x2="34.74" y2="286.98" style="fill: none; stroke: #fff; stroke-miterlimit: 10; stroke-width: 1.5px;"/>
        <line x1="46.18" y1="275.65" x2="23.5" y2="275.65" style="fill: none; stroke: #fff; stroke-miterlimit: 10; stroke-width: 1.5px;"/>
      </g>
      <g>
        <line x1="34.74" y1="349.35" x2="34.74" y2="372.02" style="fill: none; stroke: #fff; stroke-miterlimit: 10; stroke-width: 1.5px;"/>
        <line x1="46.18" y1="360.69" x2="23.5" y2="360.69" style="fill: none; stroke: #fff; stroke-miterlimit: 10; stroke-width: 1.5px;"/>
      </g>
      <g>
        <line x1="34.74" y1="434.39" x2="34.74" y2="457.06" style="fill: none; stroke: #fff; stroke-miterlimit: 10; stroke-width: 1.5px;"/>
        <line x1="46.18" y1="445.73" x2="23.5" y2="445.73" style="fill: none; stroke: #fff; stroke-miterlimit: 10; stroke-width: 1.5px;"/>
      </g>
      <g>
        <line x1="34.74" y1="519.43" x2="34.74" y2="542.1" style="fill: none; stroke: #fff; stroke-miterlimit: 10; stroke-width: 1.5px;"/>
        <line x1="46.18" y1="530.76" x2="23.5" y2="530.76" style="fill: none; stroke: #fff; stroke-miterlimit: 10; stroke-width: 1.5px;"/>
      </g>
    </g>
  </g>
</svg>