<?xml version="1.0" encoding="utf-8"?>
<!-- Generator: Adobe Illustrator 26.3.1, SVG Export Plug-In . SVG Version: 6.00 Build 0)  -->
<svg version="1.1" id="Ebene_1" xmlns="http://www.w3.org/2000/svg" xmlns:xlink="http://www.w3.org/1999/xlink" x="0px" y="0px"
	 viewBox="0 0 300 89.6" style="enable-background:new 0 0 300 89.6;" xml:space="preserve">
<style type="text/css">
	.st0{fill:#00ADEA;}
	.st1{fill:#0F4988;}
</style>
<g>
	<path class="st0" d="M30.4,76c1.1-2.5,2.7-4.8,5.2-7.6c2.9-3.2,6.4-6.2,11.3-9.4c4-2.7,8.4-4.9,12.6-6.9c0.1,0,1.7-0.7,1.8-0.8
		c-1.1-1.5-3.1-3.4-5.3-5.4c-1.5-1.4-3-2.8-4.6-4.1c-2.4-2.1-4.9-4.4-7.2-6.6c-2.3-1.9-4.2-4.1-5.9-6.2c-1.6-2-2.7-3.7-3.6-5.5
		c-1.2-2.5-1.8-4.8-1.8-7.1c-0.1-3.7,1.2-7.1,3.9-10.2c1.4-1.7,3.4-3.2,5.8-4.7c1-0.5,2-1,3-1.5c-0.3,0-0.5,0-0.8,0
		C20.1,0,0,20.1,0,44.8c0,19.7,12.7,36.4,30.4,42.4C29.4,85.4,29,83.4,29,81C29.1,79.5,29.5,77.8,30.4,76z"/>
	<path class="st1" d="M38.9,7.2c-1.8,1.9-3,4.1-3.4,6.4c-0.5,2.2-0.3,4.7,0.7,7.1c0.6,1.8,1.5,3.5,3,5.4c1.6,2.2,3.3,4.1,5.2,5.8
		c1.8,1.7,3.6,3.4,5.2,4.9c1.1,1,2.2,2,3.3,3c2.2,1.9,4.3,4,6.4,5.9c1.3,1.2,4.4,4.1,4.4,4.1c0,0.2,0.3-0.1,0.5-0.2
		c0.4-0.3,0.7-0.3,1-0.5c1.5-0.7,3.2-1.4,4.8-2.2c1.9-0.9,14.6-7.2,19-9.3C86,18.3,70.4,3,50.8,0.4c-2.3,0.7-4.5,1.6-6.5,2.7
		C42.1,4.3,40.4,5.6,38.9,7.2z"/>
	<path class="st1" d="M70.6,81.5c0.1-0.1,0.2-0.2,0.2-0.3c1.8-3,2.5-6.3,2.1-9.6c-0.3-2.5-0.9-4.9-2-7.4c-1.8-4.1-4.5-7.4-6.3-9.6
		c-0.3-0.4-0.5-0.7-1-1.2c-0.2-0.2-0.4-0.5-0.6-0.7c-0.3,0.2-2.8,1.4-3.7,1.9c-1.3,0.7-2.6,1.4-4.1,2c-4.3,2.1-8.5,4.8-12.5,8.1
		c-3.5,2.8-6.3,5.8-8.5,9.1c-1.2,1.7-1.9,3.4-2.4,5.1c-0.7,2.4-0.4,4.8,0.5,6.9c0.4,0.9,1,1.6,1.6,2.3c3.5,0.9,7.2,1.4,10.9,1.4
		C54.4,89.6,63.3,86.6,70.6,81.5z"/>
	<path class="st0" d="M66.9,50.9c-0.3,0.1-1.1,0.5-1.4,0.7v0.1c0.3,0.3,4.9,6.3,6.2,8.5c2,3.5,3.2,6.8,3.7,10.2
		c0.4,2.6,0.2,5.2-0.5,7.6c9.1-8.2,14.8-20.1,14.8-33.3c0-1.6-0.1-3.3-0.3-4.8c-1.2,0.6-2.4,1.1-3.1,1.5
		C84.4,42.3,68.8,50,66.9,50.9z"/>
</g>
<path class="st0" d="M114,22.6l-8.6,0c-2.1,6.1-5.1,8.9-7.8,12l4.7-3.4l7.3,5.3l-2.8-8.6L114,22.6z"/>
<path class="st1" d="M102.2,14l-2.8,8.6l-9,0l7.3,5.3c0,0-2,2.8-3.3,4.4c-1.6,1.9-5.3,5.6-5.3,5.6c7.1-3.3,13.6-10.9,15.9-15.5
	L102.2,14z"/>
<g>
	<path class="st0" d="M136.2,52.6c0,1.4-0.4,2.6-1.1,3.7c0-0.4-0.1-0.7-0.1-1c-0.6-2.8-3.1-6-7.1-6h-8.1v6.1h8.5
		c1.2,0,2.2-0.7,2.7-1.8c1.3,1.9,1.4,5.5-3.5,5.5h-11.8V36.5h13.1c3.4,0,6.2,2.8,6.2,6.2c0,2.4-1.8,4-2.7,4.6
		C133.4,47.8,136.2,49.6,136.2,52.6z M130.6,42.9c0-1.5-1.2-2.7-2.7-2.7h-8.2v5.4h8.2C129.4,45.6,130.6,44.4,130.6,42.9z"/>
	<path class="st0" d="M156.6,55.2v3.9h-15.9V36.5h4.2v18.7H156.6z"/>
	<path class="st0" d="M170.3,60.1c-5.8,0-10.3-4.7-10.3-10.3V36.5h4.3v14.5C164.3,55,166.8,58.5,170.3,60.1z M181.4,36.5v12.7
		c0,4.8-3,8.7-7,8.7c-2.4,0-4.4-1.3-5.7-3.1c0.6,0.2,1.3,0.3,2,0.3c3.6,0,6.4-2.4,6.4-5.9V36.5H181.4z"/>
	<path class="st0" d="M191.8,40.3v5.5h11.6v3.9h-11.6v5.4h14.1v3.9h-18.3V36.5h18.3v3.9H191.8z"/>
	<path class="st1" d="M225,56.9c0,1.5-1.7,2.9-5.8,2.9c-3.3,0-6.3-0.9-9.3-2.6l2.1-3.4c2.3,1.3,4.9,2.1,7.3,2.1
		c2.1,0,3.7-0.4,4.5-1.1C224.6,55.2,225,55.9,225,56.9z M229.2,52.9c0,1.3-0.4,2.4-0.9,3.3c-0.4-3.5-5-5.4-9.6-6.8
		c-3.9-1.2-8.3-2.6-8.3-7.2c0-1.8,0.8-3.3,2.3-4.4c1.6-1.2,4-1.8,7-1.8c3.1,0,5.8,0.8,8.8,2.5l-2,3.2c-2.3-1.3-4.5-2-6.9-2
		c-3.2,0-4.7,1-4.7,2.4c0,2.2,2.8,2.9,5.9,3.9C224.5,47,229.2,48.6,229.2,52.9z"/>
	<path class="st1" d="M252.1,36.5v3.9h-7.9v18.7H240V40.4H232v-3.9H252.1z"/>
	<path class="st1" d="M275.2,59.1H271l-2-5.1h-11.1l-2,5.1h-4.2l9.1-22.7h5.5L275.2,59.1z M267.4,50.2l-4-10l-4,10H267.4z"/>
	<path class="st1" d="M300,59.1h-4.9l-5.2-7H283v7h-4.2V36.5h4.2c3.3,0,7.5,0,8.1,0c2.5,0,4.7,1.4,4.7,3.7c0,1.7-0.7,3-1.8,4
		c-0.1-1.9-1.7-3.7-3.7-3.7H283v7.6h8.9c3.7,0,6-2.9,6.8-6.1c0.2,0.7,0.3,1.5,0.3,2.3c0,3.2-2,6-4.8,7.2L300,59.1z"/>
</g>
<g>
	<path class="st1" d="M192.6,79.4h-1.9v-6.7l-3.2,4.4h-1.1l-3.2-4.4v6.7h-1.9V69.2h1.5L187,75l4.1-5.8h1.5V79.4z"/>
	<path class="st1" d="M207.8,79.4h-1.9l-0.9-2.3h-5l-0.9,2.3h-1.9l4.1-10.3h2.5L207.8,79.4z M204.3,75.4l-1.8-4.5l-1.8,4.5H204.3z"
		/>
	<path class="st1" d="M221.9,79.4h-2.2l-2.4-3.2h-3.1v3.2h-1.9V69.2h5.4c2,0,3.6,1.6,3.6,3.5c0,1.4-0.8,2.6-2,3.2L221.9,79.4z
		 M219.4,72.7c0-1-0.8-1.7-1.8-1.7h-3.4v3.4h3.4C218.6,74.4,219.4,73.7,219.4,72.7z"/>
	<path class="st1" d="M231,73.9l4.9,5.6h-2.4l-3.8-4.3l-1.3,1.4v2.8h-1.9V69.2h1.9v4.9l4.7-4.9h2.4L231,73.9z"/>
	<path class="st1" d="M242.4,70.9v2.5h5.3v1.8h-5.3v2.5h6.4v1.8h-8.3V69.2h8.3v1.8H242.4z"/>
	<path class="st1" d="M262.5,69.2v1.8h-3.6v8.5h-1.9v-8.5h-3.6v-1.8H262.5z"/>
	<path class="st1" d="M267.6,69.2h1.9v10.3h-1.9V69.2z"/>
	<path class="st1" d="M283.2,79.4l-6.1-7v7h-1.9V69.2h1.4l6.1,7v-7h1.9v10.3H283.2z"/>
	<path class="st1" d="M300,73.7c0,0.2,0,0.4,0,0.6c0,1.5-0.5,2.8-1.3,3.8c-0.9,1.1-2.3,1.6-3.8,1.6c-3,0-5.4-2.4-5.4-5.4
		c0-3,2.4-5.4,5.4-5.4c1.7,0,3.4,0.9,4.4,2.2l-1.6,1.1c-0.7-0.9-1.7-1.4-2.8-1.4c-1.9,0-3.5,1.6-3.5,3.5c0,1.9,1.6,3.5,3.5,3.5
		c1.7,0,2.7-1.1,3.1-2.3h-2.7v-1.8H300z"/>
</g>
</svg>
