<?xml version="1.0" encoding="utf-8"?>
<!-- Generator: Adobe Illustrator 27.2.0, SVG Export Plug-In . SVG Version: 6.00 Build 0)  -->
<svg version="1.1" xmlns="http://www.w3.org/2000/svg" xmlns:xlink="http://www.w3.org/1999/xlink" x="0px" y="0px"
	 viewBox="0 0 99.9 94.6" style="enable-background:new 0 0 99.9 94.6;" xml:space="preserve">
<style type="text/css">
	.st0{clip-path:url(#SVGID_00000018230082465306599830000001806948086943830697_);}
	.st1{clip-path:url(#SVGID_00000018230082465306599830000001806948086943830697_);fill:#162259;}
	.st2{clip-path:url(#SVGID_00000018230082465306599830000001806948086943830697_);fill:#E50069;}
	.st3{fill:#E50069;}
	.st4{clip-path:url(#SVGID_00000160894247571005356520000001506288171869542836_);fill:#E50069;}
</style>
<g id="Ebene_2">
</g>
<g id="Ebene_1">
	<g>
		<defs>
			<rect id="SVGID_1_" width="99.9" height="94.6"/>
		</defs>
		<clipPath id="SVGID_00000141414827697197262690000008305207606739540383_">
			<use xlink:href="#SVGID_1_"  style="overflow:visible;"/>
		</clipPath>
		<path style="clip-path:url(#SVGID_00000141414827697197262690000008305207606739540383_);" d="M54.9,22.6c0.4,0,0.7-0.4,0.7-0.7
			s-0.3-0.7-0.7-0.7c-0.4,0-0.7,0.3-0.7,0.7C54.3,22.2,54.5,22.6,54.9,22.6"/>
		<path style="clip-path:url(#SVGID_00000141414827697197262690000008305207606739540383_);fill:#162259;" d="M42.6,55.5
			c-0.3,1-0.7,2-1.2,3c-0.2,0.4-0.5,0.8-0.7,1.2c-0.7,0.8-1.7,0.7-2.3,0c-0.3-0.3-0.4-0.6-0.5-0.9c0.6-1.8,1.3-3.5,2-5.1
			c1.1-2.3,2.3-4.2,3.7-5.9c0.5-0.6,1-1.1,1.5-1.6C44.4,49.4,43.6,52.4,42.6,55.5 M39.7,49.7c1-2.5,2.2-4.8,3.5-7.2
			c0.8-1.3,1.6-2.7,2.4-4c0.1-0.2,0.3-0.4,0.4-0.6c0.1-0.1,0.1-0.2,0.2-0.3c0,0.8-0.1,2-0.2,2.7c-0.2,1.3-0.4,2.6-0.6,3.9
			c-0.5,0.4-1.1,0.8-1.6,1.4c-1,1-2,2.2-2.9,3.6c-1,1.5-1.9,3.2-2.8,5.1C38.5,52.7,39.1,51.2,39.7,49.7 M52.9,30.9
			c0,1,0.2,2,0.7,2.8c0.5,0.8,1.1,1.3,2,1.4c0.7,0.1,1.3-0.1,1.9-0.4c0.9-0.4,1.5-1.4,2.1-2.5c0.1,0.5,0.2,1,0.4,1.4
			c0.6,1.1,1.4,1.5,2.7,1.5c4.2-0.4,7.1-4.1,8.8-7.7c0.7-1.2-0.4-1.4-0.9-0.7c-1.9,3.1-3.4,6.3-7.9,7.1c-1.1,0.1-1.6-1.1-1.7-1.8
			c-0.3-2.2,0.1-3.4,1-4.6c0.1-0.2,0.3-0.3,0.5-0.4c0.1,0,0.2-0.1,0.3-0.1c0.6-0.1,0,1.7,0.2,2.4c0.1,0.4,0.6,0.5,0.8,0.2
			c0.4-0.4,0.6-1.9,0.4-2.7c-0.3-1.1-1.3-1.6-2.3-1c-0.3,0.2-0.6,0.4-0.8,0.6c-0.2,0-0.3,0.1-0.4,0.3c-0.1,0.2-0.2,0.4-0.3,0.6
			c-0.1,0.2-0.2,0.5-0.3,0.7c-1,2.2-1.9,5.1-3.4,5.6C56,34,55.4,33.8,55,33.2c-0.2-0.3-0.4-0.7-0.5-1.1c-0.3-1.1-0.2-2.1-0.1-3.2
			c0-0.8,0.2-1.5,0.3-2.3c0-0.3,0-0.5,0-0.8c0-0.3-0.1-0.6-0.4-0.7c-0.5-0.2-0.8,0.4-1,1.3c0,0,0,0,0,0c-1.5,1.4-4.1,4.3-5.3,6v-2.2
			c0-0.5-0.4-0.9-0.7-1c-0.3-0.1-0.7,0-0.9,0.5c-0.1,0.1-0.1,0.2-0.2,0.4c-0.2,0.4-0.4,0.8-0.6,1.2c-0.3,0.6-0.6,1.1-0.9,1.6
			c-0.3,0.4-0.6,0.7-1.1,0.9c-0.5,0.2-0.9,0-1-0.5c-0.2-1.4-0.1-4,1.4-5.5c0.7-0.6,1.8-0.7,1.6,0.4c-0.1,0.3-0.1,0.6-0.2,0.9
			c0,0.2,0.1,0.4,0.3,0.5c0.2,0.1,0.4,0,0.6,0c0,0,0.1-0.1,0.2-0.2c0.3-0.5,0.5-1,0.5-1.5c0-1.2-1.7-2-3-1.5
			c-0.1,0.1-0.3,0.1-0.4,0.2c-0.2-0.1-0.6,0-0.8,0.4c0,0,0,0-0.1,0.1c0,0,0,0,0,0.1c-0.7,1-1.2,2-1.8,3.1c-0.9,1.4-2,4-2.5,3.8
			c-0.3-0.1-0.4-0.4-0.5-0.6c-0.2-0.5-0.3-1-0.3-1.5c0-0.5,0-1,0-1.5c0-0.3,0-0.5,0.1-0.8c0-0.5-0.2-0.8-0.5-0.9
			c-0.3-0.1-0.7,0-0.9,0.5c-0.1,0.1-0.1,0.3-0.2,0.5c-0.2,0.4-0.3,0.8-0.6,1.2c-0.3,0.6-0.6,1.1-0.9,1.6c-0.3,0.4-0.6,0.7-1.1,0.9
			c-0.5,0.2-0.9,0-1-0.5c-0.2-1.4-0.2-4,1.3-5.6c0.6-0.6,1.8-0.8,1.6,0.3c-0.1,0.3-0.1,0.6-0.2,0.9c0,0.2,0.1,0.4,0.3,0.5
			c0.2,0.1,0.4,0,0.6-0.1c0,0,0.1-0.1,0.2-0.2c0.3-0.5,0.5-1,0.5-1.5c0-1.2-1.7-2-3-1.4c-0.4,0.2-0.7,0.5-1.1,0.8
			c-1.8,1.9-2.3,5.2-1.4,7.1c0.4,0.9,1.1,1.3,2,1.2c0.3,0,0.7-0.2,1-0.3c0.6-0.3,1-0.7,1.4-1.3c0.1-0.2,0.3-0.4,0.5-0.7
			c0,0,0.1,0.5,0.1,0.6c0.3,0.9,0.6,2.2,1.7,2.4c0.6,0,1.2-0.3,1.6-0.7c0.3-0.3,0.8-1.1,1.3-2.1c0,0.6,0.2,1.1,0.3,1.6
			c0.3,0.9,1,1.3,2,1.3c0.3,0,0.7-0.2,1-0.3c0.6-0.2,1-0.7,1.4-1.3c0.1-0.2,0.6-0.8,0.7-1.1c0,0,0,1.1,0,2.3c0,0.3-0.2,0.5-0.3,0.7
			c-1.2,1.9-2.4,3.8-3.5,5.7c-1.6,2.7-3.1,5.6-4.3,8.6c-0.7,1.6-1.2,3.3-1.6,5c-0.2,1-0.4,2-0.3,3.1c0,0.3,0.1,0.6,0.1,0.9
			c-0.6,1.9-1.2,3.8-1.6,5.6v0.1c0,0.1,0,0.3-0.1,0.4c0-0.4-0.1-0.7-0.1-1.1c0-0.9-0.1-1.8-0.3-2.7c-0.1-1.4-0.4-3-0.9-4.7
			c-0.4-1.1-0.7-2-1.2-2.6c-0.6-0.9-1.3-1.5-2-2c-0.2-0.1-0.3-0.2-0.5-0.2c0,0,0,0,0-0.1c-0.3-0.5-0.3-1-0.3-1.5
			c-0.1-1.2-0.2-2.3-0.2-3.4c0-5.3,0-10.5,0-15.7c0-3.4,0.1-6.8,0.3-10.1c0.2-4.9,0.3-9.7,0.3-14.6c0-1.2-0.1-2.5-0.3-3.6
			c-0.1-0.4-0.2-0.8-0.3-1.2c-0.5-1.1-1.4-1.2-2.1-0.2c-0.3,0.4-0.5,0.8-0.7,1.3c-0.3,0.7-0.6,1.4-0.8,2.2c-1.2,3.3-2.4,6.6-3.9,9.8
			c-1.2,2.7-2.5,5.4-4,8c-0.6,1.1-1.3,2-2.1,3c-0.5,0.6-1.1,1.2-1.7,1.5c-1,0.6-1.9,0.6-2.7-0.2c-0.5-0.5-0.9-1-1.3-1.5
			c-0.8-1.2-1.4-2.5-2-3.9C7,19.7,6.4,17.8,6,15.8c-0.8-3.3-1.5-6.6-2.2-10c-0.3-1.5-0.7-3-1-4.5c0-0.3-0.1-0.6-0.3-0.8
			C2.2,0.2,2,0,1.6,0C1.2,0,1,0.3,0.9,0.6C0.8,1,0.7,1.3,0.7,1.7c0,1.9-0.1,3.8-0.2,5.8c0,3.8,0,7.5-0.1,11.3
			C0.3,24.7,0,30.7,0,36.7c0,3,0.1,6,0.3,9c0,0.3,0,0.5,0.1,0.8C0.5,46.9,0.7,47,1.1,47c0.3,0,0.6-0.2,0.6-0.7v-1.4
			c0-0.9-0.1-1.8-0.2-2.6c-0.1-4.5,0-8.9,0-13.3c0-4,0.2-8,0.3-12.1c0-3.5,0-7,0.1-10.5V5.1H2c0,0.3,0.2,0.5,0.2,0.8
			c0.3,1.6,0.7,3.2,1,4.8c0.6,2.5,1.1,5,1.8,7.5c0.6,2.1,1.3,4.1,2.3,6c0.5,0.9,1,1.8,1.6,2.6c0.3,0.5,0.8,0.9,1.3,1.3
			c1.2,0.9,2.5,1.1,3.8,0.4c0.4-0.2,0.8-0.5,1.3-0.8c0.7-0.6,1.3-1.3,1.9-2.1c0.7-1.1,1.4-2.1,2-3.3c1.9-3.3,3.4-6.8,4.8-10.4
			c1.1-2.7,2-5.4,3.1-8c0.1-0.4,0.2-0.8,0.6-1.2c0.1,0.6,0.2,1,0.2,1.5c0,1.5,0.1,3,0.1,4.5c0,4.7-0.2,9.4-0.4,14.1
			c-0.1,2.7-0.2,5.5-0.2,8.2c0,5,0,9.9,0.1,14.9c0,1.5,0.1,3.1,0.2,4.6c0,0.4,0.1,0.7,0.2,1.1c0,0,0,0,0,0c-0.3,0.1-0.5,0.2-0.8,0.4
			c-0.3,0.3-0.6,0.6-0.9,1c-0.3,0.4-0.6,0.8-0.9,1.3c-1.1,2-2,4-2.6,6.1c-0.8,2.8-1.3,5.8-1.6,8.6c0,0.5-0.1,0.9-0.2,1.3
			c0,0,0,0,0,0c0,0,0,0,0-0.1l-0.1-0.9c-0.3-1.9-0.7-3.8-1-5.7c-0.1-0.7-0.2-1.5-0.3-2.2c0-0.4-0.1-0.8-0.1-1.3
			c0-0.3-0.1-0.6-0.2-0.9c0-0.3-0.3-0.5-0.6-0.5h0c-0.3,0-0.5,0.3-0.5,0.6c0,0.3,0,0.5,0,0.7c0.1,0.5,0.1,1,0.2,1.5
			c0.2,1.6,0.5,3.2,0.7,4.8c0.1,0.4,0.2,0.9,0.2,1.3c0.4,2.2,0.7,4.5,1,6.7c0.2,1.9,0.5,3.9,0.7,5.7L21,81c0,0.2,0,0.4,0.1,0.7
			c0.1,0.2,0.3,0.4,0.6,0.4c0,0,0,0,0.1,0c0.3,0,0.5-0.2,0.6-0.5c0-0.2,0-0.4,0-0.6c0-0.3,0-0.6,0-0.8c0-0.2,0-0.5,0-0.7
			c-0.1-2-0.2-4.5,0-6.9c0-0.9,0.1-1.8,0.3-2.7c0-0.2,0-0.4,0-0.6c0.3-2.6,0.7-4.8,1.2-6.8c0.7-2.6,1.6-5.2,3-7.5
			c0.3-0.5,0.6-0.9,0.9-1.3c0.4-0.5,0.8-0.7,1.2-0.7c0.3,0,0.7,0.2,1.2,0.6c0.5,0.4,0.9,1,1.3,1.7c0.4,0.7,0.7,1.5,1,2.6
			c0.5,2,0.8,4.2,1,6.8c0,1.4,0.1,2.9,0.1,4.3v0.7c0,1.3,0.1,2.7-0.1,4v0.6v0c0,0.1,0,0.3,0,0.4c0.1,0.3,0.4,0.6,0.6,0.6h0
			c0.3,0,0.6-0.2,0.7-0.5c0-0.2,0.1-0.3,0.1-0.6c0-0.2,0-0.4,0-0.6V73c0-0.2,0-0.4,0-0.6c0-0.5,0.1-1,0.1-1.5
			c0.4-2.2,0.8-4.8,1.5-7.5c0.3-1,0.5-2,0.8-2.9c0.1,0.1,0.1,0.2,0.2,0.2c1.1,1.1,2.9,1.2,4-0.1c0.4-0.4,0.7-0.9,1-1.4
			c0.4-0.8,0.7-1.6,1.1-2.4c1.1-3.1,2-6.2,2.6-9.4c0.2-0.8,0.3-1.6,0.5-2.4c0.5-0.3,1-0.5,1.5-0.6c0.2,0,0.5-0.1,0.7-0.1
			c0.9,0,1.7,0.4,2.2,1.2c0.2,0.3,0.4,0.6,0.5,0.9c0.1,0.5,0.3,0.9,0.4,1.4c0.5,2,0.5,3.9,0.4,5.3c-0.2,5.3-0.6,10.6-1,15.8l0,0.5
			c-0.1,1.5-0.2,3.1-0.3,4.6c-0.2,2.4-0.4,4.9-0.6,7.4c-0.1,2.2-0.3,4.5-0.5,6.6c-0.1,0.9-0.1,1.8-0.2,2.7c0,0.1,0,0.2,0,0.4
			c0,0.3,0,0.7-0.1,1.1c0,0.2,0,0.4,0.1,0.6c0,0.2,0.3,0.5,0.6,0.5c0,0,0,0,0,0c0.3,0,0.5-0.1,0.6-0.4c0-0.1,0-0.3,0.1-0.4
			c0-0.3,0-0.6,0-0.8c0.1-0.7,0.2-1.5,0.2-2.3c0.1-1.7,0.2-3.3,0.3-5c0.1-1.7,0.2-3.4,0.4-5.1c0.1-1.1,0.2-2.2,0.3-3.3
			c0-0.9,0.1-1.8,0.2-2.7l0-0.6c0.3-3.5,0.6-7.2,0.8-10.8c0.1-2.4,0.3-4.7,0.4-6.8c0-0.2,0-0.5,0-0.7c0-1.3,0.1-2.7,0-4.1
			c-0.1-1.5-0.3-2.8-0.7-3.9c-0.2-0.7-0.5-1.2-0.7-1.7c-0.8-1.2-2-1.9-3.4-1.9h0c-0.6,0-1.2,0.1-1.8,0.4c0.2-1.4,0.4-2.8,0.5-4.2
			c0.1-1.2,0.2-2.4,0.3-3.5c0-0.4,0.1-0.7,0.3-1c1-1.6,3-4,4.8-6C52.9,29.7,52.9,30.7,52.9,30.9"/>
		<path style="clip-path:url(#SVGID_00000141414827697197262690000008305207606739540383_);fill:#162259;" d="M57.5,73.2
			c-0.4,0.5-1,0.4-1.2-0.2c-0.3-0.9,0.1-4,0.9-4.9c0.1-0.2,0.4-0.4,0.6-0.6c0.4-0.3,1-0.2,1.3,0.1c0.3,0.3,0.5,0.7,0.7,1.3
			C59.8,70.5,58.3,72.4,57.5,73.2 M60,66.7c-0.8-0.8-2-0.9-2.9-0.3c-0.4,0.2-0.7,0.5-0.9,0.8c-1.2,1.4-1.8,3.6-1.4,5.5
			c0.1,0.6,0.3,1.2,0.8,1.6c0.3,0.4,0.8,0.6,1.3,0.6c0.6,0,1.1-0.2,1.5-0.6c0.7-0.5,1.3-1.4,1.6-2.1c0,1,0,1.7,0.1,2.5
			c0,0.9,0.1,1.7,0.8,1.7c0.5,0,0.5-0.9,0.5-1.8c0-0.6,0-1.1,0-1.6c0-0.9,0-1.9,0-2.7c0-1.2-0.5-2.2-1.1-3.2
			C60.2,66.9,60.1,66.8,60,66.7"/>
		<path style="clip-path:url(#SVGID_00000141414827697197262690000008305207606739540383_);fill:#162259;" d="M64.8,61.2
			c0.1,0,0.2-0.1,0.3-0.1c0.3,0,0.7,0,1.1-0.1c0,0.2-0.1,0.3-0.1,0.4c-0.5,1.7-1.1,3.4-1.8,5c0,0-0.1,0.1-0.2,0.2
			C64.3,64.8,64.5,63,64.8,61.2 M67.9,50.9c0,0.1,0.1,0.2,0.1,0.3c-0.1,2.8-0.7,5.6-1.3,8.4c-0.6,0.1-1,0.1-1.4,0
			C65.2,58,66.9,52.4,67.9,50.9 M64.3,79.1C64,76.5,64,74,64,71.4c0-0.6,0.1-1.2,0.4-1.7c1.2-2.6,2.2-5.2,3-8
			c0.1-0.3,0.2-0.5,0.3-0.8c1,0.1,1.9,0.1,2.7,0.3c0.8,0.2,1.4-1.3,0.1-1.4c-1.3-0.2-1.6-0.2-2.4-0.4c0-0.2,0.1-0.4,0.1-0.6
			c0.3-1.7,0.7-3.3,0.9-5c0.2-1.3,0.4-2.7,0.3-4c0-0.4-0.1-0.8-0.2-1.2c-0.2-0.6-0.9-0.7-1.3-0.3c-0.2,0.2-0.4,0.4-0.6,0.7
			c-0.4,0.7-0.7,1.3-1,2c-1.1,2.5-1.8,5.1-2.4,7.8c-0.1,0.3-0.2,0.6-0.2,0.9c-0.1,0-1.3,0.2-1.8,0.3c-0.3,0-0.7,0.1-1.1,0.3
			c-0.3,0.1-0.5,0.4-0.4,0.7c0,0.3,0.3,0.5,0.7,0.4c0.3,0,0.6-0.1,0.9-0.2c0.5,0,0.9-0.2,1.4-0.1c0,0.3,0,0.7-0.1,1
			c-0.1,1.3-0.3,2.6-0.4,3.9c-0.1,1.2-0.1,2.3-0.2,3.5c0,0.4-0.2,2.5-0.1,3.9c0.1,1.7,0.2,3.4,0.3,5.2c0.1,1.8,0.3,3.5,0.5,5.3
			c0.2,1.8,0.5,3.6,0.7,5.4c0.2,1.4,0.4,2.9,0.6,4.3c0,0.2,0.1,0.5,0.2,0.7c0.1,0.2,0.4,0.3,0.7,0.2c0.2-0.1,0.5-0.3,0.5-0.6v-0.3
			c-0.2-1.5-0.4-3.1-0.7-4.7C65,85.7,64.5,82.4,64.3,79.1"/>
		<path style="clip-path:url(#SVGID_00000141414827697197262690000008305207606739540383_);fill:#162259;" d="M80.5,76.6
			c-0.1,0.7-0.4,1.3-0.8,1.9c-0.2,0.3-0.5,0.6-0.9,0.8c-0.5,0.3-0.9,0.1-1.2-0.3c-0.3-0.5-0.5-1-0.4-1.5c0-0.5,0.1-0.9,0.3-1.3
			c0.4-1,1.4-2.2,2.4-2.9C80.5,74.3,80.7,75.4,80.5,76.6 M69.5,67.4c0,0.8-0.4,1.6-1.3,2.2C68.2,68.9,69.1,67.8,69.5,67.4
			 M86.6,67.1c-1.9,0.7-3.8,2-6,3.8c-0.4-0.6-2.4-4-2.7-4.6c-0.3-0.7,0.3-1.5,0.9-1.4c0.3,0,0.5-0.1,0.6-0.4c0.1-0.3,0-0.7-0.2-0.9
			c-0.3-0.2-0.6-0.2-1-0.1c-1.5,0.5-2.2,2.2-1.5,3.6c0,0.1,0.1,0.3,0.2,0.4c0,0.1,0.1,0.2,0.1,0.2c0,0-0.1,0.1-0.1,0.1
			c-1,2.5-4.2,6.5-7.1,6.3c-0.7,0-1.2-0.3-1.7-0.8c-0.5-0.5-0.7-1-0.7-1.8c0.2-0.1,0.4-0.2,0.6-0.3c1.4-0.7,2.3-1.9,2.7-3.4
			c0.1-0.4,0.1-0.7,0.1-1.1c-0.2-0.7-0.7-1-1.4-0.9c-0.2,0-0.4,0.1-0.6,0.2c-0.3,0.2-0.7,0.5-0.9,0.8c-0.7,0.8-1.2,1.7-1.5,2.6
			c-0.1,0.2-0.2,0.4-0.3,0.7c-0.1,0.6-0.2,1.6,0,2.5c0.5,2,2.4,3.2,4.5,2.9c3.2-0.5,6-4.3,7-6.4c0.3,0.6,0.7,1.2,1,1.9
			c0.1,0.2,0.2,0.5,0.3,0.7c-0.2,0.2-0.5,0.4-0.7,0.7c-0.7,0.7-1.3,1.3-1.8,2.1c-0.5,0.8-0.8,1.6-0.9,2.6c-0.1,0.9,0.1,1.8,0.6,2.6
			c0.7,1.2,2,1.4,3.2,0.8c0.6-0.3,1-0.7,1.3-1.3c1-1.5,1.4-3.1,1-4.9c-0.2-0.7-0.4-1.4-0.7-2.1c2.5-2.1,4.1-3.2,6.1-4
			C88.2,67.6,87.6,66.7,86.6,67.1"/>
		<path style="clip-path:url(#SVGID_00000141414827697197262690000008305207606739540383_);fill:#E50069;" d="M37,9.7V0h1.5l1.9,5.2
			c0.1,0.3,0.2,0.7,0.3,1c0.1,0.3,0.2,0.7,0.3,1h0.1c0.1-0.3,0.2-0.7,0.3-1c0.1-0.3,0.2-0.7,0.3-1L43.6,0h1.5v9.7h-1.2V4.4
			c0-0.4,0-0.9,0.1-1.4c0-0.5,0.1-1,0.1-1.4H44l-0.8,2.2l-1.8,5h-0.8l-1.8-5L38,1.5H38c0,0.4,0.1,0.9,0.1,1.4c0,0.5,0.1,1,0.1,1.4
			v5.3H37z"/>
	</g>
	<polygon class="st3" points="48.5,0 48.5,9.7 54.2,9.7 54.2,8.7 49.7,8.7 49.7,5.1 53.4,5.1 53.4,4.1 49.7,4.1 49.7,1 54.1,1 
		54.1,0 	"/>
	<polygon class="st3" points="57,0 57,9.7 62.8,9.7 62.8,8.7 58.3,8.7 58.3,5.1 61.9,5.1 61.9,4.1 58.3,4.1 58.3,1 62.6,1 62.6,0 	
		"/>
	<polygon class="st3" points="64.6,0 64.6,1 67.6,1 67.6,9.7 68.8,9.7 68.8,1 71.7,1 71.7,0 	"/>
	<g>
		<defs>
			<rect id="SVGID_00000130633882290295905450000007993130540916091800_" width="99.9" height="94.6"/>
		</defs>
		<clipPath id="SVGID_00000087405982030784425890000016632917572128062629_">
			<use xlink:href="#SVGID_00000130633882290295905450000007993130540916091800_"  style="overflow:visible;"/>
		</clipPath>
		<path style="clip-path:url(#SVGID_00000087405982030784425890000016632917572128062629_);fill:#E50069;" d="M99.9,60.1l-3.6,0
			c-0.8,2.5-2.1,3.7-3.2,4.9l1.9-1.4l3,2.2l-1.1-3.5L99.9,60.1z"/>
		<path style="clip-path:url(#SVGID_00000087405982030784425890000016632917572128062629_);fill:#E50069;" d="M95.1,56.6l-1.1,3.5
			l-3.7,0l3,2.2c0,0-0.8,1.1-1.4,1.8c-0.7,0.8-2.2,2.3-2.2,2.3c2.9-1.4,5.6-4.5,6.5-6.4L95.1,56.6z"/>
	</g>
</g>
</svg>
